<?xml version="1.0" encoding="utf-8"?>
<!-- Generator: Adobe Illustrator 26.0.2, SVG Export Plug-In . SVG Version: 6.00 Build 0)  -->
<svg version="1.1" id="レイヤー_1" xmlns="http://www.w3.org/2000/svg" xmlns:xlink="http://www.w3.org/1999/xlink" x="0px"
	 y="0px" viewBox="0 0 200 200" style="enable-background:new 0 0 200 200;" xml:space="preserve">
<style type="text/css">
	.st0{fill:#F0F5F8;}
	.st1{enable-background:new    ;}
	.st2{fill:#06438D;}
	.st3{fill:#FFFFFF;}
	.st4{fill:#4F555B;}
	.st5{fill:#FAA49B;}
</style>
<g id="グループ_120" transform="translate(1444 -3341)">
	<g id="グループ_110">
		<path id="長方形_57" class="st0" d="M-1424,3341h160c11,0,20,9,20,20v160c0,11-9,20-20,20h-160c-11,0-20-9-20-20v-160
			C-1444,3350-1435,3341-1424,3341z"/>
		<g class="st1">
			<path class="st2" d="M-1386.2,3496.9c1.5-1.8,2.7-3.9,3.4-6.6c0.2-0.7,0.3-1.3,0.3-1.8c0.6,0.1,1.3,0.4,2.2,0.7
				c0.2,0.1,0.4,0.2,0.4,0.3c0,0.1-0.1,0.2-0.2,0.3c-0.2,0.2-0.3,0.5-0.4,0.8c-0.8,2.7-1.9,5-3.3,7c-0.2,0.3-0.3,0.4-0.4,0.4
				c-0.1,0-0.2-0.1-0.5-0.3C-1385.1,3497.5-1385.6,3497.2-1386.2,3496.9z M-1380.8,3499.5c0.7,0.1,1.4,0.1,2.2,0.1
				c0.4,0,0.6-0.1,0.7-0.2c0.1-0.1,0.2-0.3,0.2-0.6V3487c0-1.3-0.1-2.3-0.2-3c0.9,0,1.7,0.1,2.4,0.2c0.2,0,0.4,0.1,0.4,0.2
				c0,0.1-0.1,0.2-0.2,0.5c-0.1,0.2-0.1,0.9-0.1,2.1v8.3l0.1,4.2c0,1.1-0.3,1.8-0.8,2.1c-0.3,0.2-0.7,0.3-1.2,0.4
				c-0.5,0.1-1.2,0.1-2.2,0.1c-0.3,0-0.5,0-0.6-0.1c-0.1-0.1-0.1-0.2-0.2-0.6C-1380.4,3500.5-1380.6,3499.9-1380.8,3499.5z
				 M-1366.8,3496.7c-0.6,0.3-1.1,0.7-1.6,1.1c-0.2,0.2-0.4,0.3-0.5,0.3c-0.1,0-0.2-0.1-0.4-0.4c-0.8-1.2-1.5-2.6-2.2-4.2
				c-0.6-1.4-1.1-2.8-1.5-4c0-0.1,0-0.1,0-0.2c0-0.1,0.1-0.2,0.3-0.2l1.5-0.5c0.1,0,0.2-0.1,0.2-0.1c0.1,0,0.1,0.1,0.1,0.2
				C-1369.9,3491.7-1368.6,3494.3-1366.8,3496.7z"/>
			<path class="st2" d="M-1363.8,3500.9c2-0.4,3.3-0.9,4.1-1.4c0.9-0.6,1.4-1.5,1.6-2.7c0.1-0.4,0.1-0.8,0.1-1.3c0-0.2,0-0.4,0-0.6
				c0.9,0.1,1.5,0.2,2,0.3c0.3,0.1,0.4,0.2,0.4,0.3c0,0.1,0,0.2-0.1,0.4c-0.1,0.1-0.1,0.4-0.2,0.9c-0.2,1.8-0.9,3.1-2,4.1
				c-0.8,0.7-2.1,1.3-3.8,1.8c-0.2,0.1-0.3,0.1-0.5,0.1c-0.2,0-0.3-0.2-0.5-0.5C-1362.9,3501.7-1363.3,3501.3-1363.8,3500.9z
				 M-1362.1,3483.9c0.8,0,1.5,0.1,2.3,0.1c0.2,0,0.3,0.1,0.3,0.2c0,0,0,0.2-0.1,0.4c-0.1,0.2-0.1,1-0.1,2.3v4.9l0,2.6
				c0,0.1,0,0.2-0.1,0.2c0,0-0.1,0-0.2,0h-1.8c-0.1,0-0.2,0-0.2-0.1c0,0,0-0.1,0-0.2l0-2.6v-4.8
				C-1361.9,3485.8-1362,3484.8-1362.1,3483.9z M-1349.9,3484.3l2.6,0c0.1,0,0.2,0,0.2,0s0,0.1,0,0.2l0,2.3v4.8l0,2.3
				c0,0.1,0,0.2,0,0.2c0,0-0.1,0-0.2,0l-2.6,0h-4.4l-2.7,0c-0.1,0-0.2,0-0.2,0s0-0.1,0-0.2l0-2.3v-4.8l0-2.3c0-0.1,0-0.2,0-0.2
				c0,0,0.1,0,0.2,0l2.7,0H-1349.9z M-1354.9,3486.2v2.1h5.8v-2.1H-1354.9z M-1349.2,3492.2v-2.2h-5.8v2.2H-1349.2z M-1347,3497.4
				c0.5,0.2,1,0.4,1.5,0.6c0.2,0.1,0.4,0.1,0.4,0.2c0.1,0,0.1,0.1,0.1,0.3c0,0.1,0,0.2,0,0.3c-0.2,1.6-0.5,2.5-1.1,3
				c-0.6,0.5-1.8,0.7-3.5,0.7c-1.7,0-2.7-0.1-3.2-0.4c-0.5-0.2-0.7-0.8-0.7-1.6v-3.2c0-0.9,0-1.6-0.1-2.2c0.8,0,1.5,0.1,2.2,0.1
				c0.2,0,0.3,0.1,0.3,0.2c0,0.1,0,0.2-0.1,0.4c-0.1,0.2-0.1,0.5-0.1,1v2.7c0,0.4,0.1,0.6,0.4,0.7c0.2,0.1,0.7,0.1,1.4,0.1
				c1.1,0,1.8-0.1,2-0.4C-1347.2,3499.6-1347.1,3498.7-1347,3497.4z"/>
			<path class="st2" d="M-1338.8,3489.7l-2.6,0c-0.1,0-0.2,0-0.2,0c0,0,0-0.1,0-0.2v-1.5c0-0.1,0-0.2,0-0.2c0,0,0.1,0,0.2,0l2.6,0
				h0.5v-1.2c0-1.1-0.1-1.9-0.2-2.3c0.9,0,1.6,0.1,2.3,0.2c0.2,0,0.4,0.1,0.4,0.2c0,0.1,0,0.3-0.1,0.4c-0.1,0.1-0.1,0.5-0.1,1.1v1.5
				h2.8v-2.2c0-1.1,0-1.9-0.1-2.4c0.8,0,1.6,0.1,2.2,0.2c0.2,0,0.3,0.1,0.3,0.2c0,0.1,0,0.2-0.1,0.4c-0.1,0.1-0.1,0.4-0.1,0.9h3.2
				l2.6,0c0.1,0,0.2,0.1,0.2,0.2v1.4c0,0.2-0.1,0.2-0.2,0.2l-2.6,0h-3.2v1.2h5.1l2.6,0c0.1,0,0.2,0,0.2,0c0,0,0,0.1,0,0.2v1.5
				c0,0.1,0,0.2,0,0.2c0,0-0.1,0-0.2,0l-2.6,0H-1338.8z M-1326.4,3490.7c0.8,0,1.6,0.1,2.2,0.2c0.2,0,0.3,0.1,0.3,0.2
				c0,0.1,0,0.2-0.1,0.4c-0.1,0.2-0.1,0.6-0.1,1.4v6.1l0,3.4c0,0.1,0,0.2,0,0.2s-0.1,0-0.2,0h-1.7c-0.1,0-0.2,0-0.2,0
				c0,0,0-0.1,0-0.2v-0.8h-12.2v0.8c0,0.1,0,0.2,0,0.2c0,0-0.1,0-0.2,0h-1.7c-0.1,0-0.2,0-0.2,0c0,0,0-0.1,0-0.2l0-3.3v-6.2
				c0-0.8,0-1.6-0.1-2.2c0.8,0,1.6,0.1,2.2,0.2c0.2,0,0.3,0.1,0.3,0.2c0,0.1,0,0.2-0.1,0.4c-0.1,0.2-0.1,0.6-0.1,1.4v6.9h12.2v-6.9
				C-1326.3,3491.9-1326.3,3491.2-1326.4,3490.7z M-1334.8,3495.1l-2.6,0c-0.1,0-0.2-0.1-0.2-0.2v-1.1c0-0.2,0.1-0.2,0.2-0.2l2.6,0
				h1.4v-1c0-0.6,0-1.4-0.1-2.3c0.7,0,1.3,0.1,1.8,0.1c0.2,0,0.3,0.1,0.3,0.2c0,0,0,0.2-0.1,0.5c-0.1,0.2-0.1,0.7-0.1,1.5v1h1.5
				l2.7,0c0.1,0,0.2,0.1,0.2,0.2v1.1c0,0.2-0.1,0.2-0.2,0.2l-2.7,0h-0.6c0.9,1,2.2,1.8,3.9,2.3c-0.3,0.3-0.6,0.6-0.8,1.1
				c-0.2,0.3-0.3,0.4-0.4,0.4c-0.1,0-0.2-0.1-0.5-0.2c-1.4-0.8-2.5-1.6-3.2-2.7c0,0.5,0,1.2,0.1,2c0,0.5,0,0.9,0,0.9
				c0,0.1,0,0.2,0,0.2c0,0-0.1,0-0.2,0h-1.5c-0.1,0-0.2,0-0.2,0s0-0.1,0-0.2c0,0,0-0.4,0-1.1c0-0.7,0-1.3,0-1.8
				c-0.8,1.1-1.9,2-3.1,2.7c-0.3,0.1-0.5,0.2-0.5,0.2c-0.1,0-0.2-0.1-0.4-0.4c-0.2-0.4-0.5-0.7-0.8-0.9c1.6-0.6,2.9-1.5,3.8-2.5
				H-1334.8z M-1335.4,3490.6c0.3,0.4,0.7,1,1,1.8c0,0.1,0.1,0.1,0.1,0.2c0,0.1-0.1,0.1-0.2,0.2l-1,0.5c-0.1,0.1-0.2,0.1-0.2,0.1
				c-0.1,0-0.2-0.1-0.2-0.2c-0.3-0.7-0.7-1.3-1-1.8c0-0.1-0.1-0.1-0.1-0.2c0,0,0.1-0.1,0.2-0.2l1-0.5c0.1,0,0.2-0.1,0.2-0.1
				C-1335.6,3490.5-1335.5,3490.5-1335.4,3490.6z M-1330.6,3492.8c0.4-0.6,0.8-1.1,1-1.6c0.1-0.3,0.2-0.5,0.3-0.8
				c0.6,0.2,1.1,0.4,1.5,0.6c0.2,0.1,0.3,0.2,0.3,0.2c0,0.1-0.1,0.2-0.2,0.3s-0.2,0.2-0.3,0.4c-0.3,0.5-0.6,0.8-0.8,1.1
				c-0.2,0.2-0.3,0.4-0.4,0.4c-0.1,0-0.2-0.1-0.5-0.2C-1329.9,3493-1330.2,3492.9-1330.6,3492.8z"/>
			<path class="st2" d="M-1312.9,3483.6c0.5,0.4,0.9,0.8,1.3,1.3c0.1,0.1,0.2,0.3,0.2,0.4c0,0.2-0.1,0.3-0.4,0.3
				c-0.2,0-0.4,0.1-0.7,0.2c-0.5,0.2-1,0.4-1.6,0.6v2.9h0.2l2.3,0c0.1,0,0.2,0,0.2,0c0,0,0,0.1,0,0.2v1.5c0,0.1,0,0.2,0,0.2
				c0,0-0.1,0-0.2,0l-2.3,0c0.6,1.1,1.5,2.2,2.7,3.2c-0.3,0.5-0.6,1-0.8,1.6c-0.1,0.2-0.1,0.3-0.2,0.3c-0.1,0-0.2-0.1-0.4-0.3
				c-0.7-0.9-1.2-1.7-1.6-2.6l0.1,9.1c0,0.1-0.1,0.2-0.2,0.2h-1.7c-0.2,0-0.2-0.1-0.2-0.2c0-0.1,0-0.5,0-1.4
				c0.1-2.6,0.1-5.1,0.1-7.3c-0.5,1.6-1.3,3.2-2.5,4.7c-0.2,0.2-0.3,0.3-0.4,0.3s-0.2-0.1-0.3-0.4c-0.2-0.7-0.5-1.2-0.9-1.6
				c1.6-1.7,2.8-3.7,3.5-5.8h-0.5l-2.3,0c-0.1,0-0.2,0-0.2,0c0,0,0-0.1,0-0.2v-1.5c0-0.1,0-0.2,0-0.2s0.1,0,0.2,0l2.3,0h0.9v-2.4
				c-0.4,0.1-1,0.2-1.7,0.3c-0.2,0-0.4,0.1-0.4,0.1c-0.1,0-0.2,0-0.3-0.1c0-0.1-0.1-0.2-0.2-0.4c-0.2-0.4-0.4-0.8-0.7-1.1
				c2.4-0.3,4.4-0.8,5.8-1.4C-1313.5,3484-1313.2,3483.8-1312.9,3483.6z M-1309,3495.9l3.7-0.7v-8.4c0-1.2-0.1-2.3-0.2-3.2
				c0.8,0,1.6,0.1,2.2,0.1c0.2,0,0.3,0.1,0.3,0.2c0,0.1,0,0.3-0.1,0.4c-0.1,0.2-0.1,1-0.1,2.3v8c0.5-0.1,1-0.2,1.5-0.3
				c0.1,0,0.2,0,0.4-0.1c0.1,0,0.1,0,0.2,0c0,0,0.1,0,0.1,0c0.1,0,0.1,0.1,0.1,0.2l0.3,1.6c0,0,0,0.1,0,0.1c0,0.1-0.1,0.1-0.2,0.1
				c0,0-0.3,0.1-0.7,0.1c-0.5,0.1-1,0.2-1.6,0.3v2l0,3.7c0,0.1,0,0.2,0,0.2c0,0-0.1,0-0.2,0h-1.8c-0.1,0-0.2-0.1-0.2-0.2l0-3.6v-1.5
				l-3.4,0.7l-2.7,0.5c0,0-0.1,0-0.1,0c-0.1,0-0.1-0.1-0.2-0.2l-0.3-1.6c0-0.1,0-0.1,0-0.1c0-0.1,0.1-0.1,0.2-0.1c0,0,0.3,0,0.8-0.1
				C-1310.3,3496.1-1309.7,3496-1309,3495.9z M-1309.5,3489.8c1,0.8,2,1.7,3,2.7c0.1,0.1,0.1,0.1,0.1,0.2c0,0.1-0.1,0.1-0.2,0.3
				l-1,1.1c-0.1,0.1-0.2,0.2-0.2,0.2s-0.1,0-0.2-0.1c-0.9-1.2-1.9-2.1-2.9-2.9c-0.1-0.1-0.1-0.1-0.1-0.2c0,0,0.1-0.1,0.2-0.2l1-0.9
				c0.1-0.1,0.2-0.1,0.2-0.1C-1309.7,3489.7-1309.6,3489.7-1309.5,3489.8z M-1308.9,3485c1.1,0.8,2.1,1.7,2.9,2.6
				c0.1,0.1,0.1,0.2,0.1,0.2c0,0.1-0.1,0.1-0.2,0.2l-1,1c-0.1,0.1-0.2,0.2-0.2,0.2s-0.1,0-0.2-0.1c-0.8-1-1.8-1.9-2.9-2.7
				c-0.1-0.1-0.1-0.1-0.1-0.2s0.1-0.1,0.2-0.2l1-0.9c0.1-0.1,0.2-0.1,0.2-0.1C-1309.1,3484.9-1309,3484.9-1308.9,3485z"/>
		</g>
		<path id="パス_27" class="st3" d="M-1342.9,3384.4c0,0,29.8-15.1,30.9,20.8c0.2,14.7-8.7,30.3-8.7,30.3l-1.2,5.4l-1.5,6.5
			l-1.2,6l-2.3,4h-5.9l-3.9-1.8l-1.7-6.5l-1-8.2l-2.3-3.7h-4.2l-1,2.7l-1.3,6.2l-1.8,7.4l-1.8,4l-5,1l-4.2-2.8l-3.7-11.6l-1.2-8.5
			l-5.5-16.2l-3.5-16.4l3.5-14.4l8.9-6.7l8.7-1.3l4.9,1.3L-1342.9,3384.4z"/>
		<path id="パス_21" class="st4" d="M-1327.8,3378.7c-1.5-0.2-3-0.3-4.5-0.3c-3.4,0-6.7,0.6-10,1.7c-0.6,0.2-1.1,0.3-1.6,0.4
			c-0.4-0.1-1-0.3-1.6-0.4c-3.2-1.1-6.6-1.6-10-1.7c-1.5,0-3,0.1-4.5,0.3c-12.4,1.9-19.4,13.5-17.9,29.7c0.8,8.2,3.6,14.9,6,20.8
			c2.3,5.5,4.4,10.6,4.9,16.4c1,13.6,7.8,15,10.7,15c4,0,7.7-2.8,9.2-7c0.7-2.1,1.1-4.3,1.2-6.6c0.2-1.9,0.6-6.3,1.5-7.1l0,0
			c0.1,0,0.3,0,0.4,0c0.2,0,0.3,0,0.5,0.1c0.9,0.8,1.3,5.2,1.5,7c0.1,2.2,0.5,4.4,1.2,6.6c1.6,4.2,5.3,7,9.2,7
			c2.9,0,9.7-1.5,10.7-15c0.4-5.8,2.6-11,4.9-16.4c2.5-5.9,5.3-12.7,6-20.8C-1308.4,3392.2-1315.4,3380.6-1327.8,3378.7z
			 M-1315.4,3407.9c-1.4,14.6-9.9,23.9-10.9,37.3c-0.6,7.4-3,10-5.2,10c-1.7,0-3.4-1.5-4.1-3.5c-1.7-4.6,0.4-17.2-8.3-17.2
			c-8.6,0-6.6,12.6-8.3,17.2c-0.7,2-2.4,3.5-4.1,3.5c-2.3,0-4.7-2.6-5.2-10c-1-13.4-9.5-22.8-10.9-37.3
			c-1.3-14.1,4.5-22.4,13.2-23.8c1.2-0.2,2.5-0.3,3.7-0.3c5.4,0,8.9,1.9,11.5,2.2c2.7-0.3,6.1-2.2,11.5-2.2c1.2,0,2.5,0.1,3.7,0.3
			C-1319.8,3385.5-1314.1,3393.9-1315.4,3407.9L-1315.4,3407.9z"/>
		<path id="パス_22" class="st5" d="M-1334.3,3390.3c-0.1-0.5-0.7-0.9-1.3-0.7c-3.3,0.9-5.7,1.2-8,1.8c-2.3-0.6-4.7-0.9-8-1.8
			c-0.5-0.2-1.1,0.1-1.3,0.7c-0.2,0.5,0.1,1.1,0.7,1.3c0,0,0,0,0.1,0c1.9,0.5,3.4,0.8,4.8,1.1c-1.8,0.9-3.5,1.9-5.1,3.1
			c-0.5,0.3-0.6,1-0.2,1.4c0.3,0.5,1,0.6,1.4,0.2l0,0c2.3-1.8,4.9-3.1,7.7-3.9c2.8,0.8,5.4,2.1,7.7,3.9c0.4,0.3,1.1,0.3,1.4-0.2
			c0.3-0.4,0.3-1.1-0.2-1.4c0,0,0,0,0,0c-1.6-1.2-3.3-2.2-5.2-3.1c1.4-0.3,2.9-0.6,4.8-1.1
			C-1334.5,3391.5-1334.2,3390.9-1334.3,3390.3z"/>
	</g>
</g>
</svg>
