<?xml version="1.0" encoding="utf-8"?>
<!-- Generator: Adobe Illustrator 26.0.2, SVG Export Plug-In . SVG Version: 6.00 Build 0)  -->
<svg version="1.1" id="レイヤー_1" xmlns="http://www.w3.org/2000/svg" xmlns:xlink="http://www.w3.org/1999/xlink" x="0px"
	 y="0px" viewBox="0 0 33.8 27.9" style="enable-background:new 0 0 33.8 27.9;" xml:space="preserve">
<style type="text/css">
	.st0{fill:#FFFFFF;}
</style>
<g id="電話機のフリーアイコン素材" transform="translate(0 -44.6)">
	<path id="パス_9" class="st0" d="M22.3,55.3V50l-2.8,0.5v2.2h-5.1v-2.2L11.5,50v5.3H8.2l-3.8,8.4v7.5c0,0.7,0.5,1.3,1.2,1.3h22.8
		c0.7,0,1.2-0.6,1.2-1.3v-7.5l-3.9-8.4H22.3z M16.9,68.8c-2.6,0-4.8-2.1-4.8-4.8c0-2.6,2.1-4.8,4.8-4.8s4.8,2.1,4.8,4.8l0,0
		C21.7,66.6,19.5,68.8,16.9,68.8z"/>
	<path id="パス_10" class="st0" d="M28.7,46.3c-2.5-1.1-8.1-1.7-11.8-1.7c-3.5,0-9.2,0.6-11.8,1.7C2.6,47.4,0,49.8,0,52.7
		c0,1,0.3,2,1,2.7h5.5c0.3,0,1-1.4,1-2C7.4,52.6,7.2,51.8,7,51c0-0.7,0.3-1.2,1.4-1.7c2.1-0.9,6.6-0.9,8.5-0.9s6.4,0,8.5,0.9
		c1.1,0.5,1.4,1,1.4,1.7c-0.3,0.8-0.5,1.6-0.5,2.4c0,0.6,0.7,2,1,2h5.5c0.6-0.8,1-1.7,1-2.7C33.8,49.8,31.2,47.4,28.7,46.3z"/>
</g>
</svg>
