<?xml version="1.0" encoding="utf-8"?>
<!-- Generator: Adobe Illustrator 26.0.2, SVG Export Plug-In . SVG Version: 6.00 Build 0)  -->
<svg version="1.1" id="レイヤー_1" xmlns="http://www.w3.org/2000/svg" xmlns:xlink="http://www.w3.org/1999/xlink" x="0px"
	 y="0px" viewBox="0 0 200 200" style="enable-background:new 0 0 200 200;" xml:space="preserve">
<style type="text/css">
	.st0{fill:#F0F5F8;}
	.st1{enable-background:new    ;}
	.st2{fill:#06438D;}
	.st3{fill:#FFFFFF;}
	.st4{fill:#4F555B;}
</style>
<g id="グループ_126" transform="translate(1199 -3587)">
	<g id="グループ_113">
		<path id="長方形_62" class="st0" d="M-1179,3587h160c11,0,20,9,20,20v160c0,11-9,20-20,20h-160c-11,0-20-9-20-20v-160
			C-1199,3596-1190,3587-1179,3587z"/>
		<g class="st1">
			<path class="st2" d="M-1130,3746.4c2.7-1.4,4.9-3.3,6.3-6c1.3-2.2,2-4.8,2.1-7.6h-2.6l-2.1,0c-0.1,0-0.2,0-0.2,0c0,0,0-0.1,0-0.2
				v-1.8c0-0.1,0-0.2,0.1-0.2c0,0,0.1,0,0.2,0l2.1,0h2.7l2.1,0c0.2,0,0.3,0.1,0.3,0.2c0,0.2,0,0.4,0,0.5c0,0.4,0,1,0.1,1.8
				c0.7,5.8,3.4,10.1,8.2,13c-0.5,0.5-0.9,1-1.2,1.6c-0.2,0.3-0.3,0.5-0.4,0.5c-0.1,0-0.2-0.1-0.5-0.3c-3.8-2.8-6.2-6.2-7.2-10.4
				c-0.6,2.3-1.7,4.4-3.1,6.3c-1.3,1.7-2.8,3-4.6,4.1c-0.3,0.2-0.4,0.3-0.5,0.3c-0.1,0-0.2-0.2-0.4-0.5
				C-1129.1,3747.2-1129.5,3746.7-1130,3746.4z"/>
			<path class="st2" d="M-1103.4,3730c1.1,0.1,1.9,0.2,2.4,0.4c0.3,0.1,0.4,0.2,0.4,0.4c0,0.1,0,0.2-0.1,0.4c-0.1,0.2-0.2,0.5-0.2,1
				c0,0.5-0.1,1.2-0.1,2.1c0.3,0.2,0.6,0.3,0.8,0.5c0.1,0.1,0.2,0.2,0.2,0.3c0,0.1,0,0.1-0.1,0.2c-0.4,0.7-0.8,1.3-1.1,2v0.1
				c0.6-0.7,1.2-1.3,1.9-2c1.4-1.4,2.7-2.1,3.8-2.1c0.8,0,1.5,0.3,1.9,0.8c0.4,0.5,0.6,1.1,0.6,2c0,1.1-0.1,2.3-0.2,3.8
				c0,0.5-0.1,1.3-0.1,2.4c0,0.6-0.1,0.9-0.1,1.2c0,0.5,0.1,0.9,0.2,1c0.1,0.1,0.3,0.2,0.6,0.2c0.4,0,1-0.3,1.6-0.8
				c0.4-0.4,0.9-1,1.3-1.8c0.3,0.7,0.5,1.2,0.8,1.6c0.2,0.2,0.2,0.4,0.2,0.5c0,0.1,0,0.2-0.1,0.4c-1.1,1.6-2.5,2.4-4,2.4
				c-1.8,0-2.7-1.1-2.7-3.2c0-0.4,0.1-1.6,0.2-3.5c0.1-1.7,0.2-2.9,0.2-3.4c0-0.9-0.2-1.4-0.7-1.4c-0.5,0-1.3,0.5-2.3,1.4
				c-1.1,1.1-2.1,2.1-2.9,3.1c0,0.5,0,2,0.1,4.4c0,1.5,0,2.7,0,3.6c0,0.2-0.1,0.3-0.3,0.3c-0.4,0.1-0.9,0.1-1.6,0.1
				c-0.2,0-0.3-0.1-0.3-0.4c0-2.7,0-4.7,0.1-6c-0.7,1.1-1.5,2.3-2.4,3.8c-0.1,0.1-0.2,0.2-0.2,0.2c-0.1,0-0.1,0-0.3-0.1
				c-0.5-0.3-0.9-0.7-1.3-1.2c-0.1-0.1-0.1-0.2-0.1-0.2c0-0.1,0.1-0.2,0.2-0.4c1.4-1.8,2.8-3.6,4.1-5.5c0-0.6,0-1.1,0-1.4
				c-1,0.3-1.8,0.5-2.5,0.8c0,0-0.1,0.1-0.2,0.1c-0.2,0.1-0.3,0.2-0.4,0.2c-0.2,0-0.3-0.1-0.4-0.3c-0.2-0.3-0.5-1-0.8-1.9
				c0.4,0,0.9-0.1,1.5-0.2c1.1-0.3,2.1-0.5,3-0.8v-2.9C-1103.2,3731.2-1103.3,3730.6-1103.4,3730z"/>
			<path class="st2" d="M-1082.7,3735.7l-2.6,0c-0.1,0-0.2,0-0.2,0c0,0,0-0.1,0-0.2v-1.5c0-0.1,0-0.2,0-0.2c0,0,0.1,0,0.2,0l2.6,0
				h0.5v-1.2c0-1.1-0.1-1.9-0.2-2.3c0.9,0,1.6,0.1,2.3,0.2c0.2,0,0.4,0.1,0.4,0.2c0,0.1,0,0.3-0.1,0.4c-0.1,0.1-0.1,0.5-0.1,1.1v1.5
				h2.8v-2.2c0-1.1,0-1.9-0.1-2.4c0.8,0,1.6,0.1,2.2,0.2c0.2,0,0.3,0.1,0.3,0.2c0,0.1,0,0.2-0.1,0.4c-0.1,0.1-0.1,0.4-0.1,0.9h3.2
				l2.6,0c0.1,0,0.2,0.1,0.2,0.2v1.4c0,0.2-0.1,0.2-0.2,0.2l-2.6,0h-3.2v1.2h5.1l2.6,0c0.1,0,0.2,0,0.2,0c0,0,0,0.1,0,0.2v1.5
				c0,0.1,0,0.2,0,0.2c0,0-0.1,0-0.2,0l-2.6,0H-1082.7z M-1070.4,3736.7c0.8,0,1.6,0.1,2.2,0.2c0.2,0,0.3,0.1,0.3,0.2
				c0,0.1,0,0.2-0.1,0.4c-0.1,0.2-0.1,0.6-0.1,1.4v6.1l0,3.4c0,0.1,0,0.2,0,0.2s-0.1,0-0.2,0h-1.7c-0.1,0-0.2,0-0.2,0
				c0,0,0-0.1,0-0.2v-0.8h-12.2v0.8c0,0.1,0,0.2,0,0.2c0,0-0.1,0-0.2,0h-1.7c-0.1,0-0.2,0-0.2,0c0,0,0-0.1,0-0.2l0-3.3v-6.2
				c0-0.8,0-1.6-0.1-2.2c0.8,0,1.6,0.1,2.2,0.2c0.2,0,0.3,0.1,0.3,0.2c0,0.1,0,0.2-0.1,0.4c-0.1,0.2-0.1,0.6-0.1,1.4v6.9h12.2v-6.9
				C-1070.3,3737.9-1070.3,3737.2-1070.4,3736.7z M-1078.8,3741.1l-2.6,0c-0.1,0-0.2-0.1-0.2-0.2v-1.1c0-0.2,0.1-0.2,0.2-0.2l2.6,0
				h1.4v-1c0-0.6,0-1.4-0.1-2.3c0.7,0,1.3,0.1,1.8,0.1c0.2,0,0.3,0.1,0.3,0.2c0,0,0,0.2-0.1,0.5c-0.1,0.2-0.1,0.7-0.1,1.5v1h1.5
				l2.7,0c0.1,0,0.2,0.1,0.2,0.2v1.1c0,0.2-0.1,0.2-0.2,0.2l-2.7,0h-0.6c0.9,1,2.2,1.8,3.9,2.3c-0.3,0.3-0.6,0.6-0.8,1.1
				c-0.2,0.3-0.3,0.4-0.4,0.4c-0.1,0-0.2-0.1-0.5-0.2c-1.4-0.8-2.5-1.6-3.2-2.7c0,0.5,0,1.2,0.1,2c0,0.5,0,0.9,0,0.9
				c0,0.1,0,0.2,0,0.2c0,0-0.1,0-0.2,0h-1.5c-0.1,0-0.2,0-0.2,0s0-0.1,0-0.2c0,0,0-0.4,0-1.1c0-0.7,0-1.3,0-1.8
				c-0.8,1.1-1.9,2-3.1,2.7c-0.3,0.1-0.5,0.2-0.5,0.2c-0.1,0-0.2-0.1-0.4-0.4c-0.2-0.4-0.5-0.7-0.8-0.9c1.6-0.6,2.9-1.5,3.8-2.5
				H-1078.8z M-1079.4,3736.6c0.3,0.4,0.7,1,1,1.8c0,0.1,0.1,0.1,0.1,0.2c0,0.1-0.1,0.1-0.2,0.2l-1,0.5c-0.1,0.1-0.2,0.1-0.2,0.1
				c-0.1,0-0.2-0.1-0.2-0.2c-0.3-0.7-0.7-1.3-1-1.8c0-0.1-0.1-0.1-0.1-0.2c0,0,0.1-0.1,0.2-0.2l1-0.5c0.1,0,0.2-0.1,0.2-0.1
				C-1079.5,3736.5-1079.4,3736.5-1079.4,3736.6z M-1074.6,3738.8c0.4-0.6,0.8-1.1,1-1.6c0.1-0.3,0.2-0.5,0.3-0.8
				c0.6,0.2,1.1,0.4,1.5,0.6c0.2,0.1,0.3,0.2,0.3,0.2c0,0.1-0.1,0.2-0.2,0.3s-0.2,0.2-0.3,0.4c-0.3,0.5-0.6,0.8-0.8,1.1
				c-0.2,0.2-0.3,0.4-0.4,0.4c-0.1,0-0.2-0.1-0.5-0.2C-1073.8,3739-1074.1,3738.9-1074.6,3738.8z"/>
		</g>
		<path id="パス_67" class="st3" d="M-1108.5,3625.1v-4.6l3.2-5.2l8-1l5.1,1l3.3,4.1l0.7,6.8l7.4,3.8l7.4,7l2.9,8l1.2,7l-1.2,5.2
			l-2.9,3.3v4.2l-2.9,6.1l-3,2.5l-2.5,5.2l-2.8,3.9l-1.3,1.7v2.8l3,3.6l-5.4,8.7h-20.3l-4.5-4.9v-5.8l2.2-1.6v-2.8l-2.2-3.5
			l-4.1-7.4l-4.4-3.5l-2.5-8.6l-0.7-2.9l-3-4.6l0.9-8l5.4-11l5.9-4.6l5.5-3L-1108.5,3625.1z"/>
		<g id="おばあちゃんアイコン2" transform="translate(-1221.815 3612.439)">
			<path id="パス_65" class="st4" d="M160.6,85c-2.1-3.2-5.1-5.6-8.6-7c-2.8-1.1-5.6-2.1-8.5-2.9c-1.8-0.5-3.6-0.9-5.4-1.2
				c-0.4-0.1-0.8-0.2-1.1-0.4l0,0l0-0.1v-1.4c3.2-2.9,5.5-6.7,6.7-10.9c0.5-0.2,0.9-0.4,1.3-0.6c1.2-0.7,2.1-1.8,2.8-3
				c0.9-1.7,1.7-3.5,2.2-5.3c0.3-1,0.5-2.1,0.6-3.1c0-0.4-0.1-0.9-0.2-1.3c0.6-0.4,1.1-0.9,1.6-1.5c1.6-2.2,2.5-4.9,2.3-7.6
				c0-2.2-0.3-4.4-0.9-6.5c-2.4-9-9.1-16.2-17.9-19.1c0.2-0.7,0.2-1.4,0.2-2.1c0-6.1-5.5-11-12.3-11S111,4.9,111,11
				c0,0.7,0.1,1.4,0.2,2.1c-8.8,3-15.5,10.1-17.9,19.1c-0.6,2.1-0.9,4.3-0.9,6.5c-0.1,2.7,0.7,5.4,2.3,7.6c0.5,0.6,1,1.1,1.6,1.5
				c-0.1,0.4-0.2,0.9-0.2,1.3c0,1.1,0.2,2.1,0.6,3.1c0.6,2.3,1.7,4.6,3.1,6.5c0.6,0.7,1.2,1.3,2,1.8c0.4,0.3,0.8,0.5,1.3,0.6
				c1.1,4.2,3.4,8,6.7,10.9v1.4v0.1c-0.2,0.1-0.3,0.2-0.5,0.3c-0.8,0.3-1.7,0.5-2.5,0.6c-1.2,0.2-2.3,0.4-3.4,0.8
				c-1.4,0.4-3.3,0.9-5.4,1.6c-3.5,1-6.7,2.8-9.4,5.2c-3.1,3-4.8,7.3-4.7,11.6c0,0.7,0,1.5,0.1,2.2c0.1,0.5,0.2,0.9,0.5,1.3
				c0.5,0.6,1.1,1.1,1.8,1.5c1.7,0.9,3.5,1.7,5.3,2.2c6.8,2.2,17.9,4.1,31.7,4.1c9.2,0.1,18.5-0.9,27.5-2.9c2.8-0.6,5.5-1.5,8.1-2.6
				c0.9-0.4,1.7-0.9,2.5-1.4c0.3-0.2,0.6-0.5,0.9-0.9c0.3-0.4,0.5-0.8,0.5-1.3c0.1-0.8,0.1-1.5,0.1-2.2
				C162.9,90.6,162.1,87.6,160.6,85z M117.2,5.5c3.5-3,8.7-3,12.3,0C131,6.9,132,8.9,132,11c0,0.4,0,0.8-0.1,1.2
				c-1.3-0.2-2.7-0.4-4-0.4c-1.5,0-3.1,0.2-4.5,0.5c-1.5-0.3-3-0.5-4.5-0.5c-1.4,0-2.7,0.1-4,0.4c-0.1-0.4-0.1-0.8-0.1-1.2
				C114.7,8.9,115.6,6.9,117.2,5.5L117.2,5.5z M98.5,45.1c-0.3-0.3-0.6-0.6-0.9-0.9c-1.1-1.6-1.6-3.5-1.5-5.5c0-2,0.3-3.9,0.8-5.8
				c1.4-5.2,4.4-9.9,8.7-13.1c3.7-3,8.4-4.6,13.1-4.7c1.4,0,2.7,0.2,4,0.5c0.3,0.1,0.7,0.1,1,0c1.3-0.3,2.7-0.5,4-0.5
				c4.8,0.1,9.4,1.8,13.1,4.7c4.3,3.3,7.4,7.9,8.7,13.1c0.5,1.9,0.8,3.8,0.8,5.8c0.1,2-0.4,4-1.6,5.7c-0.2,0.3-0.5,0.5-0.8,0.7
				c-0.6-0.1-1.3,0.1-1.7,0.6c-0.3,0.3-0.4,0.7-0.4,1.1l-2.1,2.3l-0.5-4.7l-0.7-0.3c-7.5-3.9-12.1-7.8-14.7-10.6
				c-1-1.1-1.9-2.2-2.7-3.5c-0.3-0.4-0.4-0.7-0.5-0.9l-0.1-0.2l0,0l-1.4-3.4l-1.4,3.4c-0.1,0.2-3.5,7.8-18,15.3l-0.7,0.3l-0.5,4.7
				l-2.1-2.3c0-0.4-0.1-0.8-0.4-1.1C99.8,45.2,99.1,45,98.5,45.1z M138.4,49.9c-0.3,2.9-3,5-5.9,4.7c-2.5-0.3-4.4-2.2-4.7-4.7
				c0.3-2.9,3-5,5.9-4.7C136.2,45.5,138.1,47.4,138.4,49.9z M133.1,43c-3.5-0.1-6.6,2.1-7.6,5.5h-4.4c-1-3.4-4.1-5.6-7.6-5.5
				c-1,0-2,0.2-3,0.5c7.2-4.5,11-8.8,12.8-11.4c1.8,2.6,5.5,6.9,12.8,11.4C135.1,43.2,134.1,43,133.1,43z M113.5,45.2
				c2.8-0.1,5.1,2,5.3,4.7c-0.3,2.9-3,5-5.9,4.7c-2.5-0.3-4.4-2.2-4.7-4.7C108.4,47.1,110.8,45,113.5,45.2z M133.5,81.3
				c-2,1.7-5.1,3-10.2,3s-8.3-1.3-10.2-3c-1.3-1.2-2.2-2.7-2.6-4.5c0.5-0.2,1-0.4,1.4-0.7c0.4-0.3,0.8-0.7,1-1.1
				c0.3-0.5,0.4-1,0.4-1.5v-2c0-0.4-0.2-0.8-0.5-1.1c-2.3-2.3-5.4-5.3-6.5-10.7c-0.1-0.6-0.6-1.1-1.2-1.3c-0.5-0.1-1-0.3-1.4-0.6
				c-0.7-0.5-1.3-1.1-1.7-1.8c-0.8-1.5-1.5-3.1-1.9-4.7c-0.1-0.3-0.2-0.6-0.2-0.9l5,5.5l1-9.8c0.7-0.4,1.4-0.8,2.1-1.2
				c-1.5,1.2-2.3,3-2.4,4.9c0,3.8,3.5,6.9,7.7,6.9c4,0,7.2-2.7,7.6-6.1h4.3c0.4,3.4,3.7,6.1,7.6,6.1c4.3,0,7.7-3.1,7.7-6.9
				c0-1.9-0.9-3.7-2.3-4.9c0.7,0.4,1.4,0.8,2.1,1.2l1,9.8l5-5.5c-0.1,0.3-0.1,0.6-0.2,0.9c-0.5,2-1.4,3.9-2.5,5.5
				c-0.3,0.4-0.7,0.7-1.1,1c-0.4,0.3-0.9,0.5-1.4,0.6c-0.6,0.2-1,0.6-1.2,1.3c-1.1,5.4-4.2,8.4-6.5,10.7c-0.3,0.3-0.5,0.7-0.5,1.1v2
				c0,0.5,0.1,1,0.4,1.5c0.4,0.8,1.1,1.3,1.9,1.6c0.2,0.1,0.4,0.1,0.6,0.2C135.8,78.5,134.9,80.1,133.5,81.3L133.5,81.3z"/>
			<path id="パス_66" class="st4" d="M117.7,56.9c-0.5-0.2-1.1-0.1-1.4,0.4l-4.1,6.2c-0.3,0.4,0,0.9,0.5,1.1
				c0.5,0.2,1.1,0.1,1.4-0.4l4.1-6.2C118.4,57.6,118.2,57.1,117.7,56.9z"/>
		</g>
	</g>
</g>
</svg>
