<?xml version="1.0" encoding="utf-8"?>
<!-- Generator: Adobe Illustrator 26.0.2, SVG Export Plug-In . SVG Version: 6.00 Build 0)  -->
<svg version="1.1" id="レイヤー_1" xmlns="http://www.w3.org/2000/svg" xmlns:xlink="http://www.w3.org/1999/xlink" x="0px"
	 y="0px" viewBox="0 0 200 200" style="enable-background:new 0 0 200 200;" xml:space="preserve">
<style type="text/css">
	.st0{fill:#F0F5F8;}
	.st1{enable-background:new    ;}
	.st2{fill:#06438D;}
	.st3{fill:#FFFFFF;}
	.st4{fill:#4F555B;}
</style>
<g id="グループ_123" transform="translate(709 -3341)">
	<g id="グループ_116">
		<path id="長方形_54" class="st0" d="M-689,3341h160c11,0,20,9,20,20v160c0,11-9,20-20,20h-160c-11,0-20-9-20-20v-160
			C-709,3350-700,3341-689,3341z"/>
		<g class="st1">
			<path class="st2" d="M-647.3,3501.8h-1.9c-0.1,0-0.2,0-0.2,0s0-0.1,0-0.2l0-6.9v-3.9l0-5.2c0-0.1,0-0.2,0-0.2c0,0,0.1,0,0.2,0
				l2.9,0h9.5l2.9,0c0.1,0,0.2,0,0.2,0.1c0,0,0,0.1,0,0.2l0,4.6v4.4l0,6.8c0,0.1,0,0.2-0.1,0.2c0,0-0.1,0-0.2,0h-1.9
				c-0.1,0-0.2,0-0.2,0s0-0.1,0-0.2v-1.6H-647v1.6c0,0.1,0,0.2-0.1,0.2C-647.1,3501.8-647.2,3501.8-647.3,3501.8z M-647,3487.5v10.3
				h11.1v-10.3H-647z"/>
			<path class="st2" d="M-626.1,3500.3c0.3,0,0.6,0.1,0.9,0.1c0.1,0,0.3,0,0.4,0c0.3,0,0.4-0.2,0.4-0.7v-3.9h-2.1
				c-0.2,2.6-0.5,4.7-1.1,6.3c-0.1,0.2-0.2,0.4-0.3,0.4s-0.2-0.1-0.4-0.3c-0.4-0.5-0.8-0.9-1.2-1.1c0.5-1.1,0.8-2.4,1-3.9
				c0.2-1.5,0.3-3.4,0.3-5.9v-3.4l0-3.4c0-0.1,0-0.2,0-0.2c0,0,0.1,0,0.2,0l1.7,0h1.7l1.7,0c0.1,0,0.2,0.1,0.2,0.2l0,3.4v9.6
				l0.1,2.9c0,0.8-0.2,1.4-0.5,1.7c-0.3,0.2-0.9,0.4-1.7,0.4l-0.3,0c-0.2,0-0.3,0-0.4-0.1c0-0.1-0.1-0.2-0.2-0.5
				C-625.7,3501.2-625.8,3500.7-626.1,3500.3z M-626.3,3493.8h2v-3h-1.9v0.5C-626.3,3491.9-626.3,3492.8-626.3,3493.8z
				 M-624.3,3486.1h-1.9v2.8h1.9V3486.1z M-622.1,3492.8c1.1-0.3,1.8-0.8,2.3-1.3c0.5-0.5,0.8-1.1,0.9-1.9c0.1-0.5,0.1-0.9,0.1-1.3
				c0-0.1,0-0.2,0-0.2c0.7,0.1,1.3,0.3,1.8,0.4c0.3,0.1,0.4,0.2,0.4,0.3c0,0.1-0.1,0.2-0.2,0.3c0,0-0.1,0.3-0.2,0.8
				c-0.2,1-0.6,1.8-1.2,2.6c-0.5,0.6-1.2,1.1-1.9,1.5c-0.2,0.1-0.4,0.2-0.5,0.2c-0.1,0-0.3-0.1-0.5-0.4
				C-621.4,3493.4-621.8,3493-622.1,3492.8z M-619,3501.9l-2.8,0c-0.1,0-0.2,0-0.2,0s0-0.1,0-0.2v-1.5c0-0.1,0.1-0.2,0.2-0.2l2.8,0
				h1.7v-3.2h-1l-2.6,0.1c-0.1,0-0.2,0-0.2,0c0,0,0-0.1,0-0.2v-1.5c0-0.1,0-0.2,0.1-0.2c0,0,0.1,0,0.2,0l2.6,0h4.7l2.6,0
				c0.1,0,0.2,0,0.2,0s0,0.1,0,0.2v1.5c0,0.1,0,0.2,0,0.2c0,0-0.1,0-0.2,0l-2.6-0.1h-1.6v3.2h2.3l2.8,0c0.2,0,0.2,0.1,0.2,0.2v1.5
				c0,0.1,0,0.2,0,0.2c0,0-0.1,0-0.2,0l-2.8,0H-619z M-613.3,3485.6l2.8,0c0.2,0,0.2,0.1,0.2,0.2l0,0.9v0.7l0,1.9c0,0.1,0,0.2,0,0.2
				c0,0-0.1,0-0.2,0h-1.5c-0.1,0-0.2,0-0.2,0s0-0.1,0-0.2v-1.9h-7.8v2c0,0.1,0,0.2,0,0.2c0,0-0.1,0-0.2,0h-1.5c-0.1,0-0.2,0-0.2,0
				s0-0.1,0-0.2l0-2v-0.6l0-1c0-0.1,0.1-0.2,0.2-0.2l2.8,0h1.5v-0.2c0-0.9-0.1-1.6-0.2-2.1c0.9,0,1.6,0.1,2.2,0.2
				c0.2,0,0.3,0.1,0.3,0.2c0,0.1,0,0.2-0.1,0.4c-0.1,0.1-0.1,0.6-0.1,1.3v0.3H-613.3z M-616,3488c0.8,0.1,1.5,0.1,1.9,0.2
				c0.2,0,0.3,0.1,0.3,0.2c0,0,0,0.1-0.1,0.4c-0.1,0.1-0.1,0.5-0.1,1.2v1.1c0,0.3,0.1,0.5,0.2,0.6c0.1,0.1,0.3,0.1,0.7,0.1
				c0.4,0,0.6-0.1,0.8-0.3c0.2-0.2,0.2-0.7,0.2-1.6c0.3,0.2,0.7,0.4,1.3,0.5c0.2,0.1,0.3,0.1,0.4,0.2s0.1,0.1,0.1,0.3
				c0,0.1,0,0.2,0,0.3c-0.1,0.9-0.3,1.5-0.7,1.8c-0.4,0.4-1.1,0.5-2.2,0.5c-1,0-1.7-0.1-2-0.3c-0.4-0.2-0.6-0.7-0.6-1.4v-1.9
				C-615.9,3489.3-616,3488.6-616,3488z"/>
			<path class="st2" d="M-602,3491.5c0.7,0.6,1.4,1.3,1.8,1.8c0.6-1.4,1.1-2.9,1.4-4.6h-3c-0.9,1.9-2.1,3.7-3.6,5.3
				c-0.2,0.2-0.3,0.3-0.4,0.3s-0.2-0.1-0.4-0.4c-0.3-0.5-0.6-0.9-1-1.3c2.1-2.1,3.6-4.6,4.4-7.4c0.2-0.6,0.3-1.1,0.3-1.7
				c0.9,0.2,1.7,0.3,2.1,0.5c0.2,0.1,0.3,0.2,0.3,0.3c0,0.1-0.1,0.3-0.2,0.4c-0.1,0.1-0.2,0.5-0.4,1.1c-0.2,0.7-0.4,1-0.4,1.1h2.2
				c0.3,0,0.5,0,0.6-0.1c0.1-0.1,0.2-0.1,0.3-0.1c0.2,0,0.5,0.2,0.9,0.6c0.4,0.4,0.6,0.6,0.6,0.7c0,0.1-0.1,0.2-0.2,0.4l-0.1,0.2
				c0.6,1,1.3,1.8,2.1,2.7v-4.4c0-1.4-0.1-2.5-0.2-3.2c1,0,1.7,0.1,2.3,0.2c0.2,0,0.3,0.1,0.3,0.2c0,0.1,0,0.2-0.1,0.4
				c-0.1,0.3-0.1,1-0.1,2.3v6.4c1.2,0.9,2.9,1.7,4.9,2.5c-0.4,0.5-0.7,1.1-0.9,1.7c-0.1,0.3-0.3,0.5-0.4,0.5c-0.1,0-0.2-0.1-0.5-0.2
				c-1.2-0.6-2.2-1.1-3.1-1.8v3l0,3.7c0,0.1,0,0.2,0,0.2c0,0-0.1,0-0.2,0h-1.8c-0.1,0-0.2,0-0.2,0c0,0,0-0.1,0-0.2l0-3.7v-4.8
				c-1-0.9-1.9-2-2.6-3.1c-0.7,2.5-1.7,4.8-3.1,6.7c-1.2,1.6-2.7,3.1-4.5,4.4c-0.3,0.2-0.4,0.3-0.5,0.3c-0.1,0-0.2-0.1-0.5-0.4
				c-0.3-0.4-0.7-0.8-1.2-1.1c2.5-1.5,4.4-3.3,5.7-5.5c-0.6-0.8-1.3-1.5-2.1-2.1c-0.1-0.1-0.1-0.2-0.1-0.2c0-0.1,0-0.1,0.1-0.2
				l0.9-1.1c0.1-0.1,0.1-0.1,0.2-0.1C-602.2,3491.4-602.1,3491.4-602,3491.5z"/>
			<path class="st2" d="M-577.9,3483.6c0.5,0.4,0.9,0.8,1.3,1.3c0.1,0.1,0.2,0.3,0.2,0.4c0,0.2-0.1,0.3-0.4,0.3
				c-0.2,0-0.4,0.1-0.7,0.2c-0.5,0.2-1,0.4-1.6,0.6v2.9h0.2l2.3,0c0.1,0,0.2,0,0.2,0c0,0,0,0.1,0,0.2v1.5c0,0.1,0,0.2,0,0.2
				c0,0-0.1,0-0.2,0l-2.3,0c0.6,1.1,1.5,2.2,2.7,3.2c-0.3,0.5-0.6,1-0.8,1.6c-0.1,0.2-0.1,0.3-0.2,0.3c-0.1,0-0.2-0.1-0.4-0.3
				c-0.7-0.9-1.2-1.7-1.6-2.6l0.1,9.1c0,0.1-0.1,0.2-0.2,0.2h-1.7c-0.2,0-0.2-0.1-0.2-0.2c0-0.1,0-0.5,0-1.4
				c0.1-2.6,0.1-5.1,0.1-7.3c-0.5,1.6-1.3,3.2-2.5,4.7c-0.2,0.2-0.3,0.3-0.4,0.3s-0.2-0.1-0.3-0.4c-0.2-0.7-0.5-1.2-0.9-1.6
				c1.6-1.7,2.8-3.7,3.5-5.8h-0.5l-2.3,0c-0.1,0-0.2,0-0.2,0c0,0,0-0.1,0-0.2v-1.5c0-0.1,0-0.2,0-0.2s0.1,0,0.2,0l2.3,0h0.9v-2.4
				c-0.4,0.1-1,0.2-1.7,0.3c-0.2,0-0.4,0.1-0.4,0.1c-0.1,0-0.2,0-0.3-0.1c0-0.1-0.1-0.2-0.2-0.4c-0.2-0.4-0.4-0.8-0.7-1.1
				c2.4-0.3,4.4-0.8,5.8-1.4C-578.5,3484-578.2,3483.8-577.9,3483.6z M-574,3495.9l3.7-0.7v-8.4c0-1.2-0.1-2.3-0.2-3.2
				c0.8,0,1.6,0.1,2.2,0.1c0.2,0,0.3,0.1,0.3,0.2c0,0.1,0,0.3-0.1,0.4c-0.1,0.2-0.1,1-0.1,2.3v8c0.5-0.1,1-0.2,1.5-0.3
				c0.1,0,0.2,0,0.4-0.1c0.1,0,0.1,0,0.2,0c0,0,0.1,0,0.1,0c0.1,0,0.1,0.1,0.1,0.2l0.3,1.6c0,0,0,0.1,0,0.1c0,0.1-0.1,0.1-0.2,0.1
				c0,0-0.3,0.1-0.7,0.1c-0.5,0.1-1,0.2-1.6,0.3v2l0,3.7c0,0.1,0,0.2,0,0.2c0,0-0.1,0-0.2,0h-1.8c-0.1,0-0.2-0.1-0.2-0.2l0-3.6v-1.5
				l-3.4,0.7l-2.7,0.5c0,0-0.1,0-0.1,0c-0.1,0-0.1-0.1-0.2-0.2l-0.3-1.6c0-0.1,0-0.1,0-0.1c0-0.1,0.1-0.1,0.2-0.1c0,0,0.3,0,0.8-0.1
				C-575.3,3496.1-574.7,3496-574,3495.9z M-574.5,3489.8c1,0.8,2,1.7,3,2.7c0.1,0.1,0.1,0.1,0.1,0.2c0,0.1-0.1,0.1-0.2,0.3l-1,1.1
				c-0.1,0.1-0.2,0.2-0.2,0.2s-0.1,0-0.2-0.1c-0.9-1.2-1.9-2.1-2.9-2.9c-0.1-0.1-0.1-0.1-0.1-0.2c0,0,0.1-0.1,0.2-0.2l1-0.9
				c0.1-0.1,0.2-0.1,0.2-0.1C-574.7,3489.7-574.6,3489.7-574.5,3489.8z M-573.9,3485c1.1,0.8,2.1,1.7,2.9,2.6
				c0.1,0.1,0.1,0.2,0.1,0.2c0,0.1-0.1,0.1-0.2,0.2l-1,1c-0.1,0.1-0.2,0.2-0.2,0.2s-0.1,0-0.2-0.1c-0.8-1-1.8-1.9-2.9-2.7
				c-0.1-0.1-0.1-0.1-0.1-0.2s0.1-0.1,0.2-0.2l1-0.9c0.1-0.1,0.2-0.1,0.2-0.1C-574.1,3484.9-574,3484.9-573.9,3485z"/>
		</g>
		<path id="パス_54" class="st3" d="M-608.6,3402.9l-27.9,27.9v2.6l16.4,16.4h4.1l33.6-33.6l-19.7-19.7L-608.6,3402.9z"/>
		<g id="注射器のアイコン素材" transform="translate(-653.569 3379.658)">
			<path id="パス_48" class="st4" d="M36.9,67c-0.2,0.2-0.4,0.3-0.6,0.4c-0.3,0.1-0.7,0.2-1,0.1c-0.3-0.1-0.7-0.2-0.9-0.5
				L21.2,53.8c-0.2-0.2-0.3-0.4-0.4-0.6c-0.1-0.3-0.2-0.7-0.1-1c0.1-0.3,0.2-0.7,0.5-0.9L48.5,24l-4.1-4.1L17.1,47.2
				c-2.9,2.9-3,7.7,0,10.7c0,0,0,0,0,0L30.3,71c0.7,0.7,1.6,1.3,2.5,1.7c2.8,1.1,6,0.5,8.2-1.7l27.3-27.3l-4.1-4.1L36.9,67z"/>
			<path id="パス_49" class="st4" d="M15.3,68c-0.9,0.7-1.1,2-0.4,2.9l2.4,2.4c0.9,0.7,2.2,0.5,2.9-0.4l4.4-4.4l-4.8-4.9L15.3,68z
				"/>
			<path id="パス_50" class="st4" d="M0,85.5l4.4,0.9l11.3-11.3L13,72.6L0,85.5z"/>
			<path id="パス_51" class="st4" d="M53.6,9.1c-2-2-5.2-2.1-7.3-0.1c-2,2-2.1,5.2-0.1,7.3c0,0,0.1,0.1,0.1,0.1l25.4,25.4
				c2,2,5.3,1.9,7.3-0.1c1.9-2,1.9-5.2,0-7.1L53.6,9.1z"/>
			<path id="パス_52" class="st4" d="M86.7,15L73.2,1.5c-2-2-5.2-2.1-7.3-0.1s-2.1,5.2-0.1,7.3c0,0,0.1,0.1,0.1,0.1l1.4,1.4
				l-4.1,4.1l4.1,4.1l4.1-4.1l2.5,2.5l-4.1,4.1l4.1,4.1l4.1-4.1l1.4,1.4c2,2,5.2,2.1,7.3,0.1s2.1-5.2,0.1-7.3
				C86.7,15,86.7,15,86.7,15L86.7,15z"/>
			
				<rect id="長方形_63" x="50.5" y="38.8" transform="matrix(0.7071 -0.7071 0.7071 0.7071 -14.7292 48.9611)" class="st4" width="2.5" height="6.9"/>
			<path id="パス_53" class="st4" d="M46.1,52.7l1.7-1.7L43,46.1l-1.7,1.7L46.1,52.7z"/>
			
				<rect id="長方形_64" x="36.5" y="52.9" transform="matrix(0.7071 -0.7071 0.7071 0.7071 -28.7743 43.1425)" class="st4" width="2.5" height="6.9"/>
		</g>
	</g>
</g>
</svg>
