<?xml version="1.0" encoding="utf-8"?>
<!-- Generator: Adobe Illustrator 26.0.2, SVG Export Plug-In . SVG Version: 6.00 Build 0)  -->
<svg version="1.1" id="コンポーネント_6_1" xmlns="http://www.w3.org/2000/svg" xmlns:xlink="http://www.w3.org/1999/xlink"
	 x="0px" y="0px" viewBox="0 0 429.1 84" style="enable-background:new 0 0 429.1 84;" xml:space="preserve">
<style type="text/css">
	.st0{enable-background:new    ;}
	.st1{fill:#06438D;}
	.st2{fill:#3C3C3C;}
	.st3{fill:#49A1C2;}
	.st4{fill:none;}
	.st5{fill:none;stroke:#49A1C2;stroke-width:4;}
	.st6{fill:#FFFFFF;}
</style>
<g class="st0">
	<path class="st1" d="M110.1,35.4c0.8,0,2.3,0.3,4.5,0.9c6,1.7,10.6,3.5,13.9,5.5c1.4,0.9,2.1,2,2.1,3.3c0,0.8-0.2,1.4-0.8,2
		c-0.6,0.7-1.4,1.1-2.3,1.1c-0.7,0-1.8-0.4-3-1.1c-5.5-3-10.5-5.4-14.9-7.1c-1.4-0.6-2.1-1.3-2.1-2.3
		C107.6,36.2,108.4,35.4,110.1,35.4z M112.4,11.5c0.8,0,2.3,0.2,4.5,0.7c4.2,0.9,7.7,2.1,10.5,3.6c1.4,0.8,2.2,1.9,2.2,3.2
		c0,0.6-0.2,1.2-0.6,1.8c-0.6,0.8-1.4,1.2-2.4,1.2c-0.6,0-1.5-0.3-2.7-0.9c-4-2.1-7.9-3.8-11.8-5c-1.4-0.4-2.2-1.2-2.2-2.3
		c0-0.6,0.2-1.1,0.6-1.5C110.8,11.7,111.5,11.5,112.4,11.5z M112.8,23.3c0.7,0,2,0.2,3.8,0.7c3.8,1,6.7,2,8.8,3.2
		c1.5,0.8,2.2,1.9,2.2,3.3c0,0.7-0.2,1.3-0.7,1.9c-0.6,0.7-1.4,1.1-2.3,1.1c-0.7,0-1.6-0.3-2.6-0.9c-3.5-2-6.8-3.6-10.1-4.9
		c-1.1-0.4-1.7-1.1-1.7-2.1C110.2,24,111.1,23.3,112.8,23.3z"/>
	<path class="st1" d="M178.2,14.1c1.5,0,2.7,0.5,3.6,1.4c0.8,0.8,1.2,1.9,1.2,3.1c0,0.9-0.2,2.3-0.7,4.2s-1,3.6-1.6,5.1
		c-3,7.6-7.9,13.4-14.6,17.6c-2.7,1.7-4.6,2.5-5.8,2.5c-0.8,0-1.3-0.3-1.7-0.9c-0.3-0.5-0.4-0.9-0.4-1.3c0-0.9,0.5-1.6,1.6-2.2
		c4.6-2.6,8.3-6.1,11.2-10.2c2.6-3.7,4.4-7.7,5.3-12.1c0.1-0.3,0.1-0.6,0.1-0.8c0-0.4-0.2-0.6-0.7-0.6c-0.3,0-0.8,0-1.3,0.1
		c-0.9,0.1-4.9,0.4-12.1,0.8c-2.7,0.2-5.6,0.4-8.7,0.7c-0.3,0-0.5,0-0.7,0c-2,0-2.9-1-2.9-3c0-1.5,0.7-2.4,2.2-2.7
		c0.7-0.1,7.7-0.6,21-1.4c1.3-0.1,2.4-0.1,3.1-0.2C177.3,14.1,178,14.1,178.2,14.1z"/>
	<path class="st1" d="M212.1,35.5c-3.9,2.4-7.7,4.4-11.5,5.9c-1.5,0.6-2.5,0.9-3.1,0.9c-0.8,0-1.4-0.3-1.7-0.9
		c-0.2-0.4-0.4-0.8-0.4-1.2c0-0.8,0.4-1.5,1.1-2c0.2-0.2,0.8-0.4,1.6-0.8c3.9-1.7,7.7-3.9,11.6-6.5c3.7-2.6,6.6-5.1,8.9-7.7
		c0.5-0.6,0.8-1,0.8-1.2c0-0.2-0.1-0.3-0.4-0.3c-0.1,0-0.4,0-0.9,0.1c-1.5,0.2-6,0.7-13.6,1.4c-0.3,0-0.5,0-0.7,0
		c-0.7,0-1.3-0.2-1.8-0.6c-0.6-0.5-0.9-1.2-0.9-2.1c0-1.3,0.6-2.2,1.7-2.6c0.3-0.1,1-0.2,2.1-0.2c5.2-0.2,11.1-0.8,17.8-1.6
		c0.3,0,0.6,0,0.8,0c0.9,0,1.7,0.2,2.3,0.7c0.9,0.7,1.4,1.5,1.4,2.6c0,0.9-0.4,2-1.3,3.2c-2.2,3.1-5.2,6.2-8.8,9.2
		c0.4,0.5,0.6,1,0.6,1.5V49c0,1.6-1,2.4-2.9,2.4c-1.9,0-2.9-0.8-2.9-2.4V35.5z M210,7.7c1.5,0,3.5,0.7,6,2.1c0.9,0.5,1.7,1,2.2,1.5
		c0.7,0.6,1.1,1.4,1.1,2.2c0,0.7-0.3,1.4-0.9,2c-0.6,0.7-1.4,1-2.2,1c-0.8,0-1.6-0.4-2.4-1.3c-1.3-1.4-2.8-2.6-4.5-3.7
		c-0.9-0.6-1.4-1.3-1.4-2.1c0-0.4,0.2-0.8,0.5-1.1C208.9,8,209.4,7.7,210,7.7z M222.3,30.8c0.7,0,1.8,0.3,3.2,1
		c5.5,2.5,8.3,4.8,8.3,6.8c0,0.7-0.3,1.4-0.8,2.1s-1.3,1-2.2,1c-0.8,0-1.7-0.5-2.6-1.4c-1.8-1.8-4.1-3.6-6.8-5.5
		c-0.9-0.6-1.3-1.3-1.3-2c0-0.4,0.1-0.7,0.3-1.1C220.8,31.2,221.4,30.8,222.3,30.8z"/>
</g>
<g class="st0">
	<path class="st2" d="M266,12l9.7-0.7c0,0,0.1,0,0.2,0c0.8,0,1.4,0.3,1.9,0.8c0.3,0.4,0.5,0.9,0.5,1.4c0,1-0.3,1.6-1,2.1
		c-0.3,0.2-0.7,0.3-1.1,0.4L266,16.6v2.2l15.8-1c0.6,0,1.2,0.1,1.6,0.4c0.7,0.5,1.1,1.1,1.1,2.1c0,1-0.4,1.8-1.1,2.2
		c-0.3,0.2-0.7,0.3-1.1,0.4l-38.2,2.2c-0.8,0-1.4-0.2-1.9-0.7c-0.5-0.5-0.7-1.1-0.7-1.9c0-0.9,0.4-1.6,1.1-2
		c0.3-0.2,0.7-0.3,1.1-0.3l5.7-0.4v-5.8c0-0.9,0.4-1.5,1.1-1.9c0.5-0.3,1.1-0.4,1.7-0.4c0.8,0,1.5,0.2,2,0.7c0.6,0.5,0.8,1,0.8,1.7
		v5.4l5-0.3V10c0-1,0.4-1.7,1.3-2.1c0.5-0.3,1.1-0.4,1.7-0.4c1.1,0,1.9,0.3,2.5,1c0.3,0.4,0.5,0.9,0.5,1.5V12z M275.4,49.5
		l-25.1,1.6c-0.2,0-0.5,0-0.8,0c-3,0-4.5-1.7-4.5-5V28.8c0-0.9,0.4-1.6,1.1-2c0.5-0.3,1.1-0.4,1.6-0.4c0.9,0,1.6,0.3,2.2,0.8
		c0.4,0.4,0.6,0.9,0.6,1.6v15.5c0,1.2,0.5,1.9,1.5,1.9c0,0,0.1,0,0.3,0l23.1-1.6V26.7c0-0.9,0.4-1.6,1.1-2c0.5-0.3,1-0.4,1.6-0.4
		c1,0,1.8,0.3,2.3,0.9c0.3,0.4,0.5,0.9,0.5,1.5v22.5c0,0.6-0.2,1.1-0.6,1.6c-0.5,0.6-1.3,0.9-2.2,0.9
		C276.5,51.7,275.6,51,275.4,49.5z M265.5,35.9c1.9,0.5,4,1.2,6.5,2.2c1.2,0.5,1.8,1.1,1.8,2c0,0.3-0.1,0.6-0.2,1
		c-0.3,0.8-1,1.2-1.8,1.2c-0.5,0-1.1-0.2-1.9-0.7c-1.5-0.8-2.7-1.5-3.7-1.9c-0.2-0.1-0.4-0.2-0.6-0.3v3.4c0,0.5-0.2,1-0.5,1.3
		c-0.5,0.5-1.2,0.8-2.1,0.8c-1.1,0-1.8-0.3-2.2-1c-0.2-0.3-0.3-0.7-0.3-1.1v-3.4c-1.9,1.7-3.7,3.1-5.6,4.1c-0.6,0.4-1.2,0.5-1.7,0.5
		c-0.5,0-1-0.2-1.3-0.6c-0.3-0.3-0.4-0.7-0.4-1.1c0-0.7,0.5-1.4,1.4-2c1.4-0.9,3.1-2.4,5.1-4.5l-4,0.3l-0.3,0c-0.5,0-1-0.1-1.4-0.5
		c-0.4-0.3-0.6-0.8-0.6-1.5c0-1.3,0.6-2,1.8-2.1L255,32c-0.3-0.2-0.6-0.6-0.8-1.1c-0.2-0.4-0.5-0.9-1-1.7c-0.5-0.8-0.8-1.4-0.8-1.8
		c0-0.4,0.2-0.8,0.5-1.2c0.3-0.3,0.7-0.5,1.1-0.5c0.5,0,1.1,0.3,1.7,0.8c1,0.9,1.7,1.6,2.1,2c0.4,0.5,0.6,1,0.6,1.6
		c0,0.6-0.3,1.1-0.8,1.6l2.8-0.2v-4.5c0-0.8,0.3-1.3,1-1.7c0.5-0.2,1-0.4,1.5-0.4c0.7,0,1.3,0.2,1.8,0.5c0.5,0.4,0.8,0.9,0.8,1.5
		v4.1l2-0.2c-0.4-0.3-0.6-0.6-0.6-1.1c0-0.3,0.2-0.7,0.5-1.2c0.6-0.8,1.2-1.7,1.7-2.7c0.5-0.9,1.1-1.3,2-1.3c0.5,0,0.9,0.1,1.4,0.4
		c0.7,0.4,1,1,1,1.7c0,0.5-0.2,1-0.7,1.5c-1.1,1.1-2.1,2-3,2.6l2.3-0.2l0.2,0c0.4,0,0.8,0.1,1.1,0.3c0.6,0.4,0.9,1,0.9,1.8
		c0,1.3-0.6,2-1.9,2.1l-7,0.5V35.9z"/>
	<path class="st2" d="M302.6,28.4c2.6,1.5,4.2,2.4,4.7,2.9c0.8,0.7,1.2,1.4,1.2,2.2c0,0.6-0.2,1.1-0.6,1.6c-0.5,0.5-1.1,0.8-1.8,0.8
		c-0.8,0-1.4-0.4-2.1-1.2c-0.4-0.5-0.8-1-1.5-1.7v15.8c0,0.6-0.2,1.1-0.6,1.5c-0.5,0.5-1.2,0.8-2.1,0.8c-1.2,0-2-0.4-2.4-1.2
		c-0.2-0.3-0.3-0.7-0.3-1.1V35.2c-1.6,2.7-3.2,4.9-4.9,6.7c-0.8,0.8-1.5,1.2-2.1,1.2c-0.5,0-0.9-0.2-1.3-0.6
		c-0.4-0.4-0.5-0.8-0.5-1.3c0-0.6,0.4-1.4,1.2-2.4c1.7-2.2,3.6-5.5,5.9-9.8l0.7-1.3l-4.5,0.5c-0.1,0-0.2,0-0.4,0c-1,0-1.6-0.4-2-1.3
		c-0.2-0.4-0.2-0.8-0.2-1.3c0-1.4,0.7-2.2,2-2.4l6.1-0.8v-4.9c-2.8,0.7-4.4,1.1-5,1.1c-0.8,0-1.4-0.3-1.8-1c-0.2-0.3-0.3-0.7-0.3-1
		c0-0.8,0.4-1.3,1.1-1.7c0.2-0.1,0.6-0.3,1.4-0.5c3.2-0.9,6.6-2.3,10.1-4.1c0.7-0.3,1.3-0.5,1.9-0.5c0.8,0,1.5,0.4,1.9,1.1
		c0.4,0.5,0.5,1.1,0.5,1.6c0,1-0.5,1.7-1.6,2.3c-0.6,0.3-1.5,0.7-2.9,1.2v5.9l3.7-0.5c0,0,0.2,0,0.3,0c0.5,0,1,0.2,1.4,0.5
		c0.5,0.5,0.8,1.1,0.8,1.9c0,1.6-0.7,2.4-2,2.6l-4.2,0.5V28.4z M326.6,31.6l3.7-0.8c0.2,0,0.4-0.1,0.6-0.1c1,0,1.7,0.5,2.1,1.5
		c0.2,0.4,0.3,0.9,0.3,1.4c0,1.5-0.6,2.3-1.9,2.6l-4.7,1v12.3c0,0.6-0.2,1-0.5,1.5c-0.6,0.6-1.3,0.9-2.3,0.9c-1.2,0-2.1-0.4-2.6-1.3
		c-0.2-0.3-0.3-0.7-0.3-1.1V38.5l-10.5,2.3c-0.2,0-0.5,0.1-0.7,0.1c-1.1,0-1.8-0.6-2.2-1.7c-0.1-0.4-0.2-0.8-0.2-1.2
		c0-1.4,0.6-2.2,1.9-2.5l11.7-2.6V10.5c0-0.9,0.4-1.6,1.1-2c0.5-0.3,1.1-0.5,1.7-0.5c0.9,0,1.6,0.3,2.2,0.8c0.5,0.4,0.7,1,0.7,1.7
		V31.6z M311.3,23c0.4,0,0.8,0.1,1.3,0.3c2.2,0.8,3.9,1.5,5,2.3c0.9,0.6,1.3,1.4,1.3,2.3c0,0.7-0.2,1.2-0.7,1.8
		c-0.6,0.7-1.3,1-2.1,1c-0.7,0-1.3-0.4-2-1.1c-0.6-0.7-1.8-1.6-3.4-2.9c-0.8-0.6-1.2-1.2-1.2-1.9c0-0.4,0.1-0.8,0.4-1.1
		C310.2,23.3,310.7,23,311.3,23z M312.5,13.6c0.5,0,1.3,0.2,2.4,0.6c1.6,0.6,2.9,1.3,3.9,1.9c0.8,0.6,1.2,1.3,1.2,2.3
		c0,0.7-0.2,1.3-0.7,1.8c-0.5,0.7-1.2,1-2.1,1c-0.7,0-1.4-0.3-2-1c-0.7-0.7-1.9-1.7-3.6-3c-0.7-0.5-1-1.1-1-1.8
		c0-0.4,0.1-0.7,0.3-1.1C311.2,13.9,311.7,13.6,312.5,13.6z"/>
	<path class="st2" d="M346.5,16.1v27c0,1.2,0.6,1.8,1.7,1.8c0.1,0,0.1,0,0.2,0l28.9-1c0.3,0,0.6,0,0.8,0.1c1,0.3,1.5,1.1,1.5,2.3
		c0,1-0.3,1.8-1,2.3c-0.3,0.2-0.7,0.3-1.1,0.4l-31.5,0.9c-0.1,0-0.2,0-0.3,0c-3.3,0-4.9-1.6-4.9-4.8V16.4c-1.3-0.1-1.9-0.9-1.9-2.4
		c0-1.6,0.7-2.4,2-2.4l34.6-2l0.2,0c0.6,0,1.2,0.2,1.6,0.7c0.4,0.4,0.5,0.9,0.5,1.6c0,1.5-0.7,2.4-2.1,2.4L346.5,16.1z M364.6,23.4
		v0.9c0,1.2,0,2.4-0.1,3.5l10.3-0.6c0,0,0.1,0,0.2,0c1.3,0,2,0.8,2,2.3c0,1.3-0.7,2.1-2,2.1l-9.7,0.5c0.1,0.1,0.2,0.2,0.3,0.4
		c2.3,2.8,5.3,5,9,6.8c1.1,0.5,1.6,1,1.6,1.4c0,0.4-0.4,0.8-1.1,1.1c-1.7,0.7-3,1.1-4,1.1c-0.8,0-1.4-0.2-1.9-0.7
		c-2.3-2-4.4-4.5-6.4-7.3c-1.4,3.1-3.7,5.6-6.9,7.6c-2,1.2-3.4,1.8-4.4,1.8c-0.7,0-1.2-0.3-1.5-0.9c-0.2-0.3-0.4-0.7-0.4-1.1
		c0-0.5,0.2-0.9,0.5-1.2c0.1-0.1,0.5-0.3,1.1-0.7c2.8-1.5,4.9-3.7,6.3-6.7c0.2-0.4,0.4-0.8,0.5-1.2l-8.1,0.4c0,0-0.1,0-0.2,0
		c-1.4,0-2-0.7-2-2.1c0-1.4,0.7-2.1,2-2.2l9.4-0.6c0.1-1.1,0.2-2.3,0.2-3.6v-0.7l-3.3,0.2c-2,2.5-3.6,3.8-4.6,3.8
		c-0.3,0-0.7-0.1-1-0.3c-0.5-0.3-0.8-0.8-0.8-1.5c0-0.4,0.2-0.9,0.8-1.6c1.6-2.1,2.9-4.4,3.8-7c0.4-1,1.1-1.5,2.2-1.5
		c0.5,0,0.9,0.1,1.3,0.3c1,0.5,1.5,1.1,1.5,2c0,0.4-0.1,0.9-0.4,1.5l12-0.9c0.2,0,0.5,0,0.8,0.1c1,0.2,1.5,0.9,1.5,1.9
		c0,1.4-0.6,2.1-1.9,2.2L364.6,23.4z"/>
	<path class="st2" d="M391.6,35.3V49c0,0.5-0.2,1-0.5,1.4c-0.5,0.5-1.1,0.8-1.9,0.8c-1,0-1.8-0.4-2.2-1.1c-0.2-0.3-0.3-0.7-0.3-1.1
		V15.8c-0.9-0.3-1.4-1.1-1.4-2.4c0-1.3,0.6-2.1,1.9-2.2l9.4-1c0.2,0,0.4,0,0.6,0c2.1,0,3.1,0.9,3.1,2.8c0,0.7-0.3,2-1,3.9
		s-1.4,3.9-2.4,6c2.1,2.9,3.2,6.1,3.2,9.5c0,1.4-0.3,2.5-1,3.2c-0.6,0.8-1.5,1.2-2.6,1.2C394.9,36.8,393.2,36.3,391.6,35.3z
		 M391.6,31.7c0.2,0,0.3,0,0.3,0c0.2,0,0.4,0,0.7,0.1c0.6,0.2,1.1,0.3,1.6,0.3c0.8,0,1.1-0.5,1.1-1.6c0-1.7-0.8-3.9-2.5-6.7
		c-0.2-0.3-0.3-0.7-0.3-1c0-0.6,0.2-1,0.7-1.5c1-3.2,1.5-5.1,1.5-5.7c0-0.4-0.2-0.6-0.7-0.6c-0.1,0-0.1,0-0.2,0l-2.3,0.3V31.7z
		 M419.6,34.3L419.3,45c0,0.6,0.2,0.9,0.8,1.1c0.3,0.1,0.8,0.1,1.6,0.1c1.2,0,2-0.1,2.4-0.3c0.4-0.2,0.6-0.6,0.7-1.1
		c0.1-0.9,0.2-2.1,0.3-3.5c0-1,0.5-1.5,1.5-1.5c0.8,0,1.4,0.6,1.7,1.9c0.5,1.9,0.7,3.7,0.7,5.4c0,1.8-0.7,2.9-2.2,3.4
		c-1.1,0.4-3.1,0.6-6.1,0.6c-2.6,0-4.4-0.3-5.2-0.9c-0.8-0.6-1.2-1.7-1.3-3.3v-0.2l0.3-12l-3.8,0.3c0.9,0.4,1.3,1,1.3,2
		c0,0.8-0.3,2-0.9,3.6c-1.5,3.9-4.2,6.9-8,9.1c-1.3,0.8-2.5,1.2-3.4,1.2c-0.6,0-1.1-0.2-1.4-0.7c-0.3-0.4-0.4-0.8-0.4-1.2
		c0-0.7,0.5-1.3,1.4-1.9c1.9-1.2,3.6-2.8,5-4.8c1.2-1.8,2.1-3.7,2.6-5.8c0.1-0.5,0.3-0.9,0.6-1.2l-4.3,0.4c-0.1,0-0.2,0-0.4,0
		c-0.6,0-1.1-0.2-1.5-0.6c-0.4-0.4-0.6-1-0.6-1.6c0-1.5,0.7-2.3,2.1-2.4l22.1-1.7c0,0,0.1,0,0.2,0c1.4,0,2.1,0.7,2.1,2.2
		c0,1.5-0.7,2.3-2,2.4L419.6,34.3z M416.4,14.8l8-0.8c0.3,0,0.6,0,0.7,0c0.8,0,1.5,0.2,2.1,0.5c0.7,0.4,1.1,1.1,1.1,1.9
		c0,1.3-1,3.2-3.1,5.6c-0.8,1-1.6,1.5-2.2,1.5c-0.3,0-0.6-0.1-0.8-0.3c-0.4-0.3-0.6-0.6-0.6-1.1c0-0.2,0.1-0.4,0.2-0.7
		c0.4-1,0.6-1.7,0.6-2.1c0-0.4-0.2-0.6-0.7-0.6c0,0-0.1,0-0.2,0l-15.6,1.6c0,0.2,0,0.3,0,0.4c-0.2,3.5-1.1,5.2-2.9,5.2
		c-0.5,0-1-0.1-1.4-0.3c-0.8-0.4-1.3-1.1-1.3-2c0-0.4,0.1-0.8,0.3-1.3c0.7-1.8,1.1-3.7,1.2-5.7c0.1-1.3,0.7-1.9,1.9-1.9
		c1.1,0,1.7,0.5,1.9,1.4l5.3-0.6v-5.3c0-0.9,0.4-1.5,1.1-1.9c0.5-0.3,1-0.4,1.6-0.4c0.9,0,1.6,0.3,2.1,0.8c0.4,0.4,0.6,0.9,0.6,1.5
		V14.8z M419.6,26.6l-11.9,1.1c-0.1,0-0.2,0-0.3,0c-1.3,0-1.9-0.7-1.9-2c0-1.4,0.6-2.2,1.9-2.3l11.9-1.1c0,0,0.1,0,0.3,0
		c1.4,0,2.2,0.7,2.2,2C421.7,25.6,421,26.4,419.6,26.6z"/>
</g>
<g class="st0">
	<path class="st1" d="M112.4,73.5l0.1,7.7c0,0.1,0,0.3-0.1,0.4c-0.2,0.3-0.4,0.4-0.8,0.4c-0.3,0-0.5-0.1-0.7-0.3
		c-0.1-0.1-0.2-0.3-0.2-0.5v-8.3c0-0.5,0.2-0.8,0.5-1.1c0.3-0.2,0.7-0.4,1.1-0.4c0.8,0,1.3,0.4,1.6,1.2l2.3,6.7l2.3-6.7
		c0.3-0.8,0.8-1.2,1.6-1.2c0.5,0,0.9,0.2,1.2,0.5c0.2,0.3,0.4,0.6,0.4,1v8.3c0,0.2-0.1,0.4-0.2,0.5c-0.2,0.2-0.4,0.3-0.7,0.3
		c-0.3,0-0.6-0.1-0.7-0.3c-0.1-0.1-0.2-0.3-0.2-0.5l0.1-7.7l-2.5,7.2c-0.1,0.2-0.2,0.4-0.3,0.5c-0.3,0.3-0.6,0.5-0.9,0.5
		c-0.6,0-1-0.3-1.2-1L112.4,73.5z"/>
	<path class="st1" d="M125.9,73h-1c-0.2,0-0.3,0-0.4-0.2c-0.1-0.1-0.2-0.3-0.2-0.6c0-0.3,0.1-0.5,0.3-0.6c0.1-0.1,0.2-0.1,0.3-0.1
		h3.9c0.2,0,0.3,0,0.4,0.2c0.1,0.1,0.2,0.3,0.2,0.6c0,0.3-0.1,0.5-0.3,0.6c-0.1,0.1-0.2,0.1-0.3,0.1h-1v7.4h1c0.2,0,0.3,0,0.4,0.2
		c0.1,0.1,0.2,0.3,0.2,0.6c0,0.3-0.1,0.5-0.3,0.6c-0.1,0.1-0.2,0.1-0.3,0.1h-3.9c-0.2,0-0.3,0-0.4-0.2c-0.1-0.1-0.2-0.3-0.2-0.6
		c0-0.3,0.1-0.5,0.3-0.6c0.1-0.1,0.2-0.1,0.3-0.1h1V73z"/>
	<path class="st1" d="M134.1,77.5v3.7c0,0.2,0,0.3-0.1,0.4c-0.2,0.2-0.5,0.3-0.8,0.3c-0.3,0-0.6-0.1-0.8-0.3
		c-0.1-0.1-0.2-0.3-0.2-0.5V73c0-1,0.5-1.4,1.4-1.4h5.3c0.2,0,0.3,0.1,0.4,0.2c0.2,0.2,0.2,0.4,0.2,0.6c0,0.3-0.1,0.6-0.4,0.7
		c-0.1,0.1-0.2,0.1-0.3,0.1h-4.6c-0.2,0-0.3,0.1-0.3,0.3v2.4h4.2c0.2,0,0.3,0.1,0.4,0.2c0.2,0.2,0.2,0.4,0.2,0.6
		c0,0.3-0.1,0.6-0.3,0.7c-0.1,0.1-0.2,0.1-0.3,0.1H134.1z"/>
	<path class="st1" d="M143.9,72.2v5.4c0,1.8,0.8,2.7,2.4,2.7s2.4-0.9,2.4-2.7v-5.4c0-0.2,0.1-0.4,0.2-0.5c0.2-0.2,0.4-0.2,0.7-0.2
		c0.3,0,0.6,0.1,0.8,0.3c0.1,0.1,0.2,0.3,0.2,0.5v5.7c0,1.1-0.2,1.9-0.7,2.5c-0.2,0.2-0.4,0.5-0.7,0.7c-0.8,0.6-1.8,0.9-2.9,0.9
		c-1.3,0-2.3-0.4-3.2-1.2c-0.5-0.4-0.8-1-1-1.6c-0.1-0.4-0.2-0.9-0.2-1.4v-5.7c0-0.3,0.1-0.5,0.4-0.6c0.2-0.1,0.4-0.1,0.6-0.1
		c0.2,0,0.5,0.1,0.6,0.2C143.8,71.7,143.9,71.9,143.9,72.2z"/>
	<path class="st1" d="M160.6,79l-0.1-6.8c0-0.2,0.1-0.4,0.2-0.5c0.2-0.2,0.4-0.3,0.7-0.3c0.3,0,0.6,0.1,0.8,0.3
		c0.1,0.1,0.2,0.3,0.2,0.4v8.5c0,0.4-0.1,0.7-0.3,0.9c-0.2,0.3-0.5,0.4-0.9,0.4c-0.6,0-1-0.3-1.3-0.8l-4.3-7.5l0.1,7.6
		c0,0.2-0.1,0.4-0.2,0.5c-0.2,0.2-0.4,0.2-0.7,0.2c-0.4,0-0.6-0.1-0.8-0.4c-0.1-0.1-0.1-0.2-0.1-0.4v-8.4c0-0.5,0.2-0.9,0.7-1.2
		c0.2-0.1,0.5-0.2,0.7-0.2c0.7,0,1.2,0.3,1.5,0.9L160.6,79z"/>
	<path class="st1" d="M167.5,77.3v2.5c0,0.2,0.1,0.3,0.3,0.3h4.9c0.2,0,0.3,0.1,0.5,0.2c0.1,0.2,0.2,0.4,0.2,0.6
		c0,0.4-0.1,0.6-0.4,0.7c-0.1,0.1-0.2,0.1-0.3,0.1h-5.7c-0.9,0-1.4-0.5-1.4-1.4v-7.5c0-0.9,0.5-1.4,1.4-1.4h5.5
		c0.2,0,0.3,0.1,0.4,0.2c0.2,0.2,0.3,0.4,0.3,0.6c0,0.3-0.1,0.6-0.4,0.7c-0.1,0.1-0.2,0.1-0.3,0.1h-4.7c-0.2,0-0.3,0.1-0.3,0.3v2.3
		h4.3c0.2,0,0.3,0,0.4,0.2c0.2,0.2,0.2,0.4,0.2,0.7c0,0.3-0.1,0.6-0.3,0.7c-0.1,0.1-0.2,0.1-0.3,0.1H167.5z"/>
	<path class="st1" d="M182.4,71.6h2.1c1.3,0,2.4,0.3,3.2,0.8c0.7,0.4,1.2,1,1.6,1.7c0.4,0.8,0.6,1.6,0.6,2.6c0,1.3-0.3,2.4-1,3.3
		c-1,1.2-2.4,1.9-4.4,1.9h-2.1c-1.1,0-1.6-0.5-1.6-1.6v-7C180.8,72.1,181.4,71.6,182.4,71.6z M182.8,73.5v6.3c0,0.2,0.1,0.3,0.3,0.3
		h1.2c0.9,0,1.7-0.2,2.2-0.5c1-0.6,1.5-1.6,1.5-3c0-0.8-0.2-1.5-0.5-2.1c-0.4-0.7-1-1.1-1.8-1.3c-0.4-0.1-0.8-0.1-1.3-0.1h-1.2
		C182.9,73.2,182.8,73.3,182.8,73.5z"/>
	<path class="st1" d="M194.6,77.3v2.5c0,0.2,0.1,0.3,0.3,0.3h4.9c0.2,0,0.3,0.1,0.5,0.2c0.1,0.2,0.2,0.4,0.2,0.6
		c0,0.4-0.1,0.6-0.4,0.7c-0.1,0.1-0.2,0.1-0.3,0.1H194c-0.9,0-1.4-0.5-1.4-1.4v-7.5c0-0.9,0.5-1.4,1.4-1.4h5.5
		c0.2,0,0.3,0.1,0.4,0.2c0.2,0.2,0.3,0.4,0.3,0.6c0,0.3-0.1,0.6-0.4,0.7c-0.1,0.1-0.2,0.1-0.3,0.1h-4.7c-0.2,0-0.3,0.1-0.3,0.3v2.3
		h4.3c0.2,0,0.3,0,0.4,0.2c0.2,0.2,0.2,0.4,0.2,0.7c0,0.3-0.1,0.6-0.3,0.7c-0.1,0.1-0.2,0.1-0.3,0.1H194.6z"/>
	<path class="st1" d="M209.7,79l-0.1-6.8c0-0.2,0.1-0.4,0.2-0.5c0.2-0.2,0.4-0.3,0.7-0.3c0.3,0,0.6,0.1,0.8,0.3
		c0.1,0.1,0.2,0.3,0.2,0.4v8.5c0,0.4-0.1,0.7-0.3,0.9c-0.2,0.3-0.5,0.4-0.9,0.4c-0.6,0-1-0.3-1.3-0.8l-4.3-7.5l0.1,7.6
		c0,0.2-0.1,0.4-0.2,0.5c-0.2,0.2-0.4,0.2-0.7,0.2c-0.4,0-0.6-0.1-0.8-0.4c-0.1-0.1-0.1-0.2-0.1-0.4v-8.4c0-0.5,0.2-0.9,0.7-1.2
		c0.2-0.1,0.5-0.2,0.7-0.2c0.7,0,1.2,0.3,1.5,0.9L209.7,79z"/>
	<path class="st1" d="M217.2,73.3h-2.9c-0.1,0-0.2,0-0.3-0.1c-0.2-0.1-0.4-0.4-0.4-0.8c0-0.3,0.1-0.5,0.3-0.7
		c0.1-0.1,0.3-0.2,0.4-0.2h7.8c0.1,0,0.3,0,0.4,0.1c0.2,0.2,0.3,0.4,0.3,0.7c0,0.3-0.1,0.5-0.3,0.7c-0.1,0.1-0.3,0.1-0.4,0.1h-2.9
		v7.9c0,0.2-0.1,0.4-0.2,0.6c-0.2,0.2-0.4,0.2-0.7,0.2c-0.4,0-0.7-0.1-0.9-0.4c-0.1-0.1-0.1-0.2-0.1-0.4V73.3z"/>
	<path class="st1" d="M226.8,79.1l-0.8,2.1c-0.2,0.5-0.5,0.7-0.9,0.7c-0.2,0-0.3,0-0.5-0.1c-0.3-0.2-0.5-0.4-0.5-0.7
		c0-0.1,0-0.3,0.1-0.5l3.3-8.2c0.3-0.7,0.8-1.1,1.4-1.1c0.7,0,1.1,0.4,1.4,1.1l3.3,8.2c0.1,0.2,0.1,0.3,0.1,0.5
		c0,0.3-0.2,0.5-0.5,0.7c-0.2,0.1-0.4,0.1-0.6,0.1c-0.4,0-0.7-0.2-0.9-0.7l-0.8-2.1H226.8z M228.8,73.3l-1.5,4.2h2.9L228.8,73.3z"/>
	<path class="st1" d="M237.8,72.2v7.6c0,0.2,0.1,0.3,0.3,0.3h4.5c0.1,0,0.2,0,0.3,0.1c0.2,0.1,0.4,0.4,0.4,0.7
		c0,0.3-0.1,0.5-0.3,0.7c-0.1,0.1-0.3,0.2-0.4,0.2h-5.3c-1,0-1.5-0.5-1.5-1.5v-8.1c0-0.3,0.1-0.5,0.4-0.7c0.2-0.1,0.3-0.1,0.5-0.1
		c0.3,0,0.5,0.1,0.7,0.2C237.7,71.8,237.8,72,237.8,72.2z"/>
	<path class="st1" d="M254.9,71.3c1.3,0,2.4,0.4,3.2,1.1c0.4,0.4,0.7,0.8,0.7,1.1c0,0.2-0.1,0.4-0.2,0.6c-0.2,0.2-0.4,0.3-0.7,0.3
		c-0.2,0-0.4-0.1-0.6-0.2c0,0-0.1-0.1-0.2-0.2c-0.5-0.7-1.2-1-2.1-1c-0.7,0-1.3,0.2-1.8,0.7c-0.7,0.7-1.1,1.7-1.1,3
		c0,1,0.2,1.8,0.6,2.4c0.5,0.8,1.3,1.2,2.3,1.2c1,0,1.8-0.4,2.5-1.3c0.2-0.2,0.4-0.3,0.6-0.3c0.3,0,0.5,0.1,0.7,0.3
		c0.2,0.2,0.3,0.4,0.3,0.7c0,0.3-0.1,0.6-0.4,0.9c-0.9,1-2.1,1.5-3.7,1.5c-1.6,0-2.8-0.5-3.8-1.6c-0.8-0.9-1.2-2.2-1.2-3.7
		c0-1.6,0.5-3,1.4-4C252.3,71.8,253.5,71.3,254.9,71.3z"/>
	<path class="st1" d="M263.5,72.2v7.6c0,0.2,0.1,0.3,0.3,0.3h4.5c0.1,0,0.2,0,0.3,0.1c0.2,0.1,0.4,0.4,0.4,0.7
		c0,0.3-0.1,0.5-0.3,0.7c-0.1,0.1-0.3,0.2-0.4,0.2H263c-1,0-1.5-0.5-1.5-1.5v-8.1c0-0.3,0.1-0.5,0.4-0.7c0.2-0.1,0.3-0.1,0.5-0.1
		c0.3,0,0.5,0.1,0.7,0.2C263.4,71.8,263.5,72,263.5,72.2z"/>
	<path class="st1" d="M272.3,73h-1c-0.2,0-0.3,0-0.4-0.2c-0.1-0.1-0.2-0.3-0.2-0.6c0-0.3,0.1-0.5,0.3-0.6c0.1-0.1,0.2-0.1,0.3-0.1
		h3.9c0.2,0,0.3,0,0.4,0.2c0.1,0.1,0.2,0.3,0.2,0.6c0,0.3-0.1,0.5-0.3,0.6c-0.1,0.1-0.2,0.1-0.3,0.1h-1v7.4h1c0.2,0,0.3,0,0.4,0.2
		c0.1,0.1,0.2,0.3,0.2,0.6c0,0.3-0.1,0.5-0.3,0.6c-0.1,0.1-0.2,0.1-0.3,0.1h-3.9c-0.2,0-0.3,0-0.4-0.2c-0.1-0.1-0.2-0.3-0.2-0.6
		c0-0.3,0.1-0.5,0.3-0.6c0.1-0.1,0.2-0.1,0.3-0.1h1V73z"/>
	<path class="st1" d="M285.3,79l-0.1-6.8c0-0.2,0.1-0.4,0.2-0.5c0.2-0.2,0.4-0.3,0.7-0.3c0.3,0,0.6,0.1,0.8,0.3
		c0.1,0.1,0.2,0.3,0.2,0.4v8.5c0,0.4-0.1,0.7-0.3,0.9c-0.2,0.3-0.5,0.4-0.9,0.4c-0.6,0-1-0.3-1.3-0.8l-4.3-7.5l0.1,7.6
		c0,0.2-0.1,0.4-0.2,0.5c-0.2,0.2-0.4,0.2-0.7,0.2c-0.4,0-0.6-0.1-0.8-0.4c-0.1-0.1-0.1-0.2-0.1-0.4v-8.4c0-0.5,0.2-0.9,0.7-1.2
		c0.2-0.1,0.5-0.2,0.7-0.2c0.7,0,1.2,0.3,1.5,0.9L285.3,79z"/>
	<path class="st1" d="M291.4,73h-1c-0.2,0-0.3,0-0.4-0.2c-0.1-0.1-0.2-0.3-0.2-0.6c0-0.3,0.1-0.5,0.3-0.6c0.1-0.1,0.2-0.1,0.3-0.1
		h3.9c0.2,0,0.3,0,0.4,0.2c0.1,0.1,0.2,0.3,0.2,0.6c0,0.3-0.1,0.5-0.3,0.6c-0.1,0.1-0.2,0.1-0.3,0.1h-1v7.4h1c0.2,0,0.3,0,0.4,0.2
		c0.1,0.1,0.2,0.3,0.2,0.6c0,0.3-0.1,0.5-0.3,0.6c-0.1,0.1-0.2,0.1-0.3,0.1h-3.9c-0.2,0-0.3,0-0.4-0.2c-0.1-0.1-0.2-0.3-0.2-0.6
		c0-0.3,0.1-0.5,0.3-0.6c0.1-0.1,0.2-0.1,0.3-0.1h1V73z"/>
	<path class="st1" d="M302,71.3c1.3,0,2.4,0.4,3.2,1.1c0.4,0.4,0.7,0.8,0.7,1.1c0,0.2-0.1,0.4-0.2,0.6c-0.2,0.2-0.4,0.3-0.7,0.3
		c-0.2,0-0.4-0.1-0.6-0.2c0,0-0.1-0.1-0.2-0.2c-0.5-0.7-1.2-1-2.1-1c-0.7,0-1.3,0.2-1.8,0.7c-0.7,0.7-1.1,1.7-1.1,3
		c0,1,0.2,1.8,0.6,2.4c0.5,0.8,1.3,1.2,2.3,1.2c1,0,1.8-0.4,2.5-1.3c0.2-0.2,0.4-0.3,0.6-0.3c0.3,0,0.5,0.1,0.7,0.3
		c0.2,0.2,0.3,0.4,0.3,0.7c0,0.3-0.1,0.6-0.4,0.9c-0.9,1-2.1,1.5-3.7,1.5c-1.6,0-2.8-0.5-3.8-1.6c-0.8-0.9-1.2-2.2-1.2-3.7
		c0-1.6,0.5-3,1.4-4C299.4,71.8,300.5,71.3,302,71.3z"/>
</g>
<circle id="楕円形_13" class="st3" cx="42" cy="42" r="35"/>
<g id="楕円形_14">
	<circle class="st4" cx="42" cy="42" r="42"/>
	<circle class="st5" cx="42" cy="42" r="40"/>
</g>
<g id="歯科医のアイコン2" transform="translate(-26.654 17)">
	<path id="パス_13" class="st6" d="M82.1,15.5c-1.6-1.3-3.5-2-5.6-2c-1.2,0-2.4,0.2-3.5,0.5c-0.9,0.2-1.8,0.4-2.7,0.4
		c-0.9,0-1.8-0.2-2.7-0.4c-1.1-0.3-2.3-0.5-3.5-0.5c-2,0-4,0.7-5.6,2c-1.4,1.1-2.5,2.5-3.1,4.2c-0.7,1.7-1,3.6-0.9,5.5
		c0.1,3.4,0.7,6.8,1.8,10c1.2,3.7,2.2,6.4,3,8.4c0.4,1,0.7,1.8,0.9,2.4c0.2,0.4,0.3,0.9,0.4,1.4c0.2,0.9,0.6,1.8,1.3,2.5
		c0.6,0.6,1.5,0.9,2.4,0.9c0.9,0,1.8-0.3,2.5-0.9c0.7-0.7,1.3-1.6,1.5-2.6c0.1-0.3,0.1-0.7,0.2-1c0.1-0.6,0.2-1.4,0.2-2.2
		c0.1-1.1,0.3-2.2,0.7-3.2c0.1-0.3,0.3-0.6,0.5-0.8c0.1-0.1,0.2-0.2,0.4-0.2c0.1,0,0.2,0,0.3,0.1c0.3,0.3,0.5,0.6,0.7,1
		c0.4,1.1,0.6,2.1,0.7,3.3c0.1,0.6,0.1,1.2,0.2,1.7c0,0.5,0.1,0.9,0.2,1.4c0.2,1,0.7,1.9,1.5,2.6c0.7,0.6,1.5,0.9,2.5,0.9
		c0.9,0,1.7-0.3,2.4-0.9c0.7-0.7,1.2-1.5,1.3-2.5c0.1-0.5,0.2-0.9,0.4-1.4c0.7-1.9,2.1-5.3,3.9-10.8c1.1-3.2,1.7-6.6,1.8-10
		c0-1.9-0.3-3.7-0.9-5.5C84.5,18,83.4,16.6,82.1,15.5z M81.9,34.3c-1.2,3.6-2.2,6.3-2.9,8.3c-0.4,1-0.7,1.8-0.9,2.5
		c-0.2,0.6-0.4,1.2-0.5,1.8c-0.1,0.4-0.2,0.8-0.5,1.1c-0.2,0.2-0.4,0.3-0.7,0.3c-0.3,0-0.6-0.1-0.8-0.3c-0.4-0.3-0.6-0.8-0.7-1.3
		c0-0.1-0.1-0.4-0.1-0.7c-0.1-0.6-0.1-1.4-0.3-2.2c-0.1-1.3-0.4-2.6-0.9-3.9c-0.3-0.6-0.6-1.2-1.1-1.7c-1-0.9-2.6-1.1-3.7-0.3
		c-0.8,0.5-1.3,1.3-1.6,2.2c-0.4,1.3-0.7,2.6-0.9,3.9c-0.1,0.6-0.1,1.2-0.2,1.7c0,0.4-0.1,0.7-0.2,1.1c-0.1,0.5-0.3,0.9-0.7,1.3
		c-0.2,0.2-0.5,0.3-0.8,0.3c-0.3,0-0.5-0.1-0.7-0.3c-0.3-0.3-0.5-0.7-0.5-1.1c-0.1-0.6-0.3-1.2-0.5-1.8c-0.7-2-2.1-5.3-3.9-10.7
		c-1-3-1.6-6.1-1.7-9.2c0-1.5,0.2-3.1,0.8-4.5c0.5-1.2,1.3-2.3,2.3-3.1c1.1-0.9,2.5-1.5,4-1.5c1,0,2,0.2,2.9,0.4
		c2.1,0.7,4.4,0.7,6.5,0c1-0.3,2-0.4,3-0.4c1.5,0,2.9,0.5,4,1.5c1,0.8,1.8,1.9,2.3,3.1c0.5,1.4,0.8,3,0.8,4.5
		C83.5,28.2,82.9,31.3,81.9,34.3L81.9,34.3z"/>
	<path id="パス_14" class="st6" d="M89.4,5.9l-4.3-1.1c-0.1,0-0.2-0.1-0.2-0.2l-1.1-4.3c0-0.1-0.2-0.2-0.3-0.2
		c-0.1,0-0.2,0.1-0.2,0.2l-1.1,4.3c0,0.1-0.1,0.2-0.2,0.2l-4.3,1.1c-0.1,0-0.2,0.2-0.2,0.3c0,0.1,0.1,0.2,0.2,0.2l4.3,1.1
		c0.1,0,0.2,0.1,0.2,0.2l1.1,4.3c0,0.1,0.2,0.2,0.3,0.2c0.1,0,0.2-0.1,0.2-0.2l1.1-4.3c0-0.1,0.1-0.2,0.2-0.2l4.3-1.1
		c0.1,0,0.2-0.2,0.2-0.3C89.6,6,89.5,5.9,89.4,5.9L89.4,5.9z"/>
	<path id="パス_15" class="st6" d="M70.4,25.3l-3.9-1c-0.1,0-0.2-0.1-0.2-0.2l-1-3.9c0-0.1-0.2-0.2-0.3-0.2
		c-0.1,0-0.2,0.1-0.2,0.2l-1,3.9c0,0.1-0.1,0.2-0.2,0.2l-3.9,1c-0.1,0-0.2,0.2-0.2,0.3c0,0.1,0.1,0.2,0.2,0.2l3.9,1
		c0.1,0,0.2,0.1,0.2,0.2l1,3.9c0,0.1,0.2,0.2,0.3,0.2c0.1,0,0.2-0.1,0.2-0.2l1-3.9c0-0.1,0.1-0.2,0.2-0.2l3.9-1
		c0.1,0,0.2-0.2,0.2-0.3C70.6,25.4,70.5,25.3,70.4,25.3L70.4,25.3z"/>
	<path id="パス_16" class="st6" d="M54.7,12.9L58,12c0.1,0,0.2-0.1,0.2-0.2c0-0.1-0.1-0.1-0.2-0.2l-3.3-0.9
		c-0.1,0-0.2-0.1-0.2-0.2l-0.9-3.3c0-0.1-0.1-0.2-0.3-0.2c-0.1,0-0.1,0.1-0.2,0.2l-0.9,3.3c0,0.1-0.1,0.2-0.2,0.2l-3.3,0.9
		c-0.1,0-0.2,0.1-0.2,0.2c0,0.1,0.1,0.1,0.2,0.2l3.3,0.9c0.1,0,0.2,0.1,0.2,0.2l0.9,3.3c0,0.1,0.1,0.2,0.3,0.2
		c0.1,0,0.1-0.1,0.2-0.2l0.9-3.3C54.5,13,54.6,12.9,54.7,12.9z"/>
</g>
</svg>
