<svg xmlns="http://www.w3.org/2000/svg" width="200" height="200" viewBox="0 0 200 200">
  <g id="グループ_122" data-name="グループ 122" transform="translate(954 -3341)">
    <g id="グループ_114" data-name="グループ 114">
      <rect id="長方形_56" data-name="長方形 56" width="200" height="200" rx="20" transform="translate(-954 3341)" fill="#f0f5f8"/>
      <text id="ホワイトニング" transform="translate(-930 3501)" fill="#06438d" font-size="21" font-family="YuGothic-Bold, Yu Gothic" font-weight="700" letter-spacing="0.05em"><tspan x="0" y="0">ホワイトニング</tspan></text>
      <path id="パス_47" data-name="パス 47" d="M-880.258,3433.852l-3.405-18.211,1.629-12.585,7.551-10.956,8.735-2.813,8.883,1.777,3.849,1.037,12.289-2.813,9.92,3.85,7.847,12.14-.74,17.767-5.034,13.473-5.478,18.951-3.7,6.662-3.7.74-2.813-1.777-4.294-14.509-1.481-5.478-4.886-.74-3.405,4-1.777,11.1-2.221,5.626-3.257,1.777-3.257-1.777Z" transform="translate(-0.337 -1.533)" fill="#fff"/>
      <g id="歯科医のアイコン2" transform="translate(-903 3371.78)">
        <path id="パス_43" data-name="パス 43" d="M166.117,140.61a18.669,18.669,0,0,0-11.763-4.226,33.019,33.019,0,0,0-7.438,1.064,26.807,26.807,0,0,1-5.7.931,26.807,26.807,0,0,1-5.695-.931,33.006,33.006,0,0,0-7.437-1.064,18.652,18.652,0,0,0-11.763,4.228,20.555,20.555,0,0,0-6.562,8.822,31.216,31.216,0,0,0-1.987,11.553c0,6.414,1.416,13.548,3.869,21.122,2.534,7.815,4.7,13.562,6.311,17.74.8,2.086,1.46,3.782,1.943,5.122a20.849,20.849,0,0,1,.885,2.879,9.169,9.169,0,0,0,2.8,5.226,7.5,7.5,0,0,0,5.011,1.931A7.89,7.89,0,0,0,133.782,213a10.252,10.252,0,0,0,3.118-5.451,21.045,21.045,0,0,0,.351-2.157c.168-1.373.317-3,.529-4.669a26.919,26.919,0,0,1,1.549-6.792,4.846,4.846,0,0,1,1.074-1.685,1.085,1.085,0,0,1,.814-.329,1.041,1.041,0,0,1,.616.173,4.474,4.474,0,0,1,1.379,2.086,29.434,29.434,0,0,1,1.488,6.9c.154,1.246.274,2.46.395,3.55a26.923,26.923,0,0,0,.441,2.918A10.251,10.251,0,0,0,148.655,213a7.879,7.879,0,0,0,5.2,2.005,7.5,7.5,0,0,0,5.011-1.933,9.164,9.164,0,0,0,2.8-5.224,21.012,21.012,0,0,1,.885-2.879C164,200.932,167,193.819,170.8,182.109c2.455-7.573,3.866-14.709,3.868-21.122a31.193,31.193,0,0,0-1.985-11.553A20.6,20.6,0,0,0,166.117,140.61Zm-.4,39.853c-2.5,7.7-4.622,13.323-6.216,17.473-.8,2.078-1.462,3.784-1.981,5.221a25.161,25.161,0,0,0-1.109,3.71A3.844,3.844,0,0,1,155.3,209.1a2.139,2.139,0,0,1-1.448.572,2.55,2.55,0,0,1-1.675-.68,4.956,4.956,0,0,1-1.44-2.662c-.072-.3-.165-.878-.251-1.584-.152-1.246-.305-2.911-.532-4.7a31.743,31.743,0,0,0-1.941-8.233,10.048,10.048,0,0,0-2.413-3.543,6.521,6.521,0,0,0-7.9-.664,9.487,9.487,0,0,0-3.432,4.578,34,34,0,0,0-1.832,8.242c-.165,1.326-.287,2.568-.4,3.609a22.711,22.711,0,0,1-.333,2.29,4.929,4.929,0,0,1-1.44,2.658,2.517,2.517,0,0,1-1.675.679,2.129,2.129,0,0,1-1.448-.568,3.846,3.846,0,0,1-1.113-2.23,25.127,25.127,0,0,0-1.109-3.711c-1.55-4.29-4.45-11.137-8.2-22.693a64.907,64.907,0,0,1-3.608-19.476,25.872,25.872,0,0,1,1.608-9.58,15.185,15.185,0,0,1,4.865-6.571,13.224,13.224,0,0,1,8.5-3.113,28.044,28.044,0,0,1,6.246.929,31.161,31.161,0,0,0,6.886,1.064,31.156,31.156,0,0,0,6.887-1.064,28.087,28.087,0,0,1,6.249-.929,13.242,13.242,0,0,1,8.5,3.113,15.174,15.174,0,0,1,4.865,6.571,25.926,25.926,0,0,1,1.609,9.58A64.894,64.894,0,0,1,165.718,180.463Z" transform="translate(-95.398 -122.787)" fill="#3e4e61"/>
        <path id="パス_44" data-name="パス 44" d="M364.326,12.482,355.2,10.064a.641.641,0,0,1-.485-.485L352.309.455a.589.589,0,0,0-1.147,0l-2.405,9.125a.648.648,0,0,1-.487.485l-9.125,2.418a.576.576,0,0,0,0,1.127l9.125,2.419a.643.643,0,0,1,.487.485l2.405,9.123a.588.588,0,0,0,1.147,0l2.407-9.123a.636.636,0,0,1,.485-.485l9.125-2.419a.576.576,0,0,0,0-1.127Z" transform="translate(-267.213 3.351)" fill="#faa49b"/>
        <path id="パス_45" data-name="パス 45" d="M180.288,212.692l-8.333-2.209a.583.583,0,0,1-.442-.442l-2.2-8.332a.538.538,0,0,0-1.048,0l-2.2,8.332a.589.589,0,0,1-.444.442l-8.333,2.209a.527.527,0,0,0,0,1.03l8.333,2.208a.587.587,0,0,1,.444.443l2.2,8.332a.538.538,0,0,0,1.048,0l2.2-8.332a.581.581,0,0,1,.442-.443l8.333-2.208a.527.527,0,0,0,0-1.03Z" transform="translate(-134.224 -174.11)" fill="#faa49b"/>
        <path id="パス_46" data-name="パス 46" d="M61.439,83.839,68.5,81.967a.447.447,0,0,0,0-.874L61.439,79.22a.5.5,0,0,1-.375-.375L59.2,71.78a.456.456,0,0,0-.888,0L56.45,78.845a.5.5,0,0,1-.377.375l-7.066,1.872a.447.447,0,0,0,0,.874l7.066,1.872a.5.5,0,0,1,.377.375l1.862,7.065a.456.456,0,0,0,.888,0l1.864-7.065A.493.493,0,0,1,61.439,83.839Z" transform="translate(-48.654 -71.428)" fill="#faa49b"/>
      </g>
    </g>
  </g>
</svg>
