<svg xmlns="http://www.w3.org/2000/svg" width="200" height="200" viewBox="0 0 200 200">
  <g id="グループ_129" data-name="グループ 129" transform="translate(464 -3587)">
    <g id="グループ_119" data-name="グループ 119">
      <rect id="長方形_58" data-name="長方形 58" width="200" height="200" rx="20" transform="translate(-464 3587)" fill="#f0f5f8"/>
      <text id="女性用診療" transform="translate(-418 3747)" fill="#06438d" font-size="21" font-family="YuGothic-Bold, Yu Gothic" font-weight="700" letter-spacing="0.05em"><tspan x="0" y="0">女性用診療</tspan></text>
      <path id="パス_33" data-name="パス 33" d="M-1131.17,3402.688v7.961l-1.531,3.062-1.531,3.215-2.3,1.837v2.756l2.3,1.378.919,1.684v5.511l.612,1.684,1.531,3.98v3.98l2.143,1.072h2.755l4.133-1.072h4.286l2.909,1.837,3.674,3.521,3.827,10.1v2.756l-3.827,7.2,30.465-7.2-4.9-3.827-2.449-3.368-2.909-9.951v-3.521l2.909-3.521,8.42-29.087-38.119-22.657-13.319,6.124Z" transform="translate(730.903 246.422)" fill="#fff"/>
      <g id="レディーアイコン1" transform="translate(-407.406 3620.384)">
        <path id="パス_28" data-name="パス 28" d="M90.074,374.168h-.009l-1.478.5Z" transform="translate(-75.037 -306.322)" fill="#3e4e61"/>
        <path id="パス_29" data-name="パス 29" d="M93.861,44.295c12.55-18.718,8.784-34.51-2.823-41.1C80.144-2.988,73.826,2.628,66.88,4.517,58.1-1.351,45.809-2.054,30.49,5.706c-7.53-.312-16.628,7.216-15.059,14.43a19.287,19.287,0,0,0,3.563,7.027c0,.141-.015.285-.015.423a11.876,11.876,0,0,0,.129,1.779A29.127,29.127,0,0,1,19.5,33.69c0,.173-.006.338-.011.506a14.557,14.557,0,0,1-5.623,1,11.771,11.771,0,0,0,5.131,2.1,10.652,10.652,0,0,1-.42,1.11A19.48,19.48,0,0,1,15.3,43.156,5.925,5.925,0,0,0,14.3,44.67a3.935,3.935,0,0,0-.35,1.6,3.627,3.627,0,0,0,.419,1.685,5.048,5.048,0,0,0,1.357,1.586,10.751,10.751,0,0,0,1.176.8,1.34,1.34,0,0,1,.264.465,2.439,2.439,0,0,1,.159.835A1.205,1.205,0,0,1,17.28,52l-.03.071,0,.008,0-.006v0l0,0h0a3.307,3.307,0,0,0-.62.838,2.431,2.431,0,0,0-.273,1.105,2.4,2.4,0,0,0,.321,1.183,3.637,3.637,0,0,0,.857.982c.072.059.137.108.206.161l-.07.194c-.059.161-.126.345-.183.565a3,3,0,0,0-.116.8,2.2,2.2,0,0,0,.216.965,2.108,2.108,0,0,0,.766.86l.067.044-.061-.039a1.491,1.491,0,0,1,.637.706,2.77,2.77,0,0,1,.159,1.063c0,.565-.084,1.243-.09,2.012a5.74,5.74,0,0,0,.044.736,5.138,5.138,0,0,0,.39,1.432,4.731,4.731,0,0,0,1.773,2.093,6.083,6.083,0,0,0,3.339.881,13.587,13.587,0,0,0,4.282-.812l.011,0a10.831,10.831,0,0,1,3.45-.629,6.581,6.581,0,0,1,3.536.973,8.624,8.624,0,0,1,2.1,1.874,18.108,18.108,0,0,1,2.522,4.3,48.059,48.059,0,0,1,1.866,5.216,10.375,10.375,0,0,1-1.227,8.836,11.84,11.84,0,0,1-1.182,1.581c-.158.18-.287.312-.374.4l-.092.09-.014.012,0,0,.637.709,1.452,1.634a13.609,13.609,0,0,0,2.234-2.757,13.519,13.519,0,0,0,1.569-11.423,34.492,34.492,0,0,0-4.194-9.574,12.55,12.55,0,0,0-3.652-3.569,9.726,9.726,0,0,0-5.179-1.437,13.975,13.975,0,0,0-4.454.794h0a10.5,10.5,0,0,1-3.291.649,3.57,3.57,0,0,1-1.27-.2,1.622,1.622,0,0,1-.823-.631,1.969,1.969,0,0,1-.3-.832,3.431,3.431,0,0,1-.017-.345c-.006-.473.086-1.183.09-2.012a5.827,5.827,0,0,0-.4-2.272,4.494,4.494,0,0,0-1.243-1.7c.021-.054.039-.108.063-.167.059-.164.123-.35.183-.571a3.155,3.155,0,0,0,.112-.8,2.263,2.263,0,0,0-.185-.911,2.109,2.109,0,0,0-.679-.854c-.14-.1-.264-.2-.375-.279a3.4,3.4,0,0,0,.5-.968,4.362,4.362,0,0,0,.206-1.347,5.575,5.575,0,0,0-.464-2.2,4.623,4.623,0,0,0-.563-.964,3.287,3.287,0,0,0-.9-.82c-.185-.111-.381-.23-.574-.362a3.213,3.213,0,0,1-.7-.619,1.035,1.035,0,0,1-.144-.24.423.423,0,0,1-.032-.167.793.793,0,0,1,.084-.333,2.912,2.912,0,0,1,.484-.712,22.417,22.417,0,0,0,3.782-5.546,14.257,14.257,0,0,0,1.2-5.987c0-.773-.047-1.578-.128-2.425A51.129,51.129,0,0,0,26.725,35.2s-1.254-10.667,1.569-12.862c0,0,10.981,21.018,21.019,19.138l6.9,5.958s1.569-10.039,6.276-10.979,4.39,7.844-1.255,15.059v9.36a22.835,22.835,0,0,0-1.227,2.344,5.816,5.816,0,0,0-.389,1.38,10.751,10.751,0,0,0-.132,1.752A24.213,24.213,0,0,0,62.671,77.34,22.135,22.135,0,0,0,68.144,83.9a21.9,21.9,0,0,0,3.221,2.249l1.227-2.27.267-.49,0,0a19.269,19.269,0,0,1-2.787-1.968,19,19,0,0,1-4.625-5.542,21.167,21.167,0,0,1-2.82-9.527,7.772,7.772,0,0,1,.09-1.239,2.709,2.709,0,0,1,.164-.623,33.733,33.733,0,0,1,3.521-5.7c2.3-3.177,5.2-6.76,7.775-10.646a38.211,38.211,0,0,0,5.847-12.607,26.609,26.609,0,0,0,.6-5.724,29.01,29.01,0,0,0-5.1-16.5c5.176,1.123,11.8,4.682,8.294,15.818-3.555,11.293-12.546,27.191-4.706,38.377,6.554,9.352,16.94,6.276,16.94,6.276C91.35,68.136,83.682,59.475,93.861,44.295Z" transform="translate(-13.862 0)" fill="#3e4e61"/>
      </g>
    </g>
  </g>
</svg>
