<svg xmlns="http://www.w3.org/2000/svg" width="200" height="200" viewBox="0 0 200 200">
  <g id="グループ_128" data-name="グループ 128" transform="translate(709 -3587)">
    <g id="グループ_117" data-name="グループ 117">
      <rect id="長方形_61" data-name="長方形 61" width="200" height="200" rx="20" transform="translate(-709 3587)" fill="#f0f5f8"/>
      <text id="無料送迎" transform="translate(-652 3747)" fill="#06438d" font-size="21" font-family="YuGothic-Bold, Yu Gothic" font-weight="700" letter-spacing="0.05em"><tspan x="0" y="0">無料送迎</tspan></text>
      <path id="パス_80" data-name="パス 80" d="M-648.933,3691.507l1.306-16.1,6.529-12.622,9.43-17.554,3.917-1.306h37.43l3.772,2.611,9.575,18.715,6.383,10.156,1.451,16.1-8.415,5.223h-65.72Z" fill="#fff"/>
      <g id="タクシーの無料アイコン4" transform="translate(-656 3611.611)">
        <path id="パス_70" data-name="パス 70" d="M6.234,210.436c.417-.911,1.215-2.413,2.623-5.053.642-1.212,1.363-2.552,2.1-3.929H4.491a4.491,4.491,0,1,0,0,8.983Z" transform="translate(0 -153.816)" fill="#3e4e61"/>
        <path id="パス_71" data-name="パス 71" d="M458.154,201.453h-6.467c.741,1.377,1.459,2.717,2.1,3.929,1.408,2.64,2.2,4.142,2.623,5.053h1.743a4.491,4.491,0,1,0,0-8.983Z" transform="translate(-369.618 -153.816)" fill="#3e4e61"/>
        <path id="パス_72" data-name="パス 72" d="M39.391,439.4a6.054,6.054,0,1,0,12.108,0v-5.726H39.391Z" transform="translate(-32.234 -343.842)" fill="#3e4e61"/>
        <path id="パス_73" data-name="パス 73" d="M405.938,439.4a6.057,6.057,0,0,0,12.114,0v-5.726H405.938Z" transform="translate(-332.181 -343.842)" fill="#3e4e61"/>
        <path id="パス_74" data-name="パス 74" d="M96.508,135.335c.307.088-11.208-21.045-11.759-22.187C83.3,110.12,79.7,108.3,76.2,108.3H39.822c-3.506,0-7.092,1.823-8.548,4.852-.551,1.141-12.063,22.275-11.759,22.187,0,0-3.725,3.713-4.009,4.009-1.567,1.686-1.454,3.143-1.454,4.6v16.818c0,3.14.557,4.857,4.259,4.857h79.4c3.7,0,4.264-1.718,4.264-4.857V143.943c0-1.456.108-2.913-1.465-4.6C100.239,139.049,96.508,135.335,96.508,135.335Zm-67.465-6.484s7.4-13.321,7.83-14.192c.749-1.49,2.879-2.569,5.056-2.569H74.095c2.18,0,4.307,1.079,5.056,2.569.437.872,7.833,14.192,7.833,14.192.681,1.226.08,3.509-1.939,3.509H30.979C28.96,132.36,28.362,130.078,29.043,128.851Zm-.988,29.625a6.8,6.8,0,1,1,6.794-6.794A6.795,6.795,0,0,1,28.055,158.476Zm40.274,1.837a.9.9,0,0,1-.9.9H48.595a.9.9,0,0,1-.9-.9v-8.3a.9.9,0,0,1,.9-.891H67.432a.9.9,0,0,1,.9.891v8.3Zm19.64-1.837a6.8,6.8,0,1,1,6.8-6.794A6.8,6.8,0,0,1,87.969,158.476Z" transform="translate(-11.498 -77.586)" fill="#3e4e61"/>
        <path id="パス_75" data-name="パス 75" d="M138.547,19.982a3.318,3.318,0,0,1,3.31-3.31H172.7a3.317,3.317,0,0,1,3.307,3.31v8.934H179.2V19.982a6.5,6.5,0,0,0-6.5-6.5H141.857a6.5,6.5,0,0,0-6.5,6.5v8.934h3.188Z" transform="translate(-110.765)" fill="#3e4e61"/>
        <path id="パス_76" data-name="パス 76" d="M183.775,55.41h1.615a.119.119,0,0,0,.131-.122v-6.53a.068.068,0,0,1,.074-.077h2.192a.122.122,0,0,0,.131-.122V47.2a.124.124,0,0,0-.131-.125h-6.4a.121.121,0,0,0-.131.125v1.357a.119.119,0,0,0,.131.122h2.189a.068.068,0,0,1,.077.077v6.53A.118.118,0,0,0,183.775,55.41Z" transform="translate(-148.319 -27.489)" fill="#3e4e61"/>
        <path id="パス_77" data-name="パス 77" d="M223.223,47.078a.167.167,0,0,0-.168.125l-2.978,8.085c-.028.074,0,.122.085.122h1.672a.152.152,0,0,0,.165-.122l.485-1.459h3.032l.494,1.459a.158.158,0,0,0,.17.122h1.652c.091,0,.114-.048.091-.122l-2.93-8.085a.167.167,0,0,0-.168-.125Zm1.783,5.221h-2l.982-2.916h.037Z" transform="translate(-180.082 -27.49)" fill="#3e4e61"/>
        <path id="パス_78" data-name="パス 78" d="M269.407,55.41h1.76a.215.215,0,0,0,.216-.122l1.55-2.538h.04l1.544,2.538a.21.21,0,0,0,.216.122H276.5c.094,0,.116-.074.082-.148l-2.6-4.153,2.416-3.884c.043-.074.014-.148-.074-.148h-1.769a.213.213,0,0,0-.207.125l-1.377,2.251h-.04L271.559,47.2a.2.2,0,0,0-.2-.125h-1.772c-.085,0-.114.074-.074.148l2.41,3.884-2.586,4.153A.087.087,0,0,0,269.407,55.41Z" transform="translate(-220.378 -27.49)" fill="#3e4e61"/>
        <path id="パス_79" data-name="パス 79" d="M320.422,47.2v8.085a.117.117,0,0,0,.125.122h1.621a.117.117,0,0,0,.125-.122V47.2a.119.119,0,0,0-.125-.125h-1.621A.119.119,0,0,0,320.422,47.2Z" transform="translate(-262.203 -27.49)" fill="#3e4e61"/>
      </g>
    </g>
  </g>
</svg>
