<svg xmlns="http://www.w3.org/2000/svg" width="200" height="200" viewBox="0 0 200 200">
  <g id="グループ_121" data-name="グループ 121" transform="translate(1199 -3341)">
    <g id="グループ_112" data-name="グループ 112">
      <rect id="長方形_55" data-name="長方形 55" width="200" height="200" rx="20" transform="translate(-1199 3341)" fill="#f0f5f8"/>
      <text id="歯列矯正" transform="translate(-1142 3501)" fill="#06438d" font-size="21" font-family="YuGothic-Bold, Yu Gothic" font-weight="700" letter-spacing="0.05em"><tspan x="0" y="0">歯列矯正</tspan></text>
      <path id="パス_42" data-name="パス 42" d="M-1155.634,3424.924l-2.833-17.426,5.837-13.993,11.16-4.464,9.185,1.717,11.417-1.717,11.031,3.743,4.241,10.044,1.562,8.035v3.794h11.409v-4.67l5.236-15.624,10.775-6.536,8.995,1.886,1.306,2.321,7.979-2.993,7.544.672,6.964,6.383,3.917,5.368,1.591,5.755-2.707,17.763-6.868,19.546-5.217,5.019-6.339-.858-5.877-3.632-7,1.387-1.585,2.245-10.1-2.838-5.613-18.621V3423.9h-17.592v4.121l-1.459,3.434-5.289,14.125-5.468,3.459h-5.692l-4.352-3.459h-5.357l-4.352,1.562-4.8.781s-5.245-3.348-5.58-3.683S-1155.634,3424.924-1155.634,3424.924Z" fill="#fff"/>
      <g id="アートボード_2" data-name="アートボード 2" transform="translate(-1162.072 3384.518)">
        <path id="パス_36" data-name="パス 36" d="M3.678,24.044q1.941.248,3.915.475a22.663,22.663,0,0,1,1.64-7.459,15.709,15.709,0,0,1,8.922-8.978A9.324,9.324,0,0,1,21.4,7.459a8.4,8.4,0,0,1,4.129,1.135,11.153,11.153,0,0,0,5.438,1.428,11.153,11.153,0,0,0,5.438-1.428,8.418,8.418,0,0,1,4.131-1.135,9.344,9.344,0,0,1,3.246.622A15.69,15.69,0,0,1,52.7,17.06a23.812,23.812,0,0,1,1.639,10.564q3.739.069,7.466.078a31.187,31.187,0,0,0-2.2-13.5A23.106,23.106,0,0,0,46.389,1.089,16.752,16.752,0,0,0,40.543,0a15.761,15.761,0,0,0-7.778,2.088,3.665,3.665,0,0,1-3.569,0A15.768,15.768,0,0,0,21.406,0a16.754,16.754,0,0,0-5.844,1.089A23.1,23.1,0,0,0,2.341,14.2,30.069,30.069,0,0,0,.18,23.6Z" transform="translate(-0.14)" fill="#3e4e61"/>
        <path id="パス_36_-_アウトライン" data-name="パス 36 - アウトライン" d="M62.285,28.2h-.477c-2.476-.006-4.99-.032-7.474-.078l-.521-.01.031-.52a23.345,23.345,0,0,0-1.6-10.341,15.192,15.192,0,0,0-8.635-8.7l-.006,0a8.816,8.816,0,0,0-3.066-.589,7.933,7.933,0,0,0-3.88,1.068l-.006,0a11.679,11.679,0,0,1-5.682,1.492,11.681,11.681,0,0,1-5.684-1.492l-.006,0A7.919,7.919,0,0,0,21.4,7.959a8.794,8.794,0,0,0-3.066.589l-.005,0a15.2,15.2,0,0,0-8.635,8.7,22.1,22.1,0,0,0-1.6,7.292l-.025.534-.532-.061C6.223,24.864,4.9,24.7,3.614,24.54l-3.964-.5.03-.47a30.513,30.513,0,0,1,2.2-9.558A23.594,23.594,0,0,1,15.388.62,17.192,17.192,0,0,1,21.4-.5a16.3,16.3,0,0,1,8.037,2.152,3.172,3.172,0,0,0,1.539.4,3.172,3.172,0,0,0,1.539-.4A16.291,16.291,0,0,1,40.541-.5,17.2,17.2,0,0,1,46.567.621,23.589,23.589,0,0,1,60.072,14.008a31.79,31.79,0,0,1,2.237,13.719Zm-7.416-1.07c2.15.037,4.319.06,6.462.067a30.653,30.653,0,0,0-2.182-12.809A22.6,22.6,0,0,0,46.215,1.557,16.2,16.2,0,0,0,40.54.5a15.285,15.285,0,0,0-7.527,2.022l-.005,0a4.174,4.174,0,0,1-2.028.527,4.175,4.175,0,0,1-2.028-.527l-.005,0A15.3,15.3,0,0,0,21.4.5,16.2,16.2,0,0,0,15.74,1.556,22.6,22.6,0,0,0,2.8,14.392a29.5,29.5,0,0,0-2.09,8.774l3.027.382c1.114.142,2.25.281,3.384.413a23.1,23.1,0,0,1,1.644-7.09,16.19,16.19,0,0,1,9.208-9.258,9.792,9.792,0,0,1,3.417-.655h.011a8.922,8.922,0,0,1,4.371,1.2,10.677,10.677,0,0,0,5.191,1.362A10.676,10.676,0,0,0,36.157,8.16a8.935,8.935,0,0,1,4.373-1.2h.011a9.812,9.812,0,0,1,3.416.654,16.179,16.179,0,0,1,9.208,9.255A24.149,24.149,0,0,1,54.869,27.133Z" transform="translate(-0.14)" fill="#f0f5f8"/>
        <path id="パス_37" data-name="パス 37" d="M57.822,175.491c-2.414,8.621-4.854,15.335-6.112,17.176-.375.547-2.322,1.392-4.142,1.392a3.09,3.09,0,0,1-2.048-.562,11.153,11.153,0,0,0-15.824,0,3.077,3.077,0,0,1-2.045.562c-1.822,0-3.77-.845-4.144-1.392-1.383-2.021-4.2-9.957-6.839-19.841-2.677-.288-5.331-.6-7.948-.926,2.63,10.352,6.154,21.363,8.63,24.983,2.182,3.185,6.868,4.637,10.3,4.637a10.216,10.216,0,0,0,7.3-2.726,3.692,3.692,0,0,1,5.318,0,10.218,10.218,0,0,0,7.3,2.726c3.431,0,8.117-1.452,10.3-4.637s5.173-12.1,7.651-21.251C62.957,175.605,60.388,175.558,57.822,175.491Z" transform="translate(-6.775 -133.556)" fill="#3f536b"/>
        <path id="パス_37_-_アウトライン" data-name="パス 37 - アウトライン" d="M8.055,171.313l.727.091c2.653.332,5.324.644,7.939.925l.341.037.088.332c2.808,10.535,5.53,17.878,6.769,19.688a6.254,6.254,0,0,0,3.732,1.174,2.688,2.688,0,0,0,1.693-.417,11.653,11.653,0,0,1,16.528,0,2.713,2.713,0,0,0,1.7.417,6.248,6.248,0,0,0,3.73-1.175c1.272-1.861,3.757-8.863,6.043-17.028l.105-.375.389.01c2.548.066,5.135.114,7.688.14l.646.007-.169.624c-2.84,10.49-5.727,18.491-7.721,21.4C56,200.5,51.126,202.02,47.568,202.02a10.714,10.714,0,0,1-7.653-2.871l-.008-.008a3.192,3.192,0,0,0-4.6,0l-.008.008a10.711,10.711,0,0,1-7.651,2.871c-3.559,0-8.429-1.519-10.713-4.855-2.719-3.975-6.387-16.028-8.7-25.142Zm8.218,1.973c-2.272-.246-4.584-.514-6.887-.8,2.975,11.574,6.244,20.995,8.377,24.114,2.08,3.037,6.584,4.42,9.888,4.42a9.725,9.725,0,0,0,6.942-2.577,4.192,4.192,0,0,1,6.03,0,9.727,9.727,0,0,0,6.945,2.577c3.3,0,7.806-1.383,9.886-4.42,1.9-2.767,4.655-10.4,7.411-20.476-2.217-.026-4.455-.068-6.667-.123-2.317,8.221-4.747,15.005-6.075,16.948-.5.729-2.643,1.61-4.555,1.61a3.557,3.557,0,0,1-2.4-.706l0,0a10.653,10.653,0,0,0-15.115,0,3.511,3.511,0,0,1-2.4.71c-1.913,0-4.057-.88-4.557-1.609C21.612,190.783,18.757,182.546,16.273,173.286Z" transform="translate(-6.775 -133.556)" fill="#f0f5f8"/>
        <path id="パス_38" data-name="パス 38" d="M126.235,118.678l.91-6.42c-5.9.745-14.927,1.7-20.981,2.217v-1.9a3.734,3.734,0,0,0-3.73-3.73H90.188a3.734,3.734,0,0,0-3.73,3.73v3.183c-15.188.687-30.582.687-45.772,0V112.58a3.734,3.734,0,0,0-3.73-3.73H24.711a3.734,3.734,0,0,0-3.73,3.73v1.9C14.927,113.956,5.9,113,0,112.258l.91,6.417c6.161.778,13.745,1.682,20.075,2.217v3.933a3.736,3.736,0,0,0,3.73,3.732H36.961a3.736,3.736,0,0,0,3.73-3.732v-2.663c7.584.337,15.242.509,22.886.509s15.291-.172,22.886-.509v2.663a3.736,3.736,0,0,0,3.73,3.732h12.246a3.736,3.736,0,0,0,3.73-3.732v-3.933C112.49,120.358,120.074,119.454,126.235,118.678Z" transform="translate(0 -84.57)" fill="#faa49b"/>
        <path id="パス_38_-_アウトライン" data-name="パス 38 - アウトライン" d="M24.71,108.35H36.957a4.241,4.241,0,0,1,4.23,4.229v2.706c7.4.327,14.928.493,22.387.493s14.987-.166,22.385-.493v-2.7a4.241,4.241,0,0,1,4.229-4.23h12.247a4.241,4.241,0,0,1,4.23,4.229v1.351c6.072-.531,14.73-1.45,20.418-2.168l.65-.082-1.056,7.446-.379.048c-8.157,1.028-14.585,1.741-19.629,2.178v3.474a4.244,4.244,0,0,1-4.229,4.232H90.192a4.244,4.244,0,0,1-4.23-4.231v-2.142c-7.447.323-14.976.486-22.386.486s-14.95-.164-22.386-.486v2.141a4.244,4.244,0,0,1-4.229,4.232H24.715a4.244,4.244,0,0,1-4.23-4.231v-3.474C15.4,120.913,8.972,120.2.847,119.172l-.379-.048L-.587,111.68l.65.082c5.689.718,14.346,1.637,20.418,2.168V112.58A4.241,4.241,0,0,1,24.71,108.35Zm38.863,8.428c-7.634,0-15.342-.174-22.909-.516l-.477-.022V112.58a3.239,3.239,0,0,0-3.23-3.23H24.711a3.239,3.239,0,0,0-3.23,3.23v2.44l-.543-.047c-5.88-.5-14.48-1.409-20.351-2.138l.765,5.392c8.177,1.03,14.617,1.739,19.676,2.167l.458.039v4.392a3.242,3.242,0,0,0,3.23,3.232H36.961a3.242,3.242,0,0,0,3.23-3.232V121.64l.522.023c7.591.337,15.284.508,22.864.508s15.261-.171,22.864-.508l.522-.023v3.186a3.242,3.242,0,0,0,3.23,3.232h12.245a3.242,3.242,0,0,0,3.23-3.232v-4.391l.458-.039c5.02-.425,11.456-1.134,19.667-2.165l.765-5.394c-5.872.729-14.471,1.633-20.352,2.138l-.543.047V112.58a3.239,3.239,0,0,0-3.23-3.23H90.188a3.239,3.239,0,0,0-3.23,3.23v3.66l-.477.022C78.915,116.6,71.208,116.778,63.573,116.778Z" transform="translate(0 -84.57)" fill="#f0f5f8"/>
        <path id="パス_39" data-name="パス 39" d="M300.857,27.624a23.974,23.974,0,0,1,1.622-10.564A15.715,15.715,0,0,1,311.4,8.082a9.344,9.344,0,0,1,3.246-.622,8.418,8.418,0,0,1,4.131,1.135,11.153,11.153,0,0,0,5.438,1.428,11.153,11.153,0,0,0,5.438-1.428,8.4,8.4,0,0,1,4.131-1.135,9.344,9.344,0,0,1,3.246.622,15.7,15.7,0,0,1,8.922,8.978,22.717,22.717,0,0,1,1.637,7.459q1.97-.223,3.917-.475L355,23.6a30.007,30.007,0,0,0-2.161-9.4A23.106,23.106,0,0,0,339.62,1.084,16.752,16.752,0,0,0,333.8,0a15.777,15.777,0,0,0-7.78,2.088,3.663,3.663,0,0,1-3.569,0A15.777,15.777,0,0,0,314.658,0a16.752,16.752,0,0,0-5.842,1.089A23.092,23.092,0,0,0,295.595,14.2a31.182,31.182,0,0,0-2.2,13.5Q297.123,27.689,300.857,27.624Z" transform="translate(-227.916 0)" fill="#3f536b"/>
        <path id="パス_39_-_アウトライン" data-name="パス 39 - アウトライン" d="M292.92,28.2l-.024-.476a31.778,31.778,0,0,1,2.237-13.719A23.588,23.588,0,0,1,308.642.62,17.191,17.191,0,0,1,314.655-.5a16.31,16.31,0,0,1,8.039,2.153,3.17,3.17,0,0,0,1.538.4,3.17,3.17,0,0,0,1.538-.4A16.307,16.307,0,0,1,333.794-.5h.005a17.2,17.2,0,0,1,6,1.116A23.589,23.589,0,0,1,353.3,14a30.455,30.455,0,0,1,2.2,9.562l.03.469-3.961.506c-1.294.168-2.615.328-3.924.476l-.531.06-.025-.533a22.161,22.161,0,0,0-1.6-7.295,15.191,15.191,0,0,0-8.633-8.7l-.005,0a8.815,8.815,0,0,0-3.067-.589,7.92,7.92,0,0,0-3.88,1.068l-.006,0a11.679,11.679,0,0,1-5.682,1.492,11.682,11.682,0,0,1-5.684-1.492l-.006,0a7.933,7.933,0,0,0-3.88-1.068,8.815,8.815,0,0,0-3.066.589l-.005,0a15.2,15.2,0,0,0-8.635,8.7,23.541,23.541,0,0,0-1.585,10.344l.031.52-.521.009c-2.48.043-4.992.069-7.468.078ZM314.656.5a16.193,16.193,0,0,0-5.663,1.056,22.6,22.6,0,0,0-12.936,12.836A30.642,30.642,0,0,0,293.874,27.2c2.143-.01,4.311-.032,6.458-.067a24.346,24.346,0,0,1,1.685-10.265,16.191,16.191,0,0,1,9.208-9.254,9.812,9.812,0,0,1,3.416-.655h.011a8.935,8.935,0,0,1,4.373,1.2,10.678,10.678,0,0,0,5.192,1.362,10.675,10.675,0,0,0,5.189-1.362,8.922,8.922,0,0,1,4.374-1.2h.011a9.812,9.812,0,0,1,3.416.654,16.181,16.181,0,0,1,9.209,9.255,23.158,23.158,0,0,1,1.643,7.093c1.131-.131,2.268-.27,3.385-.414l3.027-.386a29.45,29.45,0,0,0-2.091-8.777A22.6,22.6,0,0,0,339.446,1.553,16.2,16.2,0,0,0,333.8.5a15.305,15.305,0,0,0-7.532,2.022l-.005,0a4.172,4.172,0,0,1-2.028.527,4.172,4.172,0,0,1-2.028-.527l0,0A15.3,15.3,0,0,0,314.656.5Z" transform="translate(-227.916 0)" fill="#f0f5f8"/>
        <path id="パス_40" data-name="パス 40" d="M355.51,172.8c-2.637,9.884-5.458,17.82-6.839,19.841-.375.546-2.322,1.392-4.144,1.392a3.078,3.078,0,0,1-2.046-.562,11.153,11.153,0,0,0-15.824,0,3.077,3.077,0,0,1-2.046.562c-1.822,0-3.77-.845-4.144-1.392-1.256-1.836-3.7-8.55-6.112-17.176q-3.848.094-7.7.134c2.478,9.145,5.472,18.068,7.651,21.251s6.868,4.637,10.3,4.637a10.217,10.217,0,0,0,7.3-2.726,3.692,3.692,0,0,1,5.318,0,10.216,10.216,0,0,0,7.3,2.726c3.433,0,8.119-1.452,10.3-4.637,2.476-3.618,6-14.628,8.63-24.983C360.839,172.2,358.185,172.515,355.51,172.8Z" transform="translate(-238.256 -133.533)" fill="#3f536b"/>
        <path id="パス_40_-_アウトライン" data-name="パス 40 - アウトライン" d="M364.124,171.281l-.181.712c-2.315,9.115-5.983,21.169-8.7,25.142-2.285,3.336-7.155,4.855-10.714,4.855a10.711,10.711,0,0,1-7.651-2.871l-.008-.008a3.192,3.192,0,0,0-4.6,0l-.008.008a10.711,10.711,0,0,1-7.651,2.871c-3.559,0-8.43-1.519-10.714-4.855-1.991-2.908-4.878-10.909-7.721-21.4l-.169-.624.646-.007c2.551-.027,5.137-.072,7.689-.134l.389-.009.1.375c2.284,8.164,4.769,15.166,6.043,17.028a6.255,6.255,0,0,0,3.732,1.174,2.688,2.688,0,0,0,1.693-.417,11.653,11.653,0,0,1,16.531,0,2.7,2.7,0,0,0,1.691.415,6.253,6.253,0,0,0,3.732-1.175c1.236-1.809,3.958-9.153,6.768-19.687l.088-.332.341-.037c2.728-.293,5.4-.607,7.938-.931Zm-19.6,29.709c3.3,0,7.809-1.383,9.888-4.42,2.133-3.117,5.4-12.538,8.376-24.112-2.219.279-4.531.549-6.887.8-2.485,9.259-5.34,17.5-6.821,19.663-.5.73-2.644,1.61-4.557,1.61a3.514,3.514,0,0,1-2.4-.707,10.653,10.653,0,0,0-15.117,0,3.512,3.512,0,0,1-2.4.71c-1.913,0-4.057-.88-4.557-1.609-1.33-1.944-3.76-8.728-6.076-16.949-2.214.052-4.452.092-6.667.118,2.759,10.083,5.519,17.712,7.411,20.476,2.079,3.037,6.583,4.42,9.888,4.42a9.724,9.724,0,0,0,6.943-2.577,4.192,4.192,0,0,1,6.03,0A9.724,9.724,0,0,0,344.527,200.99Z" transform="translate(-238.256 -133.533)" fill="#f0f5f8"/>
      </g>
    </g>
  </g>
</svg>
