<svg xmlns="http://www.w3.org/2000/svg" width="200" height="200" viewBox="0 0 200 200">
  <g id="グループ_123" data-name="グループ 123" transform="translate(709 -3341)">
    <g id="グループ_116" data-name="グループ 116">
      <rect id="長方形_54" data-name="長方形 54" width="200" height="200" rx="20" transform="translate(-709 3341)" fill="#f0f5f8"/>
      <text id="口腔外科" transform="translate(-652 3501)" fill="#06438d" font-size="21" font-family="YuGothic-Bold, Yu Gothic" font-weight="700" letter-spacing="0.05em"><tspan x="0" y="0">口腔外科</tspan></text>
      <path id="パス_54" data-name="パス 54" d="M-609.45,3404.513l-27.919,27.919v2.624L-621,3451.425h4.064l33.551-33.551-19.7-19.7Z" transform="translate(0.851 -1.576)" fill="#fff"/>
      <g id="注射器のアイコン素材" transform="translate(-653.569 3379.658)">
        <path id="パス_48" data-name="パス 48" d="M108.6,167.822a1.743,1.743,0,0,1-.587.393,1.8,1.8,0,0,1-1.017.1,1.746,1.746,0,0,1-.92-.49l-13.19-13.189a1.754,1.754,0,0,1-.393-.589,1.8,1.8,0,0,1-.1-1.017,1.756,1.756,0,0,1,.49-.917l27.259-27.259-4.076-4.074L88.81,148.032a7.541,7.541,0,0,0,0,10.674L102,171.9a7.475,7.475,0,0,0,2.5,1.657,7.541,7.541,0,0,0,8.177-1.657l27.259-27.256-4.076-4.074Z" transform="translate(-71.687 -100.851)" fill="#3e4e61"/>
        <path id="パス_49" data-name="パス 49" d="M85.072,378.687a2.111,2.111,0,0,0-.4,2.9l2.352,2.352a2.108,2.108,0,0,0,2.9-.4l4.413-4.413-4.848-4.851Z" transform="translate(-69.747 -310.697)" fill="#3e4e61"/>
        <path id="パス_50" data-name="パス 50" d="M0,439.383l4.364.872L15.62,429,13,426.385Z" transform="translate(-0.004 -353.834)" fill="#3e4e61"/>
        <path id="パス_51" data-name="パス 51" d="M269.3,50.716a5.145,5.145,0,1,0-7.275,7.275l25.416,25.416a5.145,5.145,0,0,0,7.275-7.275Z" transform="translate(-215.656 -41.608)" fill="#3e4e61"/>
        <path id="パス_52" data-name="パス 52" d="M390.7,20.029,377.243,6.575a5.144,5.144,0,1,0-7.273,7.275l1.391,1.391-4.076,4.076,4.076,4.074,4.074-4.074,2.524,2.521-4.076,4.074,4.076,4.074,4.071-4.074,1.394,1.394a5.146,5.146,0,1,0,7.275-7.278Z" transform="translate(-304.039 -5.068)" fill="#3e4e61"/>
        <rect id="長方形_63" data-name="長方形 63" width="6.887" height="2.47" transform="translate(50.175 38.952) rotate(45)" fill="#3e4e61"/>
        <path id="パス_53" data-name="パス 53" d="M244.471,279.516l1.746-1.746-4.873-4.87-1.746,1.746Z" transform="translate(-198.34 -226.779)" fill="#3e4e61"/>
        <rect id="長方形_64" data-name="長方形 64" width="2.47" height="6.891" transform="translate(41 57.868) rotate(135)" fill="#3e4e61"/>
      </g>
    </g>
  </g>
</svg>
