<svg xmlns="http://www.w3.org/2000/svg" width="200" height="200" viewBox="0 0 200 200">
  <g id="グループ_127" data-name="グループ 127" transform="translate(954 -3587)">
    <g id="グループ_115" data-name="グループ 115">
      <rect id="長方形_60" data-name="長方形 60" width="200" height="200" rx="20" transform="translate(-954 3587)" fill="#f0f5f8"/>
      <text id="お悩み相談" transform="translate(-908 3747)" fill="#06438d" font-size="21" font-family="YuGothic-Bold, Yu Gothic" font-weight="700" letter-spacing="0.05em"><tspan x="0" y="0">お悩み相談</tspan></text>
      <path id="パス_69" data-name="パス 69" d="M-854.195,3702.979l-39-40.455-2.452-12.5,4.413-11.033,11.524-8.826h12.749l7.6,3.678,5.167,5.149,8.073-6.375,7.355-2.452h7.846l7.6,3.678,5.394,6.375,3.678,7.355,1.226,7.355-1.226,6.129-5.884,7.11Z" fill="#fff"/>
      <g id="ハートの心電図のアイコン素材_1" data-name="ハートの心電図のアイコン素材 1" transform="translate(-898 3602.592)">
        <path id="パス_68" data-name="パス 68" d="M80.29,32.023a25,25,0,0,0-35.351,0c-.39.393-.77.8-1.134,1.211-.364-.414-.743-.818-1.134-1.211A25,25,0,0,0,7.123,67.174c.064.067.131.134.2.2L39.811,99.86l3.995,4L80.29,67.375c.064-.067.134-.134.2-.2A24.9,24.9,0,0,0,87.611,49.7,24.856,24.856,0,0,0,80.29,32.023ZM43.805,95.868,15.112,67.174H26.389l4.54-17.4L40.34,81.786l6.9-20.8,6.035,12,5.625-5.81H72.5Zm32.488-32.49-.751.754H57.607l-3.54,3.655L46.661,53.052,40.517,71.589l-9.759-33.2L24.036,64.132H12.069l-.751-.754A19.344,19.344,0,1,1,43.805,45.173a19.345,19.345,0,1,1,32.488,18.2Z" transform="translate(0)" fill="#3e4e61"/>
      </g>
    </g>
  </g>
</svg>
