<svg xmlns="http://www.w3.org/2000/svg" width="200" height="200" viewBox="0 0 200 200">
  <g id="グループ_125" data-name="グループ 125" transform="translate(1444 -3587)">
    <g id="グループ_111" data-name="グループ 111">
      <rect id="長方形_59" data-name="長方形 59" width="200" height="200" rx="20" transform="translate(-1444 3587)" fill="#f0f5f8"/>
      <text id="定期健診" transform="translate(-1387 3747)" fill="#06438d" font-size="21" font-family="YuGothic-Bold, Yu Gothic" font-weight="700" letter-spacing="0.05em"><tspan x="0" y="0">定期健診</tspan></text>
      <circle id="楕円形_16" data-name="楕円形 16" cx="11" cy="11" r="11" transform="translate(-1328 3663)" fill="#fff"/>
      <g id="聴診器のアイコン素材" transform="translate(-1414.985 3618.701)">
        <path id="パス_61" data-name="パス 61" d="M116.7,13.389a2.462,2.462,0,0,0,1.054-2.024v-8.9A2.467,2.467,0,0,0,114.437.149l-5.39,1.976v9.58l5.39,1.976A2.466,2.466,0,0,0,116.7,13.389Z" transform="translate(-64.096 0)" fill="#3e4e61"/>
        <path id="パス_62" data-name="パス 62" d="M271.679,13.389a2.476,2.476,0,0,0,2.264.3l5.393-1.976V2.126L273.943.149a2.467,2.467,0,0,0-3.318,2.318v8.9A2.465,2.465,0,0,0,271.679,13.389Z" transform="translate(-196.766 0)" fill="#3e4e61"/>
        <path id="パス_63" data-name="パス 63" d="M107.741,63.264a12.841,12.841,0,0,0-18.16,18.16c.059.056.123.106.182.165L82.07,95.515a12.2,12.2,0,0,1-4.1,4.339,8.445,8.445,0,0,1-4.389,1.317,6.3,6.3,0,0,1-2.4-.459,5.619,5.619,0,0,1-2.7-2.317,9.343,9.343,0,0,1-1.213-4.976V73.562a14.609,14.609,0,0,0,3.978-1.63,14.313,14.313,0,0,0,2.628-2.013,12.01,12.01,0,0,0,1.856-2.287c.014-.025.115-.179.254-.38.268-.383.7-.97,1.224-1.694,1.867-2.538,5.046-6.757,8.219-11.149,1.591-2.2,3.181-4.439,4.618-6.558s2.72-4.1,3.715-5.829a19.169,19.169,0,0,0,2.728-9.44,13.129,13.129,0,0,0-.869-4.8A11.285,11.285,0,0,0,93.7,24.568a12.034,12.034,0,0,0-4.817-3.374,16.11,16.11,0,0,0-3.749-.928v7.151a8.154,8.154,0,0,1,.836.232,5.88,5.88,0,0,1,1.633.827,4.163,4.163,0,0,1,1.345,1.66,5.844,5.844,0,0,1,.478,2.446A12.216,12.216,0,0,1,87.639,38.5c-1.034,1.8-2.6,4.19-4.367,6.74-2.65,3.833-5.753,8.048-8.317,11.5-1.28,1.728-2.427,3.265-3.321,4.481-.45.609-.836,1.135-1.149,1.574-.159.221-.3.419-.422.6s-.235.344-.344.526a5.125,5.125,0,0,1-.772.931A7.33,7.33,0,0,1,66.8,66.3a7.659,7.659,0,0,1-6.944-.428,7.26,7.26,0,0,1-1.325-1.015,4.984,4.984,0,0,1-.769-.931c-.148-.238-.294-.45-.475-.713-.335-.481-.783-1.093-1.331-1.837-1.909-2.6-5.054-6.776-8.182-11.1-1.563-2.164-3.117-4.355-4.5-6.391s-2.589-3.908-3.436-5.381a12.217,12.217,0,0,1-1.789-5.924,6.1,6.1,0,0,1,.383-2.22,4.3,4.3,0,0,1,.721-1.216,4.943,4.943,0,0,1,2.021-1.375,7.792,7.792,0,0,1,1.211-.363V20.252a16.364,16.364,0,0,0-3.142.707,12.892,12.892,0,0,0-3.582,1.848,11.254,11.254,0,0,0-3.564,4.408,12.916,12.916,0,0,0-1.11,5.364,19.175,19.175,0,0,0,2.731,9.443c1.211,2.105,2.851,4.6,4.68,7.238,2.734,3.956,5.876,8.219,8.454,11.691,1.286,1.736,2.432,3.274,3.307,4.462.439.593.808,1.1,1.087,1.493.14.193.257.361.344.489s.148.221.157.235A12.045,12.045,0,0,0,53.6,69.92a14.18,14.18,0,0,0,6.606,3.634V93.419a17.71,17.71,0,0,0,1.018,6.1A13.219,13.219,0,0,0,66.186,106a13.076,13.076,0,0,0,7.394,2.228,15.525,15.525,0,0,0,8.082-2.357,19.278,19.278,0,0,0,6.525-6.832l.02-.031L96,84.9a13.064,13.064,0,0,0,2.661.28,12.84,12.84,0,0,0,9.08-21.919ZM105.018,78.7a8.99,8.99,0,1,1,2.631-6.354A8.963,8.963,0,0,1,105.018,78.7Z" transform="translate(0 -16.631)" fill="#3e4e61"/>
        <path id="パス_64" data-name="パス 64" d="M390.431,284.6a4.86,4.86,0,0,0-6.337,2.664l1.784.727a2.935,2.935,0,0,1,5.653,1.11,2.9,2.9,0,0,1-.218,1.11l1.784.727a4.779,4.779,0,0,0,.361-1.837A4.858,4.858,0,0,0,390.431,284.6Z" transform="translate(-289.934 -233.385)" fill="#3e4e61"/>
      </g>
    </g>
  </g>
</svg>
