<svg xmlns="http://www.w3.org/2000/svg" width="200" height="200" viewBox="0 0 200 200">
  <g id="グループ_124" data-name="グループ 124" transform="translate(464 -3341)">
    <g id="グループ_118" data-name="グループ 118">
      <rect id="長方形_53" data-name="長方形 53" width="200" height="200" rx="20" transform="translate(-464 3341)" fill="#f0f5f8"/>
      <text id="インプラント" transform="translate(-429 3501)" fill="#06438d" font-size="21" font-family="YuGothic-Bold, Yu Gothic" font-weight="700" letter-spacing="0.05em"><tspan x="0" y="0">インプラント</tspan></text>
      <path id="パス_60" data-name="パス 60" d="M-392.854,3394.429l3.018-7.733,5.658-6.035,9.053-1.32,9.241,1.32,10.562-1.32,11.127,1.32,7.544,10.939v12.636l-4.526,12.636-11.127,7.921-16.031,2.075-13.013-4.715-8.487-10.75Z" transform="translate(0 1)" fill="#fff"/>
      <g id="インプラントのアイコン2" transform="translate(-469.098 3377.211)">
        <path id="パス_55" data-name="パス 55" d="M134.2,11.838a18.773,18.773,0,0,0-6.5-8.055A19.823,19.823,0,0,0,116.089,0a28.3,28.3,0,0,0-7.077,1.031c-.96.245-1.8.475-2.486.633a7.217,7.217,0,0,1-1.413.223,7.287,7.287,0,0,1-1.417-.223C101.628,1.205,98.248.008,94.137,0a19.809,19.809,0,0,0-11.61,3.784,18.769,18.769,0,0,0-6.5,8.056A25.28,25.28,0,0,0,74.1,21.865a37.317,37.317,0,0,0,7.838,22.407,23.615,23.615,0,0,0,12.516,7.884,40.472,40.472,0,0,0,10.661,1.261,40.477,40.477,0,0,0,10.659-1.261,23.614,23.614,0,0,0,12.517-7.884,37.324,37.324,0,0,0,7.838-22.407A25.324,25.324,0,0,0,134.2,11.838ZM123.909,40.945a18.018,18.018,0,0,1-9.629,5.995A34.966,34.966,0,0,1,105.113,48a34.946,34.946,0,0,1-9.167-1.063,18.036,18.036,0,0,1-9.633-5.995,32.126,32.126,0,0,1-6.665-19.08,20.054,20.054,0,0,1,1.5-7.926,13.292,13.292,0,0,1,4.621-5.757,14.079,14.079,0,0,1,8.371-2.77,22.787,22.787,0,0,1,5.674.857c.894.226,1.755.465,2.614.663a12.228,12.228,0,0,0,2.688.365,12.214,12.214,0,0,0,2.687-.365c2.55-.6,5.288-1.527,8.289-1.519a14.1,14.1,0,0,1,8.371,2.77,13.324,13.324,0,0,1,4.621,5.757,20.014,20.014,0,0,1,1.493,7.926A32.1,32.1,0,0,1,123.909,40.945Z" fill="#3e4e61"/>
        <path id="パス_56" data-name="パス 56" d="M188.008,336.54H185.5l2.51,6.1H209.34l2.51-6.1H188.008Z" transform="translate(-93.441 -277.429)" fill="#3e4e61"/>
        <path id="パス_57" data-name="パス 57" d="M211.123,491.428H226.19l1.773-4.1H209.35Z" transform="translate(-113.325 -401.842)" fill="#3e4e61"/>
        <path id="パス_58" data-name="パス 58" d="M193.872,388.014l-2.318,2.786,2.318,2.788h19.7l2.318-2.788-2.318-2.786Z" transform="translate(-98.491 -319.886)" fill="#3e4e61"/>
        <path id="パス_59" data-name="パス 59" d="M193.872,437.942l-2.318,2.785,2.318,2.786h19.7l2.318-2.786-2.318-2.785Z" transform="translate(-98.491 -360.669)" fill="#3e4e61"/>
      </g>
      <path id="パス_81" data-name="パス 81" d="M218.419,70.447a1.029,1.029,0,0,0-1.259-.724c-3.337.9-5.676,1.211-8,1.8-2.327-.588-4.666-.895-7.995-1.8a1.027,1.027,0,1,0-.535,1.982c1.864.5,3.424.829,4.8,1.108a29.4,29.4,0,0,0-5.146,3.1,1.027,1.027,0,0,0,1.214,1.658,22.225,22.225,0,0,1,7.658-3.93,22.233,22.233,0,0,1,7.663,3.93,1.027,1.027,0,1,0,1.211-1.658,29.329,29.329,0,0,0-5.15-3.1c1.384-.279,2.945-.606,4.814-1.108A1.03,1.03,0,0,0,218.419,70.447Z" transform="translate(-573.161 3319.901)" fill="#faa49b"/>
    </g>
  </g>
</svg>
