<svg xmlns="http://www.w3.org/2000/svg" width="200" height="200" viewBox="0 0 200 200">
  <g id="グループ_120" data-name="グループ 120" transform="translate(1444 -3341)">
    <g id="グループ_110" data-name="グループ 110">
      <rect id="長方形_57" data-name="長方形 57" width="200" height="200" rx="20" transform="translate(-1444 3341)" fill="#f0f5f8"/>
      <text id="小児歯科" transform="translate(-1387 3501)" fill="#06438d" font-size="21" font-family="YuGothic-Bold, Yu Gothic" font-weight="700" letter-spacing="0.05em"><tspan x="0" y="0">小児歯科</tspan></text>
      <path id="パス_27" data-name="パス 27" d="M-361.9,3385.314s29.847-15.072,30.852,20.766c.167,14.737-8.708,30.311-8.708,30.311l-1.172,5.359-1.507,6.531-1.172,6.029-2.345,4.019h-5.861l-3.852-1.842-1.675-6.531-1-8.206-2.344-3.684h-4.187l-1,2.679-1.34,6.2-1.842,7.368-1.842,4.019-5.024,1-4.187-2.847-3.684-11.555-1.172-8.541-5.526-16.244-3.517-16.411,3.517-14.4,8.876-6.7,8.708-1.339,4.856,1.339Z" transform="translate(-980.982 -0.9)" fill="#fff"/>
      <path id="パス_21" data-name="パス 21" d="M93.917.347A30.265,30.265,0,0,0,89.393,0a33.207,33.207,0,0,0-9.967,1.663c-.575.171-1.131.334-1.58.445-.45-.111-1-.274-1.578-.445A33.193,33.193,0,0,0,66.3,0a30.3,30.3,0,0,0-4.527.347C49.417,2.2,42.407,13.859,43.912,30.039c.761,8.16,3.55,14.889,6.012,20.823,2.269,5.472,4.414,10.643,4.854,16.424,1.03,13.575,7.826,15.042,10.7,15.042,3.977,0,7.693-2.829,9.243-7.045a26.782,26.782,0,0,0,1.163-6.568c.181-1.882.606-6.286,1.52-7.065l0,0a2.744,2.744,0,0,1,.435-.035,1.5,1.5,0,0,1,.477.055c.877.754,1.3,5.158,1.485,7.04a27.115,27.115,0,0,0,1.161,6.573c1.553,4.211,5.269,7.04,9.246,7.04,2.877,0,9.673-1.467,10.7-15.042.437-5.781,2.58-10.952,4.852-16.424,2.462-5.934,5.254-12.663,6.012-20.823C113.288,13.859,106.276,2.2,93.917.347Zm12.406,29.182c-1.357,14.565-9.856,23.926-10.874,37.343-.56,7.4-2.96,9.974-5.236,9.974-1.721,0-3.372-1.472-4.1-3.457-1.7-4.6.362-17.245-8.266-17.245s-6.568,12.648-8.264,17.245c-.731,1.985-2.382,3.457-4.1,3.457-2.276,0-4.676-2.578-5.236-9.974-1.018-13.417-9.517-22.778-10.874-37.343C48.06,15.469,53.826,7.08,62.589,5.764A24.787,24.787,0,0,1,66.3,5.48c5.432,0,8.9,1.882,11.545,2.2,2.651-.319,6.115-2.2,11.547-2.2a24.812,24.812,0,0,1,3.711.284C101.867,7.08,107.635,15.469,106.324,29.529Z" transform="translate(-1421.71 3378.383)" fill="#3e4e61"/>
      <path id="パス_22" data-name="パス 22" d="M218.419,70.447a1.029,1.029,0,0,0-1.259-.724c-3.337.9-5.676,1.211-8,1.8-2.327-.588-4.666-.895-7.995-1.8a1.027,1.027,0,1,0-.535,1.982c1.864.5,3.424.829,4.8,1.108a29.4,29.4,0,0,0-5.146,3.1,1.027,1.027,0,0,0,1.214,1.658,22.225,22.225,0,0,1,7.658-3.93,22.233,22.233,0,0,1,7.663,3.93,1.027,1.027,0,1,0,1.211-1.658,29.329,29.329,0,0,0-5.15-3.1c1.384-.279,2.945-.606,4.814-1.108A1.03,1.03,0,0,0,218.419,70.447Z" transform="translate(-1552.757 3319.901)" fill="#faa49b"/>
    </g>
  </g>
</svg>
