<?xml version="1.0" encoding="utf-8"?>
<!-- Generator: Adobe Illustrator 26.0.2, SVG Export Plug-In . SVG Version: 6.00 Build 0)  -->
<svg version="1.1" id="レイヤー_1" xmlns="http://www.w3.org/2000/svg" xmlns:xlink="http://www.w3.org/1999/xlink" x="0px"
	 y="0px" viewBox="0 0 670 80" style="enable-background:new 0 0 670 80;" xml:space="preserve">
<style type="text/css">
	.st0{fill:#06438D;}
	.st1{enable-background:new    ;}
	.st2{fill:#FFFFFF;}
</style>
<g id="グループ_64" transform="translate(-40 -2473)">
	<path id="長方形_29" class="st0" d="M78,2473h594c21,0,38,17,38,38v4c0,21-17,38-38,38H78c-21,0-38-17-38-38v-4
		C40,2490,57,2473,78,2473z"/>
	<g id="グループ_63" transform="translate(2 23)">
		<g class="st1">
			<path class="st2" d="M235.1,2479.6h2.5c1.2,0,1.8,0.6,1.8,1.8c0,1.2-0.6,1.8-1.9,1.8c-0.1,0-0.2,0-0.4,0c-0.5,0-1.2-0.1-2.1-0.1
				c-0.2,0-0.5,0-0.7,0l-0.1,0.5l-0.2,1.3l-0.2,1.2l-0.2,1l0,0.3c0.6,0,1.8-0.1,3.4-0.2c0.2,0,0.3,0,0.4,0c0.5,0,0.9,0.2,1.3,0.5
				c0.3,0.3,0.5,0.8,0.5,1.3c0,1-0.5,1.6-1.6,1.8c-0.7,0.1-2.2,0.2-4.5,0.3c-0.1,1.1-0.2,1.9-0.2,2.4c0,2.7,1.3,4.1,4,4.1
				c3.7,0,5.6-1.8,5.6-5.5c0-0.9-0.1-1.9-0.3-3c-0.1-0.3-0.1-0.6-0.1-0.8c0-0.6,0.2-1,0.7-1.2c0.3-0.2,0.6-0.2,0.8-0.2
				c0.7,0,1.2,0.4,1.6,1.3c0.7,1.4,1,3,1,4.7c0,3.1-1.1,5.4-3.3,6.8c-1.6,1-3.6,1.5-6,1.5c-2.2,0-4-0.6-5.3-1.7
				c-1.6-1.3-2.4-3.3-2.4-5.8c0-0.6,0.1-1.4,0.2-2.6c-1.5,0-2.5,0-2.9-0.1c-1.1-0.1-1.7-0.7-1.7-1.8c0-0.5,0.2-1,0.5-1.3
				s0.7-0.5,1.2-0.5c0.1,0,0.2,0,0.4,0c0.6,0,1.5,0.1,2.9,0.1c0.2-1.2,0.4-2.7,0.8-4.4h-0.3c-1.7,0.1-2.8,0.1-3.1,0.1
				c-0.1,0-0.2,0-0.3,0c-0.5,0-0.9-0.1-1.3-0.4c-0.5-0.3-0.7-0.8-0.7-1.4c0-0.7,0.3-1.2,0.8-1.5c0.3-0.2,0.6-0.3,1.1-0.3
				c0.7,0,1.8-0.1,3.3-0.1c0.4,0,0.8,0,1.2,0c0.2-0.9,0.5-2.2,0.8-3.9c0.2-1.1,0.9-1.7,1.9-1.7c0.3,0,0.5,0,0.7,0.1
				c0.9,0.2,1.3,0.8,1.3,1.7c0,0.2,0,0.5-0.1,0.8C235.3,2478.4,235.1,2479.4,235.1,2479.6z"/>
			<path class="st2" d="M271.3,2485.2c1.6,0,3.1,0.4,4.3,1.2c1.6,1.1,2.4,2.7,2.4,4.7c0,3.3-1.7,5.7-5.2,7.2
				c-1.1,0.5-2.4,0.9-3.7,1.1c-0.3,0.1-0.6,0.1-0.8,0.1c-0.9,0-1.4-0.4-1.4-1.3c0-0.4,0.2-0.8,0.6-1.1c0.2-0.1,0.6-0.3,1.5-0.6
				c3.5-1.2,5.3-2.9,5.3-5.3c0-0.9-0.3-1.6-0.9-2.2c-0.6-0.5-1.3-0.8-2.3-0.8c-1.2,0-3.2,0.3-5.9,0.9c-3.5,0.8-5.5,1.2-6,1.2
				c-0.4,0-0.8-0.1-1.1-0.4c-0.4-0.3-0.5-0.8-0.5-1.4c0-0.9,0.6-1.5,1.9-1.6c0.7-0.1,2.6-0.4,5.5-1
				C268,2485.5,270.1,2485.2,271.3,2485.2z"/>
			<path class="st2" d="M297.1,2486.9c-0.8-1.3-1.6-3.5-2.6-6.4c-0.2-0.7-0.5-1.4-0.9-2.1c-0.2-0.4-0.3-0.8-0.3-1.1
				c0-0.6,0.2-1,0.8-1.4c0.4-0.3,0.8-0.4,1.3-0.4c0.8,0,1.4,0.4,1.9,1.2c0.3,0.5,0.6,1.4,1,2.8c0.5,1.9,1.1,3.6,1.7,5.3
				c2.6-1.8,5.3-3.5,8-5.1c0.4-0.2,0.7-0.3,1.1-0.3c0.7,0,1.2,0.3,1.6,0.8c0.3,0.4,0.4,0.8,0.4,1.2c0,0.6-0.2,1.1-0.7,1.5
				c-0.1,0.1-0.4,0.2-0.8,0.5c-8.6,4.4-12.8,7.8-12.8,10.5c0,1.7,1.6,2.5,4.7,2.5c2.3,0,4.6-0.2,6.9-0.5c0.2,0,0.4,0,0.6,0
				c1.2,0,1.7,0.7,1.7,2c0,1.1-0.5,1.7-1.6,1.9c-1.3,0.3-3.6,0.4-7,0.4c-3,0-5.2-0.4-6.5-1.3c-1.6-1-2.5-2.6-2.5-4.7
				C292.9,2491.6,294.3,2489.3,297.1,2486.9z"/>
			<path class="st2" d="M330.8,2482l-9.6,0.8c-0.1,0-0.2,0-0.2,0c-0.6,0-1-0.3-1.2-0.9c-0.1-0.2-0.1-0.5-0.1-0.8
				c0-0.9,0.4-1.3,1.3-1.4l9.5-0.8c0.1,0,0.1,0,0.2,0c0.5,0,0.9,0.2,1.2,0.6c0.2,0.3,0.3,0.6,0.3,0.9
				C332,2481.4,331.6,2481.9,330.8,2482z M330.8,2497.9c0.4,0.3,0.6,0.7,0.6,1.2c0,0.9-0.4,1.4-1.2,1.4l-5.2,0.5
				c-0.1,0.7-0.7,1.1-1.7,1.1c-0.9,0-1.5-0.5-1.6-1.4l-0.7-6.9c0-0.1,0-0.2,0-0.2c0-0.5,0.2-0.9,0.7-1.2c0.3-0.2,0.6-0.2,1-0.2
				c0.5,0,1,0.2,1.3,0.5l4.6-0.5c0.2,0,0.4,0,0.7,0c1.5,0,2.2,0.7,2.2,2c0,0.3,0,0.5-0.1,0.8L330.8,2497.9z M329.4,2486.3l-6.3,0.6
				c-0.1,0-0.1,0-0.2,0c-0.5,0-0.8-0.2-1.1-0.7c-0.1-0.2-0.2-0.5-0.2-0.8c0-0.8,0.4-1.3,1.2-1.4l6.3-0.6c0,0,0.1,0,0.2,0
				c0.5,0,0.8,0.2,1.1,0.5c0.2,0.3,0.2,0.6,0.2,0.9C330.6,2485.8,330.2,2486.3,329.4,2486.3z M329.4,2490.5l-6.4,0.6
				c0,0-0.1,0-0.2,0c-0.4,0-0.8-0.2-1-0.6c-0.1-0.2-0.2-0.5-0.2-0.8c0-0.8,0.4-1.3,1.2-1.4l6.4-0.5c0.1,0,0.1,0,0.2,0
				c0.9,0,1.3,0.5,1.3,1.4c0,0.6-0.2,1-0.7,1.2C329.8,2490.5,329.6,2490.5,329.4,2490.5z M324,2473.6c0.4,0,1.1,0.2,2.1,0.5
				c1.3,0.4,2.2,0.8,2.7,1.2c0.6,0.4,0.9,0.9,0.9,1.4c0,0.3-0.1,0.6-0.3,0.9c-0.3,0.5-0.8,0.8-1.5,0.8c-0.4,0-0.9-0.2-1.4-0.6
				c-0.9-0.7-1.9-1.3-2.9-1.9c-0.6-0.3-0.9-0.7-0.9-1.2C322.8,2473.9,323.2,2473.6,324,2473.6z M327.8,2498l0.3-2.5
				c0-0.4-0.1-0.5-0.5-0.5c-0.1,0-0.1,0-0.2,0l-2.9,0.3l0.2,3L327.8,2498z M341.9,2482.6v2.3l3.8-0.3c0.3,0,0.6,0,0.9,0.2
				c0.5,0.3,0.7,0.7,0.7,1.4c0,1-0.4,1.5-1.3,1.6l-4.1,0.3v2.5l5.9-0.4c0,0,0.1,0,0.1,0c0.5,0,0.8,0.2,1.1,0.5
				c0.2,0.3,0.4,0.7,0.4,1.1c0,1.1-0.4,1.7-1.3,1.8l-6.2,0.4v7c0,0.5-0.2,0.8-0.5,1.1c-0.4,0.3-0.8,0.5-1.3,0.5
				c-0.8,0-1.3-0.3-1.6-0.9c-0.1-0.2-0.2-0.4-0.2-0.7v-6.8l-5.1,0.4c0,0-0.1,0-0.1,0c-0.5,0-0.9-0.2-1.1-0.5
				c-0.2-0.3-0.4-0.7-0.4-1.2c0-1.1,0.4-1.6,1.3-1.7l5.3-0.4v-2.5l-3.9,0.3c-0.3,0-0.6-0.1-1-0.2c-0.4-0.2-0.6-0.7-0.6-1.3
				c0-1,0.4-1.6,1.3-1.6l4.2-0.3v-2.3l-4.4,0.4c-0.1,0-0.1,0-0.2,0c-1-0.1-1.5-0.6-1.5-1.6c0-1,0.4-1.6,1.2-1.6l2.4-0.2
				c-0.2-0.2-0.5-0.5-0.6-0.9c-0.3-0.8-0.8-1.8-1.5-2.9c-0.2-0.3-0.2-0.5-0.2-0.8c0-0.4,0.2-0.8,0.5-1c0.2-0.2,0.5-0.3,0.8-0.3
				c0.6,0,1.4,0.6,2.4,1.8c0.9,1.1,1.3,2,1.3,2.6c0,0.5-0.3,0.9-0.8,1.3l2.5-0.2c0.8-1.6,1.4-3,1.8-4.4c0.4-1.1,1-1.7,1.8-1.7
				c0.3,0,0.6,0.1,0.9,0.2c0.7,0.3,1,0.8,1,1.5c0,0.7-0.7,2.1-2.2,4.1l2.5-0.2c0.1,0,0.1,0,0.2,0c0.4,0,0.7,0.1,1,0.4
				c0.3,0.3,0.5,0.8,0.5,1.3c0,0.9-0.4,1.5-1.3,1.5L341.9,2482.6z"/>
			<path class="st2" d="M362.4,2475.3c1.4,0,2,0.7,2,2.1c0,0.4-0.1,1.9-0.2,4.6l-0.2,2.5c-0.2,3.3-0.3,5.8-0.3,7.4
				c0,3.2,1.3,4.8,3.9,4.8c1.7,0,3.2-0.5,4.4-1.4c1.3-1,2.3-2.2,3.1-3.8c0.3-0.6,0.8-1,1.5-1c0.4,0,0.8,0.2,1.1,0.5
				c0.3,0.3,0.4,0.6,0.4,1.1c0,0.6-0.3,1.5-1,2.7c-2.2,3.8-5.4,5.8-9.5,5.8c-3,0-5.2-1.1-6.5-3.3c-0.8-1.4-1.2-3.1-1.2-5.2
				c0-1.7,0.1-4.5,0.4-8.5c0.1-2.4,0.2-4,0.2-4.6l0-1.7C360.4,2476,361.1,2475.3,362.4,2475.3z"/>
			<path class="st2" d="M404.3,2474.4c0.4,0,0.8,0.1,1.2,0.4c0.6,0.4,1,1,1,1.7c0,0.5-0.4,1.2-1.1,2c-2.2,2.5-4.7,4.9-7.4,7.2
				c-0.6,0.5-1.1,1-1.5,1.3c-0.4,0.3-0.6,0.6-0.6,0.8c0,0.2,0.2,0.4,0.7,0.8c4,3,7,5.6,9,8c0.9,1.1,1.4,2,1.4,2.6
				c0,0.7-0.3,1.3-0.9,1.7c-0.4,0.3-0.8,0.4-1.3,0.4c-0.5,0-1-0.2-1.4-0.5c-0.1-0.1-0.4-0.5-0.9-1.1c-1.9-2.5-4.8-5.4-8.9-8.7
				c-1.4-1.2-2.1-2.2-2.1-3.1c0-1,0.6-2,1.9-3.1c1.8-1.5,3.8-3.3,5.8-5.4c1.3-1.4,2.4-2.8,3.3-3.9
				C403,2474.7,403.6,2474.4,404.3,2474.4z"/>
			<path class="st2" d="M429.7,2491.8c0.4,0,0.8,0.1,1.1,0.2c0.7,0.3,1,0.9,1,1.7c0,0.9-0.5,2-1.6,3.3c-1.6,2.1-3.9,3.6-6.8,4.6
				c-1.2,0.4-2.1,0.6-2.7,0.6c-0.6,0-1.1-0.2-1.3-0.7c-0.1-0.3-0.2-0.5-0.2-0.8c0-0.4,0.2-0.8,0.6-1.1c0.2-0.1,0.5-0.3,1-0.5
				c1.9-0.7,3.4-1.6,4.4-2.6c1.2-1.2,2.1-2.5,2.7-3.6C428.2,2492.2,428.8,2491.8,429.7,2491.8z M439.1,2491.2l-1,0.1l-0.2,6
				c0,0.7,0.2,1.1,0.6,1.2c0.2,0.1,1,0.1,2.2,0.1c1.4,0,2.4-0.1,2.7-0.3c0.5-0.3,0.9-1.3,1-3c0.1-0.9,0.5-1.3,1.2-1.3
				c0.7,0,1.1,0.4,1.4,1.3c0.4,1.4,0.5,2.7,0.5,3.8c0,1.4-0.7,2.3-2.2,2.7c-1.1,0.3-2.8,0.5-5.2,0.5c-2.2,0-3.8-0.2-4.6-0.6
				c-1-0.5-1.5-1.4-1.5-2.8c0-0.2,0-0.3,0-0.4l0.3-7l-6.4,0.4c-0.4,0.5-0.9,0.8-1.7,0.8c-0.8,0-1.4-0.3-1.7-0.9
				c-0.1-0.2-0.2-0.4-0.2-0.7v-14.9c0-0.6,0.2-1,0.7-1.3c0.3-0.2,0.7-0.3,1.2-0.3c0.6,0,1.1,0.2,1.5,0.6l12-1c0.2,0,0.3,0,0.4,0
				c1.7,0,2.5,0.9,2.5,2.8v13.3c0,0.4-0.1,0.8-0.4,1c-0.4,0.4-0.9,0.6-1.5,0.6C439.9,2492,439.4,2491.7,439.1,2491.2z M438.9,2479.1
				v-1c0-0.5-0.3-0.7-0.9-0.7l-9.9,0.8v1.8L438.9,2479.1z M438.9,2481.8l-10.8,0.8v1.8l10.8-0.8V2481.8z M438.9,2486.4l-10.8,0.8v2
				l10.8-0.7V2486.4z"/>
			<path class="st2" d="M467.1,2479.1c-3.2,0.6-5.1,0.9-5.9,0.9c-0.6,0-1-0.2-1.4-0.5c-0.3-0.3-0.4-0.7-0.4-1.2
				c0-0.9,0.4-1.5,1.1-1.8c0.2-0.1,0.7-0.2,1.4-0.2c3-0.2,5.6-0.6,7.6-1c0.2-0.1,0.4-0.1,0.6-0.1c0.8,0,1.4,0.3,1.9,0.9
				c0.4,0.4,0.5,0.9,0.5,1.4s-0.2,1-0.6,1.4c-1.3,1.5-4.4,4.4-9.2,8.8l0.1,0.1c1.9-1.2,4-1.8,6.3-1.8c2.2,0,4,0.5,5.5,1.5
				c1.8,1.2,2.7,3,2.7,5.1c0,3-1.3,5.2-3.8,6.6c-1.9,1.1-4.2,1.6-7,1.6c-1.5,0-2.7-0.3-3.8-1c-1.4-0.8-2.1-2-2.1-3.4
				c0-1.1,0.5-1.9,1.4-2.6c1-0.8,2.3-1.1,3.8-1.1c2.5,0,4.5,1.1,6,3.3c1-1,1.5-2.1,1.5-3.4c0-1.2-0.5-2.1-1.5-2.8
				c-0.8-0.5-1.8-0.8-3-0.8c-3.5,0-6.8,1.2-9.8,3.5c-0.5,0.4-1,0.6-1.5,0.6s-0.9-0.2-1.2-0.6c-0.4-0.4-0.6-0.9-0.6-1.5
				c0-0.5,0.2-1,0.5-1.3c0.1-0.1,0.4-0.3,0.9-0.8c3.6-3.1,6.9-6.3,10.1-9.7L467.1,2479.1z M468.9,2497.5c-1-1.3-2.1-2-3.3-2
				c-1.2,0-1.7,0.3-1.7,1c0,0.3,0.2,0.6,0.5,0.8c0.5,0.3,1.1,0.4,2,0.4c0.9,0,1.7-0.1,2.3-0.2c0,0,0.1,0,0.1,0
				C468.8,2497.5,468.9,2497.5,468.9,2497.5z"/>
		</g>
		<path id="パス_1" class="st2" d="M516.1,2502l-2.1-2.1l9.2-9.2l-9.2-9.2l2.1-2.1l11.3,11.3L516.1,2502z"/>
	</g>
</g>
</svg>
