<?xml version="1.0" encoding="utf-8"?>
<!-- Generator: Adobe Illustrator 26.0.2, SVG Export Plug-In . SVG Version: 6.00 Build 0)  -->
<svg version="1.1" id="レイヤー_1" xmlns="http://www.w3.org/2000/svg" xmlns:xlink="http://www.w3.org/1999/xlink" x="0px"
	 y="0px" viewBox="0 0 266 54" style="enable-background:new 0 0 266 54;" xml:space="preserve">
<style type="text/css">
	.st0{fill:#06438D;}
	.st1{enable-background:new    ;}
	.st2{fill:#FFFFFF;}
</style>
<g id="グループ_98" transform="translate(-394 -35)">
	<g id="グループ_96" transform="translate(29.653 5)">
		<path id="長方形_46" class="st0" d="M372.3,30h250c4.4,0,8,3.6,8,8v38c0,4.4-3.6,8-8,8h-250c-4.4,0-8-3.6-8-8V38
			C364.3,33.6,367.9,30,372.3,30z"/>
	</g>
	<g id="グループ_97" transform="translate(-1.44 2)">
		<g class="st1">
			<path class="st2" d="M465.7,48.3c2.4,0,4.1,1,5.2,2.9c1,1.8,1.5,4.5,1.5,8.1c0,4.1-0.7,7.1-2,8.9c-1.1,1.5-2.7,2.3-4.8,2.3
				c-2.4,0-4.1-1-5.2-2.9c-1-1.8-1.5-4.5-1.5-8.1c0-4.1,0.7-7,2-8.8C462,49.1,463.6,48.3,465.7,48.3z M465.7,51.1
				c-1.2,0-2,0.7-2.5,2c-0.4,1.3-0.7,3.3-0.7,6.2c0,3.3,0.3,5.6,0.8,6.8c0.5,1,1.2,1.6,2.3,1.6c1.2,0,2.1-0.7,2.5-2.1
				c0.4-1.3,0.6-3.4,0.6-6.3c0-3.3-0.3-5.5-0.8-6.7C467.5,51.6,466.8,51.1,465.7,51.1z"/>
			<path class="st2" d="M483.5,48.5v18.8h4v2.7H476v-2.7h4.2V52.1c-1.1,0.8-2.5,1.4-4,1.9l-0.6-2.9c1.7-0.5,3.4-1.3,5-2.5H483.5z"/>
			<path class="st2" d="M490.7,54.2c0.3-2,1.1-3.5,2.4-4.6c1.1-0.9,2.5-1.3,4.2-1.3c2.1,0,3.7,0.6,4.8,1.7c1,1,1.5,2.4,1.5,4.1
				c0,1.3-0.4,2.5-1.1,3.6c-0.6,1-1.7,2.2-3.3,3.6c-2.7,2.4-4.4,4.4-5.2,5.9h9.6v2.8h-13.2v-2.5c1.2-2.5,3.2-5.2,6.1-7.9
				c1.5-1.4,2.4-2.5,2.9-3.3c0.4-0.7,0.6-1.4,0.6-2.3c0-1-0.3-1.8-0.9-2.3c-0.5-0.5-1.1-0.7-1.9-0.7c-1.9,0-2.9,1.3-3,3.9
				L490.7,54.2z"/>
			<path class="st2" d="M513,48.3c2.4,0,4.1,1,5.2,2.9c1,1.8,1.5,4.5,1.5,8.1c0,4.1-0.7,7.1-2,8.9c-1.1,1.5-2.7,2.3-4.8,2.3
				c-2.4,0-4.1-1-5.2-2.9c-1-1.8-1.5-4.5-1.5-8.1c0-4.1,0.7-7,2-8.8C509.3,49.1,510.9,48.3,513,48.3z M513,51.1c-1.2,0-2,0.7-2.5,2
				c-0.4,1.3-0.7,3.3-0.7,6.2c0,3.3,0.3,5.6,0.8,6.8c0.5,1,1.2,1.6,2.3,1.6c1.2,0,2.1-0.7,2.5-2.1c0.4-1.3,0.6-3.4,0.6-6.3
				c0-3.3-0.3-5.5-0.8-6.7C514.8,51.6,514.1,51.1,513,51.1z"/>
			<path class="st2" d="M530.8,60.2v2.7h-8.2v-2.7H530.8z"/>
			<path class="st2" d="M542.6,48.5v18.8h4v2.7H535v-2.7h4.2V52.1c-1.1,0.8-2.5,1.4-4,1.9l-0.6-2.9c1.7-0.5,3.4-1.3,5-2.5H542.6z"/>
			<path class="st2" d="M549.8,54.2c0.3-2,1.1-3.5,2.4-4.6c1.1-0.9,2.5-1.3,4.2-1.3c2.1,0,3.7,0.6,4.8,1.7c1,1,1.5,2.4,1.5,4.1
				c0,1.3-0.4,2.5-1.1,3.6c-0.6,1-1.7,2.2-3.3,3.6c-2.7,2.4-4.4,4.4-5.2,5.9h9.6v2.8h-13.2v-2.5c1.2-2.5,3.2-5.2,6.1-7.9
				c1.5-1.4,2.4-2.5,2.9-3.3c0.4-0.7,0.6-1.4,0.6-2.3c0-1-0.3-1.8-0.9-2.3c-0.5-0.5-1.1-0.7-1.9-0.7c-1.9,0-2.9,1.3-3,3.9
				L549.8,54.2z"/>
			<path class="st2" d="M565.4,52.9c0.4-1.6,1.3-2.8,2.5-3.6c1.1-0.7,2.4-1,3.9-1c2.1,0,3.7,0.6,4.9,1.7c1,1,1.5,2.2,1.5,3.7
				c0,1.4-0.4,2.5-1.2,3.3c-0.7,0.8-1.7,1.3-2.9,1.5v0.2c1.5,0.3,2.7,1,3.5,2.1c0.7,0.9,1,2,1,3.3c0,2-0.7,3.6-2.1,4.8
				c-1.2,1-2.8,1.5-4.7,1.5c-3.6,0-5.9-1.6-6.8-4.7l3.4-1c0.3,1.1,0.7,1.9,1.3,2.4c0.5,0.4,1.2,0.6,2.1,0.6c1.1,0,1.9-0.4,2.5-1.1
				c0.5-0.6,0.8-1.5,0.8-2.5c0-2.6-1.4-3.9-4.1-3.9h-1.6v-2.9h1.5c2.6,0,3.9-1.1,3.9-3.4c0-1-0.3-1.8-0.9-2.3
				c-0.5-0.4-1.2-0.7-2-0.7c-0.8,0-1.5,0.3-2,0.8c-0.5,0.5-0.8,1.2-0.9,2.1L565.4,52.9z"/>
			<path class="st2" d="M589.9,60.2v2.7h-8.2v-2.7H589.9z"/>
			<path class="st2" d="M603.9,48.5v14h2.7v2.6h-2.7v4.8h-3.2v-4.8h-8.1v-2.5l6.9-14.2H603.9z M600.7,62.6v-4.7
				c0-1.5,0.1-3.7,0.2-6.5h-0.4c-0.6,1.7-1.4,3.5-2.4,5.6l-2.6,5.7H600.7z"/>
			<path class="st2" d="M621.1,48.7v2.8h-8.4l-0.2,4.3c0,0.8-0.1,1.4-0.2,2c0.8-1.2,2.1-1.8,3.7-1.8c1.9,0,3.4,0.7,4.6,2.2
				c1,1.3,1.5,2.9,1.5,4.8c0,2.4-0.7,4.3-2.1,5.7c-1.2,1.2-2.8,1.8-4.7,1.8c-1.8,0-3.3-0.4-4.4-1.3c-1-0.8-1.7-1.9-2.1-3.3l3.4-1
				c0.4,2,1.4,3,3,3c1.1,0,1.9-0.5,2.5-1.4c0.5-0.8,0.8-1.9,0.8-3.3c0-1.5-0.3-2.6-0.9-3.3c-0.5-0.7-1.3-1-2.2-1
				c-1.5,0-2.5,0.8-3,2.4l-2.9-0.4l0.4-12H621.1z"/>
			<path class="st2" d="M637.5,51.8l-3.4,1.3c-0.3-1.4-1-2.1-2.2-2.1c-2.5,0-3.8,2.5-3.9,7.6c1-1.7,2.4-2.5,4.4-2.5
				c1.8,0,3.2,0.7,4.2,2.1c0.9,1.2,1.4,2.8,1.4,4.8c0,2.4-0.7,4.4-2.1,5.7c-1.2,1.2-2.7,1.8-4.5,1.8c-2.3,0-4-0.9-5.2-2.8
				c-1.1-1.7-1.7-4.2-1.7-7.5c0-7.9,2.5-11.9,7.4-11.9C634.7,48.3,636.5,49.5,637.5,51.8z M628,61.4c0,4.2,1.1,6.3,3.4,6.3
				c2,0,3-1.6,3-4.7c0-2.9-1-4.3-2.9-4.3C630.1,58.7,628.9,59.6,628,61.4z"/>
		</g>
		<g id="グループ_95" transform="translate(10.93 -0.643)">
			<path id="パス_9" class="st2" d="M425.4,56.7V52l-2.5,0.5v1.9h-4.6v-1.9l-2.5-0.5v4.7h-3l-3.4,7.5V71c0,0.6,0.4,1.1,1.1,1.2
				h20.4c0.6,0,1.1-0.5,1.1-1.2v-6.7l-3.5-7.5H425.4z M420.6,68.8c-2.4,0-4.3-1.9-4.3-4.3c0-2.4,1.9-4.3,4.3-4.3s4.3,1.9,4.3,4.3
				C424.9,66.9,423,68.8,420.6,68.8L420.6,68.8z"/>
			<path id="パス_10" class="st2" d="M431.1,48.7c-2.3-1-7.3-1.5-10.5-1.5c-3.1,0-8.2,0.6-10.5,1.5c-2.3,1-4.6,3.2-4.6,5.7
				c0,0.9,0.3,1.8,0.9,2.4h4.9c0.3,0,0.9-1.3,0.9-1.8c-0.1-0.7-0.2-1.5-0.5-2.2c0-0.6,0.3-1.1,1.3-1.5c1.8-0.8,5.9-0.8,7.6-0.8
				c1.7,0,5.8,0,7.6,0.8c1,0.4,1.3,0.9,1.3,1.5c-0.3,0.7-0.4,1.4-0.5,2.2c0,0.5,0.6,1.8,0.9,1.8h4.9c0.6-0.7,0.9-1.6,0.9-2.4
				C435.7,51.9,433.4,49.7,431.1,48.7z"/>
		</g>
	</g>
</g>
</svg>
