<?xml version="1.0" encoding="utf-8"?>
<!-- Generator: Adobe Illustrator 26.0.2, SVG Export Plug-In . SVG Version: 6.00 Build 0)  -->
<svg version="1.1" id="レイヤー_1" xmlns="http://www.w3.org/2000/svg" xmlns:xlink="http://www.w3.org/1999/xlink" x="0px"
	 y="0px" viewBox="0 0 200 200" style="enable-background:new 0 0 200 200;" xml:space="preserve">
<style type="text/css">
	.st0{fill:#F0F5F8;}
	.st1{enable-background:new    ;}
	.st2{fill:#06438D;}
	.st3{fill:#FFFFFF;}
	.st4{fill:#3F536B;}
	.st5{fill:#FAA49B;}
</style>
<g id="グループ_114" transform="translate(954 -3341)">
	<path id="長方形_56" class="st0" d="M-934,3341h160c11,0,20,9,20,20v160c0,11-9,20-20,20h-160c-11,0-20-9-20-20v-160
		C-954,3350-945,3341-934,3341z"/>
	<g class="st1">
		<path class="st2" d="M-926,3492.7c0.9,0.3,1.6,0.6,2.2,1c0.2,0.1,0.3,0.3,0.3,0.4c0,0.1-0.1,0.2-0.2,0.3c-0.2,0.1-0.4,0.4-0.5,0.7
			c-0.7,1.4-1.5,2.6-2.3,3.5c-0.2,0.2-0.3,0.3-0.4,0.3c-0.1,0-0.2,0-0.3-0.1c-0.7-0.5-1.3-0.8-1.8-0.9c1.1-1.1,1.9-2.3,2.5-3.5
			C-926.3,3493.9-926.1,3493.3-926,3492.7z M-921,3488.8v-1c0-1.4-0.1-2.5-0.2-3.2c1.2,0.1,2.1,0.2,2.6,0.3c0.3,0,0.4,0.1,0.4,0.3
			c0,0.1,0,0.2-0.1,0.4c-0.1,0.3-0.2,1-0.2,2.1v1.1h2.6c0.8,0,2.2,0,4.3-0.1c0,0,0,0,0,0c0.2,0,0.2,0.1,0.2,0.3c0,0.3,0,0.5,0,0.7
			c0,0.3,0,0.7,0,1c0,0.3-0.1,0.4-0.3,0.4c-2.2-0.1-3.6-0.1-4.3-0.1h-2.5l0,4.2l0,3.7c0,1-0.4,1.7-1.2,2.2c-0.8,0.4-1.7,0.7-2.7,0.7
			c-0.2,0-0.4-0.1-0.5-0.4c-0.3-0.7-0.8-1.4-1.4-1.9c1.4,0,2.4-0.1,2.9-0.2c0.3-0.1,0.5-0.5,0.5-0.9v-7.2h-3.3c-1.3,0-2.5,0-3.6,0.1
			c-0.2,0-0.3-0.1-0.3-0.4c-0.1-1-0.1-1.7-0.1-2c1.2,0.1,2.6,0.1,3.9,0.1H-921z M-916.5,3494c0.2-0.2,0.5-0.4,0.9-0.6
			c0.3-0.2,0.6-0.4,0.7-0.5c0.1-0.1,0.2-0.1,0.3-0.1c0.1,0,0.2,0.1,0.3,0.2c0.9,0.8,1.9,2.1,3,3.8c0.1,0.1,0.1,0.2,0.1,0.3
			c0,0.1-0.1,0.2-0.2,0.3c-0.3,0.3-0.8,0.6-1.4,1.1c-0.1,0.1-0.2,0.1-0.2,0.1c-0.1,0-0.2-0.1-0.2-0.2
			C-914.2,3496.7-915.2,3495.2-916.5,3494z"/>
		<path class="st2" d="M-903.7,3488v2.6c0,1.2,0,2,0,2.5c0,0.2,0,0.3-0.1,0.3c0,0-0.1,0.1-0.3,0.1c-0.3,0-0.6,0-0.9,0s-0.6,0-0.9,0
			c-0.3,0-0.4-0.1-0.4-0.2c0.1-0.9,0.1-1.8,0.1-2.7v-2c0-1.1,0-2-0.1-2.7c0-0.1,0.1-0.2,0.3-0.2c1.2,0.1,2.4,0.1,3.5,0.1h7.1
			c0.6,0,1.1-0.1,1.3-0.2c0.1-0.1,0.2-0.1,0.3-0.1c0.1,0,0.2,0.1,0.4,0.2c0.7,0.5,1.2,0.9,1.6,1.4c0.1,0.1,0.1,0.2,0.1,0.4
			c0,0.1-0.1,0.3-0.2,0.4c-0.2,0.2-0.4,0.6-0.5,1.2c-0.7,2.5-1.5,4.6-2.6,6.5c-1.2,2.2-2.8,4.1-4.7,5.8c-0.2,0.2-0.3,0.2-0.5,0.2
			c-0.1,0-0.3,0-0.4-0.1c-0.6-0.4-1.3-0.6-2-0.8c1.3-1,2.4-2,3.3-3.1c0.7-0.9,1.4-1.9,2-3c1.1-2,1.9-4.1,2.4-6.5H-903.7z"/>
		<path class="st2" d="M-876.9,3490.1v7c0,1.2,0,2.7,0.1,4.4c0,0,0,0.1,0,0.1c0,0.2-0.1,0.3-0.3,0.3c-0.3,0-0.7,0-1,0s-0.7,0-1,0
			c-0.2,0-0.3-0.1-0.3-0.3c0,0,0,0,0-0.1c0-0.3,0-1.1,0.1-2.3c0-0.8,0-1.5,0-2v-4.9c-2.1,1.8-4,3.1-5.8,4c-0.1,0.1-0.2,0.1-0.3,0.1
			c-0.2,0-0.3-0.1-0.4-0.2c-0.4-0.4-1-0.8-1.8-1.2c2.5-1.3,4.7-2.7,6.6-4.3c1.7-1.4,3.2-2.9,4.5-4.4c0.6-0.7,1.1-1.4,1.3-2.2
			c1.1,0.6,1.9,1.1,2.3,1.5c0.1,0.1,0.2,0.2,0.2,0.3c0,0.2-0.1,0.3-0.3,0.5c-0.3,0.2-0.7,0.6-1.3,1.2
			C-875.2,3488.3-876,3489.2-876.9,3490.1z"/>
		<path class="st2" d="M-863.1,3490.2c2.6,0.8,4.9,1.8,6.7,2.9c0.2,0.1,0.3,0.2,0.3,0.4c0,0.1,0,0.1,0,0.2c-0.3,0.7-0.6,1.3-0.9,1.8
			c-0.1,0.2-0.2,0.2-0.3,0.2c-0.1,0-0.2,0-0.2-0.1c-2-1.3-3.8-2.2-5.5-2.7v4.6c0,0.8,0,2.1,0.1,4.1c0,0,0,0,0,0.1
			c0,0.2-0.1,0.3-0.4,0.3c-0.3,0-0.6,0-0.9,0c-0.3,0-0.6,0-0.9,0c-0.3,0-0.4-0.1-0.4-0.3c0.1-1.4,0.1-2.7,0.1-4.1v-10.3
			c0-1.3-0.1-2.3-0.2-3.1c1.2,0.1,2.1,0.2,2.6,0.3c0.3,0.1,0.4,0.2,0.4,0.4c0,0.1-0.1,0.3-0.2,0.5c-0.1,0.2-0.1,0.8-0.1,2V3490.2z"
			/>
		<path class="st2" d="M-852.4,3496.3c1.2,0.1,2.7,0.1,4.3,0.1h7.6c1.5,0,3.1,0,4.7-0.1c0.2,0,0.3,0.1,0.3,0.4c0,0.3,0,0.6,0,0.9
			c0,0.3,0,0.6,0,0.9c0,0.3-0.1,0.4-0.3,0.4c-1,0-2.5-0.1-4.6-0.1h-7.9c-1.7,0-2.9,0-3.8,0.1c-0.2,0-0.3-0.1-0.3-0.4
			C-852.3,3498.3-852.3,3497.5-852.4,3496.3z M-849.8,3487.4c1.1,0.1,2.2,0.1,3.6,0.1h4.2c1,0,2.3,0,3.8-0.1c0.2,0,0.2,0.1,0.2,0.4
			c0,0.3,0,0.6,0,0.9c0,0.3,0,0.6,0,0.9c0,0.3-0.1,0.4-0.3,0.4c-1,0-2.2-0.1-3.7-0.1h-4.2c-0.8,0-1.9,0-3.2,0.1
			c-0.2,0-0.3-0.1-0.3-0.4C-849.8,3489.1-849.8,3488.4-849.8,3487.4z"/>
		<path class="st2" d="M-831.6,3487.9c0.3-0.4,0.8-1,1.5-1.6c0.1-0.1,0.2-0.2,0.3-0.2c0.1,0,0.2,0,0.3,0.1c1.3,0.7,2.6,1.7,4,3
			c0.1,0.1,0.2,0.2,0.2,0.3s0,0.2-0.1,0.3c-0.5,0.6-0.9,1.1-1.3,1.6c-0.1,0.1-0.2,0.2-0.3,0.2c-0.1,0-0.2-0.1-0.3-0.2
			C-828.6,3490-830.1,3488.9-831.6,3487.9z M-831.2,3498.4c1.1-0.3,2.1-0.7,2.8-1c1.4-0.7,2.5-1.3,3.4-1.9c0.8-0.5,1.7-1.2,2.7-2
			c1.4-1.1,2.5-2.1,3.4-3c0.8-0.8,1.6-1.7,2.4-2.8c0.1,0.9,0.3,1.7,0.6,2.5c0.1,0.2,0.1,0.3,0.1,0.4c0,0.2-0.1,0.4-0.3,0.6
			c-1.2,1.4-2.8,2.9-4.8,4.5c-1.7,1.4-3.8,2.7-6.3,4.1c-0.7,0.4-1.2,0.8-1.4,1c-0.1,0.1-0.3,0.2-0.4,0.2s-0.2-0.1-0.4-0.2
			C-830.1,3500-830.7,3499.2-831.2,3498.4z"/>
		<path class="st2" d="M-804.5,3487.6l3.8-0.1c0.5,0,0.8-0.1,1.1-0.3c0.1-0.1,0.2-0.1,0.3-0.1c0.1,0,0.2,0,0.3,0.1
			c0.5,0.3,1,0.7,1.4,1.1c0.2,0.2,0.3,0.3,0.3,0.5c0,0.2-0.1,0.3-0.3,0.4c-0.3,0.2-0.5,0.5-0.7,0.9c-1.3,2.7-2.7,4.8-4.2,6.5
			c-1,1.1-2.1,2.1-3.3,3.1c-1.1,0.9-2.1,1.6-3.1,2.1c-0.1,0.1-0.2,0.1-0.3,0.1c-0.2,0-0.3-0.1-0.5-0.2c-0.5-0.4-1.2-0.7-2-1
			c1.7-0.9,3.1-1.8,4.2-2.7c0.9-0.7,1.8-1.6,2.8-2.7c0.9-1,1.6-2,2.2-2.8c0.5-0.8,1.1-1.9,1.7-3.1l-5.1,0.2c-1.7,2.1-3,3.5-4,4.3
			c-0.2,0.2-0.3,0.2-0.4,0.2c-0.1,0-0.2,0-0.3-0.1c-0.6-0.5-1.3-0.8-2-0.9c2.3-1.9,4.2-4,5.6-6.2c0.6-1.1,1.1-2,1.2-2.8
			c1.2,0.4,2,0.8,2.5,1.1c0.1,0.1,0.2,0.2,0.2,0.3c0,0.1-0.1,0.3-0.2,0.4c-0.1,0.1-0.3,0.2-0.5,0.6
			C-804,3486.8-804.2,3487.1-804.5,3487.6z M-799.2,3485.4l1.1-0.8c0,0,0.1-0.1,0.1-0.1c0.1,0,0.1,0,0.2,0.1c0.7,0.6,1.4,1.3,2,2.2
			c0,0.1,0.1,0.1,0.1,0.2c0,0.1,0,0.1-0.1,0.2l-0.9,0.7c-0.1,0-0.1,0.1-0.2,0.1c-0.1,0-0.1,0-0.2-0.1
			C-797.8,3486.9-798.5,3486.1-799.2,3485.4z M-797.3,3484.1l1-0.8c0.1,0,0.1-0.1,0.1-0.1c0,0,0.1,0,0.2,0.1c0.8,0.6,1.5,1.3,2,2.2
			c0,0.1,0.1,0.1,0.1,0.2c0,0.1,0,0.1-0.1,0.2l-0.8,0.6c-0.1,0-0.1,0.1-0.2,0.1c-0.1,0-0.1,0-0.2-0.1
			C-795.8,3485.5-796.5,3484.7-797.3,3484.1z"/>
	</g>
	<path id="パス_47" class="st3" d="M-880.6,3432.3l-3.4-18.2l1.6-12.6l7.6-11l8.7-2.8l8.9,1.8l3.8,1l12.3-2.8l9.9,3.9l7.8,12.1
		l-0.7,17.8l-5,13.5l-5.5,19l-3.7,6.7l-3.7,0.7l-2.8-1.8l-4.3-14.5l-1.5-5.5l-4.9-0.7l-3.4,4l-1.8,11.1l-2.2,5.6l-3.3,1.8l-3.3-1.8
		L-880.6,3432.3z"/>
	<g id="歯科医のアイコン2" transform="translate(-903 3371.78)">
		<path id="パス_43" class="st4" d="M70.7,17.8c-3.3-2.7-7.5-4.2-11.8-4.2c-2.5,0.1-5,0.4-7.4,1.1c-1.9,0.5-3.8,0.8-5.7,0.9
			c-1.9-0.1-3.8-0.4-5.7-0.9c-2.4-0.6-4.9-1-7.4-1.1c-4.3,0-8.4,1.5-11.8,4.2c-2.9,2.3-5.2,5.3-6.6,8.8c-1.4,3.7-2.1,7.6-2,11.6
			c0,6.4,1.4,13.5,3.9,21.1c2.5,7.8,4.7,13.6,6.3,17.7c0.8,2.1,1.5,3.8,1.9,5.1c0.4,0.9,0.7,1.9,0.9,2.9c0.3,2,1.3,3.8,2.8,5.2
			c1.4,1.2,3.2,1.9,5,1.9c1.9,0,3.8-0.7,5.2-2c1.6-1.4,2.7-3.4,3.1-5.5c0.2-0.7,0.3-1.4,0.4-2.2c0.2-1.4,0.3-3,0.5-4.7
			c0.2-2.3,0.7-4.6,1.5-6.8c0.2-0.6,0.6-1.2,1.1-1.7c0.2-0.2,0.5-0.3,0.8-0.3c0.2,0,0.4,0.1,0.6,0.2c0.6,0.6,1.1,1.3,1.4,2.1
			c0.8,2.2,1.3,4.5,1.5,6.9c0.2,1.2,0.3,2.5,0.4,3.6c0.1,1,0.2,2,0.4,2.9c0.4,2.1,1.5,4,3.1,5.5c1.4,1.3,3.3,2,5.2,2
			c1.9,0,3.6-0.7,5-1.9c1.5-1.4,2.5-3.2,2.8-5.2c0.2-1,0.5-1.9,0.9-2.9c1.4-4,4.4-11.2,8.2-22.9c2.5-7.6,3.9-14.7,3.9-21.1
			c0.1-3.9-0.6-7.9-2-11.6C75.9,23.2,73.7,20.1,70.7,17.8z M70.3,57.7c-2.5,7.7-4.6,13.3-6.2,17.5c-0.8,2.1-1.5,3.8-2,5.2
			c-0.5,1.2-0.8,2.4-1.1,3.7c-0.1,0.8-0.5,1.6-1.1,2.2c-0.4,0.4-0.9,0.6-1.4,0.6c-0.6,0-1.2-0.3-1.7-0.7c-0.7-0.7-1.2-1.6-1.4-2.7
			c-0.1-0.3-0.2-0.9-0.3-1.6c-0.2-1.2-0.3-2.9-0.5-4.7c-0.3-2.8-0.9-5.6-1.9-8.2c-0.5-1.3-1.4-2.5-2.4-3.5c-2.2-2-5.4-2.3-7.9-0.7
			c-1.6,1.1-2.8,2.7-3.4,4.6c-1,2.7-1.6,5.4-1.8,8.2c-0.2,1.3-0.3,2.6-0.4,3.6c-0.1,0.8-0.2,1.5-0.3,2.3c-0.2,1-0.7,1.9-1.4,2.7
			c-0.5,0.4-1.1,0.7-1.7,0.7c-0.5,0-1.1-0.2-1.4-0.6c-0.6-0.6-1-1.4-1.1-2.2c-0.3-1.3-0.6-2.5-1.1-3.7c-1.6-4.3-4.4-11.1-8.2-22.7
			c-2.2-6.3-3.4-12.8-3.6-19.5c-0.1-3.3,0.5-6.5,1.6-9.6c1-2.6,2.7-4.9,4.9-6.6c2.4-2,5.4-3.1,8.5-3.1c2.1,0.1,4.2,0.4,6.2,0.9
			c2.2,0.6,4.6,1,6.9,1.1c2.3-0.1,4.6-0.5,6.9-1.1c2-0.5,4.1-0.9,6.2-0.9c3.1,0,6.1,1.1,8.5,3.1c2.2,1.7,3.9,4,4.9,6.6
			c1.1,3.1,1.7,6.3,1.6,9.6C73.7,44.8,72.5,51.4,70.3,57.7L70.3,57.7z"/>
		<path id="パス_44" class="st5" d="M97.1,15.8L88,13.4c-0.2-0.1-0.4-0.2-0.5-0.5l-2.4-9.1c-0.1-0.3-0.4-0.5-0.7-0.4
			c-0.2,0.1-0.4,0.2-0.4,0.4l-2.4,9.1c-0.1,0.2-0.2,0.4-0.5,0.5l-9.1,2.4c-0.3,0.1-0.5,0.4-0.4,0.7c0,0.2,0.2,0.4,0.4,0.4l9.1,2.4
			c0.2,0.1,0.4,0.2,0.5,0.5l2.4,9.1c0.1,0.3,0.4,0.5,0.7,0.4c0.2-0.1,0.4-0.2,0.4-0.4l2.4-9.1c0.1-0.2,0.2-0.4,0.5-0.5l9.1-2.4
			c0.3-0.1,0.5-0.4,0.4-0.7C97.5,16.1,97.3,15.9,97.1,15.8L97.1,15.8z"/>
		<path id="パス_45" class="st5" d="M46.1,38.6l-8.3-2.2c-0.2,0-0.4-0.2-0.4-0.4l-2.2-8.3c-0.1-0.3-0.4-0.5-0.6-0.4
			c-0.2,0-0.4,0.2-0.4,0.4l-2.2,8.3c-0.1,0.2-0.2,0.4-0.4,0.4l-8.3,2.2c-0.3,0.1-0.5,0.3-0.4,0.6c0,0.2,0.2,0.4,0.4,0.4l8.3,2.2
			c0.2,0,0.4,0.2,0.4,0.4l2.2,8.3c0.1,0.3,0.4,0.5,0.6,0.4c0.2,0,0.4-0.2,0.4-0.4l2.2-8.3c0-0.2,0.2-0.4,0.4-0.4l8.3-2.2
			c0.3-0.1,0.5-0.3,0.4-0.6C46.4,38.8,46.3,38.6,46.1,38.6z"/>
		<path id="パス_46" class="st5" d="M12.8,12.4l7.1-1.9c0.2-0.1,0.4-0.3,0.3-0.5c0-0.2-0.2-0.3-0.3-0.3l-7.1-1.9
			c-0.2,0-0.3-0.2-0.4-0.4l-1.9-7.1C10.5,0.1,10.2,0,10,0c-0.2,0-0.3,0.2-0.3,0.3L7.8,7.4c0,0.2-0.2,0.3-0.4,0.4L0.4,9.7
			C0.1,9.7,0,10,0,10.2c0,0.2,0.2,0.3,0.3,0.3l7.1,1.9c0.2,0,0.3,0.2,0.4,0.4l1.9,7.1c0.1,0.2,0.3,0.4,0.5,0.3
			c0.2,0,0.3-0.2,0.3-0.3l1.9-7.1C12.5,12.6,12.6,12.5,12.8,12.4z"/>
	</g>
</g>
</svg>
