<?xml version="1.0" encoding="utf-8"?>
<!-- Generator: Adobe Illustrator 26.0.2, SVG Export Plug-In . SVG Version: 6.00 Build 0)  -->
<svg version="1.1" id="レイヤー_1" xmlns="http://www.w3.org/2000/svg" xmlns:xlink="http://www.w3.org/1999/xlink" x="0px"
	 y="0px" viewBox="0 0 200 200" style="enable-background:new 0 0 200 200;" xml:space="preserve">
<style type="text/css">
	.st0{fill:#F0F5F8;}
	.st1{enable-background:new    ;}
	.st2{fill:#06438D;}
	.st3{fill:#FFFFFF;}
	.st4{fill:#3F536B;}
</style>
<g id="グループ_119" transform="translate(464 -3587)">
	<path id="長方形_58" class="st0" d="M-444,3587h160c11,0,20,9,20,20v160c0,11-9,20-20,20h-160c-11,0-20-9-20-20v-160
		C-464,3596-455,3587-444,3587z"/>
	<g class="st1">
		<path class="st2" d="M-416.6,3746.3c3.6-0.3,6.4-1.3,8.4-2.9c-1.1-0.6-2.3-1.1-3.7-1.7c-0.3,0.5-0.5,0.8-0.7,1.1
			c-0.1,0.1-0.2,0.2-0.2,0.2c0,0-0.1,0-0.2-0.1l-1.5-0.7c-0.2-0.1-0.2-0.1-0.2-0.2c0,0,0-0.1,0.1-0.2c0.5-0.6,0.9-1.2,1.2-1.8
			c0.6-1.1,1.2-2.3,1.7-3.5h-2.3l-2.6,0c-0.1,0-0.2,0-0.2,0s0-0.1,0-0.2v-1.7c0-0.1,0-0.2,0-0.2c0,0,0.1,0,0.2,0l2.6,0h3.1
			c0.3-0.8,0.6-1.7,0.9-2.7c0.2-0.7,0.4-1.4,0.4-2.1c0.8,0.1,1.6,0.2,2.3,0.4c0.2,0.1,0.4,0.2,0.4,0.4c0,0.1-0.1,0.2-0.2,0.4
			c-0.1,0.2-0.3,0.5-0.4,1c-0.2,0.7-0.5,1.5-0.9,2.6h7.4l2.6,0c0.1,0,0.2,0,0.2,0.1c0,0,0,0.1,0,0.2v1.7c0,0.1,0,0.2-0.1,0.2
			c0,0-0.1,0-0.2,0l-2.6,0h-0.8c-0.6,2.6-1.5,4.7-2.7,6.4c1.6,0.9,3.4,2,5.4,3.4c0.1,0.1,0.1,0.1,0.1,0.2s0,0.1-0.1,0.2l-1.1,1.3
			c-0.1,0.2-0.2,0.2-0.3,0.2c0,0-0.1,0-0.2-0.1c-1.8-1.3-3.6-2.5-5.4-3.6c-2.1,2-5,3.2-8.7,3.8c-0.1,0-0.3,0-0.5,0
			c-0.2,0-0.3-0.2-0.5-0.6C-415.9,3747.2-416.2,3746.7-416.6,3746.3z M-410.8,3739.9c1.3,0.5,2.7,1.1,4.3,1.9
			c1.1-1.4,1.9-3.2,2.4-5.3h-5C-409.7,3737.6-410.3,3738.8-410.8,3739.9z"/>
		<path class="st2" d="M-394.2,3733.8l1,0.2c0.2,0,0.3,0.1,0.3,0.3c0,0,0,0,0,0.1c-0.1,2-0.3,3.5-0.7,4.6c0,0.1-0.1,0.2-0.1,0.2
			c0,0-0.1,0-0.2-0.1l-1.1-0.4c-0.2-0.1-0.3-0.2-0.3-0.3c0,0,0-0.1,0-0.2c0.4-1.2,0.6-2.6,0.7-4.3c0-0.1,0-0.2,0.1-0.2
			C-394.4,3733.8-394.3,3733.8-394.2,3733.8z M-392.5,3729.4c0.8,0,1.6,0.1,2.2,0.1c0.2,0,0.3,0.1,0.3,0.2c0,0.1,0,0.2-0.1,0.4
			c-0.1,0.3-0.2,1-0.2,2.3v12.2l0,3.7c0,0.1,0,0.2,0,0.2c0,0-0.1,0-0.2,0h-1.7c-0.1,0-0.2,0-0.2-0.1c0,0,0-0.1,0-0.2l0-3.7v-12.2
			C-392.4,3731.2-392.4,3730.2-392.5,3729.4z M-389.1,3733c0.1,0,0.1-0.1,0.2-0.1c0.1,0,0.1,0.1,0.2,0.2c0.4,1.1,0.7,2,0.8,2.6
			c0.5-1.2,0.8-2.3,1-3.4c0.1-0.5,0.1-1,0.1-1.5c0.7,0.1,1.4,0.3,2,0.5c0.2,0.1,0.4,0.2,0.4,0.3c0,0.1,0,0.2-0.1,0.3
			c-0.1,0.2-0.2,0.4-0.3,0.7c-0.1,0.5-0.2,1-0.4,1.6h1.9v-1.5c0-1.2-0.1-2.3-0.2-3.2c0.9,0,1.7,0.1,2.3,0.1c0.2,0,0.3,0.1,0.3,0.2
			c0,0,0,0.2-0.1,0.4c-0.1,0.3-0.2,1.1-0.2,2.3v1.6h1.8l2.6,0c0.1,0,0.2,0,0.2,0c0,0,0,0.1,0,0.2v1.6c0,0.1,0,0.2-0.1,0.2
			c0,0-0.1,0-0.2,0l-2.6,0h-1.8v3.7h1.1l2.7,0c0.1,0,0.2,0,0.2,0s0,0.1,0,0.2v1.6c0,0.1,0,0.2,0,0.2c0,0-0.1,0-0.2,0l-2.7,0h-1.1
			v4.1h2.1l2.9,0c0.1,0,0.2,0,0.2,0s0,0.1,0,0.2v1.6c0,0.1,0,0.2,0,0.2c0,0-0.1,0-0.2,0l-2.9,0h-7l-2.9,0c-0.1,0-0.2,0-0.2-0.1
			c0,0,0-0.1,0-0.2v-1.6c0-0.1,0-0.2,0-0.2c0,0,0.1,0,0.2,0l2.9,0h2.6v-4.1h-1.3l-2.7,0c-0.1,0-0.2,0-0.2,0c0,0,0-0.1,0-0.2v-1.6
			c0-0.1,0-0.2,0.1-0.2c0,0,0.1,0,0.2,0l2.7,0h1.3v-3.7h-2.6c-0.3,0.8-0.6,1.6-1,2.4c-0.2,0.3-0.3,0.4-0.4,0.4
			c-0.1,0-0.2-0.1-0.4-0.2c-0.5-0.3-1-0.5-1.5-0.7c0.4-0.6,0.7-1.2,1-1.9l-0.9,0.3c-0.1,0-0.2,0.1-0.2,0.1c-0.1,0-0.1-0.1-0.1-0.2
			c-0.2-1-0.4-1.9-0.8-2.7c0-0.1,0-0.1,0-0.2c0-0.1,0.1-0.1,0.3-0.2L-389.1,3733z"/>
		<path class="st2" d="M-359.9,3746.3c0.8,0.1,1.4,0.1,1.9,0.1c0.5,0,0.7-0.2,0.7-0.7v-3.5h-4.9v2.5l0,3.1c0,0.1,0,0.2,0,0.2
			s-0.1,0-0.2,0h-1.8c-0.1,0-0.2,0-0.2,0s0-0.1,0-0.2l0-3.1v-2.5h-4.8c-0.3,2.3-0.9,4.2-1.8,5.8c-0.2,0.3-0.3,0.4-0.4,0.4
			c-0.1,0-0.2-0.1-0.4-0.3c-0.4-0.4-0.9-0.8-1.5-1.1c0.8-1.1,1.4-2.4,1.7-3.9c0.3-1.4,0.4-3.3,0.4-5.6v-3.4l0-3.4
			c0-0.1,0-0.2,0.1-0.2c0,0,0.1,0,0.2,0l2.9,0h9.9l2.9,0c0.1,0,0.2,0,0.2,0.1c0,0,0,0.1,0,0.2l0,3.4v9.3l0,2.9
			c0,0.8-0.2,1.3-0.7,1.7c-0.4,0.4-1.3,0.5-2.8,0.5c-0.3,0-0.5,0-0.6-0.1c-0.1,0-0.1-0.2-0.2-0.5
			C-359.4,3747.2-359.6,3746.7-359.9,3746.3z M-369,3740.2h4.6v-3h-4.6v0.2C-368.9,3738.5-369,3739.4-369,3740.2z M-368.9,3735.3
			h4.6v-2.9h-4.6V3735.3z M-357.2,3732.4h-4.9v2.9h4.9V3732.4z M-362.2,3740.2h4.9v-3h-4.9V3740.2z"/>
		<path class="st2" d="M-348.3,3733.1h2.4l2.2,0c0.1,0,0.2,0,0.2,0c0,0,0,0.1,0,0.2v1.6c1.6-1.1,2.9-2.5,3.9-4.1
			c0.2-0.4,0.4-0.9,0.6-1.4c0.5,0.1,1.2,0.2,2.1,0.4c0.2,0.1,0.3,0.2,0.3,0.3c0,0.1-0.1,0.2-0.2,0.3c0,0-0.1,0-0.1,0.1
			c1.3,1.9,3.2,3.5,5.5,4.6c-0.3,0.4-0.6,0.9-0.9,1.6c-0.1,0.3-0.3,0.5-0.4,0.5c-0.1,0-0.2-0.1-0.5-0.2c-2-1.3-3.7-2.9-4.9-4.8
			c-1.2,1.8-2.7,3.4-4.5,4.6c-0.3,0.2-0.4,0.3-0.5,0.3c-0.1,0-0.3-0.2-0.4-0.5c-0.3-0.5-0.6-0.9-1-1.2l0.6-0.4l-2.2,0h-2.4l-2.2,0
			c-0.1,0-0.2,0-0.2-0.1c0,0,0-0.1,0-0.2v-1.5c0-0.1,0-0.2,0-0.2c0,0,0.1,0,0.2,0L-348.3,3733.1z M-344,3748.1
			c0,0.2-0.1,0.2-0.2,0.2h-1.5c-0.1,0-0.2,0-0.2,0c0,0,0-0.1,0-0.2v-0.6h-2.1v1c0,0.1,0,0.2,0,0.2c0,0-0.1,0-0.2,0h-1.5
			c-0.1,0-0.2,0-0.2,0c0,0,0-0.1,0-0.2l0.1-3.1v-1.3l-0.1-2c0-0.1,0-0.2,0.1-0.2c0,0,0.1,0,0.2,0l1.9,0h1.7l1.9,0
			c0.1,0,0.2,0.1,0.2,0.2l0,1.6v1.5L-344,3748.1z M-347.8,3730.2h1.8l1.9,0c0.1,0,0.2,0,0.2,0c0,0,0,0.1,0,0.2v1.4
			c0,0.1,0,0.2-0.1,0.2c0,0-0.1,0-0.2,0l-1.9,0h-1.8l-1.9,0c-0.1,0-0.2,0-0.2,0s0-0.1,0-0.2v-1.4c0-0.1,0-0.2,0-0.2c0,0,0.1,0,0.2,0
			L-347.8,3730.2z M-347.7,3736.1h1.5l1.8,0c0.1,0,0.2,0,0.2,0c0,0,0,0.1,0,0.2v1.4c0,0.1,0,0.2,0,0.2s-0.1,0-0.2,0l-1.8,0h-1.5
			l-1.8,0c-0.1,0-0.2,0-0.2,0c0,0,0-0.1,0-0.2v-1.4c0-0.1,0-0.2,0.1-0.2c0,0,0.1,0,0.2,0L-347.7,3736.1z M-347.7,3738.9h1.5l1.8-0.1
			c0.1,0,0.2,0,0.2,0c0,0,0,0.1,0,0.2v1.3c0,0.1,0,0.2,0,0.2c0,0-0.1,0-0.2,0l-1.8,0h-1.5l-1.8,0c-0.1,0-0.2,0-0.2,0
			c0,0,0-0.1,0-0.2v-1.3c0-0.1,0-0.2,0.1-0.2c0,0,0.1,0,0.2,0L-347.7,3738.9z M-345.9,3743.5h-2.1v2.1h2.1V3743.5z M-343.8,3746.7
			c2.3-0.5,4.2-1.3,5.8-2.2c1.3-0.8,2.5-1.7,3.5-2.9c0.4-0.4,0.6-0.8,0.8-1.2c0.6,0.4,1.1,0.8,1.6,1.2c0.2,0.2,0.3,0.3,0.3,0.4
			c0,0.1-0.1,0.2-0.3,0.3c-0.1,0.1-0.3,0.3-0.7,0.7c-2.3,2.6-5.3,4.4-9.1,5.5c-0.3,0.1-0.4,0.1-0.5,0.1c-0.1,0-0.3-0.2-0.5-0.5
			C-343.1,3747.5-343.4,3747.1-343.8,3746.7z M-343.3,3738.8c2-0.8,3.7-1.8,4.9-3.1c0.2-0.3,0.5-0.5,0.6-0.8c0.5,0.3,1,0.6,1.5,1.1
			c0.2,0.1,0.2,0.2,0.2,0.3s-0.1,0.2-0.3,0.3c-0.2,0.1-0.4,0.3-0.7,0.6c-1.1,1.2-2.6,2.3-4.4,3.1c-0.3,0.1-0.4,0.2-0.5,0.2
			c-0.1,0-0.3-0.2-0.4-0.5C-342.6,3739.6-342.9,3739.2-343.3,3738.8z M-343.1,3742.8c2.9-0.9,5.2-2.4,6.9-4.4
			c0.2-0.2,0.4-0.5,0.6-0.9c0.7,0.5,1.2,0.8,1.5,1.1c0.2,0.1,0.2,0.2,0.2,0.3s-0.1,0.2-0.3,0.3c-0.2,0.1-0.4,0.3-0.6,0.5
			c-1.6,1.8-3.7,3.3-6.5,4.5c-0.3,0.1-0.4,0.2-0.5,0.2c-0.1,0-0.3-0.2-0.5-0.5C-342.4,3743.5-342.7,3743.1-343.1,3742.8z"/>
		<path class="st2" d="M-312.2,3736c0.3,0.2,0.7,0.5,1.2,0.8c0.1,0.1,0.2,0.2,0.2,0.3c0,0.1-0.1,0.2-0.2,0.3c-0.1,0-0.3,0.2-0.6,0.4
			l-0.5,0.5c0.8,0.5,1.7,0.8,2.7,1.1c-0.3,0.3-0.5,0.7-0.7,1.1c-0.2,0.3-0.3,0.5-0.4,0.5c-0.1,0-0.3-0.1-0.5-0.2
			c-0.6-0.3-1.1-0.6-1.6-0.8v2l0,1.7c0,0.1,0,0.2,0,0.2c0,0-0.1,0-0.2,0l-2.7,0h-0.7v0.9l0,2c0,0.7-0.2,1.2-0.7,1.4
			c-0.4,0.2-1,0.3-2,0.3h-0.3h-0.3c-0.2,0-0.3,0-0.4-0.1c0-0.1-0.1-0.2-0.2-0.5c-0.1-0.5-0.3-0.9-0.4-1.2c0.4,0,0.9,0.1,1.4,0.1
			c0.3,0,0.5-0.1,0.6-0.2c0.1-0.1,0.1-0.2,0.1-0.5v-2.2h-0.9l-2.7,0c-0.1,0-0.2,0-0.2,0c0,0,0-0.1,0-0.2l0-1.9v-1.5l-1.1,0.7
			c-0.2,0.1-0.3,0.2-0.4,0.2c-0.1,0-0.2-0.1-0.3-0.3c-0.1-0.1-0.3-0.4-0.5-0.7c-0.1,1.2-0.2,2.2-0.4,2.9c-0.4,1.8-1.1,3.4-2.1,4.9
			c-0.2,0.2-0.3,0.4-0.4,0.4c-0.1,0-0.2-0.1-0.4-0.4c-0.4-0.5-0.8-0.9-1.2-1.1c1.1-1.3,1.8-2.8,2.2-4.6c0.1-0.5,0.2-1,0.3-1.5
			c-0.3,0.2-0.7,0.4-1.2,0.7c-0.4,0.2-0.6,0.3-0.6,0.4c-0.1,0.1-0.2,0.2-0.3,0.2c-0.1,0-0.2-0.1-0.3-0.2c-0.2-0.5-0.4-1.1-0.5-1.9
			c0.5-0.1,1-0.3,1.7-0.5c0.4-0.2,0.9-0.4,1.4-0.7c0-1.1,0.1-2,0.1-2.8l-0.1-4.8c0-0.1,0-0.2,0-0.2c0,0,0.1,0,0.2,0l2.9,0h3.8v-0.1
			c0-0.5-0.1-1.1-0.2-1.6c0.7,0,1.4,0,2.2,0.1c0.2,0,0.3,0.1,0.3,0.2c0,0.1,0,0.2-0.1,0.4c-0.1,0.2-0.1,0.4-0.1,0.8v0.2h4l2.8,0
			c0.1,0,0.2,0,0.2,0.1c0,0,0,0.1,0,0.2v1.4c0,0.1,0,0.2,0,0.2c0,0-0.1,0-0.2,0l-2.8,0h-5.3c0.6,0.1,1.2,0.2,1.7,0.3
			c0.2,0,0.3,0.1,0.3,0.2c0,0.1-0.1,0.3-0.2,0.4c-0.1,0.1-0.3,0.3-0.5,0.7h3.6l2.9,0c0.1,0,0.2,0,0.2,0s0,0.1,0,0.2v1.2
			c0,0.1-0.1,0.2-0.2,0.2l-2.9,0h-1.3c0.3,0.5,0.8,1,1.3,1.4c0.2-0.2,0.5-0.4,0.8-0.7C-312.4,3736.4-312.2,3736.2-312.2,3736z
			 M-327.5,3733.1c0.5,1.1,0.9,2.1,1.2,3.1c0,0.1,0,0.1,0,0.2c0,0.1-0.1,0.2-0.2,0.3l-0.9,0.5c-0.1,0.1-0.2,0.1-0.3,0.1
			c-0.1,0-0.1-0.1-0.1-0.2c-0.2-0.9-0.6-2-1.2-3.2c0-0.1-0.1-0.1-0.1-0.2c0,0,0.1-0.1,0.2-0.2l0.9-0.5c0.1-0.1,0.2-0.1,0.3-0.1
			C-327.6,3732.9-327.5,3733-327.5,3733.1z M-321.3,3744.1c0.8,0.4,1.3,0.7,1.4,0.7c0.2,0.1,0.3,0.2,0.3,0.3c0,0.1-0.1,0.2-0.3,0.3
			c-0.1,0.1-0.3,0.2-0.5,0.4c-0.8,0.8-1.7,1.5-2.5,2c-0.2,0.1-0.4,0.2-0.5,0.2s-0.3-0.1-0.5-0.4c-0.3-0.4-0.7-0.7-1-0.9
			c1.2-0.5,2.1-1.1,2.8-1.6C-321.7,3744.8-321.4,3744.4-321.3,3744.1z M-320.4,3736l-2.9,0c-0.2,0-0.2-0.1-0.2-0.2v-1.2
			c0-0.1,0-0.2,0-0.2s0.1,0,0.2,0l2.9,0h1.4c0.2-0.6,0.4-1.1,0.5-1.6h-5.6v3.6c0,1.3,0,2.4-0.1,3.2c0.8-0.4,1.4-0.8,1.9-1.1
			c-0.3-0.3-0.6-0.7-1.2-1.3c-0.1-0.1-0.1-0.1-0.1-0.2c0-0.1,0.1-0.1,0.2-0.2l0.7-0.6c0.1-0.1,0.2-0.1,0.2-0.1c0.1,0,0.1,0,0.2,0.1
			c0.5,0.4,0.9,0.8,1.2,1.2c0.5-0.4,0.9-0.9,1.2-1.4H-320.4z M-314.5,3739.3h-5.7v1h5.7V3739.3z M-314.5,3742.5v-0.9h-5.7v0.9
			H-314.5z M-315.4,3737.8c-0.5-0.6-1-1.2-1.3-1.8h-1.1c-0.4,0.7-0.8,1.2-1.3,1.8H-315.4z M-313.7,3744.4c1,0.9,2.1,1.6,3.4,2
			c-0.3,0.3-0.6,0.7-0.9,1.1c-0.2,0.3-0.4,0.5-0.5,0.5c-0.1,0-0.2-0.1-0.5-0.2c-1.2-0.7-2.2-1.5-3.1-2.3c-0.1-0.1-0.1-0.1-0.1-0.2
			c0-0.1,0.1-0.1,0.2-0.2l0.9-0.7c0.1-0.1,0.2-0.1,0.3-0.1C-313.8,3744.3-313.7,3744.3-313.7,3744.4z"/>
	</g>
	<path id="パス_33" class="st3" d="M-400.3,3649.1v8l-1.5,3.1l-1.5,3.2l-2.3,1.8v2.8l2.3,1.4l0.9,1.7v5.5l0.6,1.7l1.5,4v4l2.1,1.1
		h2.8l4.1-1.1h4.3l2.9,1.8l3.7,3.5l3.8,10.1v2.8l-3.8,7.2l30.5-7.2l-4.9-3.8l-2.4-3.4l-2.9-10v-3.5l2.9-3.5l8.4-29.1l-38.1-22.7
		l-13.3,6.1L-400.3,3649.1z"/>
	<g id="レディーアイコン1" transform="translate(-407.406 3620.384)">
		<path id="パス_28" class="st4" d="M15,67.8L15,67.8l-1.5,0.5L15,67.8z"/>
		<path id="パス_29" class="st4" d="M80,44.3c12.6-18.7,8.8-34.5-2.8-41.1C66.3-3,60,2.6,53,4.5c-8.8-5.9-21.1-6.6-36.4,1.2
			C9.1,5.4,0,12.9,1.6,20.1c0.7,2.6,1.9,5,3.6,7c0,0.1,0,0.3,0,0.4c0,0.6,0,1.2,0.1,1.8c0.2,1.4,0.4,2.9,0.4,4.3c0,0.2,0,0.3,0,0.5
			c-1.8,0.7-3.7,1-5.6,1c1.5,1.1,3.3,1.8,5.1,2.1C5,37.7,4.9,38,4.7,38.4c-0.9,1.7-2,3.3-3.3,4.8c-0.4,0.5-0.7,1-1,1.5
			c-0.2,0.5-0.3,1-0.4,1.6c0,0.6,0.1,1.2,0.4,1.7c0.3,0.6,0.8,1.2,1.4,1.6c0.4,0.3,0.8,0.6,1.2,0.8c0.1,0.1,0.2,0.3,0.3,0.5
			c0.1,0.3,0.2,0.5,0.2,0.8c0,0.1,0,0.2,0,0.4l0,0.1v0v0l0,0l0,0l0,0c-0.2,0.2-0.5,0.5-0.6,0.8c-0.2,0.3-0.3,0.7-0.3,1.1
			c0,0.4,0.1,0.8,0.3,1.2c0.2,0.4,0.5,0.7,0.9,1c0.1,0.1,0.1,0.1,0.2,0.2l-0.1,0.2c-0.1,0.2-0.1,0.3-0.2,0.6
			c-0.1,0.3-0.1,0.5-0.1,0.8c0,0.3,0.1,0.7,0.2,1c0.2,0.4,0.4,0.6,0.8,0.9l0.1,0l-0.1,0c0.3,0.2,0.5,0.4,0.6,0.7
			c0.1,0.3,0.2,0.7,0.2,1.1c0,0.6-0.1,1.2-0.1,2c0,0.2,0,0.5,0,0.7c0.1,0.5,0.2,1,0.4,1.4c0.4,0.9,1,1.6,1.8,2.1
			c1,0.6,2.2,0.9,3.3,0.9c1.5,0,2.9-0.3,4.3-0.8h0c1.1-0.4,2.3-0.6,3.4-0.6c1.2,0,2.5,0.3,3.5,1c0.8,0.5,1.5,1.1,2.1,1.9
			c1,1.3,1.9,2.8,2.5,4.3c0.7,1.7,1.3,3.4,1.9,5.2c0.9,3,0.5,6.2-1.2,8.8c-0.3,0.6-0.7,1.1-1.2,1.6c-0.2,0.2-0.3,0.3-0.4,0.4
			l-0.1,0.1l0,0l0,0l0.6,0.7l1.5,1.6c0.9-0.8,1.6-1.7,2.2-2.8c2.2-3.4,2.8-7.6,1.6-11.4c-0.9-3.4-2.3-6.6-4.2-9.6
			c-1-1.4-2.2-2.6-3.7-3.6c-1.6-1-3.4-1.5-5.2-1.4c-1.5,0-3,0.3-4.5,0.8l0,0c-1.1,0.4-2.2,0.6-3.3,0.6c-0.4,0-0.9-0.1-1.3-0.2
			c-0.3-0.1-0.6-0.3-0.8-0.6c-0.2-0.3-0.3-0.5-0.3-0.8c0-0.1,0-0.2,0-0.3c0-0.5,0.1-1.2,0.1-2c0-0.8-0.1-1.5-0.4-2.3
			c-0.3-0.7-0.7-1.2-1.2-1.7c0-0.1,0-0.1,0.1-0.2C6.9,57.2,7,57,7,56.8c0.1-0.3,0.1-0.5,0.1-0.8c0-0.3-0.1-0.6-0.2-0.9
			c-0.1-0.3-0.4-0.6-0.7-0.9C6.1,54.1,6,54,5.9,53.9c0.2-0.3,0.4-0.6,0.5-1c0.1-0.4,0.2-0.9,0.2-1.3c0-0.8-0.2-1.5-0.5-2.2
			c-0.1-0.3-0.3-0.7-0.6-1c-0.2-0.3-0.6-0.6-0.9-0.8c-0.2-0.1-0.4-0.2-0.6-0.4c-0.3-0.2-0.5-0.4-0.7-0.6c-0.1-0.1-0.1-0.2-0.1-0.2
			c0-0.1,0-0.1,0-0.2c0-0.1,0-0.2,0.1-0.3c0.1-0.3,0.3-0.5,0.5-0.7c1.5-1.6,2.8-3.5,3.8-5.5c0.8-1.9,1.2-3.9,1.2-6
			c0-0.8,0-1.6-0.1-2.4c1.3,1.4,2.7,2.7,4.2,3.9c0,0-1.3-10.7,1.6-12.9c0,0,11,21,21,19.1l6.9,6c0,0,1.6-10,6.3-11s4.4,7.8-1.3,15.1
			v9.4c-0.5,0.8-0.9,1.5-1.2,2.3c-0.2,0.4-0.3,0.9-0.4,1.4c-0.1,0.6-0.1,1.2-0.1,1.8c0.2,3.9,1.3,7.6,3.2,11
			c1.4,2.5,3.2,4.7,5.5,6.6c1,0.8,2.1,1.6,3.2,2.2l1.2-2.3l0.3-0.5l0,0c-1-0.6-1.9-1.2-2.8-2c-1.9-1.5-3.5-3.4-4.6-5.5
			c-1.7-2.9-2.6-6.2-2.8-9.5c0-0.4,0-0.8,0.1-1.2c0-0.2,0.1-0.4,0.2-0.6c1-2,2.2-3.9,3.5-5.7c2.3-3.2,5.2-6.8,7.8-10.6
			c2.7-3.8,4.7-8.1,5.8-12.6c0.4-1.9,0.6-3.8,0.6-5.7c0-5.9-1.8-11.6-5.1-16.5c5.2,1.1,11.8,4.7,8.3,15.8
			c-3.6,11.3-12.5,27.2-4.7,38.4c6.6,9.4,16.9,6.3,16.9,6.3C77.5,68.1,69.8,59.5,80,44.3z"/>
	</g>
</g>
</svg>
