<?xml version="1.0" encoding="utf-8"?>
<!-- Generator: Adobe Illustrator 26.0.2, SVG Export Plug-In . SVG Version: 6.00 Build 0)  -->
<svg version="1.1" id="レイヤー_1" xmlns="http://www.w3.org/2000/svg" xmlns:xlink="http://www.w3.org/1999/xlink" x="0px"
	 y="0px" viewBox="0 0 200 200" style="enable-background:new 0 0 200 200;" xml:space="preserve">
<style type="text/css">
	.st0{fill:#F0F5F8;}
	.st1{enable-background:new    ;}
	.st2{fill:#06438D;}
	.st3{fill:#FFFFFF;}
	.st4{fill:#3F536B;}
</style>
<g id="グループ_115" transform="translate(954 -3587)">
	<path id="長方形_60" class="st0" d="M-934,3587h160c11,0,20,9,20,20v160c0,11-9,20-20,20h-160c-11,0-20-9-20-20v-160
		C-954,3596-945,3587-934,3587z"/>
	<g class="st1">
		<path class="st2" d="M-901.1,3734.7l0-2.4c0-0.7,0-1.3-0.1-1.7c1,0.1,1.8,0.2,2.5,0.4c0.3,0.1,0.4,0.2,0.4,0.4
			c0,0.1,0,0.2-0.1,0.3c-0.2,0.3-0.3,0.6-0.3,0.8c0,0.4-0.1,1-0.1,1.7c0.7-0.2,1.6-0.4,2.7-0.8c0.1,0,0.1,0,0.1,0
			c0.1,0,0.2,0.1,0.2,0.2c0.1,0.5,0.1,1.1,0.1,1.6c0,0.2-0.1,0.3-0.3,0.3c-1.1,0.4-2.1,0.6-3,0.8l0,3c1.9-0.8,3.6-1.2,5.2-1.2
			c1.4,0,2.5,0.5,3.4,1.3c0.7,0.8,1.1,1.7,1.1,2.9c0,1.4-0.5,2.5-1.4,3.3c-0.8,0.7-1.9,1-3.2,1c-0.6,0-1.2-0.1-1.7-0.2
			c-0.3-0.1-0.5-0.3-0.5-0.6c-0.1-0.7-0.3-1.3-0.6-1.8c0.8,0.2,1.6,0.4,2.6,0.4c0.7,0,1.2-0.2,1.7-0.6c0.4-0.4,0.6-0.9,0.6-1.6
			c0-0.7-0.2-1.3-0.7-1.6c-0.4-0.3-0.9-0.5-1.6-0.5c-1.4,0-3,0.5-4.8,1.4c0,0.9,0,1.7,0.1,2.5c0.1,1.6,0.2,2.5,0.2,2.7
			c0,0.2,0,0.4,0,0.5c0,0.1-0.1,0.2-0.3,0.2c-0.5,0.1-1,0.2-1.5,0.3c-0.1,0-0.3-0.1-0.5-0.4c-0.6-0.9-1.6-1.8-3-2.7
			c-0.3,0.1-0.5,0.3-0.7,0.5c-0.1,0.1-0.2,0.1-0.4,0.1c-0.2,0-0.3-0.1-0.5-0.3c-0.2-0.3-0.5-1-1-1.9c0.7-0.2,1.3-0.4,1.9-0.7
			c0.6-0.3,1.8-1,3.4-1.9v-3.6c-1.4,0.1-2.6,0.2-3.5,0.2c-0.3,0-0.5-0.1-0.5-0.4c-0.1-0.3-0.1-0.9-0.2-1.8c0.5,0.1,1,0.1,1.6,0.1
			C-903.1,3734.8-902.2,3734.8-901.1,3734.7z M-901,3742.6c-0.9,0.6-1.6,1.1-2.1,1.4c0.7,0.4,1.4,0.7,2,0.9c0,0,0.1,0,0.1,0
			c0.1,0,0.1,0,0.1-0.1c0,0,0,0,0-0.1c0-0.2,0-0.6-0.1-1.1C-901,3743.1-901,3742.8-901,3742.6z M-894,3734.7c0.2-0.5,0.6-1,1-1.6
			c0.1-0.2,0.2-0.3,0.3-0.3c0,0,0,0,0.1,0c1.8,0.5,3.3,1.4,4.5,2.6c0.1,0.1,0.1,0.2,0.1,0.2c0,0,0,0.1-0.1,0.2
			c-0.1,0.2-0.3,0.4-0.6,0.8c-0.3,0.4-0.5,0.6-0.5,0.7c0,0-0.1,0.1-0.2,0.1c-0.1,0-0.2,0-0.2-0.1
			C-890.7,3736.1-892.1,3735.3-894,3734.7z"/>
		<path class="st2" d="M-884,3733.8l1,0.2c0.2,0,0.3,0.1,0.3,0.3c0,0,0,0,0,0.1c-0.1,1.9-0.3,3.4-0.7,4.7c0,0.1-0.1,0.2-0.1,0.2
			c0,0-0.1,0-0.2-0.1l-1-0.4c-0.2-0.1-0.2-0.2-0.2-0.3c0,0,0-0.1,0-0.2c0.4-1.1,0.6-2.6,0.7-4.3c0-0.1,0-0.2,0.1-0.2
			C-884.2,3733.8-884.2,3733.8-884,3733.8z M-882.4,3729.5c0.8,0,1.5,0.1,2.2,0.1c0.2,0,0.3,0.1,0.3,0.2c0,0.1,0,0.3-0.1,0.4
			c-0.1,0.3-0.2,1-0.2,2.3v12.2l0,3.7c0,0.1,0,0.2,0,0.2c0,0-0.1,0-0.2,0h-1.7c-0.1,0-0.2,0-0.2-0.1c0,0,0-0.1,0-0.2l0-3.7v-12.2
			C-882.2,3731.3-882.3,3730.2-882.4,3729.5z M-878.8,3733.4c0.1,0,0.1,0,0.2,0c0.1,0,0.1,0.1,0.2,0.2c0.4,1,0.7,1.9,0.8,2.9
			c0,0.1,0,0.1,0,0.2c0,0.1-0.1,0.2-0.3,0.2l-0.9,0.3c-0.1,0-0.2,0.1-0.2,0.1c-0.1,0-0.1-0.1-0.1-0.2c-0.3-1.5-0.5-2.4-0.7-2.9
			c0-0.1,0-0.1,0-0.2c0-0.1,0.1-0.1,0.2-0.2L-878.8,3733.4z M-868.7,3737.4c0.7,0,1.4,0.1,2,0.1c0.2,0,0.3,0.1,0.3,0.3
			c0,0.1,0,0.2-0.1,0.4c-0.1,0.2-0.1,1-0.1,2.4v5l0,2.9c0,0.1,0,0.2,0,0.2c0,0-0.1,0-0.2,0h-1.5c-0.1,0-0.2,0-0.2,0s0-0.1,0-0.2
			v-0.8h-7.8v0.9c0,0.1,0,0.2,0,0.2c0,0-0.1,0-0.2,0h-1.5c-0.1,0-0.2,0-0.2-0.1c0,0,0-0.1,0-0.2l0-2.8v-5.1c0-1.4-0.1-2.4-0.2-3.2
			c0.7,0,1.4,0.1,2.1,0.1c0.2,0,0.3,0.1,0.3,0.2c0,0.1-0.1,0.2-0.2,0.4c-0.1,0.2-0.1,1-0.1,2.3v5.2h7.8v-5.1
			C-868.5,3739.1-868.6,3738.1-868.7,3737.4z M-876.4,3730.7c0.7,1.1,1.3,2.4,1.9,4.1c0,0.1,0,0.1,0,0.2c0,0.1-0.1,0.1-0.3,0.2
			l-1.3,0.4c-0.1,0-0.2,0.1-0.2,0.1c-0.1,0-0.1-0.1-0.2-0.2c-0.5-1.5-1-2.9-1.8-4.1c0-0.1-0.1-0.1-0.1-0.2c0-0.1,0.1-0.1,0.2-0.2
			l1.3-0.4c0.1,0,0.2-0.1,0.2-0.1C-876.5,3730.5-876.5,3730.6-876.4,3730.7z M-875.5,3739.1c-0.1-0.1-0.1-0.1-0.1-0.2
			s0.1-0.1,0.2-0.2l0.8-0.7c0.1-0.1,0.2-0.1,0.2-0.1c0,0,0.1,0,0.2,0.1c0.6,0.4,1.2,0.9,1.8,1.5c0.1-0.2,0.2-0.5,0.4-0.9
			c0.3-0.6,0.4-1.2,0.6-1.9c0.6,0.2,1.2,0.4,1.8,0.6c0.2,0.1,0.3,0.2,0.3,0.4c0,0.1-0.1,0.3-0.3,0.4c-0.1,0.1-0.3,0.4-0.5,0.9
			c-0.2,0.6-0.5,1.3-0.9,1.9c0.7,0.7,1.4,1.5,1.9,2.2c0.1,0.1,0.1,0.1,0.1,0.2c0,0.1-0.1,0.1-0.2,0.2l-1,0.9
			c-0.1,0.1-0.2,0.1-0.3,0.1c0,0-0.1,0-0.2-0.1c-0.6-0.8-1.1-1.4-1.5-1.9c-0.7,0.9-1.4,1.7-2.1,2.3c-0.2,0.2-0.4,0.3-0.5,0.3
			s-0.2-0.1-0.5-0.4c-0.3-0.3-0.7-0.6-1.1-0.8c1.1-0.8,2-1.8,2.8-2.9C-874,3740.5-874.7,3739.8-875.5,3739.1z M-872.5,3729.7
			c0.6,1.2,1.2,2.6,1.6,4.1c0,0.1,0,0.1,0,0.1c0,0.1-0.1,0.1-0.3,0.2l-1.3,0.4c-0.1,0-0.2,0.1-0.2,0.1c-0.1,0-0.1-0.1-0.1-0.2
			c-0.4-1.4-0.9-2.7-1.6-4.1c0-0.1-0.1-0.1-0.1-0.2c0-0.1,0.1-0.1,0.2-0.2l1.2-0.3c0.1,0,0.2,0,0.2,0
			C-872.7,3729.5-872.6,3729.6-872.5,3729.7z M-870.6,3735.6c0.9-1.6,1.6-3.2,2.1-4.6c0.1-0.4,0.2-0.8,0.2-1.2
			c0.8,0.2,1.5,0.5,2,0.7c0.2,0.1,0.2,0.2,0.2,0.3c0,0.1-0.1,0.2-0.2,0.4c-0.1,0.1-0.2,0.3-0.4,0.6c-0.5,1.3-1.2,2.6-1.9,3.9
			c-0.2,0.3-0.3,0.4-0.4,0.4c-0.1,0-0.3-0.1-0.5-0.2C-869.8,3735.8-870.2,3735.7-870.6,3735.6z"/>
		<path class="st2" d="M-849.4,3739.2c0.2-1,0.4-1.9,0.4-2.7c0-0.2,0-0.4,0-0.6c0-0.2,0-0.5-0.1-0.8c1.1,0.3,1.9,0.6,2.4,0.9
			c0.1,0.1,0.2,0.2,0.2,0.4c0,0.1,0,0.2-0.1,0.2c-0.2,0.4-0.3,0.7-0.3,0.8c-0.1,0.7-0.3,1.6-0.6,2.7c1.2,0.6,2.3,1.3,3.3,2
			c0.1,0.1,0.2,0.1,0.2,0.2c0,0,0,0.1,0,0.2c-0.3,0.6-0.6,1.3-0.9,1.8c-0.1,0.1-0.1,0.1-0.2,0.1s-0.2,0-0.2-0.1
			c-0.9-0.8-1.8-1.4-2.8-2c-0.6,1.3-1.2,2.4-1.9,3.3c-0.6,0.8-1.4,1.5-2.3,2.3c-0.2,0.2-0.3,0.2-0.4,0.2c-0.1,0-0.2,0-0.3-0.1
			c-0.5-0.4-1.1-0.7-1.8-0.9c1.3-0.9,2.4-1.9,3.2-2.9c0.6-0.8,1.1-1.7,1.5-2.8c-1.2-0.6-2.6-1-4.2-1.3c-1,2.1-1.9,3.5-2.6,4.2
			c-0.7,0.8-1.6,1.2-2.7,1.2c-0.7,0-1.3-0.3-1.8-0.8c-0.5-0.5-0.7-1.2-0.7-2.1c0-1.4,0.7-2.6,2-3.5c1.2-0.8,2.6-1.2,4.2-1.2
			c0.7-1.7,1.3-3.4,1.7-5c-0.9,0.1-1.9,0.2-2.9,0.3c-0.4,0-0.7,0.1-1,0.2c-0.1,0.1-0.3,0.1-0.4,0.1c-0.2,0-0.3-0.1-0.3-0.2
			c-0.2-0.4-0.4-1.2-0.6-2.3c0.4,0.1,0.9,0.1,1.4,0.1c0.1,0,0.2,0,0.4,0c0.9,0,2-0.1,3.3-0.3c0.4-0.1,0.7-0.2,1-0.4
			c0.1-0.1,0.2-0.1,0.3-0.1c0.1,0,0.2,0,0.3,0.1c0.5,0.3,1,0.7,1.4,1.2c0.1,0.1,0.2,0.2,0.2,0.4c0,0.1-0.1,0.2-0.2,0.4
			c-0.1,0.1-0.3,0.3-0.4,0.5l-0.2,0.5c-1,2.7-1.6,4.3-1.8,4.6C-852.2,3738.3-850.8,3738.6-849.4,3739.2z M-856.6,3739.9
			c-1.1,0-2,0.3-2.7,0.9c-0.5,0.4-0.8,0.9-0.8,1.5c0,0.6,0.2,1,0.7,1c0.4,0,0.8-0.3,1.2-0.8C-857.6,3741.9-857.1,3741-856.6,3739.9z
			"/>
		<path class="st2" d="M-840,3743.7c-0.2,0.2-0.3,0.3-0.3,0.3s-0.1-0.1-0.2-0.3c-0.2-0.7-0.5-1.3-0.8-1.8c1.5-1.8,2.6-3.9,3.4-6.4
			h-0.5l-2.2,0c-0.1,0-0.2,0-0.2,0c0,0,0-0.1,0-0.2v-1.5c0-0.1,0-0.2,0-0.2c0,0,0.1,0,0.2,0l2.2,0h0.7v-1.3c0-1.2-0.1-2.2-0.2-2.9
			c0.8,0,1.5,0.1,2.1,0.1c0.2,0,0.3,0.1,0.3,0.2c0,0.1,0,0.2-0.1,0.4c-0.1,0.2-0.1,0.9-0.1,2v1.3l2.2,0c0.1,0,0.2,0,0.2,0
			c0,0,0,0.1,0,0.2v1.5c0,0.1,0,0.2,0,0.2c0,0-0.1,0-0.2,0l-2.1,0c0.5,1.2,1.4,2.5,2.8,4c-0.3,0.4-0.5,1-0.8,1.6
			c-0.1,0.2-0.2,0.3-0.2,0.3c-0.1,0-0.2-0.1-0.3-0.3c-0.7-1-1.3-2.1-1.6-3.1c0,2.4,0,4.9,0.1,7.5c0,0.6,0,1.3,0.1,2.2
			c0,0.4,0,0.6,0,0.7c0,0.1,0,0.2,0,0.2c0,0-0.1,0-0.2,0h-1.7c-0.1,0-0.2,0-0.2,0c0,0,0-0.1,0-0.2c0-0.1,0-0.6,0-1.5
			c0.1-2.9,0.1-5.6,0.1-8C-838.2,3740.6-839,3742.2-840,3743.7z M-830.4,3748.6h-1.7c-0.2,0-0.2-0.1-0.2-0.2l0-7.9v-4.1l0-5.7
			c0-0.1,0-0.2,0-0.2c0,0,0.1,0,0.2,0l2.6,0h4l2.6,0c0.1,0,0.2,0,0.2,0c0,0,0,0.1,0,0.2l0,5v4.8l0,7.9c0,0.1-0.1,0.2-0.2,0.2h-1.7
			c-0.1,0-0.2-0.1-0.2-0.2v-1h-5.3v1c0,0.1,0,0.2-0.1,0.2C-830.2,3748.5-830.3,3748.6-830.4,3748.6z M-830.2,3732.4v3h5.3v-3H-830.2
			z M-830.2,3740.3h5.3v-2.9h-5.3V3740.3z M-830.2,3745.3h5.3v-3h-5.3V3745.3z"/>
		<path class="st2" d="M-816.4,3733.1h2.3l2.2,0c0.1,0,0.2,0,0.2,0c0,0,0,0.1,0,0.2v1.5c0,0.1,0,0.2-0.1,0.2c0,0-0.1,0-0.2,0l-2.2,0
			h-2.3l-2.2,0c-0.1,0-0.2,0-0.2-0.1c0,0,0-0.1,0-0.2v-1.5c0-0.1,0-0.2,0-0.2c0,0,0.1,0,0.2,0L-816.4,3733.1z M-812.2,3748.1
			c0,0.2-0.1,0.2-0.2,0.2h-1.5c-0.1,0-0.2,0-0.2,0c0,0,0-0.1,0-0.2v-0.6h-2v1c0,0.1-0.1,0.2-0.2,0.2h-1.5c-0.2,0-0.2-0.1-0.2-0.2
			l0.1-3.2v-1.3l-0.1-2c0-0.1,0-0.2,0-0.2c0,0,0.1,0,0.2,0l1.9,0h1.6l1.9,0c0.1,0,0.2,0.1,0.2,0.2l0,1.6v3.2c1.8-0.5,3.2-1.4,4-2.7
			c0.6-1,1-2.4,1.1-4c0-0.3,0-0.7,0-0.9c0-0.3,0-0.7-0.1-1c0.9,0,1.6,0.1,2,0.2c0.3,0,0.4,0.1,0.4,0.3c0,0.1,0,0.3-0.1,0.4
			c-0.1,0.1-0.2,0.5-0.2,1.3c0.3,1.7,1,3.2,2.2,4.4c0.9,0.9,2,1.6,3.3,2.1c-0.3,0.4-0.6,0.9-0.9,1.5c-0.2,0.3-0.3,0.5-0.4,0.5
			c-0.1,0-0.2-0.1-0.5-0.2c-2.1-1.1-3.6-2.8-4.5-4.9c-0.8,2.3-2.3,3.9-4.6,4.9c-0.3,0.1-0.4,0.1-0.5,0.1c-0.1,0-0.3-0.2-0.4-0.5
			c-0.3-0.6-0.7-1-0.9-1.3c0,0.4,0,0.7,0,1C-812.2,3748-812.2,3748.1-812.2,3748.1z M-815.9,3730.2h1.7l1.9,0c0.1,0,0.2,0,0.2,0
			s0,0.1,0,0.2v1.4c0,0.1-0.1,0.2-0.2,0.2l-1.9,0h-1.7l-1.9,0c-0.1,0-0.2-0.1-0.2-0.2v-1.4c0-0.2,0.1-0.2,0.2-0.2L-815.9,3730.2z
			 M-815.8,3736.1h1.3l1.7,0c0.1,0,0.2,0,0.2,0c0,0,0,0.1,0,0.2v1.4c0,0.1,0,0.2-0.1,0.2c0,0-0.1,0-0.2,0l-1.7,0h-1.3l-1.8,0
			c-0.1,0-0.2,0-0.2,0c0,0,0-0.1,0-0.2v-1.4c0-0.1,0-0.2,0.1-0.2c0,0,0.1,0,0.2,0L-815.8,3736.1z M-815.8,3738.9h1.3l1.7-0.1
			c0.1,0,0.2,0,0.2,0c0,0,0,0.1,0,0.2v1.3c0,0.1,0,0.2-0.1,0.2c0,0-0.1,0-0.2,0l-1.7,0h-1.3l-1.8,0c-0.1,0-0.2,0-0.2,0
			c0,0,0-0.1,0-0.2v-1.3c0-0.1,0-0.2,0.1-0.2c0,0,0.1,0,0.2,0L-815.8,3738.9z M-814.1,3743.5h-2v2.2h2V3743.5z M-799.6,3737.2
			c-0.3,0.3-0.5,0.8-0.8,1.3c-0.2,0.4-0.3,0.5-0.4,0.5c-0.1,0-0.2,0-0.5-0.1c-2.1-0.8-3.6-2.3-4.5-4.3c-0.8,2-2.3,3.4-4.5,4.3
			c-0.3,0.1-0.4,0.1-0.5,0.1c-0.1,0-0.3-0.2-0.5-0.5c-0.3-0.5-0.6-0.9-0.9-1.2c1.8-0.5,3-1.3,3.8-2.4c0.7-0.9,1-2.1,1.1-3.5
			c0-0.3,0-0.6,0-0.9c0-0.4,0-0.7-0.1-1c0.6,0,1.2,0.1,1.9,0.2c0.3,0,0.4,0.1,0.4,0.2c0,0.1,0,0.2-0.1,0.4c-0.1,0.1-0.2,0.5-0.2,1.1
			c0.3,1.7,1,3,2.1,4.1C-802.1,3736.2-801,3736.8-799.6,3737.2z M-810,3740c0.1-0.1,0.1-0.2,0.2-0.2c0,0,0.1,0,0.2,0.1l1,0.5
			c0.2,0.1,0.3,0.2,0.3,0.2c0,0,0,0.1,0,0.2c-0.5,1.1-1.1,2-1.8,2.9c-0.1,0.1-0.2,0.1-0.2,0.1c-0.1,0-0.1,0-0.2-0.1l-1.1-0.8
			c-0.1-0.1-0.2-0.2-0.2-0.2c0,0,0-0.1,0.1-0.2C-811.1,3741.9-810.5,3741-810,3740z M-809.8,3731.4c0-0.1,0.1-0.2,0.1-0.2
			c0,0,0.1,0,0.3,0.1l1.1,0.4c0.2,0.1,0.2,0.1,0.2,0.2c0,0,0,0.1,0,0.1c-0.5,1.2-1,2.1-1.6,2.9c-0.1,0.1-0.1,0.1-0.2,0.1
			c-0.1,0-0.1,0-0.2-0.1l-1-0.7c-0.1-0.1-0.2-0.2-0.2-0.2c0,0,0-0.1,0.1-0.2C-810.7,3733.2-810.2,3732.4-809.8,3731.4z
			 M-804.2,3742.5c0.7-0.6,1.2-1.2,1.7-1.9c0.2-0.2,0.3-0.5,0.4-0.8c0.6,0.2,1.2,0.4,1.6,0.6c0.3,0.1,0.4,0.2,0.4,0.4
			c0,0.1-0.1,0.2-0.2,0.3c-0.1,0.1-0.2,0.2-0.3,0.4c-0.5,0.7-1,1.3-1.4,1.7c-0.2,0.2-0.4,0.3-0.5,0.3c-0.1,0-0.2-0.1-0.5-0.3
			C-803.4,3742.9-803.8,3742.7-804.2,3742.5z M-804.1,3733.9c0.7-0.6,1.2-1.3,1.7-2c0.2-0.2,0.3-0.5,0.4-0.8
			c0.6,0.2,1.1,0.4,1.6,0.7c0.2,0.1,0.3,0.2,0.3,0.3s-0.1,0.2-0.2,0.3c-0.1,0.1-0.2,0.2-0.4,0.4c-0.4,0.6-0.9,1.2-1.3,1.7
			c-0.3,0.3-0.4,0.4-0.5,0.4c-0.1,0-0.2-0.1-0.5-0.3C-803.4,3734.2-803.7,3734-804.1,3733.9z"/>
	</g>
	<path id="パス_69" class="st3" d="M-854.2,3703l-39-40.5l-2.5-12.5l4.4-11l11.5-8.8h12.7l7.6,3.7l5.2,5.1l8.1-6.4l7.4-2.5h7.8
		l7.6,3.7l5.4,6.4l3.7,7.4l1.2,7.4l-1.2,6.1l-5.9,7.1L-854.2,3703z"/>
	<g id="ハートの心電図のアイコン素材_1" transform="translate(-898 3602.592)">
		<path id="パス_68" class="st4" d="M80.3,32c-9.8-9.8-25.6-9.8-35.4,0c-0.4,0.4-0.8,0.8-1.1,1.2c-0.4-0.4-0.7-0.8-1.1-1.2
			c-9.9-9.6-25.7-9.5-35.4,0.4c-9.4,9.6-9.5,25-0.2,34.7c0.1,0.1,0.1,0.1,0.2,0.2l32.5,32.5l4,4l36.5-36.5c0.1-0.1,0.1-0.1,0.2-0.2
			c4.6-4.7,7.1-10.9,7.1-17.5C87.6,43.1,85,36.7,80.3,32z M43.8,95.9L15.1,67.2h11.3l4.5-17.4l9.4,32L47.2,61l6,12l5.6-5.8h13.6
			L43.8,95.9z M76.3,63.4l-0.8,0.8H57.6l-3.5,3.7l-7.4-14.7l-6.1,18.5l-9.8-33.2L24,64.1h-12l-0.8-0.8c-7.6-7.6-7.6-19.8,0-27.4
			s19.8-7.6,27.4,0c2.5,2.5,4.3,5.7,5.1,9.1c2.5-10.4,12.9-16.8,23.3-14.3s16.8,12.9,14.3,23.3C80.6,57.7,78.8,60.9,76.3,63.4
			L76.3,63.4z"/>
	</g>
</g>
</svg>
