<?xml version="1.0" encoding="utf-8"?>
<!-- Generator: Adobe Illustrator 26.0.2, SVG Export Plug-In . SVG Version: 6.00 Build 0)  -->
<svg version="1.1" id="レイヤー_1" xmlns="http://www.w3.org/2000/svg" xmlns:xlink="http://www.w3.org/1999/xlink" x="0px"
	 y="0px" viewBox="0 0 200 200" style="enable-background:new 0 0 200 200;" xml:space="preserve">
<style type="text/css">
	.st0{fill:#F0F5F8;}
	.st1{enable-background:new    ;}
	.st2{fill:#06438D;}
	.st3{fill:#FFFFFF;}
	.st4{fill:#3F536B;}
</style>
<g id="グループ_111" transform="translate(1444 -3587)">
	<path id="長方形_59" class="st0" d="M-1424,3587h160c11,0,20,9,20,20v160c0,11-9,20-20,20h-160c-11,0-20-9-20-20v-160
		C-1444,3596-1435,3587-1424,3587z"/>
	<g class="st1">
		<path class="st2" d="M-1379.4,3737.6l-2.8,0c-0.1,0-0.2,0-0.2,0c0,0,0-0.1,0-0.2v-1.5c0-0.1,0-0.2,0.1-0.2c0,0,0.1,0,0.2,0l2.8,0
			h5.9l2.8,0c0.1,0,0.2,0,0.2,0c0,0,0,0.1,0,0.2v1.5c0,0.1,0,0.2,0,0.2c0,0-0.1,0-0.2,0l-2.8,0h-1.8v2.8h2.6l2.4,0
			c0.1,0,0.2,0,0.2,0c0,0,0,0.1,0,0.2v1.5c0,0.1,0,0.2,0,0.2s-0.1,0-0.2,0l-2.4,0h-2.6v3.6c1.1,0.1,2.4,0.2,4.1,0.2
			c1.1,0,2.4-0.1,4.1-0.2c-0.2,0.5-0.3,1-0.4,1.5c0,0.3-0.1,0.5-0.2,0.6c-0.1,0-0.2,0.1-0.6,0.1c-0.8,0-1.6,0.1-2.5,0.1
			c-3.7,0-6.3-0.4-7.8-1c-1-0.5-2-1.3-2.8-2.6c-0.6,1.3-1.5,2.5-2.6,3.6c-0.2,0.2-0.4,0.4-0.5,0.4c-0.1,0-0.2-0.1-0.4-0.4
			c-0.3-0.4-0.7-0.8-1.2-1.1c2.1-1.7,3.4-3.9,3.8-6.6c0.1-0.6,0.1-1.1,0.1-1.3c0.6,0.1,1.3,0.2,2,0.4c0.3,0.1,0.4,0.2,0.4,0.3
			c0,0.1-0.1,0.2-0.2,0.4c-0.1,0.1-0.2,0.3-0.3,0.7c-0.1,0.6-0.2,1.1-0.4,1.7c0.4,0.9,0.9,1.5,1.3,1.9c0.5,0.5,1.1,0.8,1.8,1.1v-7.8
			H-1379.4z M-1370.6,3731.6l2.8,0c0.2,0,0.2,0.1,0.2,0.2l0,1.1v0.9l0,2.3c0,0.1,0,0.2-0.1,0.2c0,0-0.1,0-0.2,0h-1.7
			c-0.1,0-0.2,0-0.2,0s0-0.1,0-0.2v-2.5h-13.3v2.5c0,0.1,0,0.2-0.1,0.2c0,0-0.1,0-0.2,0h-1.7c-0.1,0-0.2,0-0.2,0s0-0.1,0-0.2l0-2.3
			v-0.7l0-1.3c0-0.1,0.1-0.2,0.2-0.2l2.8,0h4.5v-0.2c0-0.9-0.1-1.6-0.2-2c0.7,0,1.5,0,2.2,0.1c0.2,0,0.3,0.1,0.3,0.2
			c0,0.1,0,0.2-0.1,0.4c-0.1,0.1-0.1,0.5-0.1,1.3v0.2H-1370.6z"/>
		<path class="st2" d="M-1359.9,3745.9c-0.7,0.9-1.5,1.7-2.4,2.5c-0.2,0.2-0.4,0.2-0.5,0.2c-0.1,0-0.3-0.1-0.5-0.4
			c-0.4-0.4-0.7-0.8-1.1-1c1.2-0.8,2.1-1.5,2.7-2.3c0.2-0.3,0.4-0.6,0.5-0.8c0.7,0.3,1.2,0.5,1.6,0.7c0.2,0.1,0.3,0.2,0.3,0.3
			s-0.1,0.2-0.2,0.3C-1359.5,3745.4-1359.7,3745.6-1359.9,3745.9z M-1361.2,3743.9l-2.6,0c-0.1,0-0.2,0-0.2,0s0-0.1,0-0.2v-1.4
			c0-0.1,0-0.2,0-0.2s0.1,0,0.2,0l1.7,0v-8.1c-0.4,0-0.7,0-1,0c-0.2,0-0.3,0-0.3,0c-0.1,0-0.2,0-0.2,0c0,0,0-0.1,0-0.2v-1.5
			c0-0.1,0-0.2,0.1-0.2c0,0,0.1,0,0.2,0l1.4,0v-0.4c0-1,0-1.7-0.1-2.2c0.8,0,1.4,0.1,2,0.1c0.2,0,0.3,0.1,0.3,0.2
			c0,0.1,0,0.2-0.1,0.4c-0.1,0.2-0.1,0.6-0.1,1.4v0.4h2.9v-0.4c0-1,0-1.7-0.1-2.2c1.1,0.1,1.8,0.1,2,0.1c0.2,0,0.3,0.1,0.3,0.2
			c0,0.1,0,0.2-0.1,0.4c-0.1,0.2-0.1,0.7-0.1,1.5v0.4c0.3,0,0.6,0,0.9,0c0.2,0,0.3,0,0.3,0c0.1,0,0.2,0.1,0.2,0.2v1.5
			c0,0.1-0.1,0.2-0.2,0.2l-1.2,0v8.1c0.3,0,0.6,0,0.9,0c0.2,0,0.3,0,0.3,0c0.1,0,0.2,0.1,0.2,0.2v1.4c0,0.2-0.1,0.2-0.2,0.2l-2.6,0
			H-1361.2z M-1360.2,3735.6h2.9v-1.6h-2.9V3735.6z M-1360.2,3738.8h2.9v-1.6h-2.9V3738.8z M-1360.2,3742.1h2.9v-1.6h-2.9V3742.1z
			 M-1356.7,3744.2c0.6,0.8,1.2,1.4,1.8,1.8c-0.5,0.3-0.9,0.7-1.2,1c-0.2,0.2-0.3,0.3-0.4,0.3s-0.2-0.1-0.3-0.3
			c-0.7-0.7-1.2-1.4-1.5-1.9c0-0.1-0.1-0.1-0.1-0.2c0-0.1,0.1-0.1,0.2-0.2l1.1-0.6c0.1-0.1,0.2-0.1,0.2-0.1
			C-1356.8,3744-1356.7,3744.1-1356.7,3744.2z M-1350.3,3746.3c0.6,0,1.3,0.1,1.8,0.1c0.4,0,0.6-0.2,0.6-0.7v-3.8h-3.4
			c-0.1,1.5-0.4,2.8-0.8,3.8c-0.3,0.8-0.7,1.7-1.2,2.5c-0.2,0.3-0.3,0.4-0.4,0.4c-0.1,0-0.2-0.1-0.4-0.3c-0.5-0.4-0.9-0.8-1.3-1
			c1-1.2,1.6-2.6,1.9-4c0.3-1.3,0.4-3.3,0.4-6v-3.5l0-3.5c0-0.1,0-0.2,0-0.2c0,0,0.1,0,0.2,0l2.2,0h2.6l2.2,0c0.1,0,0.2,0,0.2,0.1
			c0,0,0,0.1,0,0.2l0,3.5v9.5l0.1,2.9c0,0.8-0.2,1.4-0.6,1.7c-0.5,0.4-1.3,0.5-2.6,0.5c-0.4,0-0.6,0-0.6-0.1c0-0.1-0.1-0.2-0.2-0.6
			C-1349.9,3747.2-1350.1,3746.7-1350.3,3746.3z M-1351.1,3740h3.3v-3.1h-3.2v0.4C-1351.1,3738.3-1351.1,3739.2-1351.1,3740z
			 M-1347.9,3732h-3.2v3h3.2V3732z"/>
		<path class="st2" d="M-1342.4,3737.6c1.5-1.9,2.6-4.1,3.4-6.8c0.1-0.4,0.2-0.9,0.3-1.4c0.8,0.2,1.4,0.4,1.9,0.5
			c0.2,0.1,0.4,0.2,0.4,0.3c0,0.1-0.1,0.2-0.3,0.4c-0.1,0.1-0.2,0.4-0.4,0.9c-0.3,1-0.7,2-1.1,3v10.8l0,3.2c0,0.1,0,0.2,0,0.2
			c0,0-0.1,0-0.2,0h-1.6c-0.1,0-0.2,0-0.2,0c0,0,0-0.1,0-0.2l0-3.2v-4.9c0-1,0-1.7,0-2.2c-0.3,0.5-0.6,1-0.9,1.4
			c-0.2,0.2-0.3,0.3-0.4,0.3c-0.1,0-0.2-0.1-0.2-0.4C-1341.9,3738.7-1342.1,3738.1-1342.4,3737.6z M-1322.4,3746
			c-0.2,0.3-0.4,0.7-0.6,1.4c-0.1,0.3-0.1,0.6-0.2,0.6c-0.1,0-0.3,0.1-0.6,0.1c-1.3,0.1-2.6,0.1-3.9,0.1c-3.1,0-5.3-0.5-6.5-1.6
			c-0.2-0.2-0.4-0.4-0.7-0.6c-0.5,0.8-1,1.5-1.6,2.3c-0.2,0.2-0.3,0.3-0.4,0.3c-0.1,0-0.2-0.1-0.4-0.4c-0.3-0.5-0.6-0.9-0.9-1.2
			c0.9-0.8,1.6-1.7,2.1-2.7c-0.6-1-1.1-2.2-1.4-3.5c0,0,0-0.1,0-0.1c0-0.1,0.1-0.2,0.2-0.3l0.8-0.4c0.1-0.1,0.2-0.1,0.3-0.1
			c0.1,0,0.1,0.1,0.2,0.2c0.2,0.8,0.4,1.6,0.8,2.3c0.4-1.1,0.6-2.4,0.8-4h-1.3l-0.3,0.5c-0.1,0.1-0.2,0.2-0.3,0.2
			c-0.1,0-0.4-0.1-0.8-0.3c-0.5-0.2-0.7-0.4-0.7-0.5c0-0.1,0-0.2,0.1-0.3c1-1.5,1.9-3.2,2.7-5.2h-0.7l-1,0c-0.1,0-0.2,0-0.2-0.1
			c0,0,0-0.1,0-0.2v-1.5c0-0.1,0-0.2,0-0.2c0,0,0.1,0,0.2,0l1.4,0.1h1c0.2,0,0.4,0,0.5-0.1c0,0,0.1,0,0.1-0.1c0.1,0,0.1,0,0.1,0
			c0.2,0,0.4,0.2,0.8,0.6c0.3,0.3,0.4,0.5,0.4,0.6c0,0.1-0.1,0.2-0.2,0.3c-0.1,0.1-0.2,0.3-0.4,0.7c-0.5,1.1-1,2.3-1.7,3.5h0.6
			c0.2,0,0.3,0,0.4-0.1s0.2-0.1,0.2-0.1c0.1,0,0.4,0.2,0.7,0.6c0.3,0.3,0.4,0.5,0.4,0.7c0,0.1-0.1,0.2-0.2,0.4
			c-0.1,0.2-0.2,0.4-0.2,0.7c-0.2,2.1-0.7,4-1.3,5.5c0.2,0.2,0.3,0.3,0.5,0.4c1.1,1,2.9,1.5,5.5,1.5
			C-1325.8,3746.3-1324,3746.2-1322.4,3746z M-1330,3744.2l-2.6,0c-0.2,0-0.2-0.1-0.2-0.2v-1.3c0-0.1,0-0.2,0-0.2c0,0,0.1,0,0.2,0
			l2.6,0h0.6v-1.2h-0.1l-2.4,0c-0.1,0-0.2,0-0.2,0c0,0,0-0.1,0-0.2v-1.2c0-0.1,0-0.2,0-0.2c0,0,0.1,0,0.2,0l2.4,0h0.1v-1.1h-0.3
			l-1.8,0c-0.1,0-0.2,0-0.2,0c0,0,0-0.1,0-0.2v-1.2c0-0.1,0-0.2,0-0.2c0,0,0.1,0,0.2,0l1.8,0h0.3v-1.2h-0.2l-2.9,0
			c-0.1,0-0.2,0-0.2,0c0,0,0-0.1,0-0.2v-1.3c0-0.1,0-0.2,0-0.2s0.1,0,0.2,0l2.9,0h0.2v-1.2h0l-2.3,0c-0.1,0-0.2,0-0.2,0
			c0,0,0-0.1,0-0.2v-1.2c0-0.1,0-0.2,0-0.2c0,0,0.1,0,0.2,0l2.3,0h0c0-0.8-0.1-1.4-0.2-1.8c0.5,0,1.2,0.1,1.9,0.1
			c0.2,0,0.3,0.1,0.3,0.2c0,0.1,0,0.2-0.1,0.4c-0.1,0.2-0.2,0.5-0.2,1.1h0.8l2.6,0c0.1,0,0.2,0,0.2,0c0,0,0,0.1,0,0.2l0,2.1v0.5
			l1.2,0c0.1,0,0.2,0,0.2,0c0,0,0,0.1,0,0.2v1.3c0,0.1,0,0.2,0,0.2s-0.1,0-0.2,0c-0.1,0-0.5,0-1.2,0v0.6l0,2.1c0,0.1,0,0.2,0,0.2
			c0,0-0.1,0-0.2,0l-2.6,0h-0.8v1.1h1.3l2.4,0c0.1,0,0.2,0,0.2,0s0,0.1,0,0.2v1.2c0,0.1,0,0.2,0,0.2c0,0-0.1,0-0.2,0l-2.4,0h-1.3
			v1.2h1.8l2.6,0c0.1,0,0.2,0.1,0.2,0.2v1.3c0,0.1-0.1,0.2-0.2,0.2l-2.6,0h-1.8c0,0.4,0,0.7,0,1.1c0,0.2,0,0.3,0,0.3
			c0,0.1,0,0.2,0,0.2c0,0-0.1,0-0.2,0h-1.5c-0.1,0-0.2,0-0.2-0.1c0,0,0-0.1,0-0.2l0-1.4H-1330z M-1325.8,3733h-1.7v1.2h1.7V3733z
			 M-1325.8,3737v-1.2h-1.7v1.2H-1325.8z"/>
		<path class="st2" d="M-1317.3,3733.1h2.4l2.2,0c0.1,0,0.2,0,0.2,0c0,0,0,0.1,0,0.2v1.6c1.6-1.1,2.9-2.5,3.9-4.1
			c0.2-0.4,0.4-0.9,0.6-1.4c0.5,0.1,1.2,0.2,2.1,0.4c0.2,0.1,0.3,0.2,0.3,0.3c0,0.1-0.1,0.2-0.2,0.3c0,0-0.1,0-0.1,0.1
			c1.3,1.9,3.2,3.5,5.5,4.6c-0.3,0.4-0.6,0.9-0.9,1.6c-0.1,0.3-0.3,0.5-0.4,0.5c-0.1,0-0.2-0.1-0.5-0.2c-2-1.3-3.7-2.9-4.9-4.8
			c-1.2,1.8-2.7,3.4-4.5,4.6c-0.3,0.2-0.4,0.3-0.5,0.3c-0.1,0-0.3-0.2-0.4-0.5c-0.3-0.5-0.6-0.9-1-1.2l0.6-0.4l-2.2,0h-2.4l-2.2,0
			c-0.1,0-0.2,0-0.2-0.1c0,0,0-0.1,0-0.2v-1.5c0-0.1,0-0.2,0-0.2c0,0,0.1,0,0.2,0L-1317.3,3733.1z M-1313,3748.1
			c0,0.2-0.1,0.2-0.2,0.2h-1.5c-0.1,0-0.2,0-0.2,0c0,0,0-0.1,0-0.2v-0.6h-2.1v1c0,0.1,0,0.2,0,0.2c0,0-0.1,0-0.2,0h-1.5
			c-0.1,0-0.2,0-0.2,0c0,0,0-0.1,0-0.2l0.1-3.1v-1.3l-0.1-2c0-0.1,0-0.2,0.1-0.2c0,0,0.1,0,0.2,0l1.9,0h1.7l1.9,0
			c0.1,0,0.2,0.1,0.2,0.2l0,1.6v1.5L-1313,3748.1z M-1316.8,3730.2h1.8l1.9,0c0.1,0,0.2,0,0.2,0c0,0,0,0.1,0,0.2v1.4
			c0,0.1,0,0.2-0.1,0.2c0,0-0.1,0-0.2,0l-1.9,0h-1.8l-1.9,0c-0.1,0-0.2,0-0.2,0s0-0.1,0-0.2v-1.4c0-0.1,0-0.2,0-0.2c0,0,0.1,0,0.2,0
			L-1316.8,3730.2z M-1316.7,3736.1h1.5l1.8,0c0.1,0,0.2,0,0.2,0c0,0,0,0.1,0,0.2v1.4c0,0.1,0,0.2,0,0.2s-0.1,0-0.2,0l-1.8,0h-1.5
			l-1.8,0c-0.1,0-0.2,0-0.2,0c0,0,0-0.1,0-0.2v-1.4c0-0.1,0-0.2,0.1-0.2c0,0,0.1,0,0.2,0L-1316.7,3736.1z M-1316.7,3738.9h1.5
			l1.8-0.1c0.1,0,0.2,0,0.2,0c0,0,0,0.1,0,0.2v1.3c0,0.1,0,0.2,0,0.2c0,0-0.1,0-0.2,0l-1.8,0h-1.5l-1.8,0c-0.1,0-0.2,0-0.2,0
			c0,0,0-0.1,0-0.2v-1.3c0-0.1,0-0.2,0.1-0.2c0,0,0.1,0,0.2,0L-1316.7,3738.9z M-1314.9,3743.5h-2.1v2.1h2.1V3743.5z
			 M-1312.8,3746.7c2.3-0.5,4.2-1.3,5.8-2.2c1.3-0.8,2.5-1.7,3.5-2.9c0.4-0.4,0.6-0.8,0.8-1.2c0.6,0.4,1.1,0.8,1.6,1.2
			c0.2,0.2,0.3,0.3,0.3,0.4c0,0.1-0.1,0.2-0.3,0.3c-0.1,0.1-0.3,0.3-0.7,0.7c-2.3,2.6-5.3,4.4-9.1,5.5c-0.3,0.1-0.4,0.1-0.5,0.1
			c-0.1,0-0.3-0.2-0.5-0.5C-1312.1,3747.5-1312.4,3747.1-1312.8,3746.7z M-1312.3,3738.8c2-0.8,3.7-1.8,4.9-3.1
			c0.2-0.3,0.5-0.5,0.6-0.8c0.5,0.3,1,0.6,1.5,1.1c0.2,0.1,0.2,0.2,0.2,0.3s-0.1,0.2-0.3,0.3c-0.2,0.1-0.4,0.3-0.7,0.6
			c-1.1,1.2-2.6,2.3-4.4,3.1c-0.3,0.1-0.4,0.2-0.5,0.2c-0.1,0-0.3-0.2-0.4-0.5C-1311.6,3739.6-1311.9,3739.2-1312.3,3738.8z
			 M-1312.1,3742.8c2.9-0.9,5.2-2.4,6.9-4.4c0.2-0.2,0.4-0.5,0.6-0.9c0.7,0.5,1.2,0.8,1.5,1.1c0.2,0.1,0.2,0.2,0.2,0.3
			s-0.1,0.2-0.3,0.3c-0.2,0.1-0.4,0.3-0.6,0.5c-1.6,1.8-3.7,3.3-6.5,4.5c-0.3,0.1-0.4,0.2-0.5,0.2c-0.1,0-0.3-0.2-0.5-0.5
			C-1311.4,3743.5-1311.7,3743.1-1312.1,3742.8z"/>
	</g>
	<circle id="楕円形_16" class="st3" cx="-1317" cy="3674" r="11"/>
	<g id="聴診器のアイコン素材" transform="translate(-1414.985 3618.701)">
		<path id="パス_61" class="st4" d="M52.6,13.4c0.7-0.5,1.1-1.2,1.1-2V2.5c0-1.4-1.1-2.5-2.5-2.5c-0.3,0-0.6,0.1-0.9,0.2l-5.4,2
			v9.6l5.4,2C51.1,14,51.9,13.9,52.6,13.4z"/>
		<path id="パス_62" class="st4" d="M74.9,13.4c0.7,0.5,1.5,0.6,2.3,0.3l5.4-2V2.1l-5.4-2c-1.3-0.5-2.7,0.2-3.2,1.5
			c-0.1,0.3-0.2,0.6-0.2,0.9v8.9C73.9,12.2,74.3,12.9,74.9,13.4z"/>
		<path id="パス_63" class="st4" d="M107.7,46.6c-5-5-13.1-5-18.2,0c-5,5-5,13.1,0,18.2c0.1,0.1,0.1,0.1,0.2,0.2l-7.7,13.9
			c-1,1.8-2.4,3.3-4.1,4.3c-1.3,0.8-2.8,1.3-4.4,1.3c-0.8,0-1.6-0.2-2.4-0.5c-1.1-0.5-2.1-1.3-2.7-2.3c-0.9-1.5-1.3-3.2-1.2-5V56.9
			c1.4-0.3,2.7-0.9,4-1.6c1-0.6,1.8-1.2,2.6-2c0.7-0.7,1.3-1.5,1.9-2.3c0,0,0.1-0.2,0.3-0.4c0.3-0.4,0.7-1,1.2-1.7
			c1.9-2.5,5-6.8,8.2-11.1c1.6-2.2,3.2-4.4,4.6-6.6s2.7-4.1,3.7-5.8c1.7-2.9,2.7-6.1,2.7-9.4c0-1.6-0.3-3.3-0.9-4.8
			c-0.5-1.2-1.1-2.3-1.9-3.2c-1.3-1.5-3-2.7-4.8-3.4c-1.2-0.5-2.5-0.8-3.7-0.9v7.2c0.3,0.1,0.6,0.1,0.8,0.2c0.6,0.2,1.1,0.5,1.6,0.8
			c0.6,0.4,1,1,1.3,1.7c0.3,0.8,0.5,1.6,0.5,2.4c-0.1,2.1-0.7,4.1-1.8,5.9c-1,1.8-2.6,4.2-4.4,6.7c-2.7,3.8-5.8,8-8.3,11.5
			c-1.3,1.7-2.4,3.3-3.3,4.5c-0.4,0.6-0.8,1.1-1.1,1.6c-0.2,0.2-0.3,0.4-0.4,0.6s-0.2,0.3-0.3,0.5c-0.2,0.3-0.5,0.7-0.8,0.9
			c-0.6,0.6-1.4,1.1-2.1,1.4c-2.2,1-4.8,0.8-6.9-0.4c-0.5-0.3-0.9-0.6-1.3-1c-0.3-0.3-0.6-0.6-0.8-0.9c-0.1-0.2-0.3-0.5-0.5-0.7
			c-0.3-0.5-0.8-1.1-1.3-1.8c-1.9-2.6-5.1-6.8-8.2-11.1c-1.6-2.2-3.1-4.4-4.5-6.4s-2.6-3.9-3.4-5.4c-1.1-1.8-1.7-3.8-1.8-5.9
			c0-0.8,0.1-1.5,0.4-2.2c0.2-0.4,0.4-0.9,0.7-1.2c0.5-0.6,1.2-1.1,2-1.4c0.4-0.2,0.8-0.3,1.2-0.4V3.6c-1.1,0.1-2.1,0.4-3.1,0.7
			c-1.3,0.4-2.5,1-3.6,1.8c-1.5,1.1-2.8,2.7-3.6,4.4c-0.7,1.7-1.1,3.5-1.1,5.4c0.1,3.3,1,6.6,2.7,9.4c1.2,2.1,2.9,4.6,4.7,7.2
			c2.7,4,5.9,8.2,8.5,11.7c1.3,1.7,2.4,3.3,3.3,4.5c0.4,0.6,0.8,1.1,1.1,1.5c0.1,0.2,0.3,0.4,0.3,0.5s0.1,0.2,0.2,0.2
			c0.5,0.8,1.1,1.6,1.9,2.3c1.8,1.8,4.1,3,6.6,3.6v19.9c0,2.1,0.3,4.1,1,6.1c0.9,2.6,2.7,4.9,5,6.5c2.2,1.5,4.8,2.2,7.4,2.2
			c2.9,0,5.7-0.8,8.1-2.4c2.7-1.7,5-4,6.5-6.8l0,0L96,68.3c0.9,0.2,1.8,0.3,2.7,0.3c7.1,0,12.8-5.7,12.8-12.8
			C111.5,52.3,110.1,49,107.7,46.6L107.7,46.6z M105,62.1c-3.5,3.5-9.2,3.5-12.7,0c-3.5-3.5-3.5-9.2,0-12.7c3.5-3.5,9.2-3.5,12.7,0
			c1.7,1.7,2.6,4,2.6,6.4C107.7,58.1,106.7,60.4,105,62.1z"/>
		<path id="パス_64" class="st4" d="M100.5,51.2c-2.5-1-5.3,0.2-6.3,2.7c0,0,0,0,0,0l1.8,0.7c0.6-1.5,2.3-2.2,3.8-1.6
			c1.1,0.5,1.8,1.5,1.8,2.7c0,0.4-0.1,0.8-0.2,1.1l1.8,0.7c0.2-0.6,0.4-1.2,0.4-1.8C103.5,53.7,102.3,52,100.5,51.2z"/>
	</g>
</g>
</svg>
