<?xml version="1.0" encoding="utf-8"?>
<!-- Generator: Adobe Illustrator 26.0.2, SVG Export Plug-In . SVG Version: 6.00 Build 0)  -->
<svg version="1.1" id="レイヤー_1" xmlns="http://www.w3.org/2000/svg" xmlns:xlink="http://www.w3.org/1999/xlink" x="0px"
	 y="0px" viewBox="0 0 200 200" style="enable-background:new 0 0 200 200;" xml:space="preserve">
<style type="text/css">
	.st0{fill:#F0F5F8;}
	.st1{enable-background:new    ;}
	.st2{fill:#06438D;}
	.st3{fill:#FFFFFF;}
	.st4{fill:#3F536B;}
	.st5{fill:#FAA49B;}
</style>
<g id="グループ_118" transform="translate(464 -3341)">
	<path id="長方形_53" class="st0" d="M-444,3341h160c11,0,20,9,20,20v160c0,11-9,20-20,20h-160c-11,0-20-9-20-20v-160
		C-464,3350-455,3341-444,3341z"/>
	<g class="st1">
		<path class="st2" d="M-417.4,3490.1v7c0,1.2,0,2.7,0.1,4.4c0,0,0,0.1,0,0.1c0,0.2-0.1,0.3-0.3,0.3c-0.3,0-0.7,0-1,0s-0.7,0-1,0
			c-0.2,0-0.3-0.1-0.3-0.3c0,0,0,0,0-0.1c0-0.3,0-1.1,0.1-2.3c0-0.8,0-1.5,0-2v-4.9c-2.1,1.8-4,3.1-5.8,4c-0.1,0.1-0.2,0.1-0.3,0.1
			c-0.2,0-0.3-0.1-0.4-0.2c-0.4-0.4-1-0.8-1.8-1.2c2.5-1.3,4.7-2.7,6.6-4.3c1.7-1.4,3.2-2.9,4.5-4.4c0.6-0.7,1.1-1.4,1.3-2.2
			c1.1,0.6,1.9,1.1,2.3,1.5c0.1,0.1,0.2,0.2,0.2,0.3c0,0.2-0.1,0.3-0.3,0.5c-0.3,0.2-0.7,0.6-1.3,1.2
			C-415.6,3488.3-416.5,3489.2-417.4,3490.1z"/>
		<path class="st2" d="M-408.9,3487.9c0.3-0.4,0.8-1,1.5-1.6c0.1-0.1,0.2-0.2,0.3-0.2c0.1,0,0.2,0,0.3,0.1c1.3,0.7,2.6,1.7,4,3
			c0.1,0.1,0.2,0.2,0.2,0.3s0,0.2-0.1,0.3c-0.5,0.6-0.9,1.1-1.3,1.6c-0.1,0.1-0.2,0.2-0.3,0.2c-0.1,0-0.2-0.1-0.3-0.2
			C-405.9,3490-407.3,3488.9-408.9,3487.9z M-408.4,3498.4c1.1-0.3,2.1-0.7,2.8-1c1.4-0.7,2.5-1.3,3.4-1.9c0.8-0.5,1.7-1.2,2.7-2
			c1.4-1.1,2.5-2.1,3.4-3c0.8-0.8,1.6-1.7,2.4-2.8c0.1,0.9,0.3,1.7,0.6,2.5c0.1,0.2,0.1,0.3,0.1,0.4c0,0.2-0.1,0.4-0.3,0.6
			c-1.2,1.4-2.8,2.9-4.8,4.5c-1.7,1.4-3.8,2.7-6.3,4.1c-0.7,0.4-1.2,0.8-1.4,1c-0.1,0.1-0.3,0.2-0.4,0.2s-0.2-0.1-0.4-0.2
			C-407.4,3500-408,3499.2-408.4,3498.4z"/>
		<path class="st2" d="M-389.2,3486.6c0.9,0.1,2.2,0.1,4,0.1h7.5c0.5,0,0.9-0.1,1.2-0.2c0.1-0.1,0.2-0.1,0.4-0.1
			c0.1,0,0.3,0,0.3,0.1c0.6,0.5,1.1,1,1.4,1.5c0.1,0.2,0.2,0.3,0.2,0.4c0,0.1-0.1,0.3-0.2,0.4c-0.1,0.1-0.3,0.4-0.5,0.8
			c-1.1,2.7-2.5,5-4.1,6.8c-1.9,2.2-3.9,3.8-6,5c-0.2,0.1-0.4,0.2-0.6,0.2s-0.4-0.1-0.5-0.2c-0.4-0.4-1.1-0.8-1.9-1.1
			c1.6-0.8,3-1.7,4.1-2.5c1-0.8,1.9-1.7,2.8-2.7c1.6-1.8,2.8-3.8,3.6-6h-7.6c-0.8,0-1.9,0-3.5,0.1c-0.2,0-0.4-0.1-0.4-0.4
			C-389.1,3488.4-389.2,3487.7-389.2,3486.6z M-372.9,3482.8c0.7,0,1.2,0.2,1.7,0.7c0.4,0.4,0.6,0.9,0.6,1.5c0,0.7-0.2,1.2-0.7,1.7
			c-0.4,0.4-0.9,0.6-1.5,0.6c-0.7,0-1.2-0.2-1.7-0.7c-0.4-0.4-0.6-0.9-0.6-1.5c0-0.7,0.2-1.2,0.7-1.7
			C-374,3483-373.5,3482.8-372.9,3482.8z M-372.9,3483.8c-0.4,0-0.7,0.1-0.9,0.4c-0.2,0.2-0.3,0.5-0.3,0.8c0,0.4,0.1,0.7,0.4,0.9
			c0.2,0.2,0.5,0.3,0.8,0.3c0.4,0,0.7-0.1,0.9-0.4c0.2-0.2,0.3-0.5,0.3-0.9c0-0.4-0.1-0.7-0.4-0.9
			C-372.3,3483.9-372.6,3483.8-372.9,3483.8z"/>
		<path class="st2" d="M-367.3,3489.4c1.1,0.1,2.4,0.2,3.9,0.2h7.2c0.5,0,0.8-0.1,1.1-0.2c0.1-0.1,0.2-0.1,0.3-0.1
			c0.1,0,0.2,0,0.3,0.1c0.6,0.4,1,0.9,1.4,1.3c0.1,0.1,0.2,0.3,0.2,0.4c0,0.2-0.1,0.3-0.2,0.4c-0.3,0.2-0.5,0.5-0.7,1
			c-1.1,2.4-2.4,4.3-3.8,5.8c-1.3,1.3-2.8,2.5-4.7,3.5c-0.2,0.1-0.3,0.1-0.4,0.1c-0.1,0-0.3-0.1-0.5-0.2c-0.5-0.4-1.1-0.8-1.9-1.1
			c2.2-1,4.1-2.3,5.6-3.8c1.5-1.5,2.5-3.1,3.2-4.9l-7.2,0c-1.2,0-2.2,0-3.1,0.1c-0.2,0-0.3-0.1-0.3-0.4
			C-367.2,3491.2-367.3,3490.5-367.3,3489.4z M-365.5,3484.9c1,0.1,2.1,0.1,3.4,0.1h3.8c0.8,0,1.9,0,3.3-0.1c0.2,0,0.3,0.1,0.3,0.3
			c0,0.3,0,0.5,0,0.8c0,0.3,0,0.6,0,0.8c0,0.3-0.1,0.4-0.3,0.4c0,0,0,0-0.1,0l-3,0h-4.2c-1.1,0-2.1,0-2.9,0.1
			c-0.2,0-0.3-0.2-0.3-0.5C-365.5,3486.4-365.5,3485.7-365.5,3484.9z"/>
		<path class="st2" d="M-348.5,3487.9c0.3-0.4,0.8-1,1.5-1.6c0.1-0.1,0.2-0.2,0.3-0.2c0.1,0,0.2,0,0.3,0.1c1.3,0.7,2.6,1.7,4,3
			c0.1,0.1,0.2,0.2,0.2,0.3s0,0.2-0.1,0.3c-0.5,0.6-0.9,1.1-1.3,1.6c-0.1,0.1-0.2,0.2-0.3,0.2c-0.1,0-0.2-0.1-0.3-0.2
			C-345.5,3490-347,3488.9-348.5,3487.9z M-348.1,3498.4c1.1-0.3,2.1-0.7,2.8-1c1.4-0.7,2.5-1.3,3.4-1.9c0.8-0.5,1.7-1.2,2.7-2
			c1.4-1.1,2.5-2.1,3.4-3c0.8-0.8,1.6-1.7,2.4-2.8c0.1,0.9,0.3,1.7,0.6,2.5c0.1,0.2,0.1,0.3,0.1,0.4c0,0.2-0.1,0.4-0.3,0.6
			c-1.2,1.4-2.8,2.9-4.8,4.5c-1.7,1.4-3.8,2.7-6.3,4.1c-0.7,0.4-1.2,0.8-1.4,1c-0.1,0.1-0.3,0.2-0.4,0.2s-0.2-0.1-0.4-0.2
			C-347,3500-347.6,3499.2-348.1,3498.4z"/>
		<path class="st2" d="M-323.6,3490.2c2.6,0.8,4.9,1.8,6.7,2.9c0.2,0.1,0.3,0.2,0.3,0.4c0,0.1,0,0.1,0,0.2c-0.3,0.7-0.6,1.3-0.9,1.8
			c-0.1,0.2-0.2,0.2-0.3,0.2c-0.1,0-0.2,0-0.2-0.1c-2-1.3-3.8-2.2-5.5-2.7v4.6c0,0.8,0,2.1,0.1,4.1c0,0,0,0,0,0.1
			c0,0.2-0.1,0.3-0.4,0.3c-0.3,0-0.6,0-0.9,0c-0.3,0-0.6,0-0.9,0c-0.3,0-0.4-0.1-0.4-0.3c0.1-1.4,0.1-2.7,0.1-4.1v-10.3
			c0-1.3-0.1-2.3-0.2-3.1c1.2,0.1,2.1,0.2,2.6,0.3c0.3,0.1,0.4,0.2,0.4,0.4c0,0.1-0.1,0.3-0.2,0.5c-0.1,0.2-0.1,0.8-0.1,2V3490.2z"
			/>
	</g>
	<path id="パス_60" class="st3" d="M-392.9,3395.4l3-7.7l5.7-6l9.1-1.3l9.2,1.3l10.6-1.3l11.1,1.3l7.5,10.9v12.6l-4.5,12.6
		l-11.1,7.9l-16,2.1l-13-4.7l-8.5-10.8L-392.9,3395.4z"/>
	<g id="インプラントのアイコン2" transform="translate(-469.098 3377.211)">
		<path id="パス_55" class="st4" d="M134.2,11.8c-1.4-3.2-3.6-6-6.5-8.1c-3.4-2.5-7.4-3.8-11.6-3.8c-2.4,0-4.8,0.4-7.1,1
			c-1,0.2-1.8,0.5-2.5,0.6c-0.5,0.1-0.9,0.2-1.4,0.2c-0.5,0-1-0.1-1.4-0.2C101.6,1.2,98.2,0,94.1,0C90,0,85.9,1.3,82.5,3.8
			c-2.9,2-5.1,4.8-6.5,8.1c-1.3,3.2-2,6.6-1.9,10c0.1,8.1,2.9,16,7.8,22.4c3.2,3.9,7.6,6.7,12.5,7.9c3.5,0.9,7.1,1.3,10.7,1.3
			c3.6,0.1,7.2-0.4,10.7-1.3c4.9-1.2,9.3-4,12.5-7.9c5-6.4,7.7-14.3,7.8-22.4C136.2,18.4,135.5,15,134.2,11.8z M123.9,40.9
			c-2.5,3-5.9,5.1-9.6,6c-3,0.8-6.1,1.1-9.2,1.1c-3.1,0.1-6.2-0.3-9.2-1.1c-3.8-0.9-7.2-3-9.6-6c-4.2-5.5-6.6-12.2-6.7-19.1
			c0-2.7,0.5-5.4,1.5-7.9c1-2.3,2.6-4.3,4.6-5.8c2.4-1.8,5.4-2.8,8.4-2.8c1.9,0,3.8,0.3,5.7,0.9c0.9,0.2,1.8,0.5,2.6,0.7
			c0.9,0.2,1.8,0.3,2.7,0.4c0.9,0,1.8-0.1,2.7-0.4c2.6-0.6,5.3-1.5,8.3-1.5c3,0,5.9,1,8.4,2.8c2.1,1.4,3.7,3.4,4.6,5.8
			c1,2.5,1.5,5.2,1.5,7.9C130.5,28.8,128.1,35.5,123.9,40.9z"/>
		<path id="パス_56" class="st4" d="M94.6,59.1h-2.5l2.5,6.1h21.3l2.5-6.1H94.6z"/>
		<path id="パス_57" class="st4" d="M97.8,89.6h15.1l1.8-4.1H96L97.8,89.6z"/>
		<path id="パス_58" class="st4" d="M95.4,68.1l-2.3,2.8l2.3,2.8h19.7l2.3-2.8l-2.3-2.8H95.4z"/>
		<path id="パス_59" class="st4" d="M95.4,77.3l-2.3,2.8l2.3,2.8h19.7l2.3-2.8l-2.3-2.8H95.4z"/>
	</g>
	<path id="パス_81" class="st5" d="M-354.7,3390.3c-0.1-0.5-0.7-0.9-1.3-0.7c-3.3,0.9-5.7,1.2-8,1.8c-2.3-0.6-4.7-0.9-8-1.8
		c-0.5-0.2-1.1,0.1-1.3,0.7c-0.2,0.5,0.1,1.1,0.7,1.3c0,0,0,0,0.1,0c1.9,0.5,3.4,0.8,4.8,1.1c-1.8,0.9-3.5,1.9-5.1,3.1
		c-0.5,0.3-0.6,1-0.2,1.4c0.3,0.5,1,0.6,1.4,0.2l0,0c2.3-1.8,4.9-3.1,7.7-3.9c2.8,0.8,5.4,2.1,7.7,3.9c0.4,0.3,1.1,0.3,1.4-0.2
		c0.3-0.4,0.3-1.1-0.2-1.4c0,0,0,0,0,0c-1.6-1.2-3.3-2.2-5.2-3.1c1.4-0.3,2.9-0.6,4.8-1.1C-354.9,3391.5-354.6,3390.9-354.7,3390.3z
		"/>
</g>
</svg>
