<?xml version="1.0" encoding="utf-8"?>
<!-- Generator: Adobe Illustrator 26.0.2, SVG Export Plug-In . SVG Version: 6.00 Build 0)  -->
<svg version="1.1" id="レイヤー_1" xmlns="http://www.w3.org/2000/svg" xmlns:xlink="http://www.w3.org/1999/xlink" x="0px"
	 y="0px" viewBox="0 0 200 200" style="enable-background:new 0 0 200 200;" xml:space="preserve">
<style type="text/css">
	.st0{fill:#F0F5F8;}
	.st1{enable-background:new    ;}
	.st2{fill:#06438D;}
	.st3{fill:#FFFFFF;}
	.st4{fill:#3F536B;}
</style>
<g id="グループ_117" transform="translate(709 -3587)">
	<path id="長方形_61" class="st0" d="M-689,3587h160c11,0,20,9,20,20v160c0,11-9,20-20,20h-160c-11,0-20-9-20-20v-160
		C-709,3596-700,3587-689,3587z"/>
	<g class="st1">
		<path class="st2" d="M-647,3743.1l-2.8,0c-0.1,0-0.2,0-0.2,0c0,0,0-0.1,0-0.2v-1.5c0-0.1,0-0.2,0-0.2s0.1,0,0.2,0l2.2,0v-2.8h-0.6
			l-2.6,0.1c-0.1,0-0.2-0.1-0.2-0.2v-1.5c0-0.2,0.1-0.2,0.2-0.2l2.6,0h0.6v-2.1c-0.3,0.3-0.7,0.7-1.1,1c-0.2,0.2-0.4,0.3-0.5,0.3
			c-0.1,0-0.2-0.1-0.5-0.4c-0.3-0.4-0.6-0.7-0.9-0.9c1.5-1,2.7-2.3,3.7-3.9c0.2-0.4,0.4-0.9,0.5-1.3c0.6,0.1,1.2,0.3,1.8,0.5
			c0.2,0.1,0.3,0.2,0.3,0.3c0,0.1-0.1,0.2-0.2,0.3c-0.1,0.1-0.3,0.3-0.5,0.6c-0.3,0.4-0.5,0.8-0.7,1h9.5l2.9,0c0.1,0,0.2,0,0.2,0
			c0,0,0,0.1,0,0.2v1.5c0,0.1,0,0.2-0.1,0.2c0,0-0.1,0-0.2,0c0,0-0.1,0-0.3,0c-0.5,0-1,0-1.7,0v2.7h0.3l2.6,0c0.1,0,0.2,0.1,0.2,0.2
			v1.5c0,0.2-0.1,0.2-0.2,0.2l-2.6-0.1h-0.3v2.8l2.1,0c0.1,0,0.2,0,0.2,0c0,0,0,0.1,0,0.2v1.5c0,0.1,0,0.2,0,0.2c0,0-0.1,0-0.2,0
			l-2.8,0H-647z M-648.2,3743.8c0-0.1,0.1-0.2,0.2-0.2c0,0,0.1,0,0.3,0.1l1.2,0.5c0.2,0.1,0.2,0.1,0.2,0.2c0,0,0,0.1-0.1,0.2
			c-0.6,1.3-1.4,2.6-2.5,3.7c-0.1,0.1-0.1,0.1-0.2,0.1c0,0-0.1,0-0.3-0.1l-1.2-0.8c-0.1-0.1-0.2-0.2-0.2-0.2c0,0,0-0.1,0.1-0.2
			C-649.5,3746.1-648.7,3745-648.2,3743.8z M-645.6,3736.5h1.6v-2.7h-1.6V3736.5z M-645.6,3741.2h1.6v-2.8h-1.6V3741.2z
			 M-643.2,3744.1c0.1,0,0.1,0,0.2,0c0.1,0,0.2,0.1,0.2,0.2c0.2,0.9,0.4,2.1,0.5,3.5c0,0,0,0.1,0,0.1c0,0.1-0.1,0.2-0.3,0.2
			l-1.5,0.1c-0.1,0-0.2,0-0.2,0c-0.1,0-0.2-0.1-0.2-0.2c0-1.3-0.1-2.5-0.4-3.5c0-0.1,0-0.1,0-0.1c0-0.1,0.1-0.2,0.3-0.2
			L-643.2,3744.1z M-642.2,3736.5h1.7v-2.7h-1.7V3736.5z M-642.2,3741.2h1.7v-2.8h-1.7V3741.2z M-638.8,3744.2
			c0.4,1,0.8,2.1,1.1,3.3c0,0.1,0,0.1,0,0.1c0,0.1-0.1,0.2-0.3,0.2l-1.5,0.3c-0.1,0-0.2,0-0.2,0c-0.1,0-0.1-0.1-0.2-0.2
			c-0.2-1.4-0.5-2.5-0.9-3.4c0-0.1,0-0.1,0-0.2c0-0.1,0.1-0.1,0.3-0.2l1.3-0.3c0.1,0,0.1,0,0.2,0
			C-638.9,3744-638.8,3744.1-638.8,3744.2z M-638.7,3736.5h1.7v-2.7h-1.7V3736.5z M-638.7,3741.2h1.7v-2.8h-1.7V3741.2z
			 M-634.7,3743.7c0.9,1.1,1.7,2.2,2.3,3.3c0,0.1,0.1,0.1,0.1,0.2c0,0.1-0.1,0.1-0.3,0.2l-1.3,0.7c-0.1,0-0.2,0.1-0.2,0.1
			c-0.1,0-0.1-0.1-0.2-0.2c-0.6-1.3-1.3-2.4-2.1-3.5c0-0.1-0.1-0.1-0.1-0.1c0,0,0.1-0.1,0.2-0.2l1.2-0.6c0.1-0.1,0.2-0.1,0.2-0.1
			C-634.9,3743.6-634.8,3743.6-634.7,3743.7z"/>
		<path class="st2" d="M-625.4,3729.4c0.8,0,1.5,0.1,2.1,0.1c0.2,0,0.3,0.1,0.3,0.2c0,0.1,0,0.2-0.1,0.4c-0.1,0.2-0.1,0.9-0.1,2.1
			v3.9h0.2l2.3,0c0.1,0,0.2,0,0.2,0c0,0,0,0.1,0,0.2v1.5c0,0.1-0.1,0.2-0.2,0.2l-2.1,0c0.8,1.3,1.7,2.5,2.8,3.6
			c-0.3,0.4-0.6,0.8-0.8,1.4c-0.1,0.3-0.2,0.4-0.3,0.4s-0.2-0.1-0.3-0.3c-0.7-1-1.3-2-1.7-3l0.1,8.2c0,0.1,0,0.2-0.1,0.2
			c0,0-0.1,0-0.2,0h-1.7c-0.1,0-0.2,0-0.2,0s0-0.1,0-0.2c0-0.1,0-0.5,0-1.3c0.1-2.4,0.1-4.6,0.1-6.4c-0.7,1.8-1.5,3.3-2.5,4.8
			c-0.2,0.2-0.3,0.3-0.4,0.3c-0.1,0-0.2-0.1-0.2-0.4c-0.2-0.7-0.5-1.2-0.8-1.5c1.5-1.7,2.6-3.7,3.4-5.8h-0.4l-2.3,0
			c-0.2,0-0.2-0.1-0.2-0.2v-1.5c0-0.1,0-0.2,0-0.2s0.1,0,0.2,0l2.3,0h0.9v-3.9C-625.2,3731.2-625.3,3730.2-625.4,3729.4z
			 M-626.8,3731.1c0.5,1.1,0.9,2.3,1.1,3.5c0,0,0,0.1,0,0.1c0,0.1-0.1,0.2-0.3,0.3l-0.9,0.3c-0.1,0-0.2,0.1-0.3,0.1
			c-0.1,0-0.1-0.1-0.1-0.2c-0.2-1.2-0.6-2.4-1.1-3.5c0-0.1,0-0.1,0-0.2c0-0.1,0.1-0.1,0.3-0.2l0.9-0.4c0.1,0,0.2-0.1,0.2-0.1
			C-627,3730.9-626.9,3730.9-626.8,3731.1z M-622.8,3734.8c0.4-1,0.7-2.1,1-3.2c0.1-0.3,0.1-0.6,0.1-0.9c0.8,0.3,1.4,0.5,1.6,0.6
			c0.2,0.1,0.2,0.2,0.2,0.3c0,0.1,0,0.2-0.1,0.2c-0.1,0.1-0.2,0.2-0.3,0.5c-0.2,0.8-0.5,1.6-1,2.7c-0.1,0.3-0.2,0.4-0.3,0.4
			c-0.1,0-0.2-0.1-0.4-0.2C-622.2,3735-622.5,3734.9-622.8,3734.8z M-617.4,3741.8l3.2-0.6v-8.4c0-1.3-0.1-2.4-0.2-3.2
			c0.8,0,1.6,0.1,2.2,0.1c0.2,0,0.3,0.1,0.3,0.2c0,0.1,0,0.2-0.1,0.4c-0.1,0.2-0.1,1-0.1,2.3v8c0.5-0.1,1-0.2,1.4-0.3
			c0.1,0,0.2,0,0.3-0.1c0.1,0,0.1,0,0.2,0c0.1,0,0.1,0,0.1,0c0.1,0,0.1,0.1,0.1,0.2l0.2,1.6c0,0.1,0,0.1,0,0.1
			c0,0.1-0.1,0.1-0.2,0.1c0,0-0.3,0.1-0.7,0.1c-0.5,0.1-1,0.2-1.5,0.3v2l0,3.6c0,0.1,0,0.2,0,0.2c0,0-0.1,0-0.2,0h-1.7
			c-0.1,0-0.2,0-0.2-0.1c0,0,0-0.1,0-0.2l0-3.6v-1.6l-2.9,0.6c-0.8,0.2-1.5,0.3-2,0.4c-0.1,0-0.3,0.1-0.5,0.1c-0.1,0-0.2,0-0.2,0
			c-0.1,0-0.1,0-0.1,0c-0.1,0-0.1-0.1-0.1-0.2l-0.3-1.7c0-0.1,0-0.1,0-0.1c0-0.1,0.1-0.1,0.2-0.1c0,0,0.2,0,0.4-0.1
			C-619.1,3742.1-618.3,3741.9-617.4,3741.8z M-618.4,3735.8c1.1,0.8,2.1,1.6,2.9,2.7c0.1,0.1,0.1,0.2,0.1,0.2c0,0-0.1,0.1-0.2,0.2
			l-1,1c-0.1,0.1-0.2,0.2-0.2,0.2c0,0-0.1,0-0.2-0.1c-0.9-1.1-1.8-2.1-2.8-2.9c-0.1-0.1-0.1-0.2-0.1-0.2c0,0,0.1-0.1,0.2-0.2l1-0.9
			c0.1-0.1,0.2-0.2,0.2-0.2S-618.5,3735.7-618.4,3735.8z M-617.9,3730.9c1.2,0.9,2.2,1.7,3,2.7c0.1,0.1,0.1,0.1,0.1,0.2
			c0,0.1-0.1,0.1-0.2,0.2l-1,1c-0.1,0.1-0.2,0.2-0.3,0.2s-0.1,0-0.1-0.1c-0.8-1.1-1.8-2-2.9-2.8c-0.1,0-0.1-0.1-0.1-0.2
			c0-0.1,0.1-0.1,0.2-0.2l0.9-0.9c0.1-0.1,0.2-0.2,0.2-0.2C-618,3730.8-617.9,3730.9-617.9,3730.9z"/>
		<path class="st2" d="M-587.4,3745.7c-0.3,0.4-0.5,0.9-0.6,1.6c-0.1,0.3-0.1,0.5-0.2,0.6c-0.1,0.1-0.3,0.1-0.6,0.1
			c-2.3,0.1-4.7,0.2-7.4,0.2c-2.3,0-4-0.2-4.9-0.6c-0.8-0.3-1.5-1-2.1-1.9c-0.7,0.6-1.4,1.3-2.2,1.9c-0.2,0.2-0.3,0.3-0.4,0.4
			c-0.1,0.1-0.2,0.2-0.3,0.2s-0.2-0.1-0.3-0.3c-0.2-0.4-0.5-1.1-0.9-2c0.6-0.3,1-0.5,1.2-0.7c0.5-0.3,1.1-0.8,1.8-1.3v-4.7h-1
			l-1.5,0.1c-0.1,0-0.2,0-0.2-0.1c0,0,0-0.1,0-0.2v-1.6c0-0.1,0-0.2,0-0.2c0,0,0.1,0,0.2,0l1.5,0h1.3l1.6,0c0.1,0,0.2,0,0.2,0
			c0,0,0,0.1,0,0.2l0,2v4.4c0.4,0.9,1,1.4,1.7,1.7c0.7,0.3,2,0.4,3.9,0.4C-593.3,3746.1-590.3,3746-587.4,3745.7z M-604.6,3730.1
			c1,0.9,1.8,1.9,2.6,3.1c0,0.1,0.1,0.1,0.1,0.2c0,0.1-0.1,0.2-0.2,0.2l-1.2,1c-0.1,0.1-0.2,0.1-0.2,0.1c-0.1,0-0.1,0-0.2-0.1
			c-0.8-1.3-1.7-2.4-2.6-3.3c-0.1-0.1-0.1-0.1-0.1-0.2c0-0.1,0.1-0.1,0.2-0.2l1.1-0.8c0.1-0.1,0.2-0.1,0.3-0.1
			C-604.8,3730-604.7,3730.1-604.6,3730.1z M-597.8,3739.2l-2.8,0c-0.1,0-0.2,0-0.2,0s0-0.1,0-0.2v-1.5c0-0.1,0-0.2,0-0.2
			c0,0,0.1,0,0.2,0l2.8,0h1.8c0-0.4,0.1-0.9,0.1-1.4c0-0.3,0-0.6,0-1h-1.5l-2.8,0c-0.1,0-0.2,0-0.2,0c0,0,0-0.1,0-0.2v-1.5
			c0-0.1,0-0.2,0-0.2c0,0,0.1,0,0.2,0l2.5,0c-0.4-1-0.9-1.8-1.4-2.5c0-0.1-0.1-0.1-0.1-0.2c0-0.1,0.1-0.1,0.2-0.2l1.4-0.6
			c0.1,0,0.2-0.1,0.2-0.1c0.1,0,0.1,0.1,0.2,0.2c0.5,0.6,0.9,1.4,1.4,2.3c0,0.1,0,0.1,0,0.2c0,0.1-0.1,0.2-0.3,0.2l-1.6,0.6h3.1
			c0.6-1,1-1.8,1.3-2.4c0.1-0.3,0.3-0.7,0.4-1.2c0.7,0.1,1.4,0.3,2.2,0.6c0.2,0.1,0.3,0.2,0.3,0.3c0,0.1-0.1,0.3-0.3,0.4
			c-0.1,0.1-0.3,0.2-0.4,0.5c-0.4,0.7-0.8,1.3-1.1,1.8h0.2l2.8,0c0.1,0,0.2,0,0.2,0.1c0,0,0,0.1,0,0.2v1.5c0,0.1,0,0.2,0,0.2
			c0,0-0.1,0-0.2,0l-2.8,0h-2c0,1.1-0.1,1.9-0.1,2.4h2.5l2.8,0c0.1,0,0.2,0,0.2,0c0,0,0,0.1,0,0.2v1.5c0,0.1,0,0.2,0,0.2
			c0,0-0.1,0-0.2,0l-2.8,0h-2.2c1.1,1.9,3,3.3,5.6,4c-0.4,0.5-0.6,1-0.8,1.5c-0.1,0.4-0.3,0.6-0.4,0.6c-0.1,0-0.3,0-0.5-0.1
			c-2.2-0.8-3.9-2.2-5.1-4.3c-0.7,1.7-2.2,3.1-4.5,4.2c-0.3,0.1-0.4,0.2-0.5,0.2c-0.1,0-0.2-0.2-0.4-0.5c-0.2-0.4-0.6-0.8-1-1.2
			c1.5-0.6,2.7-1.2,3.4-1.9c0.7-0.6,1.2-1.4,1.5-2.4H-597.8z"/>
		<path class="st2" d="M-565.3,3745.7c-0.3,0.4-0.5,1-0.6,1.6c-0.1,0.3-0.1,0.6-0.2,0.6c-0.1,0.1-0.3,0.1-0.6,0.1
			c-2.3,0.1-4.7,0.2-7.3,0.2c-2.3,0-3.9-0.2-4.9-0.6c-0.9-0.4-1.7-1-2.1-1.9c-0.6,0.5-1.3,1.1-2.1,1.8c-0.2,0.1-0.4,0.3-0.4,0.4
			c-0.1,0.1-0.2,0.2-0.3,0.2c-0.1,0-0.2-0.1-0.3-0.3c-0.2-0.5-0.5-1.1-0.8-1.9c0.5-0.2,0.9-0.5,1.2-0.7c0.5-0.3,1.1-0.8,1.6-1.3
			v-4.7h-0.9l-1.5,0c-0.1,0-0.2,0-0.2,0c0,0,0-0.1,0-0.2v-1.6c0-0.1,0-0.2,0.1-0.2c0,0,0.1,0,0.2,0l1.5,0h1.2l1.5,0
			c0.1,0,0.2,0,0.2,0c0,0,0,0.1,0,0.2l0,2v4.5c0.4,0.8,1,1.4,1.8,1.7c0.7,0.3,2,0.4,4,0.4C-571.4,3746.1-568.4,3746-565.3,3745.7z
			 M-582.6,3730.1c1,1,1.9,2,2.6,3.1c0,0.1,0.1,0.1,0.1,0.2c0,0.1-0.1,0.1-0.2,0.2l-1.1,0.9c-0.1,0.1-0.2,0.1-0.3,0.1
			c0,0-0.1,0-0.2-0.1c-0.7-1.2-1.6-2.3-2.6-3.3c-0.1-0.1-0.1-0.1-0.1-0.2c0-0.1,0.1-0.1,0.2-0.2l1.1-0.8c0.1-0.1,0.2-0.1,0.2-0.1
			C-582.8,3730-582.7,3730-582.6,3730.1z M-570.7,3741.1c0.4,0.1,0.8,0.1,1.2,0.1c0.3,0,0.5-0.1,0.6-0.2c0.1-0.1,0.1-0.3,0.1-0.6v-7
			h-2.5v9.1l0,2.9c0,0.1,0,0.2,0,0.2c0,0-0.1,0-0.2,0h-1.7c-0.1,0-0.2,0-0.2,0c0,0,0-0.1,0-0.2l0.1-3v-7.7l-0.1-3
			c-0.1,0.1-0.1,0.1-0.2,0.1c-1,0.6-2,1.1-3,1.5v7.7c0.7-0.3,1.6-0.7,2.5-1.1c0,0.4-0.1,0.9-0.1,1.5c0,0.2,0,0.4-0.1,0.5
			c-0.1,0.1-0.2,0.2-0.5,0.3c-1.2,0.6-2.3,1.1-3.4,1.6c-0.3,0.1-0.5,0.2-0.6,0.3c-0.1,0.1-0.2,0.1-0.3,0.1s-0.2-0.1-0.3-0.2
			c-0.2-0.6-0.4-1.3-0.6-2c0.4-0.1,0.7-0.1,1.2-0.2v-7.4c0-1.4,0-2.5-0.1-3.1c0.5,0.1,1.1,0.2,1.5,0.4c0.7-0.3,1.5-0.7,2.2-1.1
			c0.5-0.3,0.9-0.6,1.2-0.9c0.5,0.3,1,0.7,1.5,1.2c0.1,0.1,0.2,0.2,0.2,0.3c0,0.1-0.1,0.2-0.4,0.2c-0.2,0.1-0.3,0.1-0.4,0.2
			c0.3,0,0.9,0,1.9,0h2.2l2,0c0.2,0,0.2,0.1,0.2,0.2l0,2.8v3.1l0.1,3.1c0,0.9-0.2,1.5-0.5,1.9c-0.4,0.5-1.2,0.7-2.4,0.7
			c-0.3,0-0.5,0-0.6-0.1c0-0.1-0.1-0.2-0.2-0.6C-570.3,3742-570.4,3741.5-570.7,3741.1z"/>
	</g>
	<path id="パス_80" class="st3" d="M-648.9,3691.5l1.3-16.1l6.5-12.6l9.4-17.6l3.9-1.3h37.4l3.8,2.6l9.6,18.7l6.4,10.2l1.5,16.1
		l-8.4,5.2h-65.7L-648.9,3691.5z"/>
	<g id="タクシーの無料アイコン4" transform="translate(-656 3611.611)">
		<path id="パス_70" class="st4" d="M6.2,56.6c0.4-0.9,1.2-2.4,2.6-5.1c0.6-1.2,1.4-2.6,2.1-3.9H4.5c-2.5,0-4.5,2-4.5,4.5
			s2,4.5,4.5,4.5L6.2,56.6z"/>
		<path id="パス_71" class="st4" d="M88.5,47.6h-6.5c0.7,1.4,1.5,2.7,2.1,3.9c1.4,2.6,2.2,4.1,2.6,5.1h1.7c2.5,0,4.5-2,4.5-4.5
			S91,47.6,88.5,47.6L88.5,47.6z"/>
		<path id="パス_72" class="st4" d="M7.2,95.6c0,3.3,2.7,6.1,6.1,6.1s6.1-2.7,6.1-6.1v-5.7H7.2V95.6z"/>
		<path id="パス_73" class="st4" d="M73.8,95.6c0,3.3,2.7,6.1,6.1,6.1s6.1-2.7,6.1-6.1v-5.7H73.8V95.6z"/>
		<path id="パス_74" class="st4" d="M85,57.7c0.3,0.1-11.2-21-11.8-22.2c-1.4-3-5-4.8-8.5-4.8H28.3c-3.5,0-7.1,1.8-8.5,4.9
			C19.2,36.7,7.7,57.8,8,57.8c0,0-3.7,3.7-4,4c-1.6,1.7-1.5,3.1-1.5,4.6v16.8c0,3.1,0.6,4.9,4.3,4.9h79.4c3.7,0,4.3-1.7,4.3-4.9
			V66.4c0-1.5,0.1-2.9-1.5-4.6C88.7,61.5,85,57.7,85,57.7z M17.5,51.3c0,0,7.4-13.3,7.8-14.2c0.7-1.5,2.9-2.6,5.1-2.6h32.2
			c2.2,0,4.3,1.1,5.1,2.6c0.4,0.9,7.8,14.2,7.8,14.2c0.7,1.2,0.1,3.5-1.9,3.5H19.5C17.5,54.8,16.9,52.5,17.5,51.3L17.5,51.3z
			 M16.6,80.9c-3.8,0-6.8-3-6.8-6.8c0-3.8,3-6.8,6.8-6.8s6.8,3,6.8,6.8c0,0,0,0,0,0C23.4,77.8,20.3,80.9,16.6,80.9L16.6,80.9z
			 M56.8,82.7c0,0.5-0.4,0.9-0.9,0.9H37.1c-0.5,0-0.9-0.4-0.9-0.9v-8.3c0-0.5,0.4-0.9,0.9-0.9h18.8c0.5,0,0.9,0.4,0.9,0.9L56.8,82.7
			L56.8,82.7z M76.5,80.9c-3.8,0-6.8-3-6.8-6.8c0-3.8,3-6.8,6.8-6.8c3.8,0,6.8,3,6.8,6.8c0,0,0,0,0,0C83.3,77.8,80.2,80.9,76.5,80.9
			L76.5,80.9z"/>
		<path id="パス_75" class="st4" d="M27.8,20c0-1.8,1.5-3.3,3.3-3.3h30.8c1.8,0,3.3,1.5,3.3,3.3v8.9h3.2V20c0-3.6-2.9-6.5-6.5-6.5
			H31.1c-3.6,0-6.5,2.9-6.5,6.5v8.9h3.2L27.8,20z"/>
		<path id="パス_76" class="st4" d="M35.5,27.9h1.6c0.1,0,0.1,0,0.1-0.1c0,0,0,0,0,0v-6.5c0,0,0-0.1,0.1-0.1c0,0,0,0,0,0h2.2
			c0.1,0,0.1,0,0.1-0.1c0,0,0,0,0,0v-1.4c0-0.1-0.1-0.1-0.1-0.1c0,0,0,0,0,0h-6.4c-0.1,0-0.1,0-0.1,0.1c0,0,0,0,0,0v1.4
			c0,0.1,0,0.1,0.1,0.1c0,0,0,0,0,0h2.2c0,0,0.1,0,0.1,0.1c0,0,0,0,0,0v6.5C35.3,27.9,35.4,27.9,35.5,27.9
			C35.4,27.9,35.5,27.9,35.5,27.9z"/>
		<path id="パス_77" class="st4" d="M43.1,19.6c-0.1,0-0.1,0-0.2,0.1l-3,8.1c0,0.1,0,0.1,0.1,0.1h1.7c0.1,0,0.1,0,0.2-0.1l0.5-1.5
			h3l0.5,1.5c0,0.1,0.1,0.1,0.2,0.1h1.7c0.1,0,0.1,0,0.1-0.1l-2.9-8.1c0-0.1-0.1-0.1-0.2-0.1H43.1z M44.9,24.8h-2l1-2.9h0L44.9,24.8
			z"/>
		<path id="パス_78" class="st4" d="M49,27.9h1.8c0.1,0,0.2,0,0.2-0.1l1.5-2.5h0l1.5,2.5c0,0.1,0.1,0.1,0.2,0.1h1.8
			c0.1,0,0.1-0.1,0.1-0.1l-2.6-4.2l2.4-3.9c0-0.1,0-0.1-0.1-0.1h-1.8c-0.1,0-0.2,0-0.2,0.1L52.6,22h0l-1.4-2.3
			c0-0.1-0.1-0.1-0.2-0.1h-1.8c-0.1,0-0.1,0.1-0.1,0.1l2.4,3.9L49,27.8C48.9,27.8,48.9,27.9,49,27.9C49,27.9,49,27.9,49,27.9z"/>
		<path id="パス_79" class="st4" d="M58.2,19.7v8.1c0,0.1,0,0.1,0.1,0.1c0,0,0,0,0,0H60c0.1,0,0.1,0,0.1-0.1c0,0,0,0,0,0v-8.1
			c0-0.1,0-0.1-0.1-0.1c0,0,0,0,0,0h-1.6C58.3,19.6,58.2,19.6,58.2,19.7C58.2,19.7,58.2,19.7,58.2,19.7z"/>
	</g>
</g>
</svg>
