<?xml version="1.0" encoding="utf-8"?>
<!-- Generator: Adobe Illustrator 26.0.2, SVG Export Plug-In . SVG Version: 6.00 Build 0)  -->
<svg version="1.1" id="レイヤー_1" xmlns="http://www.w3.org/2000/svg" xmlns:xlink="http://www.w3.org/1999/xlink" x="0px"
	 y="0px" viewBox="0 0 200 200" style="enable-background:new 0 0 200 200;" xml:space="preserve">
<style type="text/css">
	.st0{fill:#F0F5F8;}
	.st1{enable-background:new    ;}
	.st2{fill:#06438D;}
	.st3{fill:#FFFFFF;}
	.st4{fill:#3F536B;}
	.st5{fill:#FAA49B;}
</style>
<g id="グループ_112" transform="translate(1199 -3341)">
	<path id="長方形_55" class="st0" d="M-1179,3341h160c11,0,20,9,20,20v160c0,11-9,20-20,20h-160c-11,0-20-9-20-20v-160
		C-1199,3350-1190,3341-1179,3341z"/>
	<g class="st1">
		<path class="st2" d="M-1137.9,3489.7l-2.6,0c-0.1,0-0.2,0-0.2,0s0-0.1,0-0.2v-1.5c0-0.1,0-0.2,0-0.2c0,0,0.1,0,0.2,0l2.6,0h0.5
			v-1.2c0-1.1-0.1-1.9-0.2-2.3c0.9,0,1.6,0.1,2.3,0.2c0.2,0,0.4,0.1,0.4,0.2c0,0.1,0,0.3-0.1,0.4c-0.1,0.1-0.1,0.5-0.1,1.1v1.5h2.8
			v-2.2c0-1.1,0-1.9-0.1-2.4c0.8,0,1.6,0.1,2.2,0.2c0.2,0,0.3,0.1,0.3,0.2c0,0.1,0,0.2-0.1,0.4c-0.1,0.1-0.1,0.4-0.1,0.9h3.2l2.6,0
			c0.1,0,0.2,0.1,0.2,0.2v1.4c0,0.2-0.1,0.2-0.2,0.2l-2.6,0h-3.2v1.2h5.1l2.6,0c0.1,0,0.2,0,0.2,0s0,0.1,0,0.2v1.5
			c0,0.1,0,0.2,0,0.2c0,0-0.1,0-0.2,0l-2.6,0H-1137.9z M-1125.5,3490.7c0.8,0,1.6,0.1,2.2,0.2c0.2,0,0.3,0.1,0.3,0.2
			c0,0.1,0,0.2-0.1,0.4c-0.1,0.2-0.1,0.6-0.1,1.4v6.1l0,3.4c0,0.1,0,0.2,0,0.2s-0.1,0-0.2,0h-1.7c-0.1,0-0.2,0-0.2,0
			c0,0,0-0.1,0-0.2v-0.8h-12.2v0.8c0,0.1,0,0.2,0,0.2c0,0-0.1,0-0.2,0h-1.7c-0.1,0-0.2,0-0.2,0s0-0.1,0-0.2l0-3.3v-6.2
			c0-0.8,0-1.6-0.1-2.2c0.8,0,1.6,0.1,2.2,0.2c0.2,0,0.3,0.1,0.3,0.2c0,0.1,0,0.2-0.1,0.4c-0.1,0.2-0.1,0.6-0.1,1.4v6.9h12.2v-6.9
			C-1125.4,3491.9-1125.5,3491.2-1125.5,3490.7z M-1133.9,3495.1l-2.6,0c-0.1,0-0.2-0.1-0.2-0.2v-1.1c0-0.2,0.1-0.2,0.2-0.2l2.6,0
			h1.4v-1c0-0.6,0-1.4-0.1-2.3c0.7,0,1.3,0.1,1.8,0.1c0.2,0,0.3,0.1,0.3,0.2c0,0,0,0.2-0.1,0.5c-0.1,0.2-0.1,0.7-0.1,1.5v1h1.5
			l2.7,0c0.1,0,0.2,0.1,0.2,0.2v1.1c0,0.2-0.1,0.2-0.2,0.2l-2.7,0h-0.6c0.9,1,2.2,1.8,3.9,2.3c-0.3,0.3-0.6,0.6-0.8,1.1
			c-0.2,0.3-0.3,0.4-0.4,0.4c-0.1,0-0.2-0.1-0.5-0.2c-1.4-0.8-2.5-1.6-3.2-2.7c0,0.5,0,1.2,0.1,2c0,0.5,0,0.9,0,0.9
			c0,0.1,0,0.2,0,0.2c0,0-0.1,0-0.2,0h-1.5c-0.1,0-0.2,0-0.2,0s0-0.1,0-0.2c0,0,0-0.4,0-1.1c0-0.7,0-1.3,0-1.8
			c-0.8,1.1-1.9,2-3.1,2.7c-0.3,0.1-0.5,0.2-0.5,0.2c-0.1,0-0.2-0.1-0.4-0.4c-0.2-0.4-0.5-0.7-0.8-0.9c1.6-0.6,2.9-1.5,3.8-2.5
			H-1133.9z M-1134.5,3490.6c0.3,0.4,0.7,1,1,1.8c0,0.1,0.1,0.1,0.1,0.2c0,0.1-0.1,0.1-0.2,0.2l-1,0.5c-0.1,0.1-0.2,0.1-0.2,0.1
			c-0.1,0-0.2-0.1-0.2-0.2c-0.3-0.7-0.7-1.3-1-1.8c0-0.1-0.1-0.1-0.1-0.2c0,0,0.1-0.1,0.2-0.2l1-0.5c0.1,0,0.2-0.1,0.2-0.1
			C-1134.7,3490.5-1134.6,3490.5-1134.5,3490.6z M-1129.7,3492.8c0.4-0.6,0.8-1.1,1-1.6c0.1-0.3,0.2-0.5,0.3-0.8
			c0.6,0.2,1.1,0.4,1.5,0.6c0.2,0.1,0.3,0.2,0.3,0.2c0,0.1-0.1,0.2-0.2,0.3s-0.2,0.2-0.3,0.4c-0.3,0.5-0.6,0.8-0.8,1.1
			c-0.2,0.2-0.3,0.4-0.4,0.4c-0.1,0-0.2-0.1-0.5-0.2C-1129,3493-1129.3,3492.9-1129.7,3492.8z"/>
		<path class="st2" d="M-1114.6,3492.7c0.7,0.6,1.3,1.1,1.9,1.7c0.5-1.1,0.9-2.4,1.1-3.8h-2.9c-0.7,1.5-1.6,3-3,4.5
			c-0.2,0.2-0.3,0.3-0.4,0.3c-0.1,0-0.2-0.1-0.3-0.4c-0.3-0.6-0.6-1.1-1-1.4c2-1.9,3.2-4.4,3.7-7.2h-0.1l-2.6,0c-0.1,0-0.2,0-0.2,0
			c0,0,0-0.1,0-0.2v-1.5c0-0.1,0-0.2,0-0.2c0,0,0.1,0,0.2,0l2.6,0h4.3l2.6,0c0.1,0,0.2,0,0.2,0s0,0.1,0,0.2v1.5c0,0.1,0,0.2,0,0.2
			c0,0-0.1,0-0.2,0l-2.6,0h-2c-0.1,0.9-0.3,1.7-0.5,2.3h2.1c0.3,0,0.5,0,0.6-0.1c0.1-0.1,0.2-0.1,0.3-0.1c0.2,0,0.6,0.2,1.1,0.7
			c0.4,0.4,0.6,0.7,0.6,0.8c0,0.1,0,0.2-0.1,0.3c-0.1,0.1-0.2,0.4-0.3,0.6c-0.5,2.9-1.5,5.3-2.8,7.1c-1,1.4-2.5,2.8-4.4,4.2
			c-0.3,0.2-0.4,0.3-0.5,0.3c-0.1,0-0.2-0.2-0.4-0.5c-0.3-0.5-0.7-1-1.2-1.3c2.2-1.3,3.9-2.8,5-4.4c-0.6-0.7-1.3-1.4-2.1-2
			c-0.1-0.1-0.1-0.1-0.1-0.2c0-0.1,0-0.1,0.1-0.2l0.9-1.1c0.1-0.1,0.1-0.1,0.2-0.1S-1114.7,3492.7-1114.6,3492.7z M-1107.6,3485.2
			c0.8,0,1.6,0.1,2.2,0.1c0.2,0,0.3,0.1,0.3,0.2c0,0.1,0,0.2-0.1,0.3c0,0.1-0.1,0.2-0.1,0.2c0,0.2-0.1,0.9-0.1,2.2v5.8l0,2.8
			c0,0.1,0,0.2,0,0.2c0,0-0.1,0-0.2,0h-1.8c-0.1,0-0.2,0-0.2,0s0-0.1,0-0.2l0-2.8v-5.8C-1107.5,3487.2-1107.5,3486.2-1107.6,3485.2z
			 M-1106.2,3500c0.8,0.1,1.5,0.1,2.2,0.1c0.4,0,0.6-0.1,0.7-0.2c0.1-0.1,0.2-0.3,0.2-0.6v-12.6c0-1.1-0.1-2.1-0.2-3
			c0.8,0,1.6,0.1,2.3,0.1c0.2,0,0.3,0.1,0.3,0.2c0,0.1,0,0.2-0.1,0.4c-0.1,0.2-0.1,0.9-0.1,2.1v8.9l0.1,4.2c0,0.6-0.1,1-0.2,1.3
			c-0.1,0.3-0.3,0.5-0.6,0.7c-0.3,0.2-0.7,0.3-1.1,0.4c-0.4,0.1-1.1,0.1-2,0.1c-0.3,0-0.5,0-0.6-0.1c-0.1-0.1-0.1-0.3-0.2-0.6
			C-1105.7,3500.9-1105.9,3500.4-1106.2,3500z"/>
		<path class="st2" d="M-1097.3,3489.5c1-1.4,1.7-3.1,2.1-5c0.1-0.3,0.1-0.6,0.1-1c0-0.1,0-0.1,0-0.2c0.6,0.1,1.2,0.2,1.8,0.4
			c0.3,0.1,0.4,0.2,0.4,0.3c0,0.1,0,0.2-0.1,0.3c-0.1,0.2-0.2,0.4-0.3,0.7c-0.1,0.4-0.2,0.8-0.4,1.2h1.3l1.9,0
			c0.1,0,0.2,0.1,0.2,0.2v1.5c0,0.2-0.1,0.2-0.2,0.2c0,0-0.1,0-0.4,0c-0.3,0-0.6,0-0.9,0c0,1.2-0.1,2.4-0.1,3.4l1.6,0h0.1
			c-0.2-0.2-0.3-0.4-0.4-0.5c1.4-0.6,2.5-1.3,3.4-2.2c-0.6,0-1.2,0-1.7,0l-0.5,0c-0.1,0-0.2,0-0.2-0.1c0,0,0-0.1,0-0.2v-1.2
			c0-0.1,0-0.2,0.1-0.2c0,0,0.1,0,0.2,0l2.8,0h0.5c0-0.1,0.2-0.4,0.4-1c-0.6,0.1-1.4,0.1-2.4,0.2c-0.1,0-0.2,0-0.3,0
			c-0.2,0-0.3,0-0.3-0.1c0,0-0.1-0.2-0.2-0.3c-0.2-0.4-0.4-0.8-0.7-1.1c2.7,0,5.3-0.3,7.6-0.9c0.7-0.2,1.2-0.3,1.5-0.5
			c0.4,0.3,0.8,0.6,1.2,1.1c0.2,0.2,0.2,0.3,0.2,0.4c0,0.1-0.1,0.2-0.4,0.2c-0.5,0-0.8,0.1-0.9,0.1c-1.3,0.3-2.4,0.5-3.4,0.6
			c-0.1,0.3-0.3,0.7-0.5,1.3h3.2l2.8,0c0.1,0,0.2,0,0.2,0c0,0,0,0.1,0,0.2v1.2c0,0.1,0,0.2,0,0.2c0,0-0.1,0-0.2,0l-2.8-0.1h-0.3
			c0.9,0.9,2.1,1.6,3.8,2.1c-0.2,0.3-0.5,0.8-0.6,1.3c-0.1,0.3-0.2,0.4-0.3,0.4c-0.1,0-0.3-0.1-0.5-0.2c-0.7-0.3-1.4-0.8-2.1-1.3v1
			l0,1.1c0,0.1,0,0.2-0.1,0.2c0,0-0.1,0-0.2,0l-2,0h-2.1l-2,0c-0.1,0-0.2,0-0.2,0c0,0,0-0.1,0-0.2l0-1.1v-1c-0.5,0.4-1,0.8-1.6,1.1
			c-0.3,0.2-0.4,0.3-0.5,0.3c-0.1,0-0.2-0.1-0.3-0.3c-0.3-0.5-0.4-0.7-0.4-0.7c0,0,0,0.1,0,0.2v1.5c0,0.1,0,0.2,0,0.2s-0.1,0-0.2,0
			l-1.7,0c0,0.1-0.1,0.2-0.1,0.3c0.6,1.3,1.4,2.4,2.4,3.4v-0.6l0-2.1c0-0.1,0-0.2,0-0.2s0.1,0,0.2,0l2.8,0h5.4l2.8,0
			c0.1,0,0.2,0,0.2,0c0,0,0,0.1,0,0.2l-0.1,2.3v1.4l0.1,2.4c0,0.7-0.2,1.1-0.5,1.4c-0.2,0.2-0.5,0.3-0.8,0.3
			c-0.3,0.1-0.7,0.1-1.4,0.1c-0.3,0-0.6,0-0.6-0.1c0,0-0.1-0.2-0.1-0.4c-0.1-0.4-0.2-0.6-0.3-0.9h-0.9c-0.1,0-0.2,0-0.2,0
			c0,0,0-0.1,0-0.2v-0.4h-2v0.6c0,0.1,0,0.2,0,0.2c0,0-0.1,0-0.2,0h-1.1c-0.1,0-0.2,0-0.2,0c0,0,0-0.1,0-0.2l0-2.2v-0.9l0-1.2
			c0-0.1,0-0.2,0-0.2c0,0,0.1,0,0.2,0l1.5,0.1h1.8l1.5-0.1c0.1,0,0.2,0,0.2,0c0,0,0,0.1,0,0.2l0,0.9v0.9c0,1.1,0,1.7,0,1.8h0.7
			c0.3,0,0.5-0.2,0.5-0.6v-4.1h-7.5v4.1l0,2.3c0,0.1,0,0.2-0.1,0.2c0,0-0.1,0-0.2,0h-1.5c-0.1,0-0.2,0-0.2,0c0,0,0-0.1,0-0.2l0-2.3
			v-2.5c-0.4,0.3-0.6,0.7-0.8,1c-0.2,0.3-0.3,0.4-0.4,0.4c-0.1,0-0.2-0.1-0.4-0.4c-0.5-0.7-0.9-1.4-1.3-2.3
			c-0.6,1.9-1.5,3.6-2.8,5.1c-0.2,0.2-0.3,0.3-0.4,0.3c-0.1,0-0.2-0.1-0.4-0.4c-0.2-0.6-0.5-1-0.9-1.3c0.9-0.9,1.6-1.8,2.1-2.7
			c0.5-0.9,0.8-1.9,1-3.1l0.1-0.6h-0.5l-2,0c-0.1,0-0.2-0.1-0.2-0.2v-1.5c0-0.1,0-0.2,0-0.2c0,0,0.1,0,0.2,0l2,0h0.8
			c0.1-0.6,0.1-1.8,0.1-3.4h-0.6c-0.3,0.7-0.6,1.3-1,2c-0.2,0.3-0.3,0.4-0.4,0.4c-0.1,0-0.2-0.1-0.3-0.2
			C-1096.5,3490-1096.9,3489.7-1097.3,3489.5z M-1086.2,3490h3.7c-0.3-0.3-0.6-0.7-0.9-1.1h-1.8
			C-1085.6,3489.3-1085.9,3489.7-1086.2,3490z M-1082.8,3492.4v-1.2h-3.1v1.2H-1082.8z M-1083.4,3498h-2v1.2h2V3498z"/>
		<path class="st2" d="M-1071,3486.7l-2.8,0c-0.1,0-0.2,0-0.2,0c0,0,0-0.1,0-0.2v-1.7c0-0.1,0-0.2,0.1-0.2c0,0,0.1,0,0.2,0l2.8,0
			h11.4l2.8,0c0.1,0,0.2,0,0.2,0s0,0.1,0,0.2v1.7c0,0.1,0,0.2,0,0.2s-0.1,0-0.2,0l-2.8,0h-4.1v5h2.9l2.6,0c0.1,0,0.2,0.1,0.2,0.2
			v1.7c0,0.2-0.1,0.2-0.2,0.2l-2.6,0h-2.9v5.6h4.9l2.6,0c0.1,0,0.2,0.1,0.2,0.2v1.7c0,0.2-0.1,0.2-0.2,0.2l-2.6,0h-13.1l-2.6,0
			c-0.1,0-0.2-0.1-0.2-0.2v-1.7c0-0.2,0.1-0.2,0.2-0.2l2.6,0h0.3v-6.1c0-1.4-0.1-2.4-0.2-3.2c1,0,1.8,0.1,2.4,0.2
			c0.2,0,0.4,0.1,0.4,0.2c0,0.1-0.1,0.3-0.2,0.5c-0.1,0.2-0.1,1-0.1,2.3v6.1h3.3v-12.7H-1071z"/>
	</g>
	<path id="パス_42" class="st3" d="M-1155.6,3424.9l-2.8-17.4l5.8-14l11.2-4.5l9.2,1.7l11.4-1.7l11,3.7l4.2,10l1.6,8v3.8h11.4
		v-4.7l5.2-15.6l10.8-6.5l9,1.9l1.3,2.3l8-3l7.5,0.7l7,6.4l3.9,5.4l1.6,5.8l-2.7,17.8l-6.9,19.5l-5.2,5l-6.3-0.9l-5.9-3.6l-7,1.4
		l-1.6,2.2l-10.1-2.8l-5.6-18.6v-3.3h-17.6v4.1l-1.5,3.4l-5.3,14.1l-5.5,3.5h-5.7l-4.4-3.5h-5.4l-4.4,1.6l-4.8,0.8
		c0,0-5.2-3.3-5.6-3.7S-1155.6,3424.9-1155.6,3424.9z"/>
	<g id="アートボード_2" transform="translate(-1162.072 3384.518)">
		<path id="パス_36" class="st4" d="M3.5,24c1.3,0.2,2.6,0.3,3.9,0.5c0.1-2.6,0.7-5.1,1.6-7.5c1.6-4.1,4.8-7.4,8.9-9
			c1-0.4,2.1-0.6,3.2-0.6c1.5,0,2.9,0.4,4.1,1.1C27,9.5,28.9,10,30.8,10c1.9,0,3.8-0.5,5.4-1.4c1.3-0.7,2.7-1.1,4.1-1.1
			c1.1,0,2.2,0.2,3.2,0.6c4.1,1.6,7.3,4.9,8.9,9c1.3,3.4,1.9,7,1.6,10.6c2.5,0,5,0.1,7.5,0.1c0.3-4.6-0.5-9.2-2.2-13.5
			c-2.4-6-7.2-10.8-13.2-13.1C44.4,0.4,42.4,0,40.4,0c-2.7,0-5.4,0.7-7.8,2.1c-1.1,0.6-2.5,0.6-3.6,0C26.7,0.7,24,0,21.3,0
			c-2,0-4,0.4-5.8,1.1C9.4,3.4,4.6,8.2,2.2,14.2c-1.2,3-2,6.2-2.2,9.4L3.5,24z"/>
		<path id="パス_36_-_アウトライン" class="st0" d="M62.1,28.2h-0.5c-2.5,0-5,0-7.5-0.1l-0.5,0l0-0.5
			c0.3-3.5-0.3-7.1-1.6-10.3c-1.5-4-4.7-7.1-8.6-8.7h0c-1-0.4-2-0.6-3.1-0.6C39,8,37.7,8.3,36.5,9h0c-1.7,1-3.7,1.5-5.7,1.5
			c-2,0-3.9-0.5-5.7-1.5h0C24,8.3,22.6,8,21.3,8c-1,0-2.1,0.2-3.1,0.6h0c-4,1.6-7.1,4.7-8.6,8.7C8.6,19.6,8.1,22,8,24.5l0,0.5
			L7.4,25c-1.3-0.1-2.6-0.3-3.9-0.5l-4-0.5l0-0.5c0.2-3.3,1-6.5,2.2-9.6C4.2,7.9,9.1,3,15.2,0.6c1.9-0.7,4-1.1,6-1.1
			c2.8,0,5.6,0.8,8,2.2c0.5,0.3,1,0.4,1.5,0.4c0.5,0,1.1-0.1,1.5-0.4c2.4-1.4,5.2-2.1,8-2.2c2.1,0,4.1,0.4,6,1.1
			C52.6,3,57.5,7.8,59.9,14c1.7,4.4,2.5,9,2.2,13.7L62.1,28.2z M54.7,27.1c2.2,0,4.3,0.1,6.5,0.1c0.2-4.4-0.5-8.7-2.2-12.8
			C56.7,8.5,52,3.8,46.1,1.6c-1.8-0.7-3.7-1-5.7-1.1c-2.6,0-5.2,0.7-7.5,2h0c-0.6,0.3-1.3,0.5-2,0.5c-0.7,0-1.4-0.2-2-0.5h0
			c-2.3-1.3-4.9-2-7.5-2c-1.9,0-3.9,0.4-5.7,1.1C9.7,3.8,5,8.5,2.7,14.4c-1.1,2.8-1.8,5.8-2.1,8.8l3,0.4C4.7,23.7,5.8,23.8,7,24
			c0.2-2.4,0.7-4.8,1.6-7.1c1.6-4.2,5-7.6,9.2-9.3C18.9,7.2,20.1,7,21.2,7h0c1.5,0,3,0.4,4.4,1.2C27.2,9,29,9.5,30.8,9.5
			c1.8,0,3.6-0.5,5.2-1.4C37.3,7.4,38.9,7,40.4,7h0c1.2,0,2.3,0.2,3.4,0.7c4.2,1.7,7.6,5,9.2,9.3C54.3,20.1,54.9,23.6,54.7,27.1
			L54.7,27.1z"/>
		<path id="パス_37" class="st4" d="M51,41.9c-2.4,8.6-4.9,15.3-6.1,17.2c-0.4,0.5-2.3,1.4-4.1,1.4c-0.7,0.1-1.5-0.1-2-0.6
			c-4.3-4.4-11.4-4.4-15.8-0.1c0,0,0,0-0.1,0.1c-0.6,0.4-1.3,0.6-2,0.6c-1.8,0-3.8-0.8-4.1-1.4c-1.4-2-4.2-10-6.8-19.8
			c-2.7-0.3-5.3-0.6-7.9-0.9c2.6,10.4,6.2,21.4,8.6,25c2.2,3.2,6.9,4.6,10.3,4.6c2.7,0.1,5.3-0.9,7.3-2.7c1.4-1.5,3.8-1.5,5.2-0.1
			c0,0,0.1,0.1,0.1,0.1c2,1.8,4.6,2.8,7.3,2.7c3.4,0,8.1-1.5,10.3-4.6s5.2-12.1,7.7-21.3C56.2,42,53.6,42,51,41.9z"/>
		<path id="パス_37_-_アウトライン" class="st0" d="M1.3,37.8L2,37.8c2.7,0.3,5.3,0.6,7.9,0.9l0.3,0l0.1,0.3
			c2.8,10.5,5.5,17.9,6.8,19.7c1.1,0.8,2.4,1.2,3.7,1.2c0.6,0.1,1.2-0.1,1.7-0.4c4.5-4.6,11.9-4.6,16.5,0c0,0,0,0,0,0
			c0.5,0.3,1.1,0.5,1.7,0.4c1.3,0,2.6-0.4,3.7-1.2c1.3-1.9,3.8-8.9,6-17l0.1-0.4l0.4,0c2.5,0.1,5.1,0.1,7.7,0.1l0.6,0l-0.2,0.6
			c-2.8,10.5-5.7,18.5-7.7,21.4c-2.3,3.3-7.2,4.9-10.7,4.9c-2.8,0.1-5.6-0.9-7.7-2.9l0,0c-1.2-1.3-3.2-1.3-4.5-0.1
			c0,0-0.1,0.1-0.1,0.1l0,0c-2.1,1.9-4.8,3-7.7,2.9c-3.6,0-8.4-1.5-10.7-4.9c-2.7-4-6.4-16-8.7-25.1L1.3,37.8z M9.5,39.7
			c-2.3-0.2-4.6-0.5-6.9-0.8c3,11.6,6.2,21,8.4,24.1c2.1,3,6.6,4.4,9.9,4.4c2.6,0.1,5.1-0.8,6.9-2.6c1.6-1.7,4.3-1.7,5.9-0.1
			c0,0,0.1,0.1,0.1,0.1c1.9,1.7,4.4,2.7,6.9,2.6c3.3,0,7.8-1.4,9.9-4.4c1.9-2.8,4.7-10.4,7.4-20.5c-2.2,0-4.5-0.1-6.7-0.1
			c-2.3,8.2-4.7,15-6.1,16.9c-0.5,0.7-2.6,1.6-4.6,1.6c-0.9,0.1-1.7-0.2-2.4-0.7l0,0c-4.1-4.2-10.9-4.2-15.1,0c0,0,0,0,0,0
			c-0.7,0.5-1.5,0.8-2.4,0.7c-1.9,0-4.1-0.9-4.6-1.6C14.8,57.2,12,49,9.5,39.7L9.5,39.7z"/>
		<path id="パス_38" class="st5" d="M126.2,34.1l0.9-6.4c-5.9,0.7-14.9,1.7-21,2.2V28c0-2.1-1.7-3.7-3.7-3.7H90.2
			c-2.1,0-3.7,1.7-3.7,3.7v3.2c-15.2,0.7-30.6,0.7-45.8,0V28c0-2.1-1.7-3.7-3.7-3.7H24.7C22.7,24.3,21,26,21,28v1.9
			c-6.1-0.5-15.1-1.5-21-2.2l0.9,6.4c6.2,0.8,13.7,1.7,20.1,2.2v3.9c0,2.1,1.7,3.7,3.7,3.7H37c2.1,0,3.7-1.7,3.7-3.7v-2.7
			c7.6,0.3,15.2,0.5,22.9,0.5s15.3-0.2,22.9-0.5v2.7c0,2.1,1.7,3.7,3.7,3.7h12.2c2.1,0,3.7-1.7,3.7-3.7v-3.9
			C112.5,35.8,120.1,34.9,126.2,34.1z"/>
		<path id="パス_38_-_アウトライン" class="st0" d="M24.7,23.8H37c2.3,0,4.2,1.9,4.2,4.2v2.7c7.4,0.3,14.9,0.5,22.4,0.5
			s15-0.2,22.4-0.5V28c0-2.3,1.9-4.2,4.2-4.2h12.2c2.3,0,4.2,1.9,4.2,4.2v1.4c6.1-0.5,14.7-1.4,20.4-2.2l0.7-0.1l-1.1,7.4l-0.4,0
			c-8.2,1-14.6,1.7-19.6,2.2v3.5c0,2.3-1.9,4.2-4.2,4.2H90.2c-2.3,0-4.2-1.9-4.2-4.2v-2.1c-7.4,0.3-15,0.5-22.4,0.5
			s-15-0.2-22.4-0.5v2.1c0,2.3-1.9,4.2-4.2,4.2H24.7c-2.3,0-4.2-1.9-4.2-4.2v-3.5C15.4,36.3,9,35.6,0.8,34.6l-0.4,0l-1.1-7.4
			l0.6,0.1c5.7,0.7,14.3,1.6,20.4,2.2V28C20.5,25.7,22.4,23.8,24.7,23.8z M63.6,32.2c-7.6,0-15.3-0.2-22.9-0.5l-0.5,0V28
			c0-1.8-1.4-3.2-3.2-3.2H24.7c-1.8,0-3.2,1.4-3.2,3.2v2.4l-0.5,0C15.1,29.9,6.5,29,0.6,28.3l0.8,5.4c8.2,1,14.6,1.7,19.7,2.2l0.5,0
			v4.4c0,1.8,1.4,3.2,3.2,3.2H37c1.8,0,3.2-1.5,3.2-3.2v-3.2l0.5,0c7.6,0.3,15.3,0.5,22.9,0.5s15.3-0.2,22.9-0.5l0.5,0v3.2
			c0,1.8,1.4,3.2,3.2,3.2h12.2c1.8,0,3.2-1.5,3.2-3.2v-4.4l0.5,0c5-0.4,11.5-1.1,19.7-2.2l0.8-5.4c-5.9,0.7-14.5,1.6-20.4,2.1
			l-0.5,0V28c0-1.8-1.4-3.2-3.2-3.2H90.2c-1.8,0-3.2,1.4-3.2,3.2v3.7l-0.5,0C78.9,32,71.2,32.2,63.6,32.2z"/>
		<path id="パス_39" class="st4" d="M72.9,27.6c-0.3-3.6,0.3-7.2,1.6-10.6c1.6-4.1,4.8-7.4,8.9-9c1-0.4,2.1-0.6,3.2-0.6
			c1.5,0,2.9,0.4,4.1,1.1c1.7,0.9,3.5,1.4,5.4,1.4c1.9,0,3.8-0.5,5.4-1.4c1.3-0.7,2.7-1.1,4.1-1.1c1.1,0,2.2,0.2,3.2,0.6
			c4.1,1.6,7.3,4.9,8.9,9c1,2.4,1.5,4.9,1.6,7.5c1.3-0.1,2.6-0.3,3.9-0.5l3.5-0.4c-0.2-3.2-0.9-6.4-2.2-9.4
			c-2.4-6-7.2-10.8-13.2-13.1c-1.9-0.7-3.8-1.1-5.8-1.1c-2.7,0-5.4,0.7-7.8,2.1c-1.1,0.6-2.5,0.6-3.6,0C92.2,0.7,89.5,0,86.7,0
			c-2,0-4,0.4-5.8,1.1c-6.1,2.3-10.8,7.1-13.2,13.1c-1.7,4.3-2.5,8.9-2.2,13.5C68,27.7,70.5,27.7,72.9,27.6z"/>
		<path id="パス_39_-_アウトライン" class="st0" d="M65,28.2l0-0.5c-0.3-4.7,0.5-9.4,2.2-13.7c2.4-6.2,7.3-11,13.5-13.4
			c1.9-0.7,4-1.1,6-1.1c2.8,0,5.6,0.8,8,2.2c0.5,0.3,1,0.4,1.5,0.4c0.5,0,1.1-0.1,1.5-0.4c2.4-1.4,5.2-2.1,8-2.2h0
			c2.1,0,4.1,0.4,6,1.1C118.1,3,123,7.8,125.4,14c1.2,3,2,6.3,2.2,9.6l0,0.5l-4,0.5c-1.3,0.2-2.6,0.3-3.9,0.5l-0.5,0.1l0-0.5
			c-0.1-2.5-0.7-5-1.6-7.3c-1.5-4-4.7-7.1-8.6-8.7h0c-1-0.4-2-0.6-3.1-0.6c-1.4,0-2.7,0.4-3.9,1.1h0c-1.7,1-3.7,1.5-5.7,1.5
			c-2,0-3.9-0.5-5.7-1.5h0C89.4,8.3,88.1,8,86.7,8c-1,0-2.1,0.2-3.1,0.6h0c-4,1.6-7.1,4.7-8.6,8.7c-1.3,3.3-1.8,6.8-1.6,10.3l0,0.5
			l-0.5,0c-2.5,0-5,0.1-7.5,0.1L65,28.2z M86.7,0.5c-1.9,0-3.9,0.4-5.7,1.1c-5.9,2.3-10.6,6.9-12.9,12.8c-1.6,4.1-2.4,8.4-2.2,12.8
			c2.1,0,4.3,0,6.5-0.1c-0.2-3.5,0.4-7,1.7-10.3c1.6-4.2,5-7.6,9.2-9.3C84.4,7.2,85.6,7,86.7,7h0c1.5,0,3,0.4,4.4,1.2
			c1.6,0.9,3.4,1.4,5.2,1.4c1.8,0,3.6-0.5,5.2-1.4c1.3-0.8,2.8-1.2,4.4-1.2h0c1.2,0,2.3,0.2,3.4,0.7c4.2,1.7,7.6,5,9.2,9.3
			c0.9,2.3,1.5,4.7,1.6,7.1c1.1-0.1,2.3-0.3,3.4-0.4l3-0.4c-0.2-3-0.9-6-2.1-8.8c-2.3-5.9-7-10.6-12.9-12.8c-1.8-0.7-3.7-1-5.6-1.1
			c-2.6,0-5.2,0.7-7.5,2h0C97.7,2.9,97,3,96.3,3c-0.7,0-1.4-0.2-2-0.5l0,0C92,1.2,89.4,0.5,86.7,0.5z"/>
		<path id="パス_40" class="st4" d="M117.3,39.3c-2.6,9.9-5.5,17.8-6.8,19.8c-0.4,0.5-2.3,1.4-4.1,1.4c-0.7,0.1-1.5-0.1-2-0.6
			c-4.3-4.4-11.4-4.4-15.8-0.1c0,0,0,0-0.1,0.1c-0.6,0.4-1.3,0.6-2,0.6c-1.8,0-3.8-0.8-4.1-1.4c-1.3-1.8-3.7-8.6-6.1-17.2
			C73.5,42,71,42,68.4,42.1c2.5,9.1,5.5,18.1,7.7,21.3S82.9,68,86.3,68c2.7,0.1,5.3-0.9,7.3-2.7c1.4-1.5,3.8-1.5,5.2-0.1
			c0,0,0.1,0.1,0.1,0.1c2,1.8,4.6,2.8,7.3,2.7c3.4,0,8.1-1.5,10.3-4.6c2.5-3.6,6-14.6,8.6-25C122.6,38.7,119.9,39,117.3,39.3z"/>
		<path id="パス_40_-_アウトライン" class="st0" d="M125.9,37.7l-0.2,0.7c-2.3,9.1-6,21.2-8.7,25.1
			c-2.3,3.3-7.2,4.9-10.7,4.9c-2.8,0.1-5.6-0.9-7.7-2.9l0,0c-1.2-1.3-3.2-1.3-4.5-0.1c0,0-0.1,0.1-0.1,0.1l0,0
			c-2.1,1.9-4.8,3-7.7,2.9c-3.6,0-8.4-1.5-10.7-4.9c-2-2.9-4.9-10.9-7.7-21.4l-0.2-0.6l0.6,0c2.6,0,5.1-0.1,7.7-0.1l0.4,0l0.1,0.4
			c2.3,8.2,4.8,15.2,6,17c1.1,0.8,2.4,1.2,3.7,1.2c0.6,0.1,1.2-0.1,1.7-0.4c4.5-4.6,11.9-4.6,16.5-0.1c0,0,0,0,0.1,0.1
			c0.5,0.3,1.1,0.5,1.7,0.4c1.3,0,2.6-0.4,3.7-1.2c1.2-1.8,4-9.2,6.8-19.7l0.1-0.3l0.3,0c2.7-0.3,5.4-0.6,7.9-0.9L125.9,37.7z
			 M106.3,67.5c3.3,0,7.8-1.4,9.9-4.4c2.1-3.1,5.4-12.5,8.4-24.1c-2.2,0.3-4.5,0.5-6.9,0.8c-2.5,9.3-5.3,17.5-6.8,19.7
			c-0.5,0.7-2.6,1.6-4.6,1.6c-0.9,0.1-1.7-0.2-2.4-0.7c-4.1-4.2-10.9-4.2-15.1-0.1c0,0,0,0-0.1,0.1c-0.7,0.5-1.5,0.8-2.4,0.7
			c-1.9,0-4.1-0.9-4.6-1.6c-1.3-1.9-3.8-8.7-6.1-16.9c-2.2,0.1-4.5,0.1-6.7,0.1c2.8,10.1,5.5,17.7,7.4,20.5c2.1,3,6.6,4.4,9.9,4.4
			c2.6,0.1,5.1-0.8,6.9-2.6c1.6-1.7,4.3-1.7,5.9-0.1c0,0,0.1,0.1,0.1,0.1C101.2,66.6,103.7,67.5,106.3,67.5L106.3,67.5z"/>
	</g>
</g>
</svg>
