<?xml version="1.0" encoding="utf-8"?>
<!-- Generator: Adobe Illustrator 26.0.2, SVG Export Plug-In . SVG Version: 6.00 Build 0)  -->
<svg version="1.1" id="レイヤー_1" xmlns="http://www.w3.org/2000/svg" xmlns:xlink="http://www.w3.org/1999/xlink" x="0px"
	 y="0px" viewBox="0 0 575 75" style="enable-background:new 0 0 575 75;" xml:space="preserve">
<style type="text/css">
	.st0{fill:#06438D;}
	.st1{enable-background:new    ;}
	.st2{fill:#FFFFFF;}
</style>
<g id="グループ_111" transform="translate(-1088 -1882)">
	<path id="長方形_2" class="st0" d="M1125.5,1882h500c20.7,0,37.5,16.8,37.5,37.5l0,0c0,20.7-16.8,37.5-37.5,37.5h-500
		c-20.7,0-37.5-16.8-37.5-37.5l0,0C1088,1898.8,1104.8,1882,1125.5,1882z"/>
	<g id="グループ_62" transform="translate(31)">
		<g class="st1">
			<path class="st2" d="M1241.6,1911.7h1.9c0.9,0,1.4,0.5,1.4,1.4s-0.5,1.4-1.4,1.4c-0.1,0-0.2,0-0.3,0c-0.4,0-0.9,0-1.6,0
				c-0.2,0-0.4,0-0.5,0l-0.1,0.4l-0.2,1l-0.2,0.9l-0.1,0.8l0,0.2c0.5,0,1.3-0.1,2.6-0.2c0.1,0,0.2,0,0.3,0c0.4,0,0.7,0.1,0.9,0.3
				c0.3,0.2,0.4,0.6,0.4,1c0,0.8-0.4,1.2-1.2,1.4c-0.5,0.1-1.6,0.2-3.3,0.2c-0.1,0.8-0.2,1.4-0.2,1.8c0,2.1,1,3.1,3,3.1
				c2.8,0,4.2-1.4,4.2-4.1c0-0.7-0.1-1.4-0.2-2.3c0-0.2-0.1-0.4-0.1-0.6c0-0.4,0.2-0.7,0.5-0.9c0.2-0.1,0.4-0.2,0.6-0.2
				c0.5,0,0.9,0.3,1.2,1c0.5,1.1,0.8,2.2,0.8,3.5c0,2.3-0.8,4-2.5,5.1c-1.2,0.8-2.7,1.1-4.5,1.1c-1.6,0-3-0.4-4-1.3
				c-1.2-1-1.8-2.5-1.8-4.4c0-0.4,0.1-1.1,0.2-1.9c-1.1,0-1.9,0-2.2-0.1c-0.8-0.1-1.3-0.6-1.3-1.3c0-0.4,0.1-0.7,0.4-1
				s0.5-0.4,0.9-0.4c0.1,0,0.2,0,0.3,0c0.4,0,1.2,0,2.2,0c0.1-0.9,0.3-2,0.6-3.3h-0.2c-1.3,0-2.1,0.1-2.3,0.1c-0.1,0-0.2,0-0.2,0
				c-0.4,0-0.7-0.1-1-0.3c-0.4-0.2-0.5-0.6-0.5-1c0-0.5,0.2-0.9,0.6-1.1c0.2-0.1,0.5-0.2,0.8-0.2c0.5,0,1.3-0.1,2.5-0.1
				c0.3,0,0.6,0,0.9,0c0.1-0.7,0.3-1.7,0.6-3c0.2-0.8,0.7-1.2,1.4-1.2c0.2,0,0.4,0,0.5,0.1c0.6,0.2,1,0.6,1,1.3c0,0.2,0,0.4-0.1,0.6
				C1241.8,1910.8,1241.6,1911.5,1241.6,1911.7z"/>
			<path class="st2" d="M1268,1915.9c1.2,0,2.3,0.3,3.2,0.9c1.2,0.8,1.8,2,1.8,3.5c0,2.5-1.3,4.3-3.9,5.4c-0.8,0.4-1.8,0.6-2.8,0.8
				c-0.2,0-0.4,0.1-0.6,0.1c-0.7,0-1-0.3-1-1c0-0.3,0.1-0.6,0.4-0.8c0.1-0.1,0.5-0.2,1.1-0.4c2.7-0.9,4-2.2,4-4
				c0-0.7-0.2-1.2-0.6-1.6c-0.4-0.4-1-0.6-1.7-0.6c-0.9,0-2.4,0.2-4.4,0.7c-2.6,0.6-4.1,0.9-4.5,0.9c-0.3,0-0.6-0.1-0.8-0.3
				c-0.3-0.2-0.4-0.6-0.4-1.1c0-0.7,0.5-1.1,1.5-1.2c0.5-0.1,1.9-0.3,4.1-0.8C1265.6,1916.1,1267.1,1915.9,1268,1915.9z"/>
			<path class="st2" d="M1286.6,1917.2c-0.6-1-1.2-2.6-1.9-4.8c-0.2-0.5-0.4-1-0.7-1.6c-0.2-0.3-0.2-0.6-0.2-0.8
				c0-0.4,0.2-0.8,0.6-1c0.3-0.2,0.6-0.3,1-0.3c0.6,0,1.1,0.3,1.4,0.9c0.2,0.4,0.5,1.1,0.8,2.1c0.4,1.4,0.8,2.7,1.3,4
				c2-1.4,3.9-2.7,6-3.9c0.3-0.2,0.6-0.2,0.8-0.2c0.5,0,0.9,0.2,1.2,0.6c0.2,0.3,0.3,0.6,0.3,0.9c0,0.5-0.2,0.8-0.5,1.1
				c-0.1,0.1-0.3,0.2-0.6,0.4c-6.4,3.3-9.6,5.9-9.6,7.9c0,1.2,1.2,1.9,3.5,1.9c1.7,0,3.5-0.1,5.1-0.4c0.2,0,0.3,0,0.4,0
				c0.9,0,1.3,0.5,1.3,1.5c0,0.8-0.4,1.3-1.2,1.5c-1,0.2-2.7,0.3-5.2,0.3c-2.2,0-3.9-0.3-4.9-0.9c-1.2-0.8-1.9-1.9-1.9-3.6
				C1283.5,1920.7,1284.5,1919,1286.6,1917.2z"/>
			<path class="st2" d="M1311.2,1913.5l-7.2,0.6c-0.1,0-0.1,0-0.2,0c-0.5,0-0.8-0.2-0.9-0.7c-0.1-0.2-0.1-0.4-0.1-0.6
				c0-0.6,0.3-1,1-1l7.1-0.6c0,0,0.1,0,0.1,0c0.4,0,0.7,0.2,0.9,0.5c0.1,0.2,0.2,0.4,0.2,0.7
				C1312.1,1913,1311.8,1913.4,1311.2,1913.5z M1311.2,1925.4c0.3,0.2,0.5,0.5,0.5,0.9c0,0.7-0.3,1-0.9,1.1l-3.9,0.4
				c-0.1,0.5-0.5,0.8-1.3,0.8c-0.7,0-1.1-0.3-1.2-1l-0.5-5.2c0-0.1,0-0.1,0-0.1c0-0.4,0.2-0.7,0.5-0.9c0.2-0.1,0.5-0.2,0.8-0.2
				c0.4,0,0.7,0.1,1,0.3l3.5-0.4c0.2,0,0.3,0,0.5,0c1.1,0,1.7,0.5,1.7,1.5c0,0.2,0,0.4-0.1,0.6L1311.2,1925.4z M1310.1,1916.8
				l-4.8,0.4c0,0-0.1,0-0.2,0c-0.4,0-0.6-0.2-0.8-0.5c-0.1-0.2-0.1-0.4-0.1-0.6c0-0.6,0.3-1,0.9-1l4.7-0.5c0,0,0.1,0,0.1,0
				c0.3,0,0.6,0.1,0.8,0.4c0.1,0.2,0.2,0.4,0.2,0.7C1311.1,1916.3,1310.8,1916.7,1310.1,1916.8z M1310.2,1919.9l-4.8,0.5
				c0,0-0.1,0-0.1,0c-0.3,0-0.6-0.2-0.8-0.5c-0.1-0.2-0.2-0.4-0.2-0.6c0-0.6,0.3-1,0.9-1l4.8-0.4c0.1,0,0.1,0,0.1,0c0.7,0,1,0.3,1,1
				c0,0.4-0.2,0.7-0.5,0.9C1310.4,1919.8,1310.3,1919.9,1310.2,1919.9z M1306.1,1907.2c0.3,0,0.8,0.1,1.5,0.4c1,0.3,1.7,0.6,2.1,0.9
				c0.4,0.3,0.6,0.6,0.6,1.1c0,0.2-0.1,0.5-0.2,0.7c-0.3,0.4-0.6,0.6-1.1,0.6c-0.3,0-0.7-0.1-1-0.4c-0.7-0.5-1.4-1-2.2-1.4
				c-0.5-0.2-0.7-0.5-0.7-0.9C1305.2,1907.5,1305.5,1907.2,1306.1,1907.2z M1309,1925.5l0.2-1.8c0-0.3-0.1-0.4-0.4-0.4
				c-0.1,0-0.1,0-0.1,0l-2.2,0.3l0.2,2.2L1309,1925.5z M1319.5,1914v1.7l2.9-0.2c0.2,0,0.5,0,0.7,0.1c0.3,0.2,0.5,0.6,0.5,1
				c0,0.7-0.3,1.1-1,1.2l-3.1,0.2v1.9l4.4-0.3c0,0,0.1,0,0.1,0c0.4,0,0.6,0.1,0.8,0.4c0.2,0.2,0.3,0.5,0.3,0.9c0,0.8-0.3,1.3-1,1.3
				l-4.7,0.3v5.3c0,0.3-0.1,0.6-0.3,0.8c-0.3,0.2-0.6,0.4-1,0.4c-0.6,0-1-0.2-1.2-0.7c-0.1-0.2-0.1-0.3-0.1-0.5v-5.1l-3.8,0.3
				c0,0,0,0-0.1,0c-0.4,0-0.6-0.1-0.8-0.4c-0.2-0.2-0.3-0.5-0.3-0.9c0-0.8,0.3-1.2,1-1.3l4-0.3v-1.9l-3,0.2c-0.2,0-0.5,0-0.7-0.2
				c-0.3-0.2-0.5-0.5-0.5-1c0-0.8,0.3-1.2,1-1.2l3.1-0.2v-1.7l-3.3,0.3c0,0-0.1,0-0.1,0c-0.7,0-1.1-0.4-1.1-1.2
				c0-0.8,0.3-1.2,0.9-1.2l1.8-0.2c-0.2-0.1-0.3-0.3-0.5-0.7c-0.2-0.6-0.6-1.4-1.1-2.2c-0.1-0.2-0.2-0.4-0.2-0.6
				c0-0.3,0.1-0.6,0.4-0.8c0.2-0.1,0.4-0.2,0.6-0.2c0.5,0,1.1,0.5,1.8,1.4c0.7,0.8,1,1.5,1,1.9c0,0.4-0.2,0.7-0.6,1l1.9-0.2
				c0.6-1.2,1-2.3,1.4-3.3c0.3-0.8,0.7-1.3,1.3-1.3c0.2,0,0.5,0.1,0.7,0.2c0.5,0.2,0.8,0.6,0.8,1.1c0,0.5-0.5,1.5-1.6,3.1l1.9-0.2
				c0,0,0.1,0,0.1,0c0.3,0,0.5,0.1,0.7,0.3c0.3,0.2,0.4,0.6,0.4,1c0,0.7-0.3,1.1-1,1.1L1319.5,1914z"/>
			<path class="st2" d="M1334.2,1908.4c1,0,1.5,0.5,1.5,1.6c0,0.3-0.1,1.4-0.2,3.5l-0.1,1.9c-0.1,2.5-0.2,4.3-0.2,5.6
				c0,2.4,1,3.6,2.9,3.6c1.3,0,2.4-0.4,3.3-1.1c1-0.8,1.8-1.7,2.3-2.8c0.2-0.5,0.6-0.7,1.1-0.7c0.3,0,0.6,0.1,0.8,0.4
				c0.2,0.2,0.3,0.5,0.3,0.8c0,0.5-0.3,1.1-0.8,2c-1.7,2.9-4.1,4.3-7.1,4.3c-2.3,0-3.9-0.8-4.9-2.5c-0.6-1-0.9-2.3-0.9-3.9
				c0-1.2,0.1-3.4,0.3-6.4c0.1-1.8,0.2-3,0.2-3.4l0-1.3C1332.7,1909,1333.2,1908.4,1334.2,1908.4z"/>
			<path class="st2" d="M1364.9,1907.8c0.3,0,0.6,0.1,0.9,0.3c0.5,0.3,0.7,0.7,0.7,1.2c0,0.4-0.3,0.9-0.8,1.5
				c-1.7,1.9-3.5,3.7-5.5,5.4c-0.4,0.4-0.8,0.7-1.2,1c-0.3,0.2-0.5,0.5-0.5,0.6c0,0.1,0.2,0.3,0.6,0.6c3,2.2,5.2,4.2,6.8,6
				c0.7,0.8,1.1,1.5,1.1,1.9c0,0.5-0.2,1-0.7,1.3c-0.3,0.2-0.6,0.3-1,0.3c-0.4,0-0.7-0.1-1-0.4c-0.1-0.1-0.3-0.4-0.6-0.8
				c-1.4-1.9-3.6-4-6.7-6.5c-1.1-0.9-1.6-1.7-1.6-2.3c0-0.8,0.5-1.5,1.4-2.3c1.4-1.1,2.8-2.5,4.3-4.1c1-1.1,1.8-2.1,2.5-2.9
				C1363.9,1908.1,1364.3,1907.8,1364.9,1907.8z"/>
			<path class="st2" d="M1383.2,1920.9c0.3,0,0.6,0.1,0.8,0.2c0.5,0.2,0.7,0.7,0.7,1.2c0,0.7-0.4,1.5-1.2,2.5
				c-1.2,1.6-2.9,2.7-5.1,3.4c-0.9,0.3-1.6,0.5-2,0.5c-0.5,0-0.8-0.2-1-0.5c-0.1-0.2-0.2-0.4-0.2-0.6c0-0.3,0.2-0.6,0.5-0.8
				c0.1-0.1,0.4-0.2,0.8-0.3c1.4-0.5,2.5-1.2,3.3-2c0.9-0.9,1.6-1.8,2-2.7C1382.1,1921.2,1382.6,1920.9,1383.2,1920.9z
				 M1390.2,1920.4l-0.8,0l-0.2,4.5c0,0.5,0.1,0.8,0.4,0.9c0.2,0.1,0.7,0.1,1.6,0.1c1.1,0,1.8-0.1,2.1-0.2c0.4-0.2,0.6-1,0.8-2.3
				c0.1-0.7,0.4-1,0.9-1c0.5,0,0.9,0.3,1,1c0.3,1.1,0.4,2,0.4,2.9c0,1.1-0.6,1.7-1.7,2.1c-0.8,0.2-2.1,0.3-3.9,0.3
				c-1.7,0-2.8-0.1-3.5-0.4c-0.8-0.4-1.1-1.1-1.1-2.1c0-0.1,0-0.2,0-0.3l0.2-5.2l-4.8,0.3c-0.3,0.4-0.7,0.6-1.3,0.6
				c-0.6,0-1.1-0.2-1.3-0.7c-0.1-0.2-0.1-0.3-0.1-0.5v-11.2c0-0.4,0.2-0.8,0.6-1c0.3-0.2,0.5-0.2,0.9-0.2c0.5,0,0.9,0.2,1.1,0.5
				l9-0.7c0.1,0,0.2,0,0.3,0c1.2,0,1.9,0.7,1.9,2.1v10c0,0.3-0.1,0.6-0.3,0.8c-0.3,0.3-0.7,0.4-1.1,0.4
				C1390.9,1921,1390.5,1920.8,1390.2,1920.4z M1390.1,1911.3v-0.8c0-0.4-0.2-0.6-0.7-0.5l-7.5,0.6v1.3L1390.1,1911.3z
				 M1390.1,1913.4l-8.1,0.6v1.4l8.1-0.6V1913.4z M1390.1,1916.8l-8.1,0.6v1.5l8.1-0.5V1916.8z"/>
			<path class="st2" d="M1410.6,1911.4c-2.4,0.4-3.9,0.7-4.5,0.7c-0.4,0-0.8-0.1-1-0.4c-0.2-0.2-0.3-0.5-0.3-0.9
				c0-0.7,0.3-1.1,0.8-1.3c0.2-0.1,0.5-0.1,1-0.2c2.3-0.2,4.2-0.4,5.7-0.8c0.2,0,0.3-0.1,0.5-0.1c0.6,0,1,0.2,1.4,0.7
				c0.3,0.3,0.4,0.7,0.4,1s-0.1,0.7-0.4,1c-1,1.1-3.3,3.3-6.9,6.6l0.1,0.1c1.4-0.9,3-1.4,4.8-1.4c1.6,0,3,0.4,4.1,1.1
				c1.4,0.9,2.1,2.2,2.1,3.9c0,2.2-1,3.9-2.9,5c-1.4,0.8-3.1,1.2-5.2,1.2c-1.1,0-2.1-0.2-2.9-0.7c-1.1-0.6-1.6-1.5-1.6-2.5
				c0-0.8,0.4-1.5,1.1-2c0.8-0.6,1.7-0.8,2.9-0.8c1.9,0,3.4,0.8,4.5,2.5c0.7-0.7,1.1-1.6,1.1-2.6c0-0.9-0.4-1.6-1.1-2.1
				c-0.6-0.4-1.3-0.6-2.3-0.6c-2.6,0-5.1,0.9-7.3,2.6c-0.4,0.3-0.8,0.5-1.1,0.5s-0.7-0.2-0.9-0.5c-0.3-0.3-0.4-0.7-0.4-1.1
				c0-0.4,0.1-0.7,0.4-1c0.1-0.1,0.3-0.3,0.7-0.6c2.7-2.3,5.2-4.8,7.6-7.3L1410.6,1911.4z M1411.9,1925.1c-0.8-1-1.6-1.5-2.5-1.5
				c-0.9,0-1.3,0.3-1.3,0.8c0,0.2,0.1,0.4,0.4,0.6c0.3,0.2,0.8,0.3,1.5,0.3c0.7,0,1.3-0.1,1.7-0.2
				C1411.8,1925.2,1411.8,1925.2,1411.9,1925.1C1411.8,1925.1,1411.9,1925.1,1411.9,1925.1z"/>
		</g>
		<path id="パス_1" class="st2" d="M1451.1,1929.1l-2.1-2.1l7.2-7.2l-7.2-7.2l2.1-2.1l9.3,9.3L1451.1,1929.1z"/>
	</g>
</g>
</svg>
