<?xml version="1.0" encoding="utf-8"?>
<!-- Generator: Adobe Illustrator 26.0.2, SVG Export Plug-In . SVG Version: 6.00 Build 0)  -->
<svg version="1.1" id="レイヤー_1" xmlns="http://www.w3.org/2000/svg" xmlns:xlink="http://www.w3.org/1999/xlink" x="0px"
	 y="0px" viewBox="0 0 401.5 66" style="enable-background:new 0 0 401.5 66;" xml:space="preserve">
<style type="text/css">
	.st0{enable-background:new    ;}
	.st1{fill:#06438D;}
	.st2{fill:#707070;}
	.st3{fill:#FFFFFF;}
</style>
<g id="グループ_33" transform="translate(-1254 -5964)">
	<g class="st0">
		<path class="st1" d="M1339.8,6015.1l0.1,7.1c0,0.1,0,0.2-0.1,0.3c-0.2,0.2-0.4,0.4-0.8,0.4c-0.3,0-0.5-0.1-0.7-0.2
			c-0.1-0.1-0.2-0.3-0.2-0.5v-7.7c0-0.4,0.2-0.8,0.5-1c0.3-0.2,0.6-0.3,1-0.3c0.7,0,1.2,0.4,1.5,1.1l2.1,6.2l2.1-6.2
			c0.2-0.7,0.7-1.1,1.5-1.1c0.5,0,0.9,0.2,1.1,0.5c0.2,0.2,0.3,0.6,0.3,0.9v7.7c0,0.2-0.1,0.3-0.2,0.5c-0.2,0.2-0.4,0.2-0.7,0.2
			c-0.3,0-0.5-0.1-0.7-0.3c-0.1-0.1-0.2-0.3-0.2-0.4l0.1-7.1l-2.3,6.7c-0.1,0.2-0.1,0.3-0.3,0.5c-0.2,0.3-0.5,0.4-0.9,0.4
			c-0.6,0-0.9-0.3-1.1-0.9L1339.8,6015.1z"/>
		<path class="st1" d="M1353,6020.3l-0.8,2c-0.2,0.4-0.5,0.6-0.9,0.6c-0.2,0-0.3,0-0.5-0.1c-0.3-0.1-0.5-0.4-0.5-0.7
			c0-0.1,0-0.3,0.1-0.4l3.1-7.6c0.3-0.7,0.7-1,1.3-1c0.6,0,1,0.3,1.3,1l3.1,7.6c0.1,0.2,0.1,0.3,0.1,0.5c0,0.3-0.1,0.5-0.4,0.6
			c-0.2,0.1-0.3,0.1-0.5,0.1c-0.4,0-0.7-0.2-0.9-0.6l-0.8-2H1353z M1354.9,6014.9l-1.4,3.9h2.7L1354.9,6014.9z"/>
		<path class="st1" d="M1362.4,6014.6h-1c-0.1,0-0.3,0-0.4-0.1c-0.1-0.1-0.2-0.3-0.2-0.5c0-0.3,0.1-0.5,0.3-0.6
			c0.1-0.1,0.2-0.1,0.3-0.1h3.7c0.1,0,0.3,0,0.4,0.1c0.1,0.1,0.2,0.3,0.2,0.5c0,0.3-0.1,0.4-0.3,0.6c-0.1,0.1-0.2,0.1-0.3,0.1h-0.9
			v6.9h0.9c0.1,0,0.3,0,0.4,0.1c0.1,0.1,0.2,0.3,0.2,0.5c0,0.3-0.1,0.4-0.3,0.6c-0.1,0.1-0.2,0.1-0.3,0.1h-3.7c-0.1,0-0.3,0-0.4-0.1
			c-0.1-0.1-0.2-0.3-0.2-0.5c0-0.3,0.1-0.5,0.3-0.6c0.1-0.1,0.2-0.1,0.3-0.1h1V6014.6z"/>
		<path class="st1" d="M1370,6013.9v7c0,0.2,0.1,0.3,0.3,0.3h4.2c0.1,0,0.2,0,0.3,0.1c0.2,0.1,0.3,0.4,0.3,0.7
			c0,0.3-0.1,0.5-0.2,0.6c-0.1,0.1-0.2,0.2-0.4,0.2h-4.9c-0.9,0-1.4-0.5-1.4-1.4v-7.5c0-0.3,0.1-0.5,0.4-0.6
			c0.2-0.1,0.3-0.1,0.5-0.1c0.2,0,0.5,0.1,0.6,0.2C1369.9,6013.5,1370,6013.7,1370,6013.9z"/>
		<path class="st1" d="M1383.5,6020.3l-0.8,2c-0.2,0.4-0.5,0.6-0.9,0.6c-0.2,0-0.3,0-0.5-0.1c-0.3-0.1-0.5-0.4-0.5-0.7
			c0-0.1,0-0.3,0.1-0.4l3.1-7.6c0.3-0.7,0.7-1,1.3-1c0.6,0,1,0.3,1.3,1l3.1,7.6c0.1,0.2,0.1,0.3,0.1,0.5c0,0.3-0.1,0.5-0.4,0.6
			c-0.2,0.1-0.3,0.1-0.5,0.1c-0.4,0-0.7-0.2-0.9-0.6l-0.8-2H1383.5z M1385.4,6014.9l-1.4,3.9h2.7L1385.4,6014.9z"/>
		<path class="st1" d="M1393.4,6013.3h2c1.2,0,2.2,0.3,3,0.8c0.6,0.4,1.1,0.9,1.5,1.6c0.4,0.7,0.5,1.5,0.5,2.4c0,1.2-0.3,2.2-1,3
			c-0.9,1.2-2.3,1.7-4.1,1.7h-1.9c-1,0-1.5-0.5-1.5-1.5v-6.5C1391.9,6013.8,1392.4,6013.3,1393.4,6013.3z M1393.7,6015.1v5.8
			c0,0.2,0.1,0.3,0.3,0.3h1.1c0.9,0,1.6-0.1,2-0.4c0.9-0.5,1.4-1.5,1.4-2.8c0-0.7-0.2-1.4-0.5-1.9c-0.4-0.6-0.9-1-1.7-1.2
			c-0.3-0.1-0.7-0.1-1.2-0.1h-1.1C1393.8,6014.8,1393.7,6014.9,1393.7,6015.1z"/>
		<path class="st1" d="M1404.4,6013.3h2c1.2,0,2.2,0.3,3,0.8c0.6,0.4,1.1,0.9,1.5,1.6c0.4,0.7,0.5,1.5,0.5,2.4c0,1.2-0.3,2.2-1,3
			c-0.9,1.2-2.3,1.7-4.1,1.7h-1.9c-1,0-1.5-0.5-1.5-1.5v-6.5C1402.9,6013.8,1403.4,6013.3,1404.4,6013.3z M1404.7,6015.1v5.8
			c0,0.2,0.1,0.3,0.3,0.3h1.1c0.9,0,1.6-0.1,2-0.4c0.9-0.5,1.4-1.5,1.4-2.8c0-0.7-0.2-1.4-0.5-1.9c-0.4-0.6-0.9-1-1.7-1.2
			c-0.3-0.1-0.7-0.1-1.2-0.1h-1.1C1404.8,6014.8,1404.7,6014.9,1404.7,6015.1z"/>
		<path class="st1" d="M1415.6,6018.8v3.4c0,0.2-0.1,0.4-0.2,0.5c-0.2,0.2-0.4,0.2-0.7,0.2c-0.4,0-0.6-0.1-0.8-0.4
			c-0.1-0.1-0.1-0.2-0.1-0.4v-7.3c0-1,0.5-1.6,1.6-1.6h2.3c0.9,0,1.7,0.2,2.2,0.5c0.3,0.2,0.6,0.4,0.8,0.7c0.3,0.4,0.5,1,0.5,1.5
			c0,1.4-0.8,2.3-2.3,2.5l2.5,3.1c0.1,0.1,0.2,0.3,0.2,0.5c0,0.3-0.1,0.5-0.4,0.7c-0.2,0.1-0.4,0.2-0.6,0.2c-0.3,0-0.6-0.2-0.8-0.5
			l-2.6-3.7H1415.6z M1415.6,6017.3h1.8c1.3,0,1.9-0.4,1.9-1.3c0-0.8-0.6-1.3-1.9-1.3h-1.6c-0.2,0-0.3,0.1-0.3,0.3V6017.3z"/>
		<path class="st1" d="M1425.7,6018.7v2.4c0,0.2,0.1,0.2,0.2,0.2h4.5c0.2,0,0.3,0.1,0.4,0.2c0.1,0.1,0.2,0.3,0.2,0.6
			c0,0.3-0.1,0.6-0.3,0.7c-0.1,0.1-0.2,0.1-0.3,0.1h-5.3c-0.8,0-1.3-0.4-1.3-1.3v-7c0-0.8,0.4-1.3,1.3-1.3h5.1
			c0.2,0,0.3,0.1,0.4,0.2c0.2,0.1,0.2,0.3,0.2,0.6c0,0.3-0.1,0.5-0.3,0.7c-0.1,0.1-0.2,0.1-0.3,0.1h-4.3c-0.2,0-0.2,0.1-0.2,0.2v2.1
			h4c0.1,0,0.3,0,0.4,0.1c0.2,0.1,0.2,0.3,0.2,0.6c0,0.3-0.1,0.5-0.3,0.6c-0.1,0.1-0.2,0.1-0.3,0.1H1425.7z"/>
		<path class="st1" d="M1436.7,6013.1c0.8,0,1.6,0.2,2.2,0.6c0.6,0.4,0.9,0.7,0.9,1.1c0,0.2-0.1,0.4-0.2,0.5
			c-0.2,0.2-0.4,0.3-0.6,0.3c-0.2,0-0.4-0.1-0.7-0.3c-0.5-0.5-1.1-0.7-1.7-0.7c-0.5,0-0.9,0.1-1.2,0.3c-0.4,0.2-0.5,0.5-0.5,0.9
			c0,0.3,0.2,0.6,0.5,0.8c0.2,0.2,0.8,0.4,1.7,0.7c1.2,0.3,2,0.7,2.4,1c0.6,0.5,0.9,1.2,0.9,2c0,0.9-0.4,1.7-1.1,2.2
			c-0.7,0.5-1.5,0.7-2.6,0.7c-1,0-1.9-0.2-2.7-0.7c-0.7-0.5-1.1-0.9-1.1-1.4c0-0.2,0.1-0.3,0.2-0.5c0.2-0.2,0.4-0.3,0.6-0.3
			c0.2,0,0.3,0.1,0.5,0.2c0,0,0.1,0.1,0.3,0.3c0.6,0.6,1.4,0.9,2.2,0.9c0.6,0,1-0.1,1.3-0.3c0.4-0.2,0.6-0.5,0.6-0.9
			c0-0.4-0.2-0.7-0.6-1c-0.3-0.2-0.9-0.4-1.8-0.7c-1-0.3-1.7-0.6-2.2-0.9c-0.6-0.4-0.9-1-0.9-1.9c0-0.7,0.2-1.2,0.7-1.7
			C1434.5,6013.4,1435.5,6013.1,1436.7,6013.1z"/>
		<path class="st1" d="M1446.2,6013.1c0.8,0,1.6,0.2,2.2,0.6c0.6,0.4,0.9,0.7,0.9,1.1c0,0.2-0.1,0.4-0.2,0.5
			c-0.2,0.2-0.4,0.3-0.6,0.3c-0.2,0-0.4-0.1-0.7-0.3c-0.5-0.5-1.1-0.7-1.7-0.7c-0.5,0-0.9,0.1-1.2,0.3c-0.4,0.2-0.5,0.5-0.5,0.9
			c0,0.3,0.2,0.6,0.5,0.8c0.2,0.2,0.8,0.4,1.7,0.7c1.2,0.3,2,0.7,2.4,1c0.6,0.5,0.9,1.2,0.9,2c0,0.9-0.4,1.7-1.1,2.2
			c-0.7,0.5-1.5,0.7-2.6,0.7c-1,0-1.9-0.2-2.7-0.7c-0.7-0.5-1.1-0.9-1.1-1.4c0-0.2,0.1-0.3,0.2-0.5c0.2-0.2,0.4-0.3,0.6-0.3
			c0.2,0,0.3,0.1,0.5,0.2c0,0,0.1,0.1,0.3,0.3c0.6,0.6,1.4,0.9,2.2,0.9c0.6,0,1-0.1,1.3-0.3c0.4-0.2,0.6-0.5,0.6-0.9
			c0-0.4-0.2-0.7-0.6-1c-0.3-0.2-0.9-0.4-1.8-0.7c-1-0.3-1.7-0.6-2.2-0.9c-0.6-0.4-0.9-1-0.9-1.9c0-0.7,0.2-1.2,0.7-1.7
			C1444.1,6013.4,1445,6013.1,1446.2,6013.1z"/>
	</g>
	<g class="st0">
		<path class="st1" d="M1344.4,5982.8v3.6c1.7-2.7,3.9-4,6.4-4c1.4,0,2.6,0.4,3.5,1.2c0.8,0.7,1.3,1.6,1.5,2.7c1.7-2.7,3.9-4,6.4-4
			c1.8,0,3.2,0.6,4.2,1.8c0.9,1.1,1.4,2.5,1.4,4.3v14.7h-4.7v-13.4c0-2.3-0.9-3.4-2.8-3.4c-0.8,0-1.7,0.4-2.5,1.1
			c-0.7,0.6-1.3,1.4-1.7,2.4v13.3h-4.6v-13.4c0-2.3-0.8-3.4-2.5-3.4c-0.9,0-1.7,0.4-2.6,1.1c-0.7,0.6-1.4,1.4-1.8,2.4v13.3h-4.6
			v-20.3H1344.4z"/>
		<path class="st1" d="M1378.5,5974.4v4.8h-5v-4.8H1378.5z M1378.3,5982.8v20.3h-4.7v-20.3H1378.3z"/>
		<path class="st1" d="M1394.8,5974.1l-0.5,3.3c-0.8-0.1-1.3-0.2-1.7-0.2c-1.6,0-2.4,0.9-2.4,2.8v2.7h4.2v3.4h-4.2v16.9h-4.6v-16.9
			h-3.3v-3.4h3.3v-3c0-3.9,2-5.9,6.1-5.9C1392.6,5973.8,1393.7,5973.9,1394.8,5974.1z"/>
		<path class="st1" d="M1415.1,5982.8v20.3h-4.5v-3.5c-0.8,1.3-1.8,2.3-3.1,3.1c-1.1,0.6-2.3,1-3.5,1c-1.8,0-3.3-0.6-4.4-1.7
			c-1-1.1-1.5-2.5-1.5-4.3v-14.8h4.8v13.5c0,2.2,1,3.3,2.9,3.3c0.9,0,1.8-0.4,2.8-1.1c0.8-0.6,1.4-1.4,1.9-2.4v-13.4H1415.1z"/>
		<path class="st1" d="M1425.6,5982.8v3.6c0.9-1.3,2-2.3,3.2-3.1c1.1-0.6,2.3-1,3.5-1c1.8,0,3.3,0.6,4.4,1.8c1,1.1,1.4,2.5,1.4,4.3
			v14.7h-4.8v-13.4c0-2.3-0.9-3.4-2.8-3.4c-0.9,0-1.8,0.3-2.7,1c-0.8,0.6-1.5,1.4-2.1,2.4v13.3h-4.7v-20.3H1425.6z"/>
		<path class="st1" d="M1461,5993.9h-13.7c0,2.1,0.5,3.7,1.5,4.9c0.9,1,2.1,1.5,3.6,1.5c2.2,0,3.6-1.3,4.3-3.9l4.2,1.2
			c-1.3,3.9-4.1,5.9-8.6,5.9c-3.2,0-5.7-1-7.4-3.1c-1.5-1.8-2.2-4.3-2.2-7.4c0-3.5,1-6.2,2.9-8.2c1.6-1.7,3.8-2.5,6.3-2.5
			c2.9,0,5.1,1,6.8,3.1c1.5,1.9,2.3,4.4,2.3,7.5V5993.9z M1456.5,5990.9c-0.2-3.6-1.7-5.3-4.4-5.3c-1.5,0-2.6,0.5-3.5,1.6
			c-0.7,0.9-1.1,2.2-1.2,3.7H1456.5z"/>
		<path class="st1" d="M1487.8,5981.4l-3.4,9.4c-0.4,1.1-0.6,1.9-0.6,2.5c0,0.4,0.2,0.7,0.5,1c0.3,0.2,0.6,0.3,0.9,0.3
			c1.7,0,3.3-0.9,4.6-2.7c1.3-1.7,2-3.7,2-6.1c0-3.3-1.2-5.9-3.7-7.9c-2.1-1.7-4.8-2.5-8-2.5c-4.3,0-7.8,1.5-10.4,4.6
			c-2.2,2.6-3.3,5.7-3.3,9.3c0,4,1.3,7.2,4,9.5c2.3,2,5.3,3,8.8,3c5.3,0,9.2-1.9,11.9-5.7l1.4,1.1c-3.1,4.2-7.5,6.3-13.2,6.3
			c-4.6,0-8.3-1.5-11.1-4.5c-2.4-2.6-3.6-5.9-3.6-9.8c0-2.8,0.7-5.3,2-7.7c1.3-2.4,3.2-4.2,5.5-5.6c2.4-1.4,5.1-2.2,8-2.2
			c4.2,0,7.6,1.3,10.2,3.9c2.3,2.2,3.4,5,3.4,8.2c0,3.1-1,5.7-3.1,7.9c-1.8,1.8-3.7,2.7-5.9,2.7c-2.3,0-3.6-1-3.7-2.9
			c-1.2,1.9-2.8,2.8-4.8,2.8c-1.7,0-3-0.5-4-1.5c-0.8-0.9-1.2-2.1-1.2-3.7c0-3,1-5.6,3.1-7.7c1.8-1.9,3.9-2.8,6.2-2.8
			c1,0,1.7,0.3,2.3,0.8c0.6,0.5,0.9,1.1,1,1.9l0.7-2H1487.8z M1482.8,5985.6c0-2-0.8-3-2.3-3c-1.5,0-2.8,1.1-4.1,3.2
			c-1.1,1.8-1.6,3.8-1.6,5.8c0,1,0.2,1.8,0.7,2.3c0.4,0.5,0.9,0.7,1.5,0.7c1.9,0,3.2-1.3,4.1-3.9L1482.8,5985.6z"/>
		<path class="st1" d="M1502.9,5982.8v3.6c1.7-2.7,3.9-4,6.4-4c1.4,0,2.6,0.4,3.5,1.2c0.8,0.7,1.3,1.6,1.5,2.7c1.7-2.7,3.9-4,6.4-4
			c1.8,0,3.2,0.6,4.2,1.8c0.9,1.1,1.4,2.5,1.4,4.3v14.7h-4.7v-13.4c0-2.3-0.9-3.4-2.8-3.4c-0.8,0-1.7,0.4-2.5,1.1
			c-0.7,0.6-1.3,1.4-1.7,2.4v13.3h-4.6v-13.4c0-2.3-0.8-3.4-2.5-3.4c-0.9,0-1.7,0.4-2.6,1.1c-0.7,0.6-1.4,1.4-1.8,2.4v13.3h-4.6
			v-20.3H1502.9z"/>
		<path class="st1" d="M1531.6,5987.9c1-3.7,3.8-5.6,8.4-5.6c5.3,0,7.9,2.2,7.9,6.7v8.1c0,2,0.1,4,0.3,6h-4.3
			c-0.1-0.8-0.2-1.6-0.3-2.7c-1.5,2.1-3.6,3.1-6.4,3.1c-2,0-3.6-0.6-4.7-1.8c-1-1.1-1.5-2.5-1.5-4.2c0-3.6,2.2-5.8,6.6-6.7
			c1.6-0.3,3.6-0.5,5.8-0.6v-1.2c0-1.3-0.3-2.3-1-2.9c-0.6-0.5-1.4-0.7-2.6-0.7c-1.1,0-1.9,0.3-2.6,1c-0.6,0.6-1.1,1.5-1.2,2.5
			L1531.6,5987.9z M1543.4,5993.1c-1.6,0-3.1,0.2-4.7,0.6c-2.2,0.5-3.3,1.7-3.3,3.5c0,2,1.1,3.1,3.3,3.1c2,0,3.6-1.1,4.7-3.3V5993.1
			z"/>
		<path class="st1" d="M1558.6,5974.4v4.8h-5v-4.8H1558.6z M1558.4,5982.8v20.3h-4.7v-20.3H1558.4z"/>
		<path class="st1" d="M1569,5973.8v29.2h-4.7v-29.2H1569z"/>
		<path class="st1" d="M1579.8,5998v5.1h-5.3v-5.1H1579.8z"/>
		<path class="st1" d="M1601.5,5988.8l-4.5,1c-0.4-2.7-1.6-4.1-3.6-4.1c-3,0-4.6,2.4-4.6,7.2c0,4.8,1.5,7.3,4.6,7.3
			c2.1,0,3.4-1.4,3.9-4.3l4.3,1.2c-0.5,2.2-1.6,3.9-3.2,5c-1.4,1-3.1,1.4-5.1,1.4c-3.1,0-5.4-1.1-7.1-3.2c-1.4-1.9-2.1-4.3-2.1-7.4
			c0-3.5,0.9-6.3,2.8-8.2c1.6-1.7,3.8-2.5,6.4-2.5c2.3,0,4.2,0.6,5.7,1.9C1600.2,5985.3,1601.1,5986.9,1601.5,5988.8z"/>
		<path class="st1" d="M1613.7,5982.3c3,0,5.3,1.1,7,3.2c1.5,1.9,2.2,4.4,2.2,7.4c0,3.5-1,6.2-2.9,8.2c-1.6,1.7-3.8,2.5-6.4,2.5
			c-3,0-5.3-1.1-7-3.2c-1.5-1.9-2.2-4.3-2.2-7.4c0-3.5,1-6.2,2.9-8.2C1609,5983.2,1611.1,5982.3,1613.7,5982.3z M1613.7,5985.7
			c-3,0-4.4,2.4-4.4,7.3c0,4.9,1.5,7.3,4.4,7.3c3,0,4.4-2.4,4.4-7.3C1618.1,5988.1,1616.6,5985.7,1613.7,5985.7z"/>
		<path class="st1" d="M1632.1,5982.8v3.6c1.7-2.7,3.9-4,6.4-4c1.4,0,2.6,0.4,3.5,1.2c0.8,0.7,1.3,1.6,1.5,2.7c1.7-2.7,3.9-4,6.4-4
			c1.8,0,3.2,0.6,4.2,1.8c0.9,1.1,1.4,2.5,1.4,4.3v14.7h-4.7v-13.4c0-2.3-0.9-3.4-2.8-3.4c-0.8,0-1.7,0.4-2.5,1.1
			c-0.7,0.6-1.3,1.4-1.7,2.4v13.3h-4.6v-13.4c0-2.3-0.8-3.4-2.5-3.4c-0.9,0-1.7,0.4-2.6,1.1c-0.7,0.6-1.4,1.4-1.8,2.4v13.3h-4.6
			v-20.3H1632.1z"/>
	</g>
	<circle id="楕円形_15" class="st1" cx="1287" cy="5997" r="33"/>
	<path id="楕円形_15_-_アウトライン" class="st2" d="M1287,5965c-17.7,0-32,14.4-32,32c0,12.8,7.7,24.4,19.5,29.5
		c16.3,6.9,35.1-0.7,41.9-17s-0.7-35.1-17-41.9c0,0,0,0,0,0C1295.5,5965.8,1291.3,5965,1287,5965 M1287,5964c18.2,0,33,14.8,33,33
		s-14.8,33-33,33s-33-14.8-33-33S1268.8,5964,1287,5964z"/>
	<path id="パス_11" class="st3" d="M1302.5,5985H1272c-0.5,0-1,0.4-1,1v1.9l16.2,10.9l16.2-10.9v-1.9
		C1303.5,5985.4,1303,5985,1302.5,5985z"/>
	<path id="パス_12" class="st3" d="M1271,5991.9v12.9c0,2.2,1.8,3.9,3.9,3.9c0,0,0,0,0,0h24.6c2.2,0,3.9-1.8,3.9-3.9c0,0,0,0,0,0
		v-12.9l-16.2,10.9L1271,5991.9z"/>
</g>
</svg>
