<?xml version="1.0" encoding="utf-8"?>
<!-- Generator: Adobe Illustrator 26.0.2, SVG Export Plug-In . SVG Version: 6.00 Build 0)  -->
<svg version="1.1" id="レイヤー_1" xmlns="http://www.w3.org/2000/svg" xmlns:xlink="http://www.w3.org/1999/xlink" x="0px"
	 y="0px" viewBox="0 0 290 60" style="enable-background:new 0 0 290 60;" xml:space="preserve">
<style type="text/css">
	.st0{fill:#06438D;}
	.st1{fill:#FFFFFF;}
	.st2{enable-background:new    ;}
</style>
<g id="グループ_53" transform="translate(-1500 -65)">
	<path id="長方形_12" class="st0" d="M1510,65h270c5.5,0,10,4.5,10,10v40c0,5.5-4.5,10-10,10h-270c-5.5,0-10-4.5-10-10V75
		C1500,69.5,1504.5,65,1510,65z"/>
	<g id="グループ_26" transform="translate(44.503 7)">
		<g id="メールの無料アイコン" transform="translate(1496.497 7.2)">
			<path id="パス_11" class="st1" d="M31.5,68.8H1c-0.5,0-1,0.4-1,1v1.9l16.2,10.9l16.2-10.9v-1.9C32.5,69.2,32,68.8,31.5,68.8z"
				/>
			<path id="パス_12" class="st1" d="M0,75.7v12.9c0,2.2,1.8,3.9,3.9,3.9c0,0,0,0,0,0h24.6c2.2,0,3.9-1.8,3.9-3.9c0,0,0,0,0,0
				V75.7L16.2,86.6L0,75.7z"/>
		</g>
		<g class="st2">
			<path class="st1" d="M1567.3,78.4l-3.7,18.6h-4l-1.6-8.7c-0.2-1-0.5-3.3-1-7h-0.3c-0.5,3.3-0.8,5.6-1,6.9l-1.5,8.8h-4l-3.6-18.6
				h3.3l1.3,8.5c0.4,2.5,0.7,4.8,0.9,6.9h0.3c0.1-0.5,0.2-1.3,0.3-2.3c0.3-2,0.5-3.5,0.7-4.5l1.5-8.6h4.1l1.6,8.8
				c0.4,2.2,0.7,4.4,0.9,6.6h0.3c0.1-0.5,0.2-1.8,0.5-3.6c0.2-1.2,0.3-2.2,0.4-3.1l1.4-8.7H1567.3z"/>
			<path class="st1" d="M1583.8,78.4V81h-9.1v4.9h6.8v2.6h-6.8v6h9.2V97h-12.5V78.4H1583.8z"/>
			<path class="st1" d="M1588.5,78.4h6.6c2.4,0,4.1,0.5,5.1,1.4c0.8,0.7,1.2,1.8,1.2,3.2c0,1.1-0.4,2.1-1.1,2.8
				c-0.6,0.6-1.5,1.1-2.6,1.2v0.2c1.5,0.2,2.6,0.8,3.3,1.7c0.6,0.8,1,1.7,1,2.8c0,1.8-0.6,3.1-1.9,4.1c-1.1,0.8-2.7,1.2-4.7,1.2h-7
				V78.4z M1591.7,80.9v5.2h2.8c1.3,0,2.3-0.3,3-0.8c0.5-0.5,0.8-1.1,0.8-1.9c0-0.9-0.3-1.6-0.9-2c-0.6-0.4-1.4-0.6-2.6-0.6H1591.7z
				 M1591.7,88.5v6.1h3.5c1.3,0,2.3-0.3,2.9-0.9c0.5-0.5,0.8-1.2,0.8-2.2c0-1-0.4-1.8-1.2-2.3c-0.7-0.5-1.7-0.7-2.9-0.7H1591.7z"/>
			<path class="st1" d="M1612.3,83.6c0.2-0.9,0.5-1.9,0.7-3c0.2-1,0.2-1.8,0.2-2.7c1.2,0.2,2.1,0.5,2.9,0.8c0.3,0.1,0.4,0.2,0.4,0.5
				c0,0.1-0.1,0.3-0.2,0.4c-0.2,0.2-0.4,0.6-0.5,0.9c-0.1,0.4-0.3,0.9-0.5,1.5c-0.2,0.6-0.3,1.1-0.4,1.4c0.6-0.1,1.2-0.1,1.9-0.1
				c1.2,0,2.1,0.4,2.7,1.3c0.5,0.8,0.8,1.8,0.8,3.2c0,1.6-0.1,3.1-0.4,4.5c-0.2,1.3-0.5,2.4-0.9,3.2c-0.7,1.5-1.8,2.2-3.2,2.2
				c-1,0-1.8-0.1-2.4-0.3c-0.3-0.1-0.4-0.3-0.4-0.7c-0.1-1-0.2-1.7-0.4-2.2c0.9,0.4,1.8,0.5,2.6,0.5c0.4,0,0.7-0.1,1-0.3
				c0.2-0.2,0.4-0.5,0.6-1c0.6-1.7,0.9-3.6,0.9-5.9c0-0.9-0.1-1.5-0.3-1.8c-0.2-0.3-0.6-0.4-1-0.4c-0.5,0-1.2,0.1-2,0.2
				c-1.6,4.6-3.2,8.3-4.8,11.3c-0.1,0.2-0.2,0.3-0.4,0.3c-0.1,0-0.2,0-0.3-0.1c-0.7-0.4-1.3-0.7-1.7-1.1c-0.1-0.1-0.2-0.2-0.2-0.4
				c0-0.1,0-0.2,0.1-0.3c1.9-3.3,3.4-6.4,4.4-9.4c-0.5,0.1-1.3,0.2-2.3,0.4c-0.4,0.1-0.9,0.2-1.3,0.4c-0.1,0-0.2,0.1-0.3,0.1
				c-0.2,0-0.4-0.1-0.5-0.4c-0.2-0.6-0.5-1.4-0.7-2.5c0.9,0,1.9-0.1,3.2-0.2C1610.3,83.9,1611.3,83.7,1612.3,83.6z M1620.8,83.4
				c0.9-0.6,1.5-1,1.9-1.2c0.1,0,0.1,0,0.2,0c0.1,0,0.2,0.1,0.3,0.2c1.8,1.7,3.1,3.7,4,5.8c0,0.1,0.1,0.2,0.1,0.2
				c0,0.1-0.1,0.2-0.2,0.3c-0.5,0.4-1.1,0.8-1.8,1.2c-0.1,0-0.2,0.1-0.2,0.1c-0.2,0-0.3-0.1-0.3-0.3
				C1623.8,87,1622.5,84.9,1620.8,83.4z"/>
			<path class="st1" d="M1633.1,82.7c1.3,0.4,2.1,0.7,2.5,0.9c0.3,0.1,0.4,0.3,0.4,0.5c0,0.1,0,0.2-0.1,0.4
				c-0.2,0.4-0.4,0.8-0.5,1.3c-0.3,1.4-0.5,2.9-0.6,4.4c1.2-1.2,2.6-2.2,4-2.9c1.3-0.6,2.7-0.9,4-0.9c1.9,0,3.3,0.5,4.3,1.6
				c0.9,0.9,1.3,2.1,1.3,3.5c0,2.4-1.2,4.2-3.6,5.4c-1.5,0.8-3.6,1.3-6.2,1.7c-0.2,0-0.3,0-0.4,0c-0.2,0-0.4-0.1-0.6-0.3
				c-0.5-0.9-1.1-1.6-1.6-2c2.8-0.2,5-0.6,6.6-1.3c1.9-0.8,2.8-2,2.8-3.6c0-0.8-0.3-1.4-0.8-1.8c-0.5-0.4-1.2-0.7-2.1-0.7
				c-1.1,0-2.3,0.4-3.6,1.1c-1.1,0.6-2.2,1.5-3.3,2.5c-0.4,0.4-0.7,0.8-1,1.3c-0.1,0.1-0.2,0.2-0.3,0.2c-0.1,0-0.1,0-0.3,0
				c-0.7-0.2-1.2-0.4-1.6-0.6c-0.2-0.1-0.3-0.2-0.3-0.5c0.1-2.4,0.4-5,0.7-7.7C1633,83.8,1633.1,83,1633.1,82.7z M1634.7,79.3
				c0.6-0.9,1.1-1.5,1.4-1.9c0.1-0.1,0.2-0.2,0.3-0.2c0,0,0.1,0,0.2,0c1.7,0.7,3.3,1.6,4.7,2.9c0.1,0.1,0.2,0.2,0.2,0.3
				c0,0.1,0,0.1-0.1,0.3c-0.4,0.6-0.8,1.1-1.2,1.7c-0.1,0.1-0.2,0.2-0.3,0.2c-0.1,0-0.2-0.1-0.3-0.2
				C1638.1,81.1,1636.5,80.1,1634.7,79.3z"/>
			<path class="st1" d="M1660.8,81.2c1.1,0.6,2.2,1.2,3,1.8c1.5-0.9,2.8-1.8,3.9-2.8h-8.6l-3.3,0c-0.2,0-0.2-0.1-0.2-0.3v-1.8
				c0-0.2,0.1-0.3,0.2-0.3l3.3,0h10.1c0.3,0,0.5,0,0.6-0.1c0.2-0.1,0.3-0.1,0.3-0.1c0.2,0,0.6,0.3,1.1,0.8c0.6,0.5,0.9,0.9,0.9,1.2
				c0,0.2-0.1,0.3-0.4,0.5c-0.3,0.2-0.6,0.4-0.9,0.6c-1.4,1.2-3,2.4-5,3.6l0.8,0.7c0.1,0.1,0.1,0.1,0.1,0.2c0,0-0.1,0.1-0.2,0.2
				l-0.4,0.3h5.4c0.2,0,0.4,0,0.6-0.1c0.1-0.1,0.3-0.1,0.4-0.1c0.2,0,0.6,0.2,1.2,0.7c0.5,0.4,0.8,0.8,0.8,1c0,0.1-0.1,0.3-0.3,0.5
				c-0.2,0.1-0.5,0.4-0.9,0.9c-1.1,1.4-2.2,2.5-3.3,3.4c-0.3,0.2-0.4,0.4-0.6,0.4c-0.1,0-0.3-0.1-0.6-0.4c-0.5-0.4-1.1-0.8-1.7-1.1
				c1.5-1,2.5-2,3.2-2.8h-5.2v4l0,3.7c0,1.1-0.3,1.8-0.8,2.2c-0.4,0.3-0.9,0.4-1.5,0.5c-0.5,0.1-1.4,0.1-2.5,0.1
				c-0.4,0-0.6,0-0.7-0.1c-0.1-0.1-0.1-0.3-0.2-0.6c-0.2-0.8-0.5-1.4-0.8-1.9c1.2,0.1,2.2,0.1,3,0.1c0.4,0,0.6-0.1,0.8-0.2
				c0.1-0.1,0.2-0.3,0.2-0.7v-7.1h-5.9l-3,0c-0.1,0-0.2,0-0.2,0s0-0.1,0-0.2v-1.9c0-0.1,0-0.2,0-0.2s0.1,0,0.2,0l3,0h6.9
				c-1.1-0.9-2.7-1.9-4.5-3c-0.1-0.1-0.2-0.1-0.2-0.2c0-0.1,0.1-0.1,0.2-0.2l1.2-1.1c0.1-0.1,0.2-0.2,0.3-0.2
				C1660.7,81.1,1660.8,81.2,1660.8,81.2z"/>
			<path class="st1" d="M1686.7,84.7c0.7,1.4,1.3,2.8,1.8,4.3c0,0.1,0,0.1,0,0.2c0,0.1-0.1,0.2-0.3,0.3L1687,90c-0.1,0-0.2,0-0.2,0
				c-0.1,0-0.2-0.1-0.2-0.2l-0.3-1.1c-0.4,0.1-0.9,0.1-1.7,0.2v6.6l0,3.1c0,0.1,0,0.2,0,0.2c0,0-0.1,0-0.2,0h-1.8
				c-0.1,0-0.2,0-0.2,0s0-0.1,0-0.2l0-3.1v-6.4l-2.3,0.1c-0.4,0-0.7,0.1-0.9,0.2c-0.1,0.1-0.3,0.1-0.4,0.1c-0.1,0-0.2-0.1-0.3-0.4
				c-0.1-0.6-0.2-1.2-0.3-2c0.6,0,1.1,0.1,1.5,0.1c0.2,0,0.3,0,0.5,0l1.3-1.8c-1-1.3-2.1-2.4-3.2-3.5c-0.1-0.1-0.1-0.2-0.1-0.2
				c0,0,0.1-0.1,0.2-0.3l0.9-1.2c0.1-0.1,0.2-0.2,0.2-0.2c0,0,0.1,0,0.2,0.1l0.6,0.6c0.5-0.8,0.9-1.6,1.3-2.4c0.2-0.5,0.4-1,0.6-1.5
				c0.9,0.3,1.6,0.6,2.1,0.9c0.2,0.1,0.3,0.2,0.3,0.4c0,0.1-0.1,0.2-0.2,0.3c-0.2,0.1-0.3,0.3-0.5,0.6c-0.8,1.3-1.5,2.4-2.1,3.3
				c0.6,0.7,1,1.1,1.1,1.2c0.5-0.7,1-1.6,1.6-2.7c0.3-0.5,0.5-1.1,0.7-1.7c0.9,0.4,1.6,0.8,2,1c0.2,0.1,0.3,0.2,0.3,0.4
				c0,0.1-0.1,0.3-0.3,0.4c-0.2,0.1-0.4,0.4-0.8,1c-1.2,1.8-2.4,3.6-3.7,5.2c1.3-0.1,2.3-0.1,2.9-0.2c-0.2-0.6-0.5-1.1-0.7-1.5
				c0-0.1-0.1-0.1-0.1-0.2c0-0.1,0.1-0.1,0.3-0.2l1.1-0.4c0.1,0,0.2,0,0.2,0C1686.6,84.5,1686.7,84.6,1686.7,84.7z M1678.2,96.4
				c0.6-1.5,0.9-3.1,1.1-4.6c0-0.4,0.1-0.7,0.1-0.9c0-0.1,0-0.2,0-0.4c1.1,0.1,1.7,0.2,1.9,0.3c0.3,0,0.4,0.1,0.4,0.3
				c0,0,0,0.2-0.1,0.4c0,0-0.1,0.3-0.2,0.8c-0.2,1.6-0.5,3.1-0.9,4.6c-0.1,0.4-0.2,0.5-0.3,0.5c-0.1,0-0.3-0.1-0.6-0.3
				C1679.2,96.8,1678.8,96.6,1678.2,96.4z M1686.9,90.4c0.1,0,0.2,0,0.2,0c0.1,0,0.2,0.1,0.2,0.3c0.6,1.8,1,3.3,1.2,4.5
				c0,0.1,0,0.1,0,0.2c0,0.1-0.1,0.2-0.3,0.3L1687,96c-0.1,0-0.2,0.1-0.3,0.1c-0.1,0-0.1-0.1-0.2-0.2c-0.3-1.7-0.7-3.3-1.1-4.6
				c0-0.1,0-0.2,0-0.2c0-0.1,0.1-0.1,0.3-0.2L1686.9,90.4z M1686.9,84.6c1.6-1.7,2.8-3.7,3.4-5.8c0.2-0.7,0.4-1.4,0.5-2
				c0.8,0.1,1.6,0.3,2.3,0.5c0.3,0.1,0.5,0.2,0.5,0.4s-0.1,0.3-0.2,0.5c-0.2,0.2-0.5,0.6-0.7,1.2c-0.2,0.7-0.4,1.2-0.6,1.5h4.5
				l2.4,0c0.2,0,0.3,0.1,0.3,0.3c0,0.5,0,1.1,0,2c0,5.2-0.3,9.2-0.7,12c-0.2,1.3-0.6,2.3-1.2,2.8c-0.6,0.5-1.4,0.8-2.4,0.8l-0.9,0
				c-0.4,0-0.7,0-0.9,0c-0.4,0-0.6-0.1-0.7-0.2c-0.1-0.1-0.1-0.3-0.2-0.7c-0.2-0.7-0.4-1.3-0.7-1.8c1.1,0.1,2,0.2,2.7,0.2
				c0.1,0,0.2,0,0.4,0c0.8,0,1.3-0.7,1.5-2.1c0.4-2.3,0.6-6,0.6-11.2h-5.7c-0.6,1-1.2,1.9-1.9,2.7c-0.3,0.3-0.4,0.4-0.5,0.4
				c-0.1,0-0.3-0.1-0.5-0.4C1687.8,85.2,1687.3,84.8,1686.9,84.6z M1691.5,86.3c1,1.3,1.9,2.8,2.7,4.6c0,0.1,0.1,0.1,0.1,0.2
				c0,0.1-0.1,0.2-0.3,0.3l-1.5,0.9c-0.1,0.1-0.2,0.1-0.2,0.1c-0.1,0-0.2-0.1-0.2-0.2c-0.6-1.5-1.5-3.1-2.5-4.6
				c-0.1-0.1-0.1-0.2-0.1-0.2c0-0.1,0.1-0.2,0.3-0.2l1.3-0.8c0.1-0.1,0.2-0.1,0.2-0.1S1691.5,86.2,1691.5,86.3z"/>
		</g>
	</g>
</g>
</svg>
