<?xml version="1.0" encoding="utf-8"?>
<!-- Generator: Adobe Illustrator 26.0.2, SVG Export Plug-In . SVG Version: 6.00 Build 0)  -->
<svg version="1.1" id="レイヤー_1" xmlns="http://www.w3.org/2000/svg" xmlns:xlink="http://www.w3.org/1999/xlink" x="0px"
	 y="0px" viewBox="0 0 349.7 66" style="enable-background:new 0 0 349.7 66;" xml:space="preserve">
<style type="text/css">
	.st0{enable-background:new    ;}
	.st1{fill:#06438D;}
	.st2{fill:#707070;}
	.st3{fill:#FFFFFF;}
</style>
<g id="グループ_32" transform="translate(-858 -5964)">
	<g class="st0">
		<path class="st1" d="M951.6,5974.4c3.1,0,5.4,1.3,6.9,3.8c1.3,2.4,2,5.9,2,10.7c0,5.4-0.9,9.4-2.6,11.7c-1.5,2-3.6,3-6.3,3
			c-3.2,0-5.5-1.3-6.9-3.9c-1.3-2.4-2-6-2-10.8c0-5.4,0.9-9.3,2.6-11.7C946.8,5975.3,948.9,5974.4,951.6,5974.4z M951.6,5978
			c-1.6,0-2.7,0.9-3.3,2.7c-0.6,1.7-0.9,4.4-0.9,8.2c0,4.4,0.4,7.4,1.1,9c0.6,1.4,1.6,2.1,3,2.1c1.6,0,2.7-0.9,3.4-2.8
			c0.6-1.7,0.8-4.4,0.8-8.3c0-4.3-0.4-7.3-1.1-8.9C954,5978.7,953,5978,951.6,5978z"/>
		<path class="st1" d="M977.7,5974.7v24.8h5.3v3.6h-15.2v-3.6h5.5v-20.1c-1.5,1-3.3,1.9-5.2,2.5l-0.7-3.9c2.3-0.7,4.4-1.8,6.6-3.3
			H977.7z"/>
		<path class="st1" d="M989.8,5982.2c0.3-2.7,1.4-4.7,3.2-6.1c1.5-1.2,3.3-1.8,5.5-1.8c2.8,0,4.9,0.7,6.4,2.2c1.4,1.3,2,3.1,2,5.4
			c0,1.7-0.5,3.3-1.4,4.8c-0.8,1.3-2.3,2.9-4.3,4.8c-3.6,3.2-5.9,5.8-6.9,7.8h12.7v3.7h-17.5v-3.3c1.6-3.3,4.3-6.8,8.1-10.5
			c1.9-1.9,3.2-3.3,3.8-4.4c0.5-0.9,0.7-1.9,0.7-3c0-1.3-0.4-2.3-1.1-3c-0.7-0.6-1.5-0.9-2.6-0.9c-2.4,0-3.8,1.7-4,5.1L989.8,5982.2
			z"/>
		<path class="st1" d="M1021.9,5974.4c3.1,0,5.4,1.3,6.9,3.8c1.3,2.4,2,5.9,2,10.7c0,5.4-0.9,9.4-2.6,11.7c-1.5,2-3.6,3-6.3,3
			c-3.2,0-5.5-1.3-6.9-3.9c-1.3-2.4-2-6-2-10.8c0-5.4,0.9-9.3,2.6-11.7C1017.1,5975.3,1019.2,5974.4,1021.9,5974.4z M1021.9,5978
			c-1.6,0-2.7,0.9-3.3,2.7c-0.6,1.7-0.9,4.4-0.9,8.2c0,4.4,0.4,7.4,1.1,9c0.6,1.4,1.6,2.1,3,2.1c1.6,0,2.7-0.9,3.4-2.8
			c0.6-1.7,0.8-4.4,0.8-8.3c0-4.3-0.4-7.3-1.1-8.9C1024.3,5978.7,1023.3,5978,1021.9,5978z"/>
		<path class="st1" d="M1048.1,5990v3.6h-10.8v-3.6H1048.1z"/>
		<path class="st1" d="M1066.2,5974.7v24.8h5.3v3.6h-15.2v-3.6h5.5v-20.1c-1.5,1-3.3,1.9-5.2,2.5l-0.7-3.9c2.3-0.7,4.4-1.8,6.6-3.3
			H1066.2z"/>
		<path class="st1" d="M1078.3,5982.2c0.3-2.7,1.4-4.7,3.2-6.1c1.5-1.2,3.3-1.8,5.5-1.8c2.8,0,4.9,0.7,6.4,2.2c1.4,1.3,2,3.1,2,5.4
			c0,1.7-0.5,3.3-1.4,4.8c-0.8,1.3-2.3,2.9-4.3,4.8c-3.6,3.2-5.9,5.8-6.9,7.8h12.7v3.7H1078v-3.3c1.6-3.3,4.3-6.8,8.1-10.5
			c1.9-1.9,3.2-3.3,3.8-4.4c0.5-0.9,0.7-1.9,0.7-3c0-1.3-0.4-2.3-1.1-3c-0.7-0.6-1.5-0.9-2.6-0.9c-2.4,0-3.8,1.7-4,5.1
			L1078.3,5982.2z"/>
		<path class="st1" d="M1101.5,5980.5c0.6-2.1,1.7-3.7,3.4-4.7c1.4-0.9,3.2-1.4,5.2-1.4c2.7,0,4.9,0.8,6.4,2.3c1.3,1.3,2,2.9,2,4.8
			c0,1.8-0.5,3.3-1.6,4.4c-1,1-2.2,1.7-3.8,1.9v0.3c2,0.4,3.6,1.3,4.6,2.7c0.9,1.2,1.4,2.7,1.4,4.4c0,2.7-0.9,4.8-2.8,6.4
			c-1.6,1.4-3.7,2-6.2,2c-4.8,0-7.8-2.1-9-6.2l4.5-1.3c0.3,1.5,0.9,2.6,1.7,3.2c0.7,0.5,1.6,0.8,2.7,0.8c1.4,0,2.5-0.5,3.3-1.4
			c0.7-0.8,1-2,1-3.3c0-3.4-1.8-5.1-5.5-5.1h-2.2v-3.8h2c3.5,0,5.2-1.5,5.2-4.4c0-1.4-0.4-2.4-1.2-3.1c-0.7-0.6-1.6-0.9-2.7-0.9
			c-1.1,0-2,0.4-2.7,1.1c-0.7,0.7-1.1,1.6-1.2,2.8L1101.5,5980.5z"/>
		<path class="st1" d="M1136.5,5990v3.6h-10.8v-3.6H1136.5z"/>
		<path class="st1" d="M1157.6,5974.7v18.5h3.5v3.5h-3.5v6.4h-4.3v-6.4h-10.8v-3.3l9.2-18.8H1157.6z M1153.3,5993.2v-6.2
			c0-2,0.1-4.9,0.2-8.7h-0.5c-0.8,2.2-1.9,4.7-3.1,7.4l-3.5,7.5H1153.3z"/>
		<path class="st1" d="M1182.8,5974.8v3.7h-11.2l-0.2,5.7c0,1-0.1,1.9-0.2,2.7c1.1-1.6,2.7-2.4,4.8-2.4c2.5,0,4.5,1,6,2.9
			c1.3,1.7,2,3.8,2,6.4c0,3.2-0.9,5.7-2.8,7.5c-1.6,1.6-3.7,2.4-6.2,2.4c-2.4,0-4.4-0.6-5.9-1.7c-1.3-1-2.3-2.5-2.7-4.4l4.5-1.4
			c0.5,2.6,1.8,3.9,4,3.9c1.4,0,2.5-0.6,3.3-1.9c0.7-1.1,1-2.5,1-4.4c0-2-0.4-3.4-1.2-4.4c-0.7-0.9-1.7-1.3-2.9-1.3
			c-2,0-3.3,1.1-4,3.2l-3.8-0.6l0.6-15.8H1182.8z"/>
		<path class="st1" d="M1207.1,5979l-4.5,1.7c-0.4-1.9-1.4-2.8-2.9-2.8c-3.3,0-5,3.3-5.1,10c1.3-2.2,3.2-3.3,5.8-3.3
			c2.4,0,4.2,0.9,5.6,2.8c1.2,1.6,1.8,3.8,1.8,6.4c0,3.2-0.9,5.8-2.7,7.6c-1.5,1.6-3.5,2.3-5.9,2.3c-3,0-5.3-1.2-6.9-3.6
			c-1.5-2.3-2.2-5.6-2.2-9.9c0-10.5,3.3-15.7,9.8-15.7C1203.4,5974.4,1205.9,5975.9,1207.1,5979z M1194.6,5991.7
			c0,5.6,1.5,8.4,4.4,8.4c2.7,0,4-2.1,4-6.2c0-3.8-1.3-5.7-3.8-5.7C1197.3,5988.1,1195.8,5989.3,1194.6,5991.7z"/>
	</g>
	<g id="グループ_31" transform="translate(858 5964)">
		<circle id="楕円形_15" class="st1" cx="33" cy="33" r="33"/>
		<path id="楕円形_15_-_アウトライン" class="st2" d="M33,1C15.3,1,1,15.4,1,33c0,12.8,7.7,24.4,19.5,29.5
			c16.3,6.9,35.1-0.7,41.9-17s-0.7-35.1-17-41.9c0,0,0,0,0,0C41.5,1.8,37.3,1,33,1 M33,0c18.2,0,33,14.8,33,33S51.2,66,33,66
			S0,51.2,0,33S14.8,0,33,0z"/>
		<g id="電話機のフリーアイコン素材" transform="translate(15.473 18.98)">
			<path id="パス_9" class="st3" d="M23.2,11.1V5.6l-2.9,0.5v2.3h-5.3V6.2L12,5.6v5.5H8.5l-4,8.7v7.8C4.5,28.4,5,29,5.7,29h23.7
				c0.7,0,1.3-0.6,1.2-1.4v-7.8l-4-8.7L23.2,11.1z M17.6,25.1c-2.7,0-5-2.2-5-5s2.2-5,5-5c2.7,0,5,2.2,5,5
				C22.5,22.9,20.3,25.1,17.6,25.1L17.6,25.1z"/>
			<path id="パス_10" class="st3" d="M29.8,1.8C27.2,0.7,21.3,0,17.6,0C13.9,0,8,0.7,5.4,1.8C2.7,2.9,0,5.5,0,8.4
				c0,1,0.3,2.1,1,2.8h5.7c0.3,0,1.1-1.5,1.1-2.1C7.7,8.4,7.5,7.5,7.2,6.7c0-0.7,0.3-1.3,1.5-1.8c2.1-0.9,6.9-1,8.8-1s6.7,0,8.8,1
				c1.2,0.5,1.5,1,1.5,1.8c-0.3,0.8-0.5,1.7-0.6,2.5c0,0.6,0.7,2.1,1.1,2.1h5.7c0.7-0.8,1-1.8,1-2.8C35.2,5.5,32.5,2.9,29.8,1.8z"/>
		</g>
	</g>
	<g class="st0">
		<path class="st1" d="M944.6,6014.9h-2.7c-0.1,0-0.2,0-0.3-0.1c-0.2-0.1-0.3-0.4-0.3-0.7c0-0.3,0.1-0.5,0.2-0.6
			c0.1-0.1,0.2-0.2,0.4-0.2h7.3c0.1,0,0.3,0,0.4,0.1c0.2,0.1,0.3,0.4,0.3,0.7c0,0.3-0.1,0.5-0.3,0.7c-0.1,0.1-0.2,0.1-0.4,0.1h-2.7
			v7.3c0,0.2-0.1,0.4-0.2,0.5c-0.2,0.1-0.4,0.2-0.7,0.2c-0.4,0-0.6-0.1-0.8-0.4c-0.1-0.1-0.1-0.2-0.1-0.4V6014.9z"/>
		<path class="st1" d="M953.6,6018.7v2.4c0,0.2,0.1,0.2,0.2,0.2h4.5c0.2,0,0.3,0.1,0.4,0.2c0.1,0.1,0.2,0.3,0.2,0.6
			c0,0.3-0.1,0.6-0.3,0.7c-0.1,0.1-0.2,0.1-0.3,0.1h-5.3c-0.8,0-1.3-0.4-1.3-1.3v-7c0-0.8,0.4-1.3,1.3-1.3h5.1
			c0.2,0,0.3,0.1,0.4,0.2c0.2,0.1,0.2,0.3,0.2,0.6c0,0.3-0.1,0.5-0.3,0.7c-0.1,0.1-0.2,0.1-0.3,0.1h-4.3c-0.2,0-0.2,0.1-0.2,0.2v2.1
			h4c0.1,0,0.3,0,0.4,0.1c0.2,0.1,0.2,0.3,0.2,0.6c0,0.3-0.1,0.5-0.3,0.6c-0.1,0.1-0.2,0.1-0.3,0.1H953.6z"/>
		<path class="st1" d="M963.1,6013.9v7c0,0.2,0.1,0.3,0.3,0.3h4.2c0.1,0,0.2,0,0.3,0.1c0.2,0.1,0.3,0.4,0.3,0.7
			c0,0.3-0.1,0.5-0.2,0.6c-0.1,0.1-0.2,0.2-0.4,0.2h-4.9c-0.9,0-1.4-0.5-1.4-1.4v-7.5c0-0.3,0.1-0.5,0.4-0.6
			c0.2-0.1,0.3-0.1,0.5-0.1c0.2,0,0.5,0.1,0.6,0.2C963,6013.5,963.1,6013.7,963.1,6013.9z"/>
		<path class="st1" d="M972,6018.7v2.4c0,0.2,0.1,0.2,0.2,0.2h4.5c0.2,0,0.3,0.1,0.4,0.2c0.1,0.1,0.2,0.3,0.2,0.6
			c0,0.3-0.1,0.6-0.3,0.7c-0.1,0.1-0.2,0.1-0.3,0.1h-5.3c-0.8,0-1.3-0.4-1.3-1.3v-7c0-0.8,0.4-1.3,1.3-1.3h5.1
			c0.2,0,0.3,0.1,0.4,0.2c0.2,0.1,0.2,0.3,0.2,0.6c0,0.3-0.1,0.5-0.3,0.7c-0.1,0.1-0.2,0.1-0.3,0.1h-4.3c-0.2,0-0.2,0.1-0.2,0.2v2.1
			h4c0.1,0,0.3,0,0.4,0.1c0.2,0.1,0.2,0.3,0.2,0.6c0,0.3-0.1,0.5-0.3,0.6c-0.1,0.1-0.2,0.1-0.3,0.1H972z"/>
		<path class="st1" d="M981.5,6019.3v2.9c0,0.1,0,0.3-0.1,0.4c-0.2,0.2-0.4,0.3-0.8,0.3c-0.3,0-0.5-0.1-0.7-0.3
			c-0.1-0.1-0.2-0.3-0.2-0.5v-7.5c0-1,0.5-1.5,1.5-1.5h2.2c1,0,1.8,0.2,2.5,0.6c0.9,0.5,1.3,1.3,1.3,2.3c0,1.1-0.4,1.9-1.2,2.4
			c-0.7,0.4-1.6,0.6-2.7,0.6H981.5z M981.5,6017.8h1.8c0.6,0,1.1-0.1,1.5-0.4c0.3-0.3,0.5-0.7,0.5-1.2c0-0.6-0.2-1-0.7-1.2
			c-0.3-0.2-0.7-0.3-1.2-0.3h-1.6c-0.2,0-0.3,0.1-0.3,0.3V6017.8z"/>
		<path class="st1" d="M991.2,6018.6v3.6c0,0.1,0,0.3-0.1,0.4c-0.2,0.2-0.4,0.3-0.8,0.3c-0.3,0-0.5-0.1-0.7-0.3
			c-0.1-0.1-0.2-0.3-0.2-0.5v-8.3c0-0.2,0.1-0.3,0.2-0.5c0.2-0.2,0.4-0.3,0.7-0.3c0.4,0,0.6,0.1,0.8,0.4c0.1,0.1,0.1,0.2,0.1,0.3
			v3.2h4.4v-3.2c0-0.1,0-0.3,0.1-0.4c0.2-0.2,0.4-0.3,0.8-0.3c0.3,0,0.5,0.1,0.7,0.3c0.1,0.1,0.2,0.3,0.2,0.5v8.3
			c0,0.2-0.1,0.3-0.2,0.5c-0.2,0.2-0.4,0.3-0.7,0.3c-0.4,0-0.6-0.1-0.8-0.4c-0.1-0.1-0.1-0.2-0.1-0.4v-3.6H991.2z"/>
		<path class="st1" d="M1004.5,6013.1c1,0,1.8,0.3,2.5,0.8c0.7,0.5,1.3,1.2,1.6,2.1c0.2,0.6,0.4,1.3,0.4,2.1c0,1.4-0.4,2.5-1.1,3.4
			c-0.8,1.1-2,1.6-3.5,1.6c-1.5,0-2.7-0.6-3.6-1.8c-0.6-0.9-1-2-1-3.2c0-1,0.2-1.8,0.6-2.6c0.5-1.1,1.4-1.8,2.5-2.2
			C1003.4,6013.2,1003.9,6013.1,1004.5,6013.1z M1004.4,6014.6c-0.8,0-1.4,0.3-1.9,0.9c-0.5,0.6-0.8,1.5-0.8,2.5
			c0,0.9,0.2,1.7,0.6,2.3c0.5,0.8,1.2,1.2,2.1,1.2c0.8,0,1.5-0.4,2-1.1c0.4-0.6,0.6-1.4,0.6-2.4c0-1.1-0.3-1.9-0.8-2.6
			C1005.8,6014.9,1005.2,6014.6,1004.4,6014.6z"/>
		<path class="st1" d="M1017.8,6020.2l-0.1-6.3c0-0.2,0.1-0.3,0.2-0.5c0.2-0.2,0.4-0.2,0.7-0.2c0.3,0,0.5,0.1,0.7,0.3
			c0.1,0.1,0.1,0.2,0.1,0.4v7.9c0,0.3-0.1,0.6-0.3,0.8c-0.2,0.2-0.5,0.3-0.8,0.3c-0.5,0-0.9-0.3-1.2-0.8l-4-6.9l0.1,7
			c0,0.2-0.1,0.4-0.2,0.5c-0.2,0.1-0.4,0.2-0.7,0.2c-0.3,0-0.6-0.1-0.7-0.3c-0.1-0.1-0.1-0.2-0.1-0.4v-7.8c0-0.5,0.2-0.9,0.7-1.1
			c0.2-0.1,0.4-0.2,0.7-0.2c0.6,0,1.1,0.3,1.4,0.9L1017.8,6020.2z"/>
		<path class="st1" d="M1024.2,6018.7v2.4c0,0.2,0.1,0.2,0.2,0.2h4.5c0.2,0,0.3,0.1,0.4,0.2c0.1,0.1,0.2,0.3,0.2,0.6
			c0,0.3-0.1,0.6-0.3,0.7c-0.1,0.1-0.2,0.1-0.3,0.1h-5.3c-0.8,0-1.3-0.4-1.3-1.3v-7c0-0.8,0.4-1.3,1.3-1.3h5.1
			c0.2,0,0.3,0.1,0.4,0.2c0.2,0.1,0.2,0.3,0.2,0.6c0,0.3-0.1,0.5-0.3,0.7c-0.1,0.1-0.2,0.1-0.3,0.1h-4.3c-0.2,0-0.2,0.1-0.2,0.2v2.1
			h4c0.1,0,0.3,0,0.4,0.1c0.2,0.1,0.2,0.3,0.2,0.6c0,0.3-0.1,0.5-0.3,0.6c-0.1,0.1-0.2,0.1-0.3,0.1H1024.2z"/>
		<path class="st1" d="M1042.9,6020.2l-0.1-6.3c0-0.2,0.1-0.3,0.2-0.5c0.2-0.2,0.4-0.2,0.7-0.2c0.3,0,0.5,0.1,0.7,0.3
			c0.1,0.1,0.1,0.2,0.1,0.4v7.9c0,0.3-0.1,0.6-0.3,0.8c-0.2,0.2-0.5,0.3-0.8,0.3c-0.5,0-0.9-0.3-1.2-0.8l-4-6.9l0.1,7
			c0,0.2-0.1,0.4-0.2,0.5c-0.2,0.1-0.4,0.2-0.7,0.2c-0.3,0-0.6-0.1-0.7-0.3c-0.1-0.1-0.1-0.2-0.1-0.4v-7.8c0-0.5,0.2-0.9,0.7-1.1
			c0.2-0.1,0.4-0.2,0.7-0.2c0.6,0,1.1,0.3,1.4,0.9L1042.9,6020.2z"/>
		<path class="st1" d="M1049.3,6013.9v5.1c0,1.7,0.7,2.5,2.2,2.5s2.2-0.8,2.2-2.5v-5.1c0-0.2,0.1-0.4,0.2-0.5
			c0.2-0.1,0.4-0.2,0.7-0.2c0.3,0,0.5,0.1,0.7,0.3c0.1,0.1,0.2,0.3,0.2,0.5v5.3c0,1-0.2,1.8-0.6,2.3c-0.2,0.2-0.4,0.5-0.7,0.7
			c-0.8,0.6-1.6,0.9-2.7,0.9c-1.2,0-2.2-0.4-3-1.1c-0.4-0.4-0.7-0.9-0.9-1.5c-0.1-0.4-0.1-0.8-0.1-1.3v-5.3c0-0.3,0.1-0.5,0.4-0.6
			c0.2-0.1,0.3-0.1,0.5-0.1c0.2,0,0.4,0.1,0.6,0.2C1049.2,6013.5,1049.3,6013.7,1049.3,6013.9z"/>
		<path class="st1" d="M1060.1,6015.1l0.1,7.1c0,0.1,0,0.2-0.1,0.3c-0.2,0.2-0.4,0.4-0.8,0.4c-0.3,0-0.5-0.1-0.7-0.2
			c-0.1-0.1-0.2-0.3-0.2-0.5v-7.7c0-0.4,0.2-0.8,0.5-1c0.3-0.2,0.6-0.3,1-0.3c0.7,0,1.2,0.4,1.5,1.1l2.1,6.2l2.1-6.2
			c0.2-0.7,0.7-1.1,1.5-1.1c0.5,0,0.9,0.2,1.1,0.5c0.2,0.2,0.3,0.6,0.3,0.9v7.7c0,0.2-0.1,0.3-0.2,0.5c-0.2,0.2-0.4,0.2-0.7,0.2
			c-0.3,0-0.5-0.1-0.7-0.3c-0.1-0.1-0.2-0.3-0.2-0.4l0.1-7.1l-2.3,6.7c-0.1,0.2-0.1,0.3-0.3,0.5c-0.2,0.3-0.5,0.4-0.9,0.4
			c-0.6,0-0.9-0.3-1.1-0.9L1060.1,6015.1z"/>
		<path class="st1" d="M1077.1,6017.8c1.6,0.3,2.3,1,2.3,2.3c0,1-0.5,1.7-1.4,2.2c-0.6,0.3-1.4,0.5-2.4,0.5h-2.7
			c-0.9,0-1.3-0.4-1.3-1.3v-6.9c0-0.9,0.4-1.3,1.3-1.3h2.4c0.9,0,1.7,0.1,2.3,0.4c0.9,0.4,1.3,1.1,1.3,2
			C1079,6016.9,1078.4,6017.6,1077.1,6017.8z M1073.4,6017.2h1.9c0.4,0,0.8-0.1,1.2-0.2c0.5-0.2,0.7-0.6,0.7-1c0-0.5-0.2-0.8-0.7-1
			c-0.3-0.1-0.7-0.2-1.1-0.2h-1.7c-0.2,0-0.3,0.1-0.3,0.3V6017.2z M1073.4,6018.6v2.5c0,0.2,0.1,0.3,0.3,0.3h1.7
			c0.6,0,1.1-0.1,1.4-0.2c0.4-0.2,0.6-0.6,0.6-1.1c0-0.6-0.3-1-0.8-1.2c-0.3-0.2-0.8-0.2-1.3-0.2H1073.4z"/>
		<path class="st1" d="M1083.8,6018.7v2.4c0,0.2,0.1,0.2,0.2,0.2h4.5c0.2,0,0.3,0.1,0.4,0.2c0.1,0.1,0.2,0.3,0.2,0.6
			c0,0.3-0.1,0.6-0.3,0.7c-0.1,0.1-0.2,0.1-0.3,0.1h-5.3c-0.8,0-1.3-0.4-1.3-1.3v-7c0-0.8,0.4-1.3,1.3-1.3h5.1
			c0.2,0,0.3,0.1,0.4,0.2c0.2,0.1,0.2,0.3,0.2,0.6c0,0.3-0.1,0.5-0.3,0.7c-0.1,0.1-0.2,0.1-0.3,0.1h-4.3c-0.2,0-0.2,0.1-0.2,0.2v2.1
			h4c0.1,0,0.3,0,0.4,0.1c0.2,0.1,0.2,0.3,0.2,0.6c0,0.3-0.1,0.5-0.3,0.6c-0.1,0.1-0.2,0.1-0.3,0.1H1083.8z"/>
		<path class="st1" d="M1093.3,6018.8v3.4c0,0.2-0.1,0.4-0.2,0.5c-0.2,0.2-0.4,0.2-0.7,0.2c-0.4,0-0.6-0.1-0.8-0.4
			c-0.1-0.1-0.1-0.2-0.1-0.4v-7.3c0-1,0.5-1.6,1.6-1.6h2.3c0.9,0,1.7,0.2,2.2,0.5c0.3,0.2,0.6,0.4,0.8,0.7c0.3,0.4,0.5,1,0.5,1.5
			c0,1.4-0.8,2.3-2.3,2.5l2.5,3.1c0.1,0.1,0.2,0.3,0.2,0.5c0,0.3-0.1,0.5-0.4,0.7c-0.2,0.1-0.4,0.2-0.6,0.2c-0.3,0-0.6-0.2-0.8-0.5
			l-2.6-3.7H1093.3z M1093.3,6017.3h1.8c1.3,0,1.9-0.4,1.9-1.3c0-0.8-0.6-1.3-1.9-1.3h-1.6c-0.2,0-0.3,0.1-0.3,0.3V6017.3z"/>
	</g>
</g>
</svg>
