<?xml version="1.0" encoding="utf-8"?>
<!-- Generator: Adobe Illustrator 26.0.2, SVG Export Plug-In . SVG Version: 6.00 Build 0)  -->
<svg version="1.1" id="レイヤー_1" xmlns="http://www.w3.org/2000/svg" xmlns:xlink="http://www.w3.org/1999/xlink" x="0px"
	 y="0px" viewBox="0 0 333.5 42" style="enable-background:new 0 0 333.5 42;" xml:space="preserve">
<style type="text/css">
	.st0{enable-background:new    ;}
	.st1{fill:#06438D;}
</style>
<g id="グループ_30" transform="translate(-1129.139 -74)">
	<g class="st0">
		<path class="st1" d="M1205.9,82.6c3.2,0,5.6,1.3,7.1,3.9c1.4,2.4,2.1,6.1,2.1,11c0,5.6-0.9,9.6-2.7,12.1c-1.5,2-3.7,3.1-6.5,3.1
			c-3.3,0-5.6-1.3-7.1-4c-1.3-2.4-2-6.1-2-11.1c0-5.6,0.9-9.6,2.7-12C1200.9,83.6,1203.1,82.6,1205.9,82.6z M1205.9,86.3
			c-1.6,0-2.8,0.9-3.4,2.7c-0.6,1.7-0.9,4.5-0.9,8.4c0,4.5,0.4,7.6,1.1,9.2c0.6,1.4,1.6,2.1,3.1,2.1c1.7,0,2.8-0.9,3.5-2.8
			c0.6-1.7,0.9-4.6,0.9-8.5c0-4.5-0.4-7.5-1.1-9.1C1208.4,87,1207.4,86.3,1205.9,86.3z"/>
		<path class="st1" d="M1232.2,82.9v25.5h5.4v3.7h-15.6v-3.7h5.7V87.7c-1.6,1.1-3.3,1.9-5.4,2.6l-0.8-4c2.3-0.7,4.6-1.8,6.8-3.4
			H1232.2z"/>
		<path class="st1" d="M1244,90.6c0.3-2.7,1.4-4.8,3.2-6.2c1.5-1.2,3.4-1.8,5.7-1.8c2.8,0,5,0.8,6.6,2.3c1.4,1.4,2.1,3.2,2.1,5.5
			c0,1.7-0.5,3.4-1.4,4.9c-0.9,1.4-2.3,3-4.4,4.9c-3.7,3.3-6,6-7.1,8.1h13v3.8h-18v-3.4c1.6-3.4,4.4-7,8.3-10.8
			c2-1.9,3.3-3.4,3.9-4.5c0.5-0.9,0.8-1.9,0.8-3.1c0-1.3-0.4-2.4-1.2-3.1c-0.7-0.6-1.5-0.9-2.6-0.9c-2.5,0-3.9,1.8-4.1,5.3
			L1244,90.6z"/>
		<path class="st1" d="M1276.4,82.6c3.2,0,5.6,1.3,7.1,3.9c1.4,2.4,2.1,6.1,2.1,11c0,5.6-0.9,9.6-2.7,12.1c-1.5,2-3.7,3.1-6.5,3.1
			c-3.3,0-5.6-1.3-7.1-4c-1.3-2.4-2-6.1-2-11.1c0-5.6,0.9-9.6,2.7-12C1271.4,83.6,1273.6,82.6,1276.4,82.6z M1276.4,86.3
			c-1.6,0-2.8,0.9-3.4,2.7c-0.6,1.7-0.9,4.5-0.9,8.4c0,4.5,0.4,7.6,1.1,9.2c0.6,1.4,1.6,2.1,3.1,2.1c1.7,0,2.8-0.9,3.5-2.8
			c0.6-1.7,0.9-4.6,0.9-8.5c0-4.5-0.4-7.5-1.1-9.1C1278.9,87,1277.8,86.3,1276.4,86.3z"/>
		<path class="st1" d="M1302.7,98.7v3.7h-11.1v-3.7H1302.7z"/>
		<path class="st1" d="M1320.7,82.9v25.5h5.4v3.7h-15.6v-3.7h5.7V87.7c-1.6,1.1-3.3,1.9-5.4,2.6l-0.8-4c2.3-0.7,4.6-1.8,6.8-3.4
			H1320.7z"/>
		<path class="st1" d="M1332.5,90.6c0.3-2.7,1.4-4.8,3.2-6.2c1.5-1.2,3.4-1.8,5.7-1.8c2.8,0,5,0.8,6.6,2.3c1.4,1.4,2.1,3.2,2.1,5.5
			c0,1.7-0.5,3.4-1.4,4.9c-0.9,1.4-2.3,3-4.4,4.9c-3.7,3.3-6,6-7.1,8.1h13v3.8h-18v-3.4c1.6-3.4,4.4-7,8.3-10.8
			c2-1.9,3.3-3.4,3.9-4.5c0.5-0.9,0.8-1.9,0.8-3.1c0-1.3-0.4-2.4-1.2-3.1c-0.7-0.6-1.5-0.9-2.6-0.9c-2.5,0-3.9,1.8-4.1,5.3
			L1332.5,90.6z"/>
		<path class="st1" d="M1355.9,88.8c0.6-2.2,1.7-3.8,3.5-4.9c1.5-0.9,3.2-1.4,5.3-1.4c2.8,0,5,0.8,6.6,2.3c1.4,1.3,2.1,3,2.1,5
			c0,1.8-0.6,3.4-1.7,4.5c-1,1-2.3,1.7-3.9,2v0.3c2.1,0.4,3.7,1.4,4.7,2.8c0.9,1.2,1.4,2.7,1.4,4.5c0,2.7-1,4.9-2.9,6.5
			c-1.7,1.4-3.8,2.1-6.4,2.1c-4.9,0-8-2.1-9.2-6.4l4.7-1.4c0.3,1.5,0.9,2.6,1.7,3.3c0.7,0.6,1.6,0.8,2.8,0.8c1.5,0,2.6-0.5,3.4-1.5
			c0.7-0.9,1.1-2,1.1-3.4c0-3.5-1.9-5.3-5.6-5.3h-2.2v-3.9h2c3.5,0,5.3-1.5,5.3-4.6c0-1.4-0.4-2.4-1.2-3.2c-0.7-0.6-1.6-0.9-2.8-0.9
			c-1.1,0-2,0.4-2.8,1.1c-0.7,0.7-1.1,1.7-1.3,2.9L1355.9,88.8z"/>
		<path class="st1" d="M1391.2,98.7v3.7h-11.1v-3.7H1391.2z"/>
		<path class="st1" d="M1412.3,82.9v19h3.6v3.6h-3.6v6.6h-4.4v-6.6h-11.1v-3.4l9.4-19.3H1412.3z M1407.9,101.9v-6.4
			c0-2,0.1-5,0.2-8.9h-0.5c-0.9,2.3-1.9,4.8-3.2,7.6l-3.6,7.7H1407.9z"/>
		<path class="st1" d="M1437.7,83.1v3.8h-11.5l-0.2,5.8c0,1.1-0.1,2-0.2,2.7c1.1-1.7,2.8-2.5,5-2.5c2.6,0,4.6,1,6.2,2.9
			c1.3,1.7,2,3.9,2,6.6c0,3.3-1,5.8-2.9,7.7c-1.7,1.6-3.8,2.4-6.4,2.4c-2.5,0-4.5-0.6-6-1.8c-1.4-1.1-2.3-2.6-2.8-4.5l4.6-1.4
			c0.5,2.7,1.9,4,4.1,4c1.5,0,2.6-0.6,3.4-1.9c0.7-1.1,1.1-2.6,1.1-4.5c0-2-0.4-3.5-1.3-4.5c-0.7-0.9-1.7-1.3-3-1.3
			c-2.1,0-3.4,1.1-4.1,3.3l-4-0.6l0.6-16.3H1437.7z"/>
		<path class="st1" d="M1462.1,87.3l-4.6,1.7c-0.4-1.9-1.4-2.9-3-2.9c-3.3,0-5.1,3.4-5.3,10.3c1.3-2.3,3.3-3.4,5.9-3.4
			c2.4,0,4.3,0.9,5.7,2.8c1.2,1.7,1.8,3.9,1.8,6.5c0,3.3-0.9,5.9-2.8,7.8c-1.6,1.6-3.6,2.4-6,2.4c-3.1,0-5.5-1.2-7.1-3.7
			c-1.5-2.3-2.2-5.7-2.2-10.2c0-10.7,3.3-16.1,10-16.1C1458.2,82.6,1460.7,84.2,1462.1,87.3z M1449.2,100.4c0,5.7,1.5,8.6,4.6,8.6
			c2.7,0,4.1-2.1,4.1-6.4c0-3.9-1.3-5.9-3.9-5.9C1452,96.7,1450.4,97.9,1449.2,100.4z"/>
	</g>
	<g id="電話機のフリーアイコン素材" transform="translate(1129.139 29.4)">
		<path id="パス_9" class="st1" d="M33.5,60.7v-7.9l-4.3,0.8v3.3h-7.7v-3.3l-4.3-0.8v7.9h-5.1L6.5,73.3v11.3c0,1,0.7,1.9,1.8,2
			h34.3c1-0.1,1.8-0.9,1.8-2V73.3l-5.8-12.6H33.5z M25.4,80.9c-4,0-7.2-3.2-7.2-7.2c0-4,3.2-7.2,7.2-7.2c4,0,7.2,3.2,7.2,7.2
			C32.6,77.7,29.4,80.9,25.4,80.9L25.4,80.9z"/>
		<path id="パス_10" class="st1" d="M43.1,47.2c-3.8-1.6-12.2-2.6-17.7-2.6c-5.3,0-13.9,1-17.7,2.6C3.9,48.8,0,52.5,0,56.8
			c0,1.5,0.5,3,1.5,4.1h8.2c0.5,0,1.6-2.1,1.6-3c-0.1-1.3-0.4-2.5-0.8-3.7c0.1-1.1,0.5-1.8,2.2-2.6c3.1-1.3,9.9-1.4,12.8-1.4
			s9.7,0.1,12.8,1.4c1.7,0.7,2.1,1.5,2.2,2.6c-0.4,1.2-0.7,2.4-0.8,3.7c0,0.9,1.1,3,1.6,3h8.2c1-1.1,1.5-2.6,1.5-4.1
			C50.9,52.5,47,48.8,43.1,47.2z"/>
	</g>
</g>
</svg>
